<svg width="900" height="500" xmlns="http://www.w3.org/2000/svg">
 <metadata id="metadata8">image/svg+xml</metadata>
 <defs>
  <clipPath clipPathUnits="userSpaceOnUse" id="clipPath124">
   <path d="m4052.912109,2902.265625c-3.959961,-82.009766 -9.060059,-186.149658 -15.580078,-323.029785c-4.199707,-85.869873 -9.060059,-187.679932 -15.060059,-310.399902c-7.179688,-150.699707 -16.319824,-340.269897 -28.179688,-585.889893c-7.42041,-152.290039 -15.990234,-330.949951 -26.290039,-543.650024c-5.840332,-122.239929 -12.359863,-257.289856 -19.599854,-407.369934c-8.160156,-167.669983 -17.220215,-356.27002 -27.530273,-569.950027c-11.769531,-244.030106 -25.359863,-525.531113 -41.179688,-853.85112c-6.180176,-128.47583 -12.859863,-265.308899 -19.77002,-410.788879l-1916.069458,0c66.899902,146.640991 129.84021,284.461121 188.990112,413.929993c149.689941,327.812012 278.050049,608.889999 389.360107,852.620148c97.369873,213.419922 183.539795,401.769928 259.909912,569.270172c68.389893,149.959778 130.080078,284.889709 185.859863,407.049927c96.970215,212.469849 178.540039,391 247.980225,543.1698c112.119629,245.469971 198.629883,434.950073 267.429688,585.579956c56.010254,122.659912 102.470215,224.539795 141.700195,310.369873c62.52002,136.790039 110.02002,240.929932 147.419922,322.939697c30.239746,66.140137 55.199707,120.69043 76.049316,166.42041c0.240234,0 0.580078,1060.150391 0.820313,2628.219727l211.889893,0l-0.160156,-2629.179688c-2.319824,-45.5 -4.850098,-99.780273 -7.990234,-165.460449z" id="path126"/>
  </clipPath>
  <linearGradient x1="-1.0178" y1="0" x2="-1.017328" y2="0" gradientTransform="matrix(2117.42,0,0,-2117.42,2155.1,3399.79)" spreadMethod="pad" id="linearGradient128">
   <stop stop-color="#fce98f" offset="0" id="stop130"/>
   <stop stop-color="#fac708" offset="0.5" id="stop132"/>
   <stop stop-color="#f7a40e" offset="1" id="stop134"/>
  </linearGradient>
  <clipPath clipPathUnits="userSpaceOnUse" id="clipPath154">
   <path d="m-210.928497,-1202.312988l0,8516l6096.999786,0l0,-8516l-6096.999786,0z" id="path156"/>
  </clipPath>
  <clipPath clipPathUnits="userSpaceOnUse" id="clipPath160">
   <path d="m4371.021484,2802.616455c33.939941,-82.009766 77.119629,-186.209717 133.799805,-323.099609c35.5,-85.860107 77.600098,-187.72998 128.509766,-310.52002c62.44043,-150.779785 140.960449,-340.449707 242.800293,-586.229614c63.089844,-152.370239 137.149902,-331.209961 225.22998,-544.110229c50.660156,-122.34967 106.77002,-257.589905 168.899902,-407.779907c69.52002,-167.870056 147.620117,-356.710022 236.27002,-570.689972c101.260254,-244.470016 218.069824,-526.461151 354.260254,-855.319977c8.469727,-20.41803 17.049805,-41.219055 25.699707,-62.071045l0,-345.10907l-1773.830078,0c-0.739746,145.301025 -1.490234,281.941101 -2.300293,410.313049c-1.819336,328.41684 -3.379883,609.996918 -4.789551,854.087067c-1.150391,213.739929 -2.220703,402.329865 -3.120605,570.010162c-0.82959,150.079834 -1.57959,285.179932 -2.229492,407.479614c-1.22998,212.650146 -2.220215,391.370117 -3.040527,543.650146c-1.409424,245.659912 -2.479736,435.26001 -3.299561,585.959717c-0.740234,122.659912 -1.319824,224.530029 -1.72998,310.399902c-0.740234,136.820068 -1.330078,241.02002 -1.72998,323.029785c-0.419922,66.17041 -0.75,120.69043 -0.910156,166.450195c0,0 0,0 0.080078,0l0,3391.440186l211.900146,0c0.149902,-1568.07959 0.410156,-3391.409912 0.490234,-3391.409912c19.029785,-45.790039 41.609863,-100.310059 69.040039,-166.480469l0,0z" id="path162"/>
  </clipPath>
  <linearGradient x1="-2.392877" y1="0" x2="-2.392321" y2="0" gradientTransform="matrix(1796.97,0,0,-1796.97,4300.44,3781.41)" spreadMethod="pad" id="linearGradient164">
   <stop stop-color="#f68341" offset="0" id="stop166"/>
   <stop stop-color="#f26319" offset="0.5" id="stop168"/>
   <stop stop-color="#d55221" offset="1" id="stop170"/>
  </linearGradient>
 </defs>
 <g>
  <title>Layer 1</title>
  <ellipse y="NaN" x="NaN" y2="NaN" x2="NaN" y1="NaN" x1="NaN" r="NaN" transform="rotate(0.2788001000881195 455.9927673339974,391.8814697265649) matrix(1.6491701475470926,0.4840918143397977,-0.7690206694018182,1.0381382460137245,-36.969807712808745,-185.07846071333992) " id="svg_1" cy="340" cx="460" stroke-width="5" stroke="#000000" fill="#FF0000"/>
  <ellipse y="NaN" x="NaN" y2="NaN" x2="NaN" y1="NaN" x1="NaN" r="NaN" transform="rotate(0.2788001000881195 437.3337707519887,486.8648681640671) matrix(1.7099191248676124,-0.3917699889288428,0.6223596644543244,1.076379198201983,-592.7177636629293,205.54642215915032) " id="svg_2" cy="420" cx="450" stroke-width="5" stroke="#000000" fill="#FF0000"/>
  <ellipse y="NaN" x="NaN" y2="NaN" x2="NaN" y1="NaN" x1="NaN" r="NaN" transform="rotate(0.2788001000881195 114.85680389410446,567.7697143554669) " id="svg_3" cy="570" cx="110" stroke-width="5" stroke="#000000" fill="#FF0000"/>
  <ellipse y="NaN" x="NaN" y2="NaN" x2="NaN" y1="NaN" x1="NaN" r="NaN" transform="rotate(0.2788001000881195 276.2080383300339,691.1203613281227) " id="svg_4" cy="690" cx="280" stroke-width="5" stroke="#000000" fill="#FF0000"/>
  <ellipse y="NaN" x="NaN" y2="NaN" x2="NaN" y1="NaN" x1="NaN" r="NaN" transform="rotate(0.2788001000881195 279.8473205566327,691.1380615234361) " id="svg_5" cy="690" cx="280" stroke-width="5" stroke="#000000" fill="#FF0000"/>
  <g id="svg_86">
   <g transform="rotate(0.2788001000881195 166.62455749512642,242.3184967041021) " id="g120">
    <g id="g122" clip-path="url(#clipPath124)">
     <path fill="url(#linearGradient128)" fill-rule="nonzero" d="m280.429291,185.980392c-15.403564,0.198029 -34.962952,0.453308 -60.672165,0.778763c-16.128815,0.210251 -35.251053,0.452972 -58.300537,0.753204c-28.305099,0.358521 -63.91095,0.815308 -110.043964,1.408295c-28.603815,0.371216 -62.160277,0.799393 -102.110645,1.314362c-22.959351,0.291794 -48.325035,0.617813 -76.513199,0.979691c-31.492699,0.408035 -66.916252,0.86084 -107.049995,1.376221c-45.834702,0.588409 -98.707657,1.267792 -160.373489,2.058578c-24.130585,0.308777 -49.831055,0.643005 -77.155945,0.988007l-0.270599,103.418427c27.5513,-3.582733 53.445068,-6.9534 77.770111,-10.121002c61.589447,-8.016357 114.398773,-14.890503 160.190964,-20.851563c40.097519,-5.214294 75.485107,-9.829102 106.955002,-13.918823c28.174583,-3.662506 53.525406,-6.966248 76.476921,-9.953461c39.919337,-5.192932 73.461388,-9.56131 102.051338,-13.280029c46.11927,-6.004395 81.719131,-10.637177 110.019989,-14.321655c23.045227,-2.999588 42.186752,-5.48761 58.312225,-7.588455c25.700668,-3.348267 45.266144,-5.891983 60.674377,-7.894806c12.426849,-1.619522 22.675323,-2.956253 31.267578,-4.072784c0,-0.01297 199.113495,0.172531 493.623199,0.461197l0.029907,-11.436569l-493.803467,-0.496933c-8.546082,0.116333 -18.741119,0.242462 -31.077606,0.399338" id="path136"/>
    </g>
   </g>
   <path transform="rotate(0.2788001000881195 190.676513671875,307.0960006713867)" fill="#183b34" fill-rule="nonzero" d="m280.057007,203.235992c-15.395996,2.24501 -34.963013,5.093002 -60.669006,8.833008c-16.121002,2.345001 -35.251999,5.130997 -58.298996,8.487c-28.313004,4.123993 -63.908508,9.307999 -110.035305,16.024994c-28.5793,4.16301 -62.123199,9.042999 -102.044098,14.85701c-22.942699,3.343002 -48.295002,7.034988 -76.4576,11.133011c-31.469009,4.577972 -66.845001,9.735992 -106.936996,15.569c-45.792007,6.671997 -98.606003,14.358978 -160.173019,23.322998c-24.349976,3.54599 -50.264984,7.321991 -77.853973,11.334991l-0.268005,102.695984l2.580994,0.002014c26.846985,-7.056 52.125,-13.700012 75.891998,-19.94101c61.485016,-16.15799 114.243011,-30.018005 159.981995,-42.044006c40.057007,-10.518982 75.410004,-19.816986 106.843002,-28.082001c28.149307,-7.392975 53.486206,-14.04599 76.412205,-20.073975c39.909999,-10.489014 73.430799,-19.299011 102.005798,-26.807007c46.106998,-12.119019 81.699993,-21.468994 109.999004,-28.906006c23.044998,-6.059006 42.167999,-11.082001 58.306,-15.326004c25.703003,-6.750992 45.274994,-11.89299 60.675995,-15.942001c12.438995,-3.26799 31.283997,-8.286987 31.283997,-8.313995l542.701996,0.555008l0.030029,-11.412003l-542.795013,-0.507004c-8.572021,1.244995 -18.78302,2.738998 -31.181,4.539993" id="path138"/>
   <path transform="rotate(0.2788001000881195 162.65118408202653,313.60388183593983) " fill="#41b93c" fill-rule="nonzero" d="m279.979919,220.230103c-15.401337,4.284454 -34.974426,9.734116 -60.678925,16.879898c-16.137909,4.488235 -35.26767,9.80835 -58.30751,16.223846c-28.292816,7.87233 -63.895027,17.774734 -109.992565,30.604752c-28.565453,7.953094 -62.097816,17.2789 -101.996559,28.37677c-22.928936,6.379456 -48.266842,13.428497 -76.403492,21.256744c-31.435188,8.741394 -66.791145,18.585083 -106.837273,29.723511c-45.74028,12.728271 -98.477829,27.406097 -159.965378,44.507416c-8.89801,2.476196 -18.01712,5.015228 -27.341309,7.606598l245.351883,0.251251c17.274521,-6.830078 33.531799,-13.256622 48.857025,-19.310303c28.133881,-11.114838 53.446106,-21.124969 76.356777,-30.186096c39.890906,-15.757935 73.397985,-29.005615 101.949459,-40.298096c46.100334,-18.21936 81.672264,-32.283752 109.980919,-43.473267c23.039169,-9.110535 42.161957,-16.663055 58.299072,-23.040833c25.70314,-10.160828 45.272888,-17.900162 60.688263,-23.990021c12.431335,-4.922546 31.283173,-12.453827 31.283356,-12.502899l435.59201,0.44603l0.029785,-11.392319l-435.673004,-0.366226c-8.575958,2.38765 -18.79541,5.236771 -31.192535,8.683243" id="path140"/>
   <path transform="rotate(0.2788001000881195 262.84844970702244,320.5786743164028) " fill="#7fcc2b" fill-rule="nonzero" d="m279.902344,237.841644c-15.406738,6.325684 -34.986572,14.367233 -60.690689,24.923676c-16.137756,6.622833 -35.257309,14.47818 -58.301437,23.9487c-28.296356,11.620758 -63.883186,26.231415 -109.976078,45.1633c-28.550602,11.73172 -62.059574,25.495972 -101.938583,41.867432c-22.902401,9.412109 -48.23621,19.809143 -76.350643,31.355133c-8.683014,3.566223 -17.66394,7.256653 -26.959946,11.071075l124.624054,0.127594c30.673426,-16.189728 57.286303,-30.23172 80.609287,-42.529572c24.615955,-12.998901 46.069859,-24.316437 64.941471,-34.270508c16.700844,-8.814117 31.617165,-16.678589 45.002785,-23.744171c23.041382,-12.160065 42.16684,-22.252625 58.303925,-30.764038c25.710251,-13.562775 45.276108,-23.894409 60.696243,-32.020676c12.435638,-6.564087 31.288544,-16.625031 31.288696,-16.683258l368.830688,0.37767l0.029846,-11.42746l-368.905823,-0.377731c0,0 -18.796692,7.891098 -31.203796,12.982834" id="path142"/>
  </g>
  <g id="svg_87">
   <path transform="rotate(0.2788001000881195 424.08578491210915,43.97563934326394) " fill="#3171bb" fill-rule="nonzero" d="m281.152679,55.793251c-15.391632,-5.951744 -34.947754,-13.500816 -60.654831,-23.4254c-16.126328,-6.233276 -35.247635,-13.616058 -58.295731,-22.528725c-1.403641,-0.539558 -2.900833,-1.118649 -4.339966,-1.671738l-110.902122,-0.11356c1.691238,0.455681 3.429214,0.923782 5.088593,1.366425c46.168503,12.404179 81.783684,21.969837 110.107567,29.572063c23.04953,6.194435 42.166962,11.337196 58.305984,15.666885c25.692322,6.901024 45.248703,12.153854 60.641037,16.292122c12.372192,3.317055 22.57135,6.058037 31.13501,8.360733l488.943359,0.585396l0.029968,-11.428497c-294.498901,-0.327423 -488.828613,-0.580452 -488.828583,-0.606323c-8.570587,-3.321754 -18.813599,-7.27298 -31.230286,-12.069382" id="path146"/>
   <path d="m220.425003,56.9146c-86.622009,-21.926201 -122.238304,-30.940201 -168.410805,-42.624901c-8.656597,-2.1916 -17.819599,-4.50892 -27.408798,-6.93787l-336.815392,-0.34489c28.188995,3.817861 54.244995,7.352961 78.298996,10.610061c40.188995,5.448299 75.64299,10.255899 107.158997,14.530598c28.211395,3.816803 53.601196,7.2626 76.585098,10.381001c39.964701,5.413002 73.5494,9.9646 102.151901,13.844902c46.1511,6.254398 81.761002,11.079998 110.082001,14.919498c23.042999,3.123901 42.168991,5.713203 58.300003,7.899597c25.700989,3.485405 45.264984,6.137802 60.661987,8.221901c12.355011,1.676102 22.557007,3.060204 31.112,4.215904l569.041992,0.626999l0.028992,-11.431702c-294.497986,-0.319496 -568.891968,-0.627396 -568.891968,-0.650101c-8.587006,-2.169899 -18.830994,-4.763496 -31.251007,-7.906799" transform="rotate(0.2788001000881195 284.5010070800781,49.632168769836426)" fill="#1a1e46" fill-rule="nonzero" id="path148"/>
   <g transform="rotate(0.2788001000881195 239.00593566894787,55.86891174315938) " id="g150">
    <g id="g152" clip-path="url(#clipPath154)">
     <g id="g158" clip-path="url(#clipPath160)">
      <path fill="url(#linearGradient164)" fill-rule="nonzero" d="m-471.236237,102.396088l21.223358,0.021729l-0.000153,0.053925l33.80722,0.034622l-0.000153,0.054001l31.928284,0.032715l-0.000153,0.053925l33.807159,0.034622l-0.000122,0.05394l33.619598,0.034424l-0.000122,0.054016l33.618683,0.034424l-0.000153,0.054001l33.056229,0.033844l-0.000153,0.05397l33.807098,0.034622l-0.000137,0.054001l34.182617,0.035004l-0.000137,0.053909l33.994583,0.034805l-0.000137,0.05394l34.370636,0.035202l-0.000175,0.054108l33.994583,0.034805l-0.000137,0.053909l34.558582,0.035385l-0.000118,0.05397l32.867684,0.033661l-0.000157,0.053955l33.619162,0.034439l-0.000158,0.05397l34.370644,0.035187l-0.000164,0.053986l32.86776,0.033646l-0.000168,0.05397l33.055702,0.033844l-0.000114,0.053986l33.807137,0.034607l-0.000214,0.054016l32.492355,0.033264l-0.000168,0.053955l35.309418,0.036148l-0.000122,0.05394l34.370544,0.035187l-0.000153,0.054016l33.99469,0.034805l-0.000153,0.054031l657.734009,0.673492l0.03009,-11.496544l-636.886017,-0.652138l0.000153,-0.054016l-0.563538,-0.00058l0.000153,-0.05397l-0.375916,-0.000389l0.000153,-0.05397l-0.563477,-0.00058l0.000153,-0.054039l-0.375397,-0.000389l0.000061,-0.053902l-0.375427,-0.000381l0.000153,-0.05397l-0.563477,-0.00058l0.000092,-0.05397l-0.375916,-0.000389l0.000153,-0.053902l-0.563477,-0.00058l0.000153,-0.054039l-0.375488,-0.000389l0.000122,-0.053902l-0.375427,-0.000381l0.000153,-0.054008l-0.563446,-0.00058l0.000153,-0.054008l-0.375946,-0.000381l0.000092,-0.05397l-0.563354,-0.00058l0.000031,-0.05397l-0.375427,-0.000389l0.000153,-0.053902l-0.375427,-0.000381l0.000183,-0.054047l-0.563477,-0.000572l0.000153,-0.053978l-0.376099,-0.000381l0.000183,-0.053978l-0.563416,-0.000572l0.000183,-0.05394l-0.375488,-0.000381l0.000183,-0.054077l-0.375977,-0.000381l0.000092,-0.053947l-0.563477,-0.000572l0.000153,-0.05394l-0.375427,-0.000381l0.000061,-0.053909l-0.563446,-0.000572l0.000244,-0.054047l-0.375397,-0.000381l0.000092,-0.054008l-0.563507,-0.00058l0.000153,-0.053932l-0.375916,-0.000389l0.000153,-0.05394l-0.375549,-0.000381l0.000153,-0.054008l-0.563477,-0.00058l0.000183,-0.05397l-0.375397,-0.000381l0.000153,-0.054047l-0.563477,-0.00058l0.000092,-0.053932l-0.375916,-0.000389l0.000122,-0.053932l-0.375427,-0.000389l0.000153,-0.05397l-0.563477,-0.00058l0.000092,-0.05397l-0.375488,-0.000389l0.000183,-0.054008l-0.563354,-0.000572l0.000122,-0.05394l-0.376038,-0.000381l0.000153,-0.053978l-0.375397,-0.000381l0.000092,-0.054047l-0.563446,-0.000572l0.000122,-0.053833l-0.375427,-0.000389l0.000092,-0.054077l-0.563324,-0.000572l0.000153,-0.054047l-0.376129,-0.000381l0.000183,-0.053871l-0.563477,-0.00058l0.000153,-0.05397l-0.375366,-0.000381l0.000061,-0.054077l-0.375458,-0.000389l0.000153,-0.053864l-0.563965,-0.00058l0.000275,-0.054077l-0.37558,-0.000389l0.000153,-0.053864l-0.563446,-0.00058l0.000153,-0.05397l-0.375366,-0.000381l0.000061,-0.053978l-0.375977,-0.000381l0.000122,-0.054008l-0.562897,-0.00058l0.000061,-0.05394l-0.375946,-0.000381l0.000153,-0.054008l-0.563477,-0.00058l0.000183,-0.054001l-0.375549,-0.000389l0.000153,-0.05397l-0.563324,-0.00058l0.000092,-0.054008l-0.376007,-0.000374l0.000153,-0.053909l-0.375397,-0.000389l0.000061,-0.053932l-0.563446,-0.00058l0.000244,-0.054008l-0.375549,-0.000381l0.000183,-0.05394l-0.563324,-0.00058l0.000092,-0.054115l-0.375488,-0.000381l0.000183,-0.053902l-0.375977,-0.000389l0.000122,-0.054001l-0.563507,-0.00058l0.000153,-0.053871l-0.375458,-0.000381l0.000092,-0.054047l-0.563446,-0.000572l0.000214,-0.054008l-0.375366,-0.000389l0.000092,-0.053864l-0.376129,-0.000389l0.000275,-0.054039l-0.563416,-0.00058l0.000061,-0.05397l-0.375458,-0.000381l0.000153,-0.054008l-0.563477,-0.00058l0.000183,-0.05397l-0.376038,-0.000389l0.000275,-0.05394l-0.562927,-0.000572l0.000061,-0.05397l-0.376007,-0.000389l0.000122,-0.05397l-0.375366,-0.000389l0.000153,-0.053932l-0.563446,-0.00058l0.000092,-0.05394l-0.375946,-0.000381l0.000153,-0.054077l-0.563507,-0.00058l0.000214,-0.05394l-0.37558,-0.000381l0.000244,-0.05397l-0.375397,-0.000381l0.000092,-0.054047l-0.563477,-0.00058l0.000153,-0.053902l-0.375916,-0.000389l0.000061,-0.054008l-0.563385,-0.000572l0.000153,-0.053871l-0.375549,-0.000381l0.000153,-0.054008l-0.563446,-0.00058l0.000153,-0.054008l-0.375397,-0.000381l0.000092,-0.054047l-0.376007,-0.000381l0.000153,-0.05394l-0.563385,-0.000572l0.000153,-0.053871l-0.375488,-0.000381l0.000092,-0.054077l-0.563446,-0.00058l0.000214,-0.054047l-0.375519,-0.000381l0.000122,-0.053871l-0.375916,-0.000381l0.000153,-0.05397l-0.563446,-0.00058l0.000092,-0.054115l-0.375427,-0.000381l0.000183,-0.053902l-0.563507,-0.00058l0.000183,-0.05394l-0.375549,-0.000381l0.000153,-0.053795l-0.375916,-0.000389l0.000153,-0.054115l-0.563477,-0.000572l0.000153,-0.054077l-0.375366,-0.000389l0.000061,-0.053902l-0.563477,-0.000572l0.000153,-0.053978l-0.375946,-0.000381l0.000244,-0.054047l-0.563446,-0.000572l0.000061,-0.053871l-0.375427,-0.000381l0.000153,-0.054008l-0.375549,-0.000389l0.000153,-0.054008l-0.563416,-0.000572l0.000153,-0.054008l-0.376007,-0.000389l0.000092,-0.053864l-0.563324,-0.00058l0.000183,-0.05397l-0.37558,-0.000389l0.000183,-0.05397l-0.375519,-0.000381l0.000122,-0.054077l-0.563477,-0.00058l0.000183,-0.053871l-0.375946,-0.000381l0.000153,-0.054008l-0.563477,-0.00058l0.000092,-0.054008l-0.375397,-0.000381l0.000244,-0.05397l-0.563477,-0.00058l0.000183,-0.054008l-0.37558,-0.000381l0.000153,-0.053902l-0.375916,-0.000389l0.000153,-0.054077l-0.563477,-0.00058l0.000092,-0.053902l-0.375397,-0.000381l0.000153,-0.053902l-0.563477,-0.00058l0.000183,-0.05397l-0.375549,-0.000389l0.000153,-0.054039l-0.375916,-0.000389l0.000122,-0.053902l-0.563477,-0.00058l0.000183,-0.054039l-0.375488,-0.000381l0.000092,-0.053978l-0.563385,-0.000572l0.000214,-0.053909l-0.375549,-0.000381l0.000214,-0.054077l-0.563965,-0.00058l0.000122,-0.053932l-0.375443,-0.000389l0.000183,-0.05397l-0.375488,-0.000389l0.000122,-0.054039l-0.563477,-0.00058l0.000153,-0.053894l-0.375397,-0.000389l0.000122,-0.053909l-0.563461,-0.000572l0.000168,-0.054047l-0.375961,-0.000381l0.000122,-0.05397l-0.375473,-0.000389l0.000137,-0.05397l-0.563477,-0.000572l0.000122,-0.053909l-0.375946,-0.000381l0.000168,-0.054047l-0.562897,-0.000565l0.000107,-0.053986l-0.375961,-0.000381l0.000183,-0.05397l-0.375504,-0.000389l0.000107,-0.05397l-0.563477,-0.00058l0.000229,-0.05397l-0.375519,-0.000389l0.000137,-0.05397l-0.563904,-0.00058l0.000122,-0.05397l-0.375488,-0.000389l0.000137,-0.05397l-0.563339,-0.000572l0.000122,-0.053909l-0.375519,-0.000381l0.000183,-0.054047l-0.375961,-0.000381l0.000122,-0.05397l-0.563461,-0.00058l0.000168,-0.054039l-0.375519,-0.000389l0.000122,-0.053902l-0.563477,-0.00058l0.000153,-0.05397l-0.375366,-0.000381l0.000122,-0.054047l-0.375961,-0.000381l0.000183,-0.053909l-0.563461,-0.000572l0.000107,-0.053978l-0.375519,-0.000381l0.000229,-0.05397l-0.563492,-0.00058l0.000153,-0.054039l-0.375381,-0.000389l0.000107,-0.053833l-0.563995,-0.000572l0.000137,-0.054047l-0.375381,-0.000381l0.000107,-0.053909l-0.375473,-0.000381l0.000153,-0.054115l-0.563477,-0.000572l0.000107,-0.053902l-0.375916,-0.000389l0.000153,-0.05397l-0.563477,-0.00058l0.000107,-0.05397l-0.375504,-0.000389l0.000214,-0.054039l-0.375397,-0.000381l0.000092,-0.053909l-0.563477,-0.000572l0.000198,-0.053978l-0.375946,-0.000381l0.000092,-0.054047l-0.563004,-0.000572l0.000137,-0.053978l-0.375916,-0.000381l0.000153,-0.053894l-0.563461,-0.000587l0.000107,-0.054039l-0.375366,-0.000389l0.000137,-0.05397l-0.376053,-0.000381l0.000122,-0.053978l-0.56337,-0.000572l0.000183,-0.053909l-0.375519,-0.000381l0.000122,-0.054047l-0.563461,-0.000572l0.000198,-0.05397l-0.375397,-0.000389l0.000092,-0.05397l-0.376068,-0.000389l0.000198,-0.053902l-0.562897,-0.000572l0.000107,-0.054047l-0.375946,-0.000381l0.000168,-0.053978l-0.563461,-0.000572l0.000122,-0.053978l-0.375534,-0.000381l0.000153,-0.053902l-0.375366,-0.000389l0.000153,-0.054039l-0.564011,-0.00058l0.000107,-0.05397l-0.375366,-0.000389l0.000137,-0.05397l-0.563431,-0.00058l0.000092,-0.05397l-0.375458,-0.000381l0.000153,-0.054047l-0.563492,-0.000572l0.000122,-0.053909l-0.375961,-0.000381l0.000183,-0.053894l-0.375381,-0.000397l0.000107,-0.054039l-0.563461,-0.00058l0.000153,-0.05397l-0.376068,-0.000389l0.000122,-0.05397l-0.563339,-0.00058l0.000153,-0.054039l-0.375488,-0.000381l0.000107,-0.053833l-0.375519,-0.000389l0.000168,-0.05397l-0.563354,-0.00058l0.000168,-0.054039l-0.376068,-0.000389l0.000137,-0.053902l-0.562897,-0.000572l0.000168,-0.054047l-0.375931,-0.000381l0.000076,-0.053978l-0.563446,-0.000572l0.000168,-0.053909l-0.375504,-0.000381l0.000107,-0.05397l-0.375916,-0.000389l0.000153,-0.054039l-0.562927,-0.00058l0.000122,-0.05397l-0.375931,-0.000389l0.000168,-0.054039l-0.563492,-0.00058l0.000122,-0.053902l-0.375504,-0.000381l0.000168,-0.053978l-0.375931,-0.000381l0.000107,-0.05397l-0.563477,-0.00058l0.000168,-0.054047l-0.375397,-0.000381l0.000214,-0.05397l-0.563477,-0.00058l0.000122,-0.053902l-0.375504,-0.000389l0.000153,-0.05397l-0.563477,-0.00058l0.000122,-0.05397l-0.375366,-0.000381l0.000153,-0.053902l-0.376053,-0.000389l0.000107,-0.054039l-0.563339,-0.00058l0.000153,-0.054047l-0.375519,-0.000381l0.000122,-0.05397l-0.563461,-0.00058l0.000153,-0.05397l-0.375458,-0.000389l0.000076,-0.053902l-0.375931,-0.000381l0.000137,-0.054047l-0.563416,-0.000572l0.000076,-0.053978l-0.375946,-0.000381l0.000168,-0.053902l-0.562881,-0.00058l0.000153,-0.05397l-0.375946,-0.000389l0.000137,-0.05397l-0.563477,-0.00058l0.000153,-0.05397l-0.375488,-0.000381l0.000122,-0.053978l-0.375412,-0.000381l0.000183,-0.053978l-0.563477,-0.000572l0.000107,-0.054047l-0.376038,-0.000381l0.000153,-0.05397l-0.563354,-0.00058l0.000122,-0.053902l-0.375519,-0.000389l0.000214,-0.054031l-0.375504,-0.000397l0.000107,-0.05397l-0.563934,-0.00058l0.000198,-0.05397l-0.375504,-0.000381l0.000122,-0.053909l-0.5634,-0.000572l0.000198,-0.05397l-0.375504,-0.000389l0.000153,-0.054039l-0.563477,-0.00058l0.000122,-0.05397l-0.375504,-0.000389l0.000168,-0.053902l-0.375931,-0.000381l0.000122,-0.054047l-0.563477,-0.00058l0.000153,-0.054039l-0.375381,-0.000381l0.000107,-0.053909l-0.563477,-0.000572l0.000229,-0.054047l-0.375992,-0.000381l0.000107,-0.053833l-0.563461,-0.00058l0.000214,-0.054039l-0.375519,-0.000389l0.000107,-0.05397l-0.375366,-0.000374l0.000137,-0.053986l-0.563446,-0.000572l0.000122,-0.053978l-0.376068,-0.000381l0.000153,-0.053978l-0.563354,-0.000572l0.000168,-0.053978l-0.375504,-0.000381l0.000107,-0.05397l-0.375504,-0.000389l0.000214,-0.05397l-0.5634,-0.00058l0.000122,-0.05397l-0.376068,-0.000381l0.000214,-0.054047l-0.5634,-0.00058l0.000122,-0.05397l-0.375504,-0.000381l0.000198,-0.053902l-0.563477,-0.00058l0.000122,-0.05397l-0.375488,-0.000389l0.000137,-0.05397l-0.375946,-0.000389l0.000122,-0.05397l-0.562912,-0.00058l0.000168,-0.05397l-0.375931,-0.000381l0.000122,-0.054047l-0.563477,-0.000572l0.000153,-0.053909l-0.375504,-0.000381l0.000198,-0.05397l-0.375977,-0.000389l0.000107,-0.054039l-0.563461,-0.00058l0.000198,-0.05397l-0.375381,-0.000389l0.000076,-0.05397l-0.563431,-0.000572l0.000153,-0.053909l-0.376053,-0.000381l0.000122,-0.053978l-0.562927,-0.000572l0.000153,-0.053894l-0.375931,-0.000397l0.000122,-0.054115l-0.375488,-0.000381l0.000153,-0.053902l-0.563354,-0.00058l0.000107,-0.05397l-0.375504,-0.000381l0.000168,-0.054047l-0.564026,-0.00058l0.000122,-0.053833l-0.375397,-0.000381l0.000168,-0.054047l-0.375504,-0.000381l0.000198,-0.054039l-0.56395,-0.00058l0.000122,-0.05397l-0.375504,-0.000389l0.000198,-0.05397l-0.563477,-0.00058l0.000122,-0.05397l-0.375397,-0.000389l0.000168,-0.05397l-0.563461,-0.00058l0.000107,-0.053833l-0.375504,-0.000381l0.000153,-0.054039l-0.375916,-0.000389l0.000122,-0.05397l-0.562927,-0.00058l0.000153,-0.054039l-0.376053,-0.000389l0.000107,-0.05397l-0.563339,-0.00058l0.000168,-0.05397l-0.375473,-0.000381l0.000076,-0.054047l-0.375946,-0.000381l0.000168,-0.053902l-0.562881,-0.00058l0.000122,-0.053978l-0.376022,-0.000381l0.000122,-0.05397l-0.563354,-0.00058l0.000168,-0.05397l-0.375504,-0.000389l0.000122,-0.05397l-0.563477,-0.00058l0.000153,-0.053902l-0.375931,-0.000381l0.000107,-0.053978l-0.375504,-0.000381l0.000168,-0.054047l-0.563477,-0.000572l0.000122,-0.053978l-0.375381,-0.000381l0.000198,-0.053902l-0.563477,-0.00058l0.000076,-0.05397l-0.375931,-0.000381l0.000198,-0.054047l-0.375504,-0.000381l0.000122,-0.053978l-0.563477,-0.000572l0.000153,-0.053978l-0.375366,-0.000381l0.000107,-0.05397l-0.56398,-0.00058l0.000107,-0.054047l-0.375488,-0.000381l0.000153,-0.053902l-0.56337,-0.00058l0.000122,-0.053902l-0.375488,-0.000381l0.000153,-0.054047l-0.375458,-0.000381l0.000076,-0.053902l-0.563904,-0.00058l0.000153,-0.054047l-0.375458,-0.000374l0.000076,-0.054054l-0.563354,-0.000572l0.000214,-0.053902l-0.375519,-0.000389l0.000107,-0.05397l-0.375946,-0.000389l0.000183,-0.05397l-0.563477,-0.00058l0.000122,-0.054039l-0.375504,-0.000381l0.000153,-0.053978l-0.563416,-0.000572l0.000107,-0.053909l-0.375504,-0.000381l0.000198,-0.05397l-0.375473,-0.000389l0.000214,-0.05397l-0.563461,-0.00058l0.000061,-0.05397l-0.375931,-0.000381l0.000198,-0.053978l-0.563461,-0.000572l0.000076,-0.054047l-0.375443,-0.000381l0.000168,-0.053909l-0.563461,-0.000572l0.000107,-0.053902l-0.375946,-0.000389l0.000168,-0.054108l-0.375427,-0.000389l0.000107,-0.05397l-0.563446,-0.00058l0.000153,-0.053902l-0.375443,-0.000381l0.000092,-0.05397l-0.563431,-0.00058l0.000153,-0.053978l-0.375931,-0.000381l0.000076,-0.054047l-0.375458,-0.000381l0.000153,-0.053902l-0.563431,-0.00058l0.000198,-0.05397l-0.375488,-0.000389l0.000107,-0.054039l-0.56395,-0.00058l0.000198,-0.05397l-0.375488,-0.000389l0.000107,-0.053902l-0.375473,-0.000381l0.000168,-0.05397l-0.563477,-0.00058l0.000122,-0.054047l-0.375412,-0.000381l0.000153,-0.053902l-0.56398,-0.00058l0.000107,-0.054039l-0.375412,-0.000381l0.000153,-0.053909l-0.563477,-0.00058l0.000122,-0.054108l-0.375427,-0.000389l0.000153,-0.053902l-0.375458,-0.000381l0.000122,-0.053978l-0.563477,-0.000572l0.000198,-0.053902l-0.375977,-0.000389l0.000198,-0.05397l-0.563477,-0.00058l0.000122,-0.054031l-0.375458,-0.000397l0.000153,-0.053894l-0.375961,-0.000389l0.000107,-0.053978l-0.563431,-0.000572l0.000153,-0.054047l-0.375458,-0.000381l0.000076,-0.053978l-0.563385,-0.000572l0.000137,-0.053902l-0.375488,-0.000389l0.000122,-0.054108l-0.5634,-0.00058l0.000168,-0.053902l-0.375504,-0.000389l0.000107,-0.05397l-0.375931,-0.000381l0.000153,-0.053978l-0.563461,-0.000572l0.000137,-0.053978l-0.375458,-0.000381l0.000168,-0.05397l-0.56398,-0.00058l0.000168,-0.053894l-0.375443,-0.000389l0.000122,-0.054039l-0.375458,-0.000389l0.000198,-0.05397l-0.563461,-0.000587l0.000076,-0.05397l-0.375443,-0.000381l0.000168,-0.053978l-0.563461,-0.000572l0.000107,-0.053978l-0.375946,-0.000381l0.000168,-0.054039l-0.563461,-0.00058l0.000122,-0.053894l-0.375427,-0.000389l0.000153,-0.053902l-0.375504,-0.000381l0.000107,-0.053978l-0.563385,-0.000572l0.000153,-0.053986l-0.376007,-0.000381l0.000107,-0.054039l-0.563385,-0.000572l0.000168,-0.054047l-0.375504,-0.000381l0.000153,-0.053917l-0.375946,-0.000374l0.000122,-0.05397l-0.562958,-0.00058l0.000168,-0.05397l-0.375931,-0.000397l0.000107,-0.054031l-0.563477,-0.00058l0.000168,-0.053909l-0.375427,-0.000381l0.000076,-0.05397l-0.563477,-0.000572l0.000198,-0.054047l-0.375458,-0.000389l0.000122,-0.05397l-0.375931,-0.000381l0.000153,-0.053833l-0.563477,-0.00058l0.000122,-0.054047l-0.375412,-0.000389l0.000137,-0.054039l-0.563477,-0.00058l0.000122,-0.053894l-0.376007,-0.000381l0.000168,-0.053986l-0.375427,-0.000381l0.000153,-0.05397l-0.5634,-0.000572l0.000122,-0.05397l-0.375504,-0.000389l0.000153,-0.054047l-0.56337,-0.00058l0.000076,-0.053902l-0.375992,-0.000381l0.000168,-0.053978l-0.375427,-0.000381l0.000076,-0.053978l-0.563431,-0.000572l0.000153,-0.054047l-0.375458,-0.000381l0.000122,-0.053902l-0.56395,-0.00058l0.000153,-0.05397l-0.375458,-0.000389l0.000122,-0.054039l-0.563461,-0.000572l0.000183,-0.053909l-0.375458,-0.000381l0.000122,-0.05397l-0.376022,-0.000389l0.000198,-0.054047l-0.563431,-0.000572l0.000168,-0.05397l-0.375488,-0.000389l0.000092,-0.053978l-0.563385,-0.000572l0.000153,-0.053902l-0.375412,-0.000389l0.000122,-0.054039l-0.376022,-0.000381l0.000137,-0.053978l-0.563461,-0.000572l0.000122,-0.05397l-0.375427,-0.000389l0.000153,-0.05397l-0.563416,-0.00058l0.000122,-0.053978l-0.375519,-0.000381l0.000214,-0.05397l-0.563431,-0.00058l0.000107,-0.05397l-0.376007,-0.000389l0.000198,-0.05397l-0.375473,-0.000381l0.000122,-0.05397l-0.563477,-0.00058l0.000153,-0.053978l-0.375412,-0.000381l0.000153,-0.053902l-0.563477,-0.00058l0.000122,-0.054039l-0.375931,-0.000389l0.000153,-0.053902l-0.375504,-0.000381l0.000122,-0.054047l-0.5634,-0.000572l0.000168,-0.054047l-0.375427,-0.000389l0.000076,-0.053833l-0.563934,-0.000572l0.000153,-0.054039l-0.375504,-0.000389l0.000114,-0.053978l-0.563431,-0.000572l0.000206,-0.053902l-0.375465,-0.000381l0.000114,-0.054047l-0.375504,-0.000381l0.000206,-0.053978l-0.563995,-0.000572l0.000122,-0.054047l-0.375465,-0.000381l0.000206,-0.05397l-0.562927,-0.00058l0.00016,-0.053902l-0.376015,-0.000389l0.000114,-0.05397l-0.375412,-0.000381l0.000145,-0.053978l-0.56398,-0.000572l0.00013,-0.053978l-0.375427,-0.000389l0.000145,-0.05397l-0.563469,-0.00058l0.000114,-0.05397l-0.37542,-0.000381l0.000168,-0.05397l-0.376015,-0.000389l0.000114,-0.054039l-0.563393,-0.00058l0.00016,-0.053902l-0.375511,-0.000389l0.000114,-0.05397l-0.563431,-0.00058l0.000206,-0.054039l-0.375458,-0.000389l0.000114,-0.053894l-0.563469,-0.00058l0.00016,-0.053978l-0.375427,-0.000381l0.000145,-0.054039l-0.375961,-0.000389l0.000069,-0.05397l-0.563469,-0.00058l0.000191,-0.053833l-0.37545,-0.000389l0.000114,-0.054176l-0.563393,-0.00058l0.00016,-0.053902l-0.376015,-0.000381l0.000122,-0.053833l-0.375435,-0.000389l0.00016,-0.054039l-0.563469,-0.00058l0.000114,-0.053978l-0.375938,-0.000381l0.00016,-0.05397l-0.562958,-0.000572l0.000122,-0.054047l-0.375984,-0.000389l0.000206,-0.05397l-0.563469,-0.000572l0.000114,-0.053978l-0.375465,-0.000381l0.00016,-0.05397l-0.375465,-0.000389l0.00016,-0.053909l-0.563911,-0.000572l0.000092,-0.053978l-0.375473,-0.000374l0.00016,-0.054047l-0.563438,-0.00058l0.000114,-0.05397l-0.375488,-0.000389l0.000191,-0.05397l-0.375969,-0.000381l0.000114,-0.054047l-0.563469,-0.00058l0.000191,-0.053894l-0.375443,-0.000389l0.000114,-0.053978l-0.563477,-0.000572l0.000153,-0.053902l-0.375427,-0.000381l0.000114,-0.054123l-0.563423,-0.000572l0.000191,-0.053902l-0.375496,-0.000389l0.000122,-0.053902l-0.375984,-0.000381l0.000206,-0.054047l-0.563469,-0.000572l0.00016,-0.053978l-0.375443,-0.000381l0.000084,-0.053902l-0.563469,-0.00058l0.000198,-0.054039l-0.375977,-0.000389l0.000122,-0.053902l-0.375504,-0.000381l0.000191,-0.054047l-0.563423,-0.00058l0.000114,-0.05397l-0.375504,-0.000381l0.000153,-0.05397l-0.563393,-0.00058l0.00013,-0.053909l-0.375465,-0.000374l0.000198,-0.054047l-0.376015,-0.000381l0.000114,-0.053978l-0.563469,-0.00058l0.00016,-0.05397l-0.375427,-0.000381l0.000122,-0.05397l-0.563431,-0.00058l0.000153,-0.05397l-0.375977,-0.000389l0.00016,-0.053978l-0.563469,-0.000572l0.000114,-0.053978l-0.37542,-0.000381l0.000153,-0.05397l-0.375458,-0.000381l0.000114,-0.053978l-0.563469,-0.00058l0.000198,-0.053902l-0.375977,-0.000381l0.000114,-0.054115l-0.563461,-0.000572l0.000183,-0.053909l-0.375458,-0.000381l0.000122,-0.053978l-0.376022,-0.000381l0.000206,-0.05397l-0.562927,-0.00058l0.000122,-0.054039l-0.376015,-0.000389l0.000153,-0.053902l-0.563385,-0.00058l0.000114,-0.05397l-0.375496,-0.000381l0.00016,-0.05397l-0.563393,-0.00058l0.000153,-0.054047l-0.375465,-0.000381l0.000114,-0.05397l-0.375977,-0.000389l0.00016,-0.053902l-0.563469,-0.00058l0.000114,-0.054047l-0.375458,-0.000381l0.000198,-0.05397l-0.563469,-0.00058l0.000114,-0.05397l-0.375465,-0.000381l0.000153,-0.053902l-0.375931,-0.000389l0.000122,-0.054039l-0.563438,-0.00058l0.00013,-0.053978l-0.375427,-0.000381l0.000153,-0.05397l-0.563469,-0.00058l0.000114,-0.053902l-0.375931,-0.000381l0.000153,-0.054047l-0.563469,-0.00058l0.000114,-0.053902l-0.375412,-0.000381l0.000114,-0.05397l-0.375504,-0.000389l0.00016,-0.054039l-0.563438,-0.00058l0.00016,-0.05397l-0.375496,-0.000389l0.000153,-0.05397l-0.563942,-0.00058l0.000153,-0.05397l-0.375504,-0.000381l0.00016,-0.053978l-0.375465,-0.000381l0.00016,-0.05397l-0.56398,-0.00058l0.00016,-0.053909l-0.374916,-0.000381l0.000114,-0.054108l-0.563942,-0.00058l0.000122,-0.053909l-0.375427,-0.000374l0.000122,-0.053978l-0.375427,-0.000381l0.000122,-0.053978l-0.563477,-0.000572l0.00016,-0.053909l-0.375931,-0.000381l0.000122,-0.054039l-0.563477,-0.00058l0.000153,-0.053978l-0.37542,-0.000381l0.000114,-0.053902l-0.563469,-0.00058l0.00016,-0.054115l-0.375465,-0.000381l0.000153,-0.053902l-0.376007,-0.000389l0.000153,-0.05397l-0.563423,-0.000572l0.000153,-0.053978l-0.375511,-0.000381l0.00016,-0.05397l-0.563385,-0.00058l0.000114,-0.05397l-0.375496,-0.000389l0.000153,-0.05397l-0.375938,-0.000389l0.000114,-0.053902l-0.563461,-0.000572l0.000153,-0.054047l-0.375427,-0.000389l0.00013,-0.05397l-0.563484,-0.00058l0.000168,-0.053963l-0.375931,-0.000389l0.000114,-0.053978l-0.563469,-0.000572l0.000153,-0.053978l-0.375465,-0.000381l0.000153,-0.05397l-0.37545,-0.000381l0.000153,-0.053978l-0.563469,-0.00058l0.00016,-0.05397l-0.375984,-0.000381l0.00016,-0.053978l-0.562958,-0.000572l0.000153,-0.053978l-0.375938,-0.000381l0.000122,-0.05397l-0.375458,-0.000389l0.000114,-0.054039l-0.563385,-0.00058l0.000114,-0.053902l-0.375504,-0.000389l0.000153,-0.05397l-0.563431,-0.00058l0.000153,-0.054039l-0.376007,-0.000389l0.00016,-0.053833l-0.375465,-0.000381l0.00016,-0.054047l-0.563988,-0.000572l0.00016,-0.053978l-0.375465,-0.000381l0.00016,-0.054039l-0.563469,-0.00058l0.000153,-0.053902l-0.375458,-0.000381l0.000153,-0.053978l-0.563469,-0.000572l0.000122,-0.054047l-0.375427,-0.000389l0.00016,-0.053894l-0.375938,-0.000389l0.000153,-0.05397l-0.562988,-0.00058l0.000153,-0.05397l-0.375931,-0.000381l0.000114,-0.054047l-0.563469,-0.00058l0.00016,-0.05397l-0.37542,-0.000381l0.000114,-0.053909l-0.376022,-0.000381l0.000168,-0.054047l-0.5634,-0.00058l0.000122,-0.053963l-0.375504,-0.000389l0.00016,-0.05397l-0.563438,-0.00058l0.000168,-0.053902l-0.375504,-0.000389l0.000153,-0.05397l-0.563423,-0.000572l0.000153,-0.054047l-0.376007,-0.000389l0.000114,-0.05397l-0.37542,-0.000381l0.000156,-0.053902l-0.563477,-0.00058l0.000168,-0.053978l-0.375938,-0.000381l0.000118,-0.054039l-0.563473,-0.00058l0.000153,-0.053978l-0.37542,-0.000381l0.000114,-0.053902l-0.37542,-0.000389l0.000114,-0.054039l-0.563942,-0.000572l0.000118,-0.053909l-0.375423,-0.000381l0.000118,-0.053978l-0.562954,-0.000572l0.000153,-0.05397l-0.375973,-0.000381l0.000153,-0.054047l-0.375504,-0.000381l0.00016,-0.053978l-0.563984,-0.00058l0.000114,-0.05397l-0.37542,-0.000389l0.00016,-0.05397l-0.56292,-0.000572l0.000118,-0.053978l-0.375938,-0.000381l0.000122,-0.05397l-0.563396,-0.00058l0.000122,-0.053902l-0.375507,-0.000389l0.000168,-0.054039l-0.375938,-0.000381l0.000118,-0.053909l-0.563473,-0.000572l0.000153,-0.054047l-0.375458,-0.000381l0.000153,-0.05397l-0.563469,-0.00058l0.00016,-0.05397l-0.375465,-0.000389l0.00016,-0.053978l-0.376019,-0.000381l0.00016,-0.05397l-0.563431,-0.00058l0.000153,-0.053902l-0.375458,-0.000381l0.000153,-0.054047l-0.563473,-0.000572l0.000126,-0.053978l-0.37598,-0.000389l0.000114,-0.05397l-0.563343,-0.00058l0.000118,-0.054039l-0.375423,-0.000381l0.000118,-0.053902l-0.375504,-0.000381l0.000156,-0.053978l-0.563431,-0.000572l0.000156,-0.054047l-0.376019,-0.000381l0.00016,-0.053833l-0.562916,-0.00058l0.000153,-0.054047l-0.376011,-0.000381l0.000153,-0.053978l-0.375458,-0.000381l0.000153,-0.054039l-0.563469,-0.00058l0.000118,-0.053902l-0.375931,-0.000381l0.000153,-0.053978l-0.563469,-0.000572l0.000114,-0.053909l-0.37542,-0.000381l0.000153,-0.054115l-0.563465,-0.000572l0.000118,-0.053902l-0.375427,-0.000389l0.00016,-0.053978l-0.376015,-0.000381l0.000156,-0.05397l-0.563431,-0.00058l0.000156,-0.054047l-0.375423,-0.000381l0.000118,-0.05397l-0.563473,-0.00058l0.00016,-0.053902l-0.375465,-0.000389l0.00016,-0.054039l-0.375507,-0.000381l0.000164,-0.053978l-0.563431,-0.000572l0.000156,-0.053833l-0.376015,-0.000389l0.000156,-0.054108l-0.563431,-0.00058l0.000156,-0.05397l-0.3755,-0.000381l0.000114,-0.053978l-0.375935,-0.000389l0.000156,-0.053894l-0.563469,-0.00058l0.000114,-0.05397l-0.37542,-0.000389l0.000156,-0.053978l-0.563473,-0.000572l0.000156,-0.054039l-0.375462,-0.000389l0.00016,-0.053902l-0.563473,-0.000572l0.000156,-0.054115l-0.375977,-0.000389l0.00016,-0.053902l-0.375465,-0.000381l0.00016,-0.053978l-0.563473,-0.00058l0.00016,-0.053902l-0.376015,-0.000381l0.000156,-0.054047l-0.563431,-0.000572l0.000156,-0.053902l-0.375462,-0.000389l0.000156,-0.054039l-0.3755,-0.000381l0.000114,-0.053909l-0.563389,-0.00058l0.000118,-0.054039l-0.375462,-0.000389l0.000118,-0.054039l-0.563396,-0.000572l0.00016,-0.053902l-0.376015,-0.000389l0.000156,-0.054039l-0.563435,-0.00058l0.00016,-0.053902l-0.375504,-0.000389l0.000158,-0.05397l-0.375463,-0.000381l0.000158,-0.053978l-0.563473,-0.00058l0.000118,-0.05397l-0.375937,-0.000381l0.000158,-0.05397l-0.563471,-0.00058l0.00012,-0.05397l-0.375425,-0.000389l0.000116,-0.054039l-0.375973,-0.000389l0.000118,-0.053902l-0.563391,-0.00058l0.000116,-0.05397l-0.375462,-0.000389l0.000116,-0.05397l-0.563389,-0.000572l0.000116,-0.054047l-0.375425,-0.000381l0.000156,-0.053902l-0.563467,-0.00058l0.000154,-0.053978l-0.376015,-0.000381l0.000158,-0.05397l-0.375463,-0.000381l0.00016,-0.053978l-0.563433,-0.000572l0.000158,-0.054047l-0.375504,-0.000381l0.000158,-0.053909l-0.563982,-0.00058l0.000116,-0.053902l-0.375422,-0.000381l0.000116,-0.054115l-0.375425,-0.000381l0.00016,-0.053902l-0.563473,-0.00058l0.00012,-0.05397l-0.375425,-0.000389l0.000118,-0.054039l-0.563469,-0.000572l0.000154,-0.053909l-0.375933,-0.000381l0.000116,-0.05397l-0.563471,-0.00058l0.000198,-0.05397l-0.375462,-0.000389l0.000153,-0.054039l-0.376015,-0.000389l0.00016,-0.05397l-0.562922,-0.00058l0.000158,-0.053902l-0.376015,-0.000381l0.000158,-0.053978l-0.563431,-0.000572l0.000158,-0.054047l-0.375463,-0.000389l0.000158,-0.053894l-0.375504,-0.000389l0.000118,-0.05397l-0.563391,-0.00058l0.000118,-0.054047l-0.375978,-0.000381l0.000122,-0.053978l-0.563395,-0.000572l0.000118,-0.05397l-0.375463,-0.000381l0.000118,-0.053909l-0.375422,-0.000381l0.000116,-0.054047l-0.563942,-0.00058l0.000158,-0.05397l-0.375463,-0.000381l0.000154,-0.053909l-0.563468,-0.000572l0.000158,-0.05397l-0.375463,-0.000389l0.000158,-0.054039l-0.563472,-0.00058l0.000119,-0.053902l-0.375424,-0.000381l0.000118,-0.054047l-0.375976,-0.000389l0.000119,-0.053963l-0.563393,-0.00058l0.000118,-0.053902l-0.375976,-0.000389l0.000119,-0.054047l-0.562881,-0.000572l0.000117,-0.053978l-0.375976,-0.000381l0.000119,-0.054039l-0.375423,-0.000389l0.000117,-0.053902l-0.563393,-0.000572l0.000119,-0.053978l-0.375503,-0.000389l0.000157,-0.053902l-0.563393,-0.000572l0.000158,-0.05397l-0.376014,-0.000389l0.000156,-0.054047l-0.563471,-0.000572l0.000118,-0.05397l-0.375424,-0.000381l0.000119,-0.053909l-0.375423,-0.000381l0.000157,-0.054047l-0.563471,-0.00058l0.000118,-0.05397l-0.375936,-0.000381l0.000158,-0.05397l-0.563472,-0.00058l0.000119,-0.054047l-0.375424,-0.000381l0.000118,-0.053902l-0.375424,-0.000389l0.000119,-0.05397l-0.563471,-0.000572l0.000158,-0.053978l-0.376014,-0.000381l0.000156,-0.053978l-0.563431,-0.000572l0.000158,-0.053909l-0.375463,-0.000381l0.000118,-0.054047l-0.563391,-0.000572l0.000118,-0.054039l-0.375976,-0.000389l0.000118,-0.053902l-0.375424,-0.000381l0.000158,-0.053978l-0.56347,-0.000572l0.000118,-0.053978l-0.375424,-0.000389l0.000118,-0.054039l-0.563391,-0.000572l0.000118,-0.053909l-0.375976,-0.000381l0.000119,-0.053978l-0.375424,-0.000381l0.000118,-0.05397l-0.56347,-0.00058l0.000156,-0.054047l-0.375936,-0.000381l0.000118,-0.053902l-0.562959,-0.00058l0.000157,-0.05397l-0.375462,-0.000381l0.000157,-0.054047l-0.563943,-0.000572l0.000118,-0.053902l-0.375424,-0.000389l0.000158,-0.053978l-0.375503,-0.000381l0.000118,-0.05397l-0.563392,-0.000572l0.000118,-0.054047l-0.375975,-0.000389l0.000117,-0.053902l-0.563391,-0.000572l0.000119,-0.054047l-0.375503,-0.000389l0.000157,-0.053894l-0.375424,-0.000389l0.000119,-0.054039l-0.563393,-0.00058l0.000118,-0.053978l-0.375976,-0.000381l0.000118,-0.053902l-0.563472,-0.000572l0.00016,-0.053978l-0.375463,-0.000389l0.000157,-0.054039l-0.56343,-0.000572l0.000156,-0.053841l-0.375502,-0.000381l0.000156,-0.054039l-0.375936,-0.000389l0.000157,-0.054039l-0.56347,-0.00058l0.000118,-0.05397l-0.375424,-0.000389l0.000118,-0.05397l-0.563431,-0.00058l0.000118,-0.053902l-0.375937,-0.000389l0.000119,-0.054039l-0.375464,-0.000381l0.000119,-0.05397l-0.563393,-0.00058l0.000118,-0.053909l-0.375503,-0.000381l0.000157,-0.05397l-0.563432,-0.00058l0.000157,-0.053902l-0.375423,-0.000389l0.000119,-0.054108l-0.56347,-0.00058l0.000155,-0.05397l-0.376014,-0.000381l0.000157,-0.053978l-0.375464,-0.000381l0.000157,-0.053978l-0.563391,-0.000572l0.000157,-0.05397l-0.376017,-0.000389l0.00012,-0.05397l-0.562881,-0.00058l0.00012,-0.05397l-0.375977,-0.000381l0.000118,-0.053978l-0.375423,-0.000381l0.000118,-0.053978l-0.563471,-0.000572l0.000158,-0.054047l-0.375937,-0.000389l0.000116,-0.053894l-0.562956,-0.00058l0.000156,-0.053833l-0.375937,-0.000381l0.00012,-0.054115l-0.563473,-0.00058l0.000158,-0.053902l-0.375463,-0.000381l0.000158,-0.054047l-0.376015,-0.000381l0.000156,-0.05397l-0.56292,-0.00058l0.000158,-0.053909l-0.375975,-0.000381l0.000118,-0.054047l-0.563393,-0.000572l0.000118,-0.053978l-0.375502,-0.000381l0.000156,-0.05397l-0.375937,-0.000381l0.00012,-0.054047l-0.563471,-0.00058l0.000158,-0.053902l-0.375423,-0.000381l0.000116,-0.054047l-0.563471,-0.000572l0.000158,-0.053909l-0.375462,-0.000381l0.000154,-0.053902l-0.563431,-0.00058l0.000158,-0.05397l-0.376015,-0.000389l0.000158,-0.054039l-0.375465,-0.000381l0.00016,-0.053978l-0.563473,-0.00058l0.000158,-0.054039l-0.375975,-0.000389l0.000196,-0.053825l-0.563471,-0.00058l0.000118,-0.054115l-0.375423,-0.000381l0.000116,-0.053978l-0.375462,-0.000381l0.000118,-0.05397l-0.563393,-0.00058l0.00012,-0.053902l-0.375978,-0.000381l0.00012,-0.053978l-0.562922,-0.000572l0.000162,-0.053909l-0.376017,-0.000381l0.000154,-0.054108l-0.375462,-0.000389l0.000156,-0.053902l-0.563469,-0.00058l0.000156,-0.05397l-0.375462,-0.000389l0.000156,-0.054039l-0.563984,-0.00058l0.000158,-0.05397l-0.375462,-0.000381l0.000156,-0.053909l-0.563469,-0.000572l0.000156,-0.053978l-0.375423,-0.000381l0.000118,-0.05397l-0.375423,-0.000389l0.000118,-0.054039l-0.563469,-0.00058l0.00016,-0.053902l-0.375935,-0.000381l0.000114,-0.054115l-0.563473,-0.00058l0.00016,-0.053833l-0.375462,-0.000381l0.000156,-0.05397l-0.376015,-0.000389l0.000156,-0.054039l-0.563431,-0.00058l0.000156,-0.053902l-0.3755,-0.000389l0.000156,-0.054039l-0.563431,-0.00058l0.000156,-0.053978l-0.376015,-0.000381l0.000156,-0.053902l-0.562916,-0.000572l0.000156,-0.054115l-0.376019,-0.000389l0.00016,-0.053902l-0.375423,-0.000381l0.000114,-0.053902l-0.563469,-0.00058l0.000156,-0.054039l-0.375462,-0.000389l0.000156,-0.05397l-0.563389,-0.00058l0.000118,-0.05397l-0.376015,-0.000389l0.000156,-0.05397l-0.37542,-0.000389l0.000114,-0.053894l-0.563469,-0.00058l0.000156,-0.054039l-0.375935,-0.000389l0.000114,-0.05397l-0.563469,-0.00058l0.000156,-0.053909l-0.375462,-0.000381l0.000156,-0.054039l-0.563469,-0.00058l0.000118,-0.05397l-0.375423,-0.000389l0.000156,-0.05397l-0.376015,-0.000389l0.000156,-0.054039l-0.562878,-0.000572l0.000114,-0.053902l-0.376011,-0.000389l0.000156,-0.053978l-0.563393,-0.000572l0.000118,-0.05397l-0.375504,-0.000389l0.000156,-0.05397l-0.375462,-0.000381l0.00016,-0.053978l-0.563473,-0.000572l0.00016,-0.053978l-0.375973,-0.000389l0.000153,-0.054039l-0.563473,-0.000572l0.000156,-0.053978l-0.375462,-0.000381l0.00016,-0.053833l-0.563473,-0.00058l0.000118,-0.054039l-0.375935,-0.000389l0.000156,-0.054039l-0.375465,-0.000389l0.000156,-0.053902l-0.563465,-0.000572l0.000114,-0.053978l-0.375385,-0.000381l0.000118,-0.05397l-0.563465,-0.00058l0.000153,-0.05397l-0.375935,-0.000389l0.000118,-0.054039l-0.375504,-0.000389l0.000156,-0.053902l-0.563431,-0.00058l0.00016,-0.053902l-0.375504,-0.000381l0.00016,-0.054115l-0.563946,-0.00058l0.000156,-0.053902l-0.3755,-0.000381l0.000156,-0.054039l-0.563431,-0.00058l0.000156,-0.053909l-0.375504,-0.000381l0.000118,-0.054039l-0.375423,-0.000389l0.00016,-0.053902l-0.563473,-0.000572l0.000118,-0.053978l-0.375935,-0.000381l0.000118,-0.054047l-0.563431,-0.000572l0.000156,-0.053909l-0.375462,-0.000381l0.000153,-0.053978l-0.375423,-0.000381l0.000118,-0.05397l-0.563984,-0.00058l0.00016,-0.054039l-0.375423,-0.000381l0.000122,-0.053978l-0.563477,-0.00058l0.00016,-0.053902l-0.375465,-0.000381l0.00016,-0.054047l-0.563473,-0.00058l0.000122,-0.053894l-0.375938,-0.000389l0.000156,-0.054039l-0.3755,-0.000389l0.000156,-0.053902l-0.563431,-0.00058l0.000156,-0.054039l-0.375504,-0.000381l0.000114,-0.053978l-0.563393,-0.00058l0.000122,-0.05397l-0.375977,-0.000381l0.00016,-0.053909l-0.375431,-0.000381l0.000122,-0.054039l-0.563469,-0.00058l0.000153,-0.05397l-0.375465,-0.000389l0.00016,-0.05397l-0.563473,-0.00058l0.000114,-0.053902l-0.375938,-0.000389l0.00016,-0.054039l-0.56292,-0.000572l0.00016,-0.053978l-0.376015,-0.000381l0.00016,-0.053902l-0.375465,-0.000389l0.000153,-0.054039l-0.563469,-0.00058l0.000114,-0.053902l-0.375938,-0.000381l0.00016,-0.054047l-0.56295,-0.00058l0.000114,-0.053902l-0.375938,-0.000381l0.000122,-0.05397l-0.375977,-0.000389l0.00016,-0.054047l-0.562927,-0.000572l0.000168,-0.053978l-0.376022,-0.000381l0.000168,-0.053902l-0.563431,-0.00058l0.000153,-0.054047l-0.375504,-0.000381l0.000153,-0.05397l-0.375458,-0.000381l0.000153,-0.053902l-0.563461,-0.000587l0.000114,-0.054039l-0.375427,-0.000381l0.000114,-0.05397l-0.563393,-0.00058l0.000122,-0.053978l-0.375977,-0.000381l0.000114,-0.05397l-0.563431,-0.00058l0.000122,-0.05397l-0.37542,-0.000381l0.000114,-0.053909l-0.375938,-0.000381l0.00016,-0.054047l-0.563469,-0.00058l0.000153,-0.054039l-0.375443,-0.000389l0.000145,-0.05397l-0.563477,-0.000572l0.000137,-0.053902l-0.375443,-0.000389l0.00016,-0.05397l-0.376015,-0.000389l0.000137,-0.054039l-0.563408,-0.00058l0.00013,-0.053833l-0.375473,-0.000381l0.000137,-0.054115l-0.563416,-0.00058l0.000137,-0.053894l-0.375992,-0.000389l0.000137,-0.054039l-0.37545,-0.000389l0.000137,-0.05397l-0.563469,-0.00058l0.000137,-0.053902l-0.37542,-0.000381l0.000137,-0.053909l-0.563469,-0.000572l0.000137,-0.054115l-0.375443,-0.000381l0.000175,-0.053909l-0.563988,-0.00058l0.000145,-0.05397l-0.37545,-0.000381l0.000137,-0.054039l-0.37542,-0.000389l0.000137,-0.05397l-0.563469,-0.00058l0.00013,-0.05397l-0.375992,-0.000389l0.000137,-0.053902l-0.563408,-0.00058l0.000137,-0.05397l-0.375443,-0.000381l0.000137,-0.054047l-0.375481,-0.000381l0.00013,-0.053902l-0.563408,-0.00058l0.000137,-0.05397l-0.375992,-0.000389l0.00013,-0.054039l-0.563408,-0.00058l0.000137,-0.053902l-0.375496,-0.000381l0.000137,-0.053978l-0.563416,-0.000572l0.000175,-0.053978l-0.376007,-0.000381l0.000137,-0.054047l-0.375435,-0.000381l0.000145,-0.05397l-0.563477,-0.00058l0.000145,-0.053902l-0.375443,-0.000381l0.000137,-0.053978l-0.563469,-0.000572l0.000137,-0.054047l-0.375938,-0.000381l0.000137,-0.053978l-0.375481,-0.000389l0.000137,-0.053902l-0.563408,-0.000572l0.000137,-0.054047l-0.37545,-0.000381l0.000137,-0.053978l-0.563469,-0.000572l0.000137,-0.05397l-0.375435,-0.000381l0.000137,-0.053978l-0.375999,-0.000389l0.000145,-0.053894l-0.563416,-0.00058l0.000175,-0.054047l-0.375504,-0.000381l0.000137,-0.05397l-0.563416,-0.00058l0.000137,-0.05397l-0.375481,-0.000389l0.000137,-0.053978l-0.563919,-0.000572l0.000137,-0.053978l-0.375488,-0.000381l0.000145,-0.054039l-0.37545,-0.000389l0.000145,-0.053902l-0.563477,-0.000572l0.000145,-0.053978l-0.375938,-0.000381l0.000137,-0.053978l-0.563469,-0.000572l0.00013,-0.053978l-0.375435,-0.000381l0.00013,-0.054039l-0.37542,-0.000389l0.000137,-0.053902l-0.563469,-0.00058l0.000137,-0.05397l-0.375443,-0.000389l0.000137,-0.05397l-0.563469,-0.00058l0.000137,-0.05397l-0.375938,-0.000381l0.00013,-0.054039l-0.563423,-0.00058l0.000137,-0.053978l-0.375465,-0.000381l0.000145,-0.053902l-0.375977,-0.000389l0.00013,-0.053902l-0.562935,-0.000572l0.000137,-0.054047l-0.375984,-0.000381l0.000191,-0.053909l-0.563461,-0.000572l0.000168,-0.054115l-0.375481,-0.000381l0.00013,-0.053902l-0.375954,-0.000389l0.000137,-0.05397l-0.563469,-0.00058l0.00013,-0.05397l-0.375427,-0.000381l0.00013,-0.053902l-0.563469,-0.000587l0.000137,-0.054039l-0.375427,-0.000381l0.000137,-0.05397l-0.376015,-0.000389l0.00016,-0.054047l-0.563416,-0.000572l0.000145,-0.053978l-0.375443,-0.000381l0.00013,-0.053902l-0.563461,-0.000572l0.00013,-0.054047l-0.375992,-0.000381l0.000137,-0.053978l-0.562904,-0.000572l0.000153,-0.053909l-0.375969,-0.000381l0.000145,-0.05397l-0.375473,-0.000389l0.000145,-0.05397l-0.56337,-0.00058l0.00013,-0.05397l-0.37603,-0.000389l0.000137,-0.054039l-0.562881,-0.00058l0.000145,-0.053902l-0.376015,-0.000389l0.00013,-0.054039l-0.375435,-0.000389l0.00013,-0.053963l-0.563431,-0.00058l0.000145,-0.053902l-0.375961,-0.000389l0.000137,-0.054047l-0.563469,-0.000572l0.000153,-0.053902l-0.375473,-0.000381l0.000137,-0.054047l-0.563454,-0.00058l0.000137,-0.05397l-0.375954,-0.000381l0.000137,-0.053909l-0.375465,-0.000381l0.000145,-0.05397l-0.563385,-0.00058l0.000145,-0.054047l-0.375526,-0.000381l0.000137,-0.053902l-0.563408,-0.00058l0.000137,-0.054039l-0.375999,-0.000389l0.000137,-0.05397l-0.375435,-0.000389l0.000137,-0.05397l-0.56292,-0.00058l0.000153,-0.054039l-0.376015,-0.000389l0.000137,-0.053825l-0.563408,-0.00058l0.000153,-0.054039l-0.375473,-0.000389l0.000137,-0.053902l-0.563438,-0.00058l0.000145,-0.054047l-0.375999,-0.000381l0.000137,-0.054039l-0.375427,-0.000389l0.00016,-0.053902l-0.563477,-0.000572l0.000137,-0.054047l-0.375435,-0.000381l0.000137,-0.053909l-0.563469,-0.000572l0.000137,-0.053978l-0.375938,-0.000381l0.000137,-0.05397l-0.375504,-0.000381l0.000145,-0.053902l-0.563416,-0.000587l0.00016,-0.054108l-0.37545,-0.000389l0.000137,-0.053902l-0.563446,-0.00058l0.000137,-0.05397l-0.376015,-0.000381l0.000137,-0.054047l-0.563416,-0.00058l0.000145,-0.053902l-0.375404,-0.000374l0.000137,-0.053978l-0.376015,-0.000389l0.00016,-0.05397l-0.563477,-0.000572l0.000145,-0.053978l-0.37545,-0.000381l0.000137,-0.053909l-0.563408,-0.000572l0.00013,-0.054039l-0.375496,-0.000389l0.000153,-0.054039l-0.375954,-0.000389l0.000137,-0.053902l-0.563469,-0.00058l0.000153,-0.05397l-0.375427,-0.000381l0.000137,-0.053978l-0.563469,-0.00058l0.000137,-0.054039l-0.375443,-0.000381l0.000122,-0.053909l-0.56395,-0.000572l0.000122,-0.05397l-0.375427,-0.000389l0.000137,-0.05397l-0.375504,-0.000389l0.000137,-0.054039l-0.5634,-0.00058l0.000137,-0.053833l-0.375443,-0.000381l0.000153,-0.054115l-0.563446,-0.000572l0.000137,-0.053978l-0.375961,-0.000381l0.000122,-0.05397l-0.375473,-0.000389l0.000137,-0.053902l-0.563385,-0.00058l0.000137,-0.054047l-0.375473,-0.000381l0.000137,-0.05397l-0.563461,-0.00058l0.000137,-0.053902l-0.375992,-0.000381l0.000137,-0.053978l-0.375427,-0.000381l0.000153,-0.053978l-0.563477,-0.000572l0.000137,-0.054047l-0.375427,-0.000381l0.000137,-0.053902l-0.56398,-0.000572l0.000137,-0.053978l-0.375443,-0.000381l0.000137,-0.054123l-0.563477,-0.000572l0.000137,-0.053902l-0.375443,-0.000381l0.000183,-0.053978l-0.375992,-0.000381l0.000137,-0.053902l-0.563416,-0.00058l0.000137,-0.054115l-0.375504,-0.000381l0.000137,-0.053902l-0.563416,-0.00058l0.000137,-0.05397l-0.375473,-0.000389l0.000137,-0.05397l-0.375946,-0.000389l0.000153,-0.053963l-0.563477,-0.00058l0.000137,-0.053978l-0.375443,-0.000381l0.000137,-0.05397l-0.563461,-0.00058l0.000122,-0.053902l-0.375443,-0.000389l0.000168,-0.054108l-0.563416,-0.00058l0.000137,-0.053902l-0.376022,-0.000389l0.000137,-0.05397l-0.375412,-0.000381l0.000137,-0.053978l-0.563431,-0.000572l0.000137,-0.05397l-0.375473,-0.000389l0.000137,-0.05397l-0.563461,-0.00058l0.000153,-0.053902l-0.375946,-0.000381l0.000153,-0.053978l-0.375488,-0.000381l0.000137,-0.054047l-0.563416,-0.000572l0.000137,-0.053978l-0.375519,-0.000381l0.000153,-0.053902l-0.5634,-0.00058l0.000137,-0.054115l-0.375961,-0.000389l0.000122,-0.053894l-0.562927,-0.00058l0.000168,-0.053902l-0.376022,-0.000389l0.000153,-0.054039l-0.375443,-0.000389l0.000137,-0.053902l-0.56398,-0.000572l0.000153,-0.054115l-0.375443,-0.000381l0.000137,-0.053909l-0.563477,-0.000572l0.000137,-0.05397l-0.375443,-0.000389l0.000153,-0.053902l-0.375916,-0.000381l0.000137,-0.054047l-0.563477,-0.00058l0.000122,-0.054039l-0.375427,-0.000389l0.000122,-0.053833l-0.563446,-0.000572l0.000137,-0.054115l-0.375443,-0.000381l0.000137,-0.053909l-0.563477,-0.000572l0.000153,-0.054039l-0.375946,-0.000389l0.000153,-0.053978l-0.375488,-0.000381l0.000137,-0.053902l-0.563431,-0.00058l0.000137,-0.05397l-0.375488,-0.000389l0.000122,-0.054031l-0.563385,-0.000587l0.000153,-0.053825l-0.376022,-0.000389l0.000137,-0.054039l-0.375427,-0.000389l0.000153,-0.054039l-0.563461,-0.00058l0.000122,-0.05397l-0.375412,-0.000381l0.000137,-0.053978l-0.563431,-0.00058l0.000153,-0.053902l-0.376007,-0.000381l0.000137,-0.054047l-0.562912,-0.00058l0.000137,-0.05397l-0.376007,-0.000381l0.000153,-0.053978l-0.375443,-0.000381l0.000153,-0.053902l-0.563461,-0.00058l0.000153,-0.054108l-0.375931,-0.000389l0.000137,-0.053833l-0.563446,-0.000572l0.000122,-0.054047l-0.375443,-0.000381l0.000137,-0.053909l-0.375992,-0.000381l0.000122,-0.05397l-0.562927,-0.00058l0.000137,-0.054047l-0.375992,-0.000381l0.000153,-0.053902l-0.563385,-0.000572l0.000122,-0.054054l-0.375504,-0.000374l0.000137,-0.053902l-0.563416,-0.00058l0.000122,-0.054047l-0.375977,-0.000389l0.000137,-0.053894l-0.375427,-0.000389l0.000137,-0.05397l-0.563446,-0.00058l0.000153,-0.054039l-0.375458,-0.000389l0.000137,-0.05397l-0.563477,-0.00058l0.000122,-0.053902l-0.375427,-0.000381l0.000137,-0.054047l-0.375931,-0.000381l0.000137,-0.053978l-0.563477,-0.00058l0.000137,-0.05397l-0.375443,-0.000381l0.000153,-0.053902l-0.563461,-0.000572l0.000137,-0.054047l-0.375412,-0.000389l0.000153,-0.05397l-0.563492,-0.00058l0.000137,-0.053902l-0.375946,-0.000381l0.000137,-0.054039l-0.375473,-0.000389l0.000153,-0.053978l-0.563416,-0.000572l0.000137,-0.054039l-0.376022,-0.000389l0.000137,-0.053902l-0.563385,-0.00058l0.000153,-0.05397l-0.375534,-0.000389l0.000137,-0.053902l-0.375443,-0.000389l0.000153,-0.054039l-0.563477,-0.00058l0.000153,-0.054039l-0.375916,-0.000381l0.000137,-0.053833l-0.563492,-0.00058l0.000137,-0.054047l-0.375443,-0.000381l0.000137,-0.053978l-0.563446,-0.000572l0.000137,-0.054039l-0.375946,-0.000381l0.000122,-0.053909l-0.374939,-0.000381l0.000153,-0.053978l-0.563965,-0.000572l0.000137,-0.054047l-0.375458,-0.000389l0.000137,-0.053902l-0.563431,-0.000572l0.000168,-0.054039l-0.375977,-0.000389l0.000153,-0.053902l-0.375534,-0.000389l0.000168,-0.054039l-0.5634,-0.00058l0.000137,-0.05397l-0.375519,-0.000389l0.000168,-0.053902l-0.563431,-0.000572l0.000137,-0.053974l-0.375488,-0.000385l0.000137,-0.054043l-0.375946,-0.000385l0.000153,-0.053974l-0.563461,-0.000576l0.000137,-0.053902l-0.375443,-0.000385l0.000137,-0.054111l-0.563446,-0.00058l0.000122,-0.053902l-0.375443,-0.000385l0.000153,-0.05397l-0.563431,-0.000576l0.000137,-0.053905l-0.375992,-0.000385l0.000153,-0.054043l-0.375412,-0.000385l0.000137,-0.05397l-0.563492,-0.00058l0.000122,-0.05397l-0.375381,-0.000385l0.000137,-0.053902l-0.563507,-0.00058l0.000137,-0.054043l-0.375946,-0.000381l0.000137,-0.053978l-0.375473,-0.000381l0.000137,-0.053902l-0.563416,-0.00058l0.000137,-0.05397l-0.375992,-0.000389l0.000122,-0.054039l-0.56337,-0.00058l0.000153,-0.05397l-0.375534,-0.000385l0.000137,-0.053974l-0.5634,-0.000576l0.000137,-0.053974l-0.375519,-0.000381l0.000153,-0.053905l-0.375931,-0.000385l0.000122,-0.05397l-0.563461,-0.00058l0.000153,-0.05397l-0.375443,-0.000385l0.000137,-0.054043l-0.563446,-0.000576l0.000153,-0.053974l-0.375473,-0.000385l0.000137,-0.053974l-0.3759,-0.000381l0.000137,-0.053905l-0.563507,-0.000576l0.000153,-0.054043l-0.375443,-0.000385l0.000153,-0.053902l-0.563461,-0.000576l0.000137,-0.054043l-0.375412,-0.000385l0.000153,-0.053974l-0.563522,-0.000576l0.000153,-0.053905l-0.375443,-0.000381l0.000153,-0.054047l-0.376007,-0.000381l0.000137,-0.053974l-0.563416,-0.00058l0.000153,-0.05397l-0.375504,-0.000385l0.000153,-0.053902l-0.563416,-0.00058l0.000137,-0.054043l-0.375961,-0.000385l0.000122,-0.054039l-0.375473,-0.000385l0.000153,-0.053905l-0.563461,-0.000572l0.000122,-0.053978l-0.375916,-0.000381l0.000168,-0.053974l-0.563004,-0.000576l0.000153,-0.054043l-0.375946,-0.000385l0.000137,-0.053833l-0.563446,-0.000576l0.000137,-0.054047l-0.375443,-0.000381l0.000122,-0.053974l-0.375427,-0.000381l0.000137,-0.054043l-0.563965,-0.00058l0.000122,-0.053833l-0.375427,-0.000385l0.000137,-0.054043l-0.563477,-0.000576l0.000153,-0.054043l-0.375443,-0.000385l0.000137,-0.05397l-0.375961,-0.000389l0.000153,-0.053902l-0.563461,-0.000576l0.000153,-0.054043l-0.375504,-0.000385l0.000153,-0.053974l-0.563416,-0.000576l0.000122,-0.053974l-0.375488,-0.000381l0.000137,-0.053833l-0.563385,-0.00058l0.000137,-0.054039l-0.376007,-0.000385l0.000137,-0.053974l-0.375443,-0.000385l0.000137,-0.054043l-0.563461,-0.000576l0.000153,-0.053905l-0.375946,-0.000381l0.000122,-0.053974l-0.563461,-0.000576l0.000153,-0.053974l-0.375427,-0.000385l0.000168,-0.05397l-0.375458,-0.000389l0.000153,-0.05397l-0.563492,-0.00058l0.000153,-0.054039l-0.375443,-0.000385l0.000137,-0.053974l-0.563477,-0.000576l0.000122,-0.053905l-0.375931,-0.000381l0.000168,-0.053974l-0.563492,-0.000576l0.000137,-0.054115l-0.375427,-0.000381l0.000137,-0.053833l-0.375488,-0.000385l0.000137,-0.054043l-0.563385,-0.000576l0.000122,-0.054043l-0.376007,-0.000385l0.000137,-0.053905l-0.563385,-0.000576l0.000137,-0.053974l-0.375504,-0.000381l0.000137,-0.053974l-0.375412,-0.000385l0.000122,-0.05397l-0.563965,-0.00058l0.000122,-0.05397l-0.375427,-0.000385l0.000122,-0.053974l-0.563477,-0.00058l0.000137,-0.05397l-0.375397,-0.000385l0.000137,-0.054043l-0.376053,-0.000385l0.000153,-0.053902l-0.56337,-0.00058l0.000137,-0.053902l-0.375458,-0.000385l0.000137,-0.05397l-0.563461,-0.00058l0.000137,-0.054043l-0.375412,-0.000385l0.000137,-0.05397l-0.563507,-0.000576l0.000168,-0.053974l-0.376007,-0.000385l0.000137,-0.05397l-0.375412,-0.000385l0.000153,-0.053974l-0.563431,-0.000576l0.000153,-0.053974l-0.375534,-0.000385l0.000153,-0.05397l-0.563385,-0.00058l0.000153,-0.054039l-0.376007,-0.000389l0.000137,-0.053902l-0.375458,-0.000381l0.000137,-0.053974l-0.563477,-0.000576l0.000122,-0.053974l-0.375381,-0.000385l0.000137,-0.053974l-0.563492,-0.000576l0.000137,-0.053974l-0.375946,-0.000381l0.000137,-0.053974l-0.563431,-0.00058l0.000153,-0.054043l-0.375488,-0.000385l0.000153,-0.053829l-0.375443,-0.000385l0.000137,-0.054043l-0.563461,-0.000576l0.000137,-0.053974l-0.376007,-0.000385l0.000153,-0.054043l-0.5634,-0.000576l0.000137,-0.053974l-0.375443,-0.000385l0.000153,-0.053902l-0.375534,-0.000385l0.000153,-0.05397l-0.563965,-0.00058l0.000153,-0.054043l-0.375427,-0.000385l0.000137,-0.053902l-0.5634,-0.000576l0.000137,-0.053974l-0.375519,-0.000385l0.000137,-0.054043l-0.563416,-0.000576l0.000153,-0.053974l-0.376007,-0.000385l0.000137,-0.053902l-0.375427,-0.000385l0.000137,-0.05397l-0.563461,-0.00058l0.000137,-0.054043l-0.375427,-0.000381l0.000168,-0.053974l-0.563522,-0.000576l0.000153,-0.053905l-0.375916,-0.000385l0.000122,-0.053974l-0.375488,-0.000385l0.000137,-0.054039l-0.563431,-0.00058l0.000137,-0.05397l-0.375412,-0.000385l0.000137,-0.053905l-0.563477,-0.000576l0.000137,-0.053974l-0.375992,-0.000381l0.000137,-0.054047l-0.375443,-0.000381l0.000168,-0.05397l-0.563431,-0.00058l0.000137,-0.053905l-0.375488,-0.000381l0.000122,-0.053974l-0.563416,-0.000576l0.000153,-0.054043l-0.375473,-0.000385l0.000137,-0.05397l-0.563416,-0.00058l0.000122,-0.053902l-0.375977,-0.000385l0.000122,-0.054043l-0.375412,-0.000385l0.000122,-0.053902l-0.563477,-0.00058l0.000168,-0.054039l-0.375977,-0.000385l0.000168,-0.053905l-0.563461,-0.000576l0.000153,-0.054043l-0.375458,-0.000385l0.000153,-0.05397l-0.375473,-0.000385l0.000137,-0.053902l-0.563446,-0.00058l0.000137,-0.054043l-0.376007,-0.000385l0.000153,-0.053902l-0.56337,-0.00058l0.000122,-0.054043l-0.375473,-0.000381l0.000137,-0.053974l-0.563461,-0.000576l0.000153,-0.053974l-0.375443,-0.000381l0.000137,-0.053978l-0.376007,-0.000381l0.000137,-0.053974l-0.563354,-0.000576l0.000122,-0.053902l-0.375519,-0.000385l0.000153,-0.054043l-0.563431,-0.00058l0.000137,-0.05397l-0.375473,-0.000385l0.000122,-0.053905l-0.375427,-0.000381l0.000153,-0.054115l-0.563965,-0.000576l0.000153,-0.053902l-0.375473,-0.000385l0.000153,-0.05397l-0.563477,-0.00058l0.000137,-0.05397l-0.375427,-0.000385l0.000137,-0.054043l-0.376007,-0.000385l0.000137,-0.053905l-0.5634,-0.000576l0.000137,-0.053974l-0.375443,-0.000385l0.000153,-0.054043l-0.563477,-0.000576l0.000122,-0.05397l-0.375427,-0.000385l0.000153,-0.053902l-0.563446,-0.00058l0.000153,-0.05397l-0.376038,-0.000385l0.000137,-0.05397l-0.375427,-0.000385l0.000137,-0.053974l-0.563385,-0.00058l0.000137,-0.05397l-0.376022,-0.000385l0.000137,-0.053974l-0.563446,-0.000576l0.000153,-0.054043l-0.375458,-0.000385l0.000122,-0.053974l-0.375427,-0.000385l0.000137,-0.053902l-0.563477,-0.000576l0.000153,-0.053974l-0.375946,-0.000385l0.000153,-0.05397l-0.563492,-0.00058l0.000137,-0.05397l-0.375427,-0.000385l0.000137,-0.05397l-0.563431,-0.00058l0.000122,-0.054047l-0.375931,-0.000381l0.000153,-0.05397l-0.375488,-0.000385l0.000122,-0.053978l-0.563385,-0.000572l0.000153,-0.053905l-0.375519,-0.000385l0.000153,-0.054039l-0.563431,-0.000576l0.000122,-0.053974l-0.375977,-0.000389l0.000122,-0.053902l-0.375427,-0.000385l0.000153,-0.05397l-0.563477,-0.000576l0.000153,-0.053974l-0.375427,-0.000385l0.000122,-0.054043l-0.563416,-0.000576l0.000122,-0.053905l-0.375488,-0.000381l0.000153,-0.053974l-0.563385,-0.000576l0.000122,-0.054043l-0.376007,-0.000385l0.000153,-0.053974l-0.375427,-0.000385l0.000122,-0.053902l-0.563477,-0.000576l0.000183,-0.054043l-0.375488,-0.000385l0.000153,-0.053974l-0.563934,-0.000576l0.000153,-0.053974l-0.375458,-0.000381l0.000122,-0.053902l-0.375488,-0.000385l0.000153,-0.054047l-0.563416,-0.000576l0.000153,-0.05397l-0.375977,-0.000389l0.000153,-0.053974l-0.563446,-0.000576l0.000153,-0.05397l-0.375519,-0.000385l0.000153,-0.05397l-0.375458,-0.000385l0.000153,-0.053978l-0.563416,-0.000572l0.000153,-0.053978l-0.376007,-0.000381l0.000153,-0.05397l-0.563477,-0.00058l0.000122,-0.053902l-0.375397,-0.000389l0.000122,-0.054043l-0.563416,-0.000572l0.000153,-0.054043l-0.375488,-0.000385l0.000122,-0.053902l-0.375458,-0.000385l0.000183,-0.053974l-0.563995,-0.000576l0.000153,-0.053974l-0.375458,-0.000385l0.000153,-0.054043l-0.563477,-0.000576l0.000153,-0.053902l-0.375427,-0.000385l0.000122,-0.053905l-0.376007,-0.000385l0.000122,-0.054039l-0.562866,-0.000576l0.000153,-0.054047l-0.376007,-0.000385l0.000122,-0.053902l-0.563416,-0.000576l0.000153,-0.053974l-0.375427,-0.000385l0.000153,-0.05397l-0.563507,-0.00058l0.000153,-0.05397l-0.376007,-0.000389l0.000122,-0.05397l-0.375427,-0.000385l0.000153,-0.053974l-0.563446,-0.000576l0.000122,-0.054043l-0.375427,-0.000381l0.000153,-0.053905l-0.563385,-0.000576l0.000153,-0.053974l-0.376068,-0.000385l0.000153,-0.05397l-0.375427,-0.000385l0.000122,-0.053974l-0.563477,-0.000576l0.000153,-0.053974l-0.375916,-0.000385l0.000122,-0.053974l-0.563507,-0.000572l0.000153,-0.053974l-0.375427,-0.000385l0.000122,-0.053974l-0.375458,-0.000381l0.000122,-0.054043l-0.563385,-0.00058l0.000153,-0.05397l-0.376007,-0.000389l0.000153,-0.05397l-0.562927,-0.000576l0.000153,-0.053974l-0.376038,-0.000385l0.000153,-0.053833l-0.563416,-0.00058l0.000153,-0.054039l-0.375488,-0.000385l0.000153,-0.054043l-0.375977,-0.000385l0.000153,-0.05397l-0.563446,-0.00058l0.000122,-0.05397l-0.375427,-0.000385l0.000092,-0.053905l-0.563416,-0.000576l0.000122,-0.054043l-0.375946,-0.000385l0.000153,-0.053905l-0.375427,-0.000381l0.000153,-0.054039l-0.563477,-0.00058l0.000122,-0.053902l-0.375458,-0.000385l0.000153,-0.054043l-0.563477,-0.000576l0.000153,-0.053974l-0.375427,-0.000385l0.000122,-0.053974l-0.563446,-0.000576l0.000153,-0.053902l-0.375946,-0.000385l0.000122,-0.054043l-0.375488,-0.000385l0.000153,-0.05397l-0.563446,-0.00058l0.000153,-0.053905l-0.375977,-0.000381l0.000153,-0.053974l-0.563385,-0.000576l0.000122,-0.054047l-0.375488,-0.000381l0.000153,-0.053974l-0.375458,-0.000381l0.000153,-0.054047l-0.563507,-0.000576l0.000122,-0.05397l-0.375946,-0.000385l0.000153,-0.053905l-0.562897,-0.000576l0.000153,-0.05397l-0.376007,-0.000389l0.000153,-0.05397l-0.563507,-0.00058l0.000153,-0.05397l-0.375458,-0.000381l0.000153,-0.053978l-0.375916,-0.000381l0.000153,-0.053974l-0.562958,-0.000576l0.000092,-0.053974l-0.375916,-0.000385l0.000153,-0.05397l-0.563477,-0.000576l0.000153,-0.053974l-0.375458,-0.000385l0.000153,-0.054047l-0.376007,-0.000381l0.000122,-0.053974l-0.562897,-0.000576l0.000153,-0.053902l-0.375977,-0.000385l0.000153,-0.053974l-0.563446,-0.000576l0.000153,-0.053974l-0.375488,-0.000385l0.000153,-0.05397l-0.375458,-0.000385l0.000122,-0.053974l-0.563416,-0.000576l0.000092,-0.053905l-0.375916,-0.000381l0.000092,-0.054115l-0.563385,-0.000576l0.000122,-0.053833l-0.375488,-0.000385l0.000153,-0.054043l-0.563416,-0.000576l0.000153,-0.054043l-0.376007,-0.000385l0.000153,-0.053974l-0.375458,-0.000385l0.000153,-0.053902l-0.563477,-0.000576l0.000153,-0.053974l-0.375488,-0.000381l0.000183,-0.054047l-0.563477,-0.000576l0.000153,-0.053974l-0.375946,-0.000381l0.000092,-0.053902l-0.375397,-0.000385l0.000122,-0.053974l-0.563416,-0.00058l0.000122,-0.054039l-0.375427,-0.000385l0.000153,-0.053902l-0.563507,-0.00058l0.000122,-0.05397l-0.375916,-0.000385l0.000153,-0.054043l-0.563477,-0.00058l0.000153,-0.053902l-0.375458,-0.000385l0.000153,-0.054043l-0.376038,-0.000385l0.000183,-0.053902l-0.563416,-0.00058l0.000122,-0.054039l-0.375458,-0.000385l0.000122,-0.053974l-0.563446,-0.000576l0.000153,-0.053974l-0.375916,-0.000385l0.000122,-0.053902l-0.375458,-0.000385l0.000122,-0.054043l-0.563477,-0.000576l0.000153,-0.053902l-0.375458,-0.000385l0.000153,-0.054043l-0.563446,-0.000576l0.000122,-0.053905l-0.375427,-0.000381l0.000122,-0.054047l-0.375427,-0.000385l0.000153,-0.05397l-0.563995,-0.00058l0.000153,-0.053902l-0.375488,-0.000385l0.000153,-0.054111l-0.563446,-0.000576l0.000153,-0.053902l-0.375458,-0.000389l0.000122,-0.05397l-0.563416,-0.000576l0.000122,-0.053974l-0.375977,-0.000385l0.000122,-0.053974l-0.375427,-0.000381l0.000122,-0.053974l-0.563416,-0.000576l0.000122,-0.053974l-0.375458,-0.000385l0.000153,-0.054043l-0.563965,-0.000576l0.000153,-0.053905l-0.375458,-0.000381l0.000153,-0.053974l-0.375519,-0.000385l0.000153,-0.053974l-0.563446,-0.000576l0.000153,-0.054043l-0.375427,-0.000381l0.000122,-0.053978l-0.563446,-0.000572l0.000122,-0.053905l-0.375946,-0.000385l0.000122,-0.05397l-0.563416,-0.00058l0.000122,-0.053902l-0.375458,-0.000385l0.000153,-0.05397l-0.375427,-0.000385l0.000153,-0.054047l-0.563477,-0.000576l0.000153,-0.054043l-0.376007,-0.000385l0.000153,-0.05397l-0.563446,-0.000576l0.000153,-0.053905l-0.375488,-0.000381l0.000153,-0.053974l-0.375427,-0.000385l0.000092,-0.054043l-0.563385,-0.00058l0.000153,-0.053902l-0.375977,-0.000381l0.000122,-0.053978l-0.563416,-0.000572l0.000122,-0.053978l-0.375488,-0.000381l0.000153,-0.054043l-0.563416,-0.000576l0.000122,-0.053902l-0.375488,-0.000389l0.000153,-0.05397l-0.375977,-0.000385l0.000153,-0.054043l-0.563477,-0.00058l0.000153,-0.053902l-0.375427,-0.000381l0.000122,-0.053974l-0.563446,-0.000576l0.000153,-0.053974l-0.375946,-0.000385l0.000122,-0.05397l-0.375458,-0.000389l0.000122,-0.054039l-0.563416,-0.000576l0.000122,-0.053905l-0.375427,-0.000385l0.000122,-0.053974l-0.563477,-0.000572l0.000122,-0.054043l-0.375366,-0.000385l0.000122,-0.053974l-0.375977,-0.000385l0.000153,-0.053902l-0.563477,-0.00058l0.000122,-0.05397l-0.375458,-0.000385l0.000153,-0.054043l-0.563446,-0.000576l0.000153,-0.053974l-0.375977,-0.000385l0.000153,-0.053902l-0.563416,-0.000576l0.000153,-0.053905l-0.375549,-0.000385l0.000183,-0.054111l-0.375946,-0.000385l0.000122,-0.053974l-0.563446,-0.000576l0.000122,-0.053905l-0.375427,-0.000381l0.000153,-0.054043l-0.563446,-0.000576l0.000092,-0.053905l-0.375916,-0.000381l0.000122,-0.054047l-0.375488,-0.000381l0.000153,-0.053905l-0.562927,-0.000576l0.000153,-0.053974l-0.376007,-0.000385l0.000153,-0.05397l-0.563416,-0.00058l0.000153,-0.054039l-0.375458,-0.000385l0.000153,-0.053974l-0.563477,-0.000576l0.000122,-0.053974l-0.375397,-0.000385l0.000122,-0.05397l-0.375977,-0.000385l0.000122,-0.053905l-0.563446,-0.000576l0.000153,-0.054043l-0.375458,-0.000385l0.000153,-0.053974l-0.563446,-0.000576l0.000153,-0.05397l-0.376007,-0.000385l0.000153,-0.054043l-0.375458,-0.000385l0.000153,-0.053833l-0.563477,-0.000576l0.000153,-0.054047l-0.375427,-0.000381l0.000122,-0.053974l-0.563477,-0.000576l0.000153,-0.053902l-0.375427,-0.000385l0.000122,-0.054115l-0.563965,-0.000576l0.000153,-0.053902l-0.375427,-0.000385l0.000122,-0.05397l-0.375488,-0.000385l0.000153,-0.054043l-0.563446,-0.00058l0.000153,-0.053902l-0.376007,-0.000385l0.000153,-0.05397l-0.563416,-0.00058l0.000153,-0.05397l-0.375488,-0.000389l0.000122,-0.05397l-0.375427,-0.000381l0.000153,-0.053978l-0.563446,-0.000576l0.000183,-0.053974l-0.376038,-0.000381l0.000153,-0.053974l-0.563477,-0.000576l0.000153,-0.054043l-0.375427,-0.000385l0.000122,-0.053974l-0.375427,-0.000385l0.000153,-0.053902l-0.563446,-0.000576l0.000122,-0.053974l-0.375458,-0.000381l0.000122,-0.053978l-0.563934,-0.000576l0.000122,-0.053974l-0.375427,-0.000385l0.000153,-0.053967l-0.563477,-0.00058l0.000153,-0.054043l-0.375458,-0.000385l0.000153,-0.053974l-0.376038,-0.000385l0.000153,-0.053902l-0.563416,-0.000576l0.000153,-0.054043l-0.375488,-0.000385l0.000153,-0.053833l-0.563385,-0.000576l0.000092,-0.054047l-0.375397,-0.000385l0.000122,-0.05397l-0.376007,-0.000385l0.000122,-0.053974l-0.563446,-0.000576l0.000153,-0.054039l-0.375458,-0.000385l0.000153,-0.053974l-0.563416,-0.00058l0.000153,-0.054039l-0.375519,-0.000385l0.000153,-0.053833l-0.563446,-0.000576l0.000153,-0.053974l-0.376007,-0.000385l0.000153,-0.053974l-0.375427,-0.000385l0.000122,-0.054043l-0.563446,-0.000576l0.000153,-0.053902l-0.375916,-0.000385l0.000092,-0.054043l-0.563446,-0.000576l0.000122,-0.053905l-0.375427,-0.000381l0.000153,-0.054047l-0.376007,-0.000381l0.000153,-0.053974l-0.563416,-0.00058l0.000153,-0.053902l-0.375519,-0.000385l0.000153,-0.054111l-0.563446,-0.000576l0.000153,-0.053905l-0.375488,-0.000385l0.000122,-0.05397l-0.375397,-0.000385l0.000092,-0.053974l-0.563385,-0.000572l0.000153,-0.053978l-0.375977,-0.000381l0.000122,-0.05397l-0.562897,-0.00058l0.000122,-0.053974l-0.376007,-0.000385l0.000153,-0.053902l-0.563477,-0.000576l0.000122,-0.054043l-0.375427,-0.000385l0.000153,-0.053905l-0.375946,-0.000381l0.000153,-0.054047l-0.563477,-0.000576l0.000153,-0.054043l-0.375458,-0.000381l0.000122,-0.053905l-0.563446,-0.000576l0.000153,-0.053974l-0.375946,-0.000385l0.000153,-0.05397l-0.375488,-0.000385l0.000122,-0.053905l-0.563416,-0.000572l0.000153,-0.054115l-0.375519,-0.000385l0.000153,-0.053902l-0.563416,-0.000576l0.000122,-0.053974l-0.375458,-0.000385l0.000122,-0.053902l-0.563385,-0.00058l0.000153,-0.054039l-0.376007,-0.000389l0.000153,-0.05397l-0.375488,-0.000385l0.000153,-0.05397l-0.563477,-0.00058l0.000153,-0.054043l-0.375458,-0.000381l0.000153,-0.053978l-0.563965,-0.000572l0.000153,-0.053905l-0.375458,-0.000385l0.000153,-0.054039l-0.375427,-0.000389l0.000153,-0.053902l-0.563477,-0.000576l0.000092,-0.053974l-0.375916,-0.000385l0.000153,-0.053974l-0.562958,-0.000576l0.000153,-0.054043l-0.375946,-0.000381l0.000153,-0.053978l-0.563507,-0.000572l0.000153,-0.053905l-0.375458,-0.000385l0.000153,-0.054043l-0.375519,-0.000381l0.000153,-0.053974l-0.563904,-0.00058l0.000153,-0.05397l-0.375488,-0.000385l0.000122,-0.053902l-0.563416,-0.000576l0.000122,-0.054047l-0.375458,-0.000381l0.000122,-0.053974l-0.375916,-0.000385l0.000122,-0.053974l-0.563446,-0.000576l0.000153,-0.053974l-0.375458,-0.000381l0.000153,-0.053974l-0.563477,-0.000576l0.000153,-0.053905l-0.375488,-0.000385l0.000153,-0.05397l-0.375946,-0.000385l0.000153,-0.053974l-0.562958,-0.000576l0.000153,-0.053974l-0.375946,-0.000385l0.000122,-0.05397l-0.563446,-0.000576l0.000153,-0.054047l-0.375458,-0.000385l0.000122,-0.05397l-0.563446,-0.00058l0.000122,-0.053898l-0.375916,-0.000385l0.000122,-0.053974l-0.375488,-0.000385l0.000153,-0.05397l-0.563416,-0.00058l0.000153,-0.054039l-0.376038,-0.000385l0.000153,-0.053974l-0.563416,-0.00058l0.000153,-0.05397l-0.375488,-0.000385l0.000122,-0.053902l-0.375916,-0.000385l0.000122,-0.054047l-0.563446,-0.000576l0.000153,-0.053974l-0.375488,-0.000381l0.000153,-0.053905l-0.563477,-0.000576l0.000153,-0.05397l-0.375427,-0.000385l0.000122,-0.053974l-0.563446,-0.000576l0.000122,-0.054043l-0.375397,-0.000385l0.000122,-0.05397l-0.375427,-0.000385l0.000153,-0.053974l-0.563507,-0.000576l0.000153,-0.053974l-0.375946,-0.000385l0.000153,-0.053974l-0.563477,-0.000576l0.000153,-0.053902l-0.375458,-0.000385l0.000153,-0.054111l-0.376007,-0.000389l0.000153,-0.053898l-0.563446,-0.00058l0.000153,-0.053974l-0.375488,-0.000381l0.000122,-0.054047l-0.563385,-0.000576l0.000122,-0.053902l-0.375458,-0.000385l0.000153,-0.05397l-0.563416,-0.00058l0.000153,-0.053974l-0.376038,-0.000385l0.000153,-0.05397l-0.375458,-0.000385l0.000153,-0.053902l-0.563477,-0.00058l0.000153,-0.054039l-0.375458,-0.000385l0.000153,-0.053974l-0.563446,-0.000576l0.000122,-0.054043l-0.375977,-0.000385l0.000153,-0.053902l-0.375397,-0.000385l0.000092,-0.053974l-0.563446,-0.000576l0.000153,-0.054043l-0.375427,-0.000385l0.000153,-0.053902l-0.563965,-0.00058l0.000122,-0.054039l-0.375458,-0.000385l0.000153,-0.053905l-0.375519,-0.000385l0.000153,-0.05397l-0.563416,-0.00058l0.000153,-0.05397l-0.375488,-0.000385l0.000122,-0.053974l-0.563385,-0.000576l0.000122,-0.053974l-0.376007,-0.000381l0.000122,-0.054043l-0.563385,-0.00058l0.000153,-0.053902l-0.375519,-0.000385l0.000153,-0.05397l-0.375427,-0.000385l0.000153,-0.054047l-0.563965,-0.000576l0.000122,-0.05397l-0.375458,-0.000385l0.000183,-0.053905l-0.563507,-0.000576l0.000153,-0.05397l-0.375427,-0.000385l0.000122,-0.054047l-0.375427,-0.000381l0.000122,-0.053974l-0.563934,-0.000576l0.000122,-0.053905l-0.375427,-0.000381l0.000153,-0.053974l-0.563019,-0.000576l0.000153,-0.054043l-0.375946,-0.000385l0.000153,-0.053974l-0.563477,-0.000576l0.000153,-0.053905l-0.375427,-0.000381l0.000122,-0.053974l-65.548492,-0.06712" id="path172"/>
     </g>
    </g>
   </g>
   <path transform="rotate(0.2788001000881195 439.98519897461097,37.532592773439916) " fill="#6aa9d8" fill-rule="nonzero" d="m281.229095,38.710571c-14.947083,-7.765553 -33.875961,-17.603355 -58.504303,-30.399509l-55.072311,-0.056389c20.636765,8.29216 38.05899,15.291126 52.884583,21.25153c25.70607,10.324631 45.261368,18.188301 60.642471,24.36293c12.323212,4.957237 22.49411,9.045494 31.044006,12.478325l400.064545,0.463058l0.029846,-11.419334c-294.498749,-0.31015 -399.856079,-0.440201 -399.856018,-0.449356c-8.581055,-4.459541 -18.820496,-9.779388 -31.232819,-16.231255" id="path144"/>
  </g>
 </g>
</svg>