<svg width="900" height="500" xmlns="http://www.w3.org/2000/svg">
 <metadata id="metadata8">image/svg+xml</metadata>
 <defs>
  <clipPath clipPathUnits="userSpaceOnUse" id="clipPath124">
   <path d="m4052.912109,2852.265625c-3.959961,-82.009766 -9.060059,-186.149658 -15.580078,-323.029785c-4.199707,-85.869873 -9.060059,-187.679932 -15.060059,-310.399902c-7.179688,-150.699707 -16.319824,-340.269897 -28.179688,-585.889893c-7.42041,-152.290039 -15.990234,-330.949951 -26.290039,-543.650024c-5.840332,-122.239929 -12.359863,-257.289856 -19.599854,-407.369934c-8.160156,-167.669983 -17.220215,-356.27002 -27.530273,-569.950027c-11.769531,-244.030106 -25.359863,-525.531113 -41.179688,-853.85112c-6.180176,-128.47583 -12.859863,-265.308899 -19.77002,-410.788879l-1916.069458,0c66.899902,146.640991 129.84021,284.461121 188.990112,413.929993c149.689941,327.812012 278.050049,608.889999 389.360107,852.620148c97.369873,213.419922 183.539795,401.769928 259.909912,569.270172c68.389893,149.959778 130.080078,284.889709 185.859863,407.049927c96.970215,212.469849 178.540039,391 247.980225,543.1698c112.119629,245.469971 198.629883,434.950073 267.429688,585.579956c56.010254,122.659912 102.470215,224.539795 141.700195,310.369873c62.52002,136.790039 110.02002,240.929932 147.419922,322.939697c30.239746,66.140137 55.199707,120.69043 76.049316,166.42041c0.240234,0 0.580078,1060.150391 0.820313,2628.219727l211.889893,0l-0.160156,-2629.179688c-2.319824,-45.5 -4.850098,-99.780273 -7.990234,-165.460449z" id="path126"/>
  </clipPath>
  <linearGradient x1="-1.0178" y1="0" x2="-1.017328" y2="0" gradientTransform="matrix(2117.42,0,0,-2117.42,2155.1,3399.79)" spreadMethod="pad" id="linearGradient128">
   <stop stop-color="#fce98f" offset="0" id="stop130"/>
   <stop stop-color="#fac708" offset="0.5" id="stop132"/>
   <stop stop-color="#f7a40e" offset="1" id="stop134"/>
  </linearGradient>
  <clipPath clipPathUnits="userSpaceOnUse" id="clipPath154">
   <path d="m-210.928497,-1202.312988l0,8516l6096.999786,0l0,-8516l-6096.999786,0z" id="path156"/>
  </clipPath>
  <clipPath clipPathUnits="userSpaceOnUse" id="clipPath160">
   <path d="m4371.021484,2802.616455c33.939941,-82.009766 77.119629,-186.209717 133.799805,-323.099609c35.5,-85.860107 77.600098,-187.72998 128.509766,-310.52002c62.44043,-150.779785 140.960449,-340.449707 242.800293,-586.229614c63.089844,-152.370239 137.149902,-331.209961 225.22998,-544.110229c50.660156,-122.34967 106.77002,-257.589905 168.899902,-407.779907c69.52002,-167.870056 147.620117,-356.710022 236.27002,-570.689972c101.260254,-244.470016 218.069824,-526.461151 354.260254,-855.319977c8.469727,-20.41803 17.049805,-41.219055 25.699707,-62.071045l0,-345.10907l-1773.830078,0c-0.739746,145.301025 -1.490234,281.941101 -2.300293,410.313049c-1.819336,328.41684 -3.379883,609.996918 -4.789551,854.087067c-1.150391,213.739929 -2.220703,402.329865 -3.120605,570.010162c-0.82959,150.079834 -1.57959,285.179932 -2.229492,407.479614c-1.22998,212.650146 -2.220215,391.370117 -3.040527,543.650146c-1.409424,245.659912 -2.479736,435.26001 -3.299561,585.959717c-0.740234,122.659912 -1.319824,224.530029 -1.72998,310.399902c-0.740234,136.820068 -1.330078,241.02002 -1.72998,323.029785c-0.419922,66.17041 -0.75,120.69043 -0.910156,166.450195c0,0 0,0 0.080078,0l0,3391.440186l211.900146,0c0.149902,-1568.07959 0.410156,-3391.409912 0.490234,-3391.409912c19.029785,-45.790039 41.609863,-100.310059 69.040039,-166.480469l0,0z" id="path162"/>
  </clipPath>
  <linearGradient x1="-2.392877" y1="0" x2="-2.392321" y2="0" gradientTransform="matrix(1796.97,0,0,-1796.97,4300.44,3781.41)" spreadMethod="pad" id="linearGradient164">
   <stop stop-color="#f68341" offset="0" id="stop166"/>
   <stop stop-color="#f26319" offset="0.5" id="stop168"/>
   <stop stop-color="#d55221" offset="1" id="stop170"/>
  </linearGradient>
 </defs>
 <g>
  <title>Layer 1</title>
  <ellipse y="NaN" x="NaN" y2="NaN" x2="NaN" y1="NaN" x1="NaN" r="NaN" transform="rotate(0.2788001000881195 437.3337707519887,486.8648681640671) matrix(1.7099191248676124,-0.3917699889288428,0.6223596644543244,1.076379198201983,-592.7177636629293,205.54642215915032) " id="svg_2" cy="420" cx="450" stroke-width="5" stroke="#000000" fill="#FF0000"/>
  <ellipse y="NaN" x="NaN" y2="NaN" x2="NaN" y1="NaN" x1="NaN" r="NaN" transform="rotate(0.2788001000881195 114.85680389410446,567.7697143554669) " id="svg_3" cy="570" cx="110" stroke-width="5" stroke="#000000" fill="#FF0000"/>
  <ellipse y="NaN" x="NaN" y2="NaN" x2="NaN" y1="NaN" x1="NaN" r="NaN" transform="rotate(0.2788001000881195 276.2080383300339,691.1203613281227) " id="svg_4" cy="690" cx="280" stroke-width="5" stroke="#000000" fill="#FF0000"/>
  <ellipse y="NaN" x="NaN" y2="NaN" x2="NaN" y1="NaN" x1="NaN" r="NaN" transform="rotate(0.2788001000881195 279.8473205566327,691.1380615234361) " id="svg_5" cy="690" cx="280" stroke-width="5" stroke="#000000" fill="#FF0000"/>
  <ellipse y="NaN" x="NaN" y2="NaN" x2="NaN" y1="NaN" x1="NaN" r="NaN" transform="matrix(1.7627665258260437,0.4921108800404578,-0.8285745871271756,1.0343839314445369,-3.469973309003592,-187.4907946008891) " id="svg_1" cy="340" cx="460" stroke-width="5" stroke="#000000" fill="#FF0000"/>
  <g id="svg_86">
   <g id="g120">
    <g id="g122" clip-path="url(#clipPath124)">
     <path fill="url(#linearGradient128)" fill-rule="nonzero" d="m333.56842,136.534836c-16.489166,0.123062 -37.427032,0.283173 -64.948151,0.483521c-17.265518,0.13176 -37.735428,0.281433 -62.409378,0.469498c-30.299927,0.220795 -68.415161,0.504318 -117.799484,0.872818c-30.619736,0.232025 -66.541134,0.496918 -109.307085,0.817474c-24.577433,0.180069 -51.73081,0.38266 -81.905584,0.607376c-33.712227,0.254791 -71.632301,0.535217 -114.594536,0.855301c-49.064987,0.365372 -105.664261,0.78746 -171.676102,1.278183c-25.831207,0.19136 -53.342987,0.400513 -82.593628,0.612549l-0.828308,103.415894c29.509827,-3.448639 57.244354,-6.693268 83.298615,-9.742462c65.967712,-7.716553 122.531128,-14.333649 171.578583,-20.071838c42.947937,-5.019104 80.851212,-9.46167 114.558189,-13.398209c30.177429,-3.52536 57.33041,-6.705719 81.913496,-9.581207c42.757101,-4.998627 78.683596,-9.203735 109.305933,-12.783295c49.397797,-5.779907 87.528366,-10.23941 117.84108,-13.786133c24.683456,-2.887421 45.185699,-5.282272 62.457504,-7.304626c27.527679,-3.22316 48.484009,-5.671646 64.987579,-7.599472c13.310242,-1.559036 24.287292,-2.845871 33.490326,-3.920593c0.000061,-0.01297 213.132172,1.141418 528.37674,2.863144l0.091553,-11.436279l-528.569489,-2.899765c-9.148407,0.074753 -20.061951,0.151276 -33.267853,0.248123" id="path136"/>
    </g>
   </g>
   <path fill="#183b34" fill-rule="nonzero" d="m333.417755,153.67215c-16.49173,2.170059 -37.451294,4.922806 -64.986725,8.537689c-17.26828,2.266525 -37.760803,4.959396 -62.448013,8.203217c-30.328003,3.986176 -68.456772,8.996902 -117.866341,15.48938c-30.613247,4.023895 -66.544388,8.740601 -109.306395,14.360291c-24.575502,3.231323 -51.732088,6.799896 -81.898958,10.760834c-33.70858,4.424805 -71.602257,9.410614 -114.547508,15.048462c-49.05098,6.449097 -105.623611,13.878998 -171.57225,22.543335c-26.082916,3.42746 -53.842285,7.077301 -83.394714,10.956024l-0.821777,102.693451l2.762726,0.014587c28.774017,-6.925293 55.866455,-13.446228 81.339386,-19.571503c65.898346,-15.858612 122.443207,-29.461731 171.465302,-41.265045c42.932205,-10.323944 80.82283,-19.449799 114.512077,-27.561768c30.1698,-7.25592 57.325321,-13.785553 81.896935,-19.701904c42.774689,-10.294708 78.701572,-18.941467 109.327637,-26.310333c49.416519,-11.894531 87.564301,-21.071198 117.894577,-28.370422c24.699158,-5.946793 45.194763,-10.876678 62.49115,-15.042114c27.547913,-6.625839 48.52475,-11.672531 65.031219,-15.646561c13.331848,-3.207428 33.529877,-8.134659 33.529999,-8.161667l580.910675,3.19577l0.091614,-11.411728l-581.010529,-3.148209c-9.182037,1.203262 -20.119781,2.647568 -33.400085,4.388214" id="path138"/>
   <path fill="#41b93c" fill-rule="nonzero" d="m333.280273,170.802124c-16.508057,4.209457 -37.487671,9.563812 -65.039246,16.584442c-17.297562,4.409653 -37.801956,9.636612 -62.497437,15.939926c-30.325912,7.734573 -68.48645,17.463608 -117.896538,30.069168c-30.618168,7.813995 -66.560114,16.976532 -109.325928,27.880127c-24.576588,6.267822 -51.735245,13.193481 -81.893768,20.884705c-33.694069,8.588348 -71.590706,18.259857 -114.514488,29.203308c-49.027145,12.505554 -105.554398,26.926575 -171.460342,43.728485c-9.537415,2.432892 -19.311829,4.927521 -29.30603,7.47348l262.625763,1.445129c18.526398,-6.745941 35.961823,-13.093323 52.397629,-19.072357c30.172676,-10.977783 57.319271,-20.864655 81.890276,-29.814178c42.781696,-15.563629 78.717005,-28.648132 109.337606,-39.801544c49.441154,-17.994812 87.59095,-31.885956 117.951088,-42.937592c24.708817,-8.998322 45.217377,-16.457703 62.523926,-22.756866c27.565826,-10.035645 48.553772,-17.679657 65.086273,-23.694427c13.332245,-4.862 33.550659,-12.301468 33.551117,-12.350525l466.259674,2.565598l0.091187,-11.392044l-466.346741,-2.486191c-9.19223,2.345886 -20.146057,5.145248 -33.434021,8.531357" id="path140"/>
   <path fill="#7fcc2b" fill-rule="nonzero" d="m333.143097,187.925613c-16.524475,6.250641 -37.524811,14.196808 -65.093719,24.628067c-17.308517,6.54422 -37.815201,14.306427 -62.531189,23.664703c-30.349228,11.482941 -68.517822,25.920258 -117.954712,44.627625c-30.621956,11.592651 -66.561981,25.193695 -109.334139,41.370911c-24.563978,9.300568 -51.735693,19.574188 -81.889799,30.983246c-9.312958,3.523926 -18.94545,7.170624 -28.915863,10.939758l133.398158,0.734009c32.917462,-16.040283 61.477288,-29.952606 86.506498,-42.13681c26.41687,-12.878967 49.440285,-24.09198 69.692497,-33.954102c17.922653,-8.732758 33.930191,-16.524567 48.29509,-23.524933c24.727066,-12.047791 45.251709,-22.04718 62.569336,-30.47995c27.591156,-13.4375 48.58844,-23.673828 65.136658,-31.72496c13.345398,-6.503494 33.578156,-16.47258 33.578613,-16.530807l394.798035,2.172379l0.091492,-11.42717l-394.878479,-2.172821c0,0 -20.161255,7.799545 -33.468475,12.830856" id="path142"/>
  </g>
  <g id="svg_87">
   <path fill="#3171bb" fill-rule="nonzero" d="m333.990997,55.097603c-16.444336,-6.026566 -37.338074,-13.670708 -64.803497,-23.720264c-17.229324,-6.311674 -37.658493,-13.787411 -62.28299,-22.812123c-1.499664,-0.546382 -3.099243,-1.132751 -4.636826,-1.692836l-118.710136,-0.653204c1.807945,0.463905 3.665848,0.940458 5.439758,1.39117c49.354607,12.628686 87.427635,22.367534 117.7062,30.107493c24.640182,6.306519 45.076874,11.542244 62.329697,15.950413c27.465363,7.025959 48.371338,12.373886 64.825897,16.587006c13.226044,3.37722 24.129059,6.167801 33.283691,8.512138l523.36673,2.964569l0.091614,-11.428223c-315.232849,-1.760437 -523.243958,-2.959061 -523.243774,-2.984932c-9.156738,-3.363419 -20.100403,-7.364441 -33.366364,-12.221207" id="path146"/>
   <path d="m269.009369,56.602722c-92.606857,-22.347439 -130.683945,-31.534641 -180.046577,-43.443876c-9.254692,-2.233696 -19.050789,-4.595575 -29.302513,-7.071157l-360.528717,-1.983817c30.1539,3.954982 58.026077,7.616828 83.75676,10.990935c42.990311,5.643792 80.915573,10.623853 114.628357,15.051856c30.177872,3.954033 57.337418,7.523335 81.923372,10.75354c42.750414,5.607403 78.6761,10.322369 109.272291,14.341805c49.368011,6.478893 87.460068,11.477711 117.755142,15.454975c24.649185,3.235992 45.108353,5.918327 62.363754,8.183189c27.492432,3.61042 48.420105,6.357986 64.89035,8.516983c13.216217,1.736198 24.129303,3.16993 33.28064,4.367241l609.104889,3.395927l0.090576,-11.431419c-315.231873,-1.75251 -608.944305,-3.395599 -608.944183,-3.418304c-9.180298,-2.211655 -20.13205,-4.855072 -33.410187,-8.058769" fill="#1a1e46" fill-rule="nonzero" id="path148"/>
   <g id="g150">
    <g id="g152" clip-path="url(#clipPath154)">
     <g id="g158" clip-path="url(#clipPath160)">
      <path fill="url(#linearGradient164)" fill-rule="nonzero" d="m-471.556641,98.939529l22.71759,0.125l-0.000458,0.053917l36.187408,0.199127l-0.000458,0.054001l34.176178,0.18808l-0.000427,0.053925l36.187317,0.19912l-0.000397,0.05394l35.986572,0.198013l-0.000427,0.054016l35.985596,0.198013l-0.000427,0.054001l35.38353,0.194695l-0.000443,0.053963l36.187271,0.199127l-0.000427,0.054001l36.589218,0.201332l-0.000427,0.053909l36.387962,0.200226l-0.000435,0.05394l36.790489,0.202446l-0.000473,0.054108l36.387959,0.200218l-0.000427,0.053909l36.991661,0.203545l-0.000407,0.05397l35.181718,0.193588l-0.00045,0.053955l35.986105,0.198029l-0.000454,0.05397l36.790493,0.202431l-0.000458,0.053986l35.181801,0.193581l-0.000458,0.05397l35.382965,0.194687l-0.000397,0.053986l36.187317,0.199112l-0.000519,0.054016l34.779968,0.191368l-0.000458,0.053955l37.795364,0.207962l-0.000427,0.053932l36.790405,0.202438l-0.000458,0.054008l36.388062,0.200226l-0.000427,0.054031l704.041412,3.873993l0.092163,-11.496262l-681.725708,-3.751198l0.000458,-0.054008l-0.603241,-0.003326l0.000458,-0.05397l-0.402374,-0.002213l0.000427,-0.05397l-0.603149,-0.003326l0.000458,-0.054031l-0.401825,-0.00222l0.000336,-0.053902l-0.401855,-0.002205l0.000458,-0.05397l-0.603149,-0.003319l0.000366,-0.05397l-0.402374,-0.00222l0.000458,-0.053902l-0.603149,-0.003319l0.000427,-0.054039l-0.401917,-0.002213l0.000397,-0.053902l-0.401855,-0.002213l0.000458,-0.054008l-0.603119,-0.003319l0.000458,-0.054008l-0.402435,-0.002213l0.000397,-0.053963l-0.603027,-0.003326l0.000305,-0.05397l-0.401855,-0.002213l0.000458,-0.053902l-0.401855,-0.002205l0.000458,-0.054047l-0.603149,-0.003311l0.000458,-0.053978l-0.402588,-0.002213l0.000488,-0.053978l-0.603088,-0.003311l0.000488,-0.05394l-0.401947,-0.002213l0.000488,-0.05407l-0.402435,-0.002213l0.000366,-0.053947l-0.603149,-0.003311l0.000458,-0.05394l-0.401855,-0.002213l0.000336,-0.053909l-0.603119,-0.003311l0.000549,-0.054047l-0.401825,-0.002205l0.000366,-0.054008l-0.60318,-0.003319l0.000458,-0.053932l-0.402405,-0.00222l0.000458,-0.05394l-0.401978,-0.002205l0.000427,-0.054008l-0.603149,-0.003319l0.000488,-0.05397l-0.401825,-0.002213l0.000427,-0.054047l-0.603149,-0.003319l0.000397,-0.053932l-0.402374,-0.002213l0.000397,-0.053932l-0.401855,-0.00222l0.000458,-0.05397l-0.603149,-0.003319l0.000366,-0.05397l-0.401917,-0.002213l0.000458,-0.054008l-0.602997,-0.003311l0.000397,-0.05394l-0.402496,-0.002213l0.000427,-0.053978l-0.401825,-0.002205l0.000397,-0.054047l-0.603119,-0.003319l0.000397,-0.053825l-0.401855,-0.00222l0.000397,-0.054077l-0.602997,-0.003311l0.000458,-0.054047l-0.402618,-0.002213l0.000458,-0.053864l-0.603149,-0.003326l0.000458,-0.05397l-0.401794,-0.002205l0.000336,-0.054077l-0.401886,-0.002213l0.000458,-0.053864l-0.603668,-0.003326l0.00058,-0.054077l-0.402039,-0.002213l0.000458,-0.053864l-0.603119,-0.003319l0.000427,-0.05397l-0.401794,-0.002213l0.000366,-0.053978l-0.402466,-0.002205l0.000427,-0.054008l-0.602539,-0.003319l0.000366,-0.05394l-0.402435,-0.002213l0.000458,-0.054008l-0.603149,-0.003319l0.000488,-0.054001l-0.402008,-0.002213l0.000458,-0.05397l-0.602997,-0.003319l0.000397,-0.054008l-0.402496,-0.002205l0.000458,-0.053909l-0.401825,-0.002213l0.000336,-0.053932l-0.603119,-0.003326l0.000549,-0.054001l-0.402008,-0.002213l0.000488,-0.05394l-0.602997,-0.003319l0.000397,-0.054115l-0.401917,-0.002205l0.000458,-0.053902l-0.402435,-0.00222l0.000397,-0.054001l-0.60318,-0.003319l0.000458,-0.053871l-0.401886,-0.002205l0.000366,-0.054047l-0.603119,-0.003319l0.000519,-0.054001l-0.401794,-0.00222l0.000366,-0.053864l-0.402588,-0.00222l0.00058,-0.054031l-0.603088,-0.003326l0.000336,-0.053963l-0.401886,-0.002213l0.000427,-0.054008l-0.603119,-0.003319l0.000458,-0.05397l-0.402496,-0.00222l0.000549,-0.05394l-0.602539,-0.003311l0.000336,-0.053963l-0.402466,-0.00222l0.000397,-0.05397l-0.401794,-0.002213l0.000458,-0.053932l-0.603119,-0.003326l0.000366,-0.05394l-0.402405,-0.002205l0.000458,-0.054077l-0.60318,-0.003326l0.000488,-0.053932l-0.402008,-0.002213l0.000549,-0.05397l-0.401825,-0.002205l0.000366,-0.054047l-0.603149,-0.003319l0.000458,-0.053902l-0.402405,-0.00222l0.000366,-0.054008l-0.603058,-0.003311l0.000427,-0.053871l-0.401978,-0.002205l0.000458,-0.054008l-0.603119,-0.003326l0.000427,-0.054001l-0.401825,-0.002213l0.000397,-0.054047l-0.402496,-0.002205l0.000458,-0.05394l-0.603058,-0.003319l0.000458,-0.053864l-0.401947,-0.002213l0.000397,-0.054077l-0.603119,-0.003319l0.000519,-0.054047l-0.401978,-0.002205l0.000427,-0.053871l-0.402374,-0.002213l0.000427,-0.05397l-0.603119,-0.003319l0.000397,-0.054115l-0.401855,-0.002205l0.000458,-0.053902l-0.60318,-0.003326l0.000488,-0.053932l-0.402008,-0.002213l0.000458,-0.053795l-0.402374,-0.00222l0.000427,-0.054108l-0.603149,-0.003319l0.000458,-0.054077l-0.401794,-0.002213l0.000336,-0.053902l-0.603149,-0.003311l0.000458,-0.053978l-0.402405,-0.002213l0.000519,-0.054047l-0.603088,-0.003311l0.000336,-0.053871l-0.401855,-0.002205l0.000427,-0.054008l-0.401978,-0.00222l0.000427,-0.054001l-0.603058,-0.003319l0.000427,-0.054008l-0.402466,-0.002213l0.000366,-0.053864l-0.602966,-0.003326l0.000458,-0.053963l-0.402008,-0.00222l0.000458,-0.05397l-0.401947,-0.002205l0.000427,-0.054077l-0.603149,-0.003319l0.000458,-0.053871l-0.402405,-0.002213l0.000427,-0.054008l-0.603119,-0.003319l0.000366,-0.054008l-0.401825,-0.002205l0.000549,-0.05397l-0.603149,-0.003326l0.000458,-0.054001l-0.402008,-0.002213l0.000427,-0.053902l-0.402374,-0.00222l0.000458,-0.05407l-0.603149,-0.003326l0.000366,-0.053902l-0.401825,-0.002205l0.000458,-0.053902l-0.603149,-0.003319l0.000458,-0.05397l-0.401978,-0.00222l0.000458,-0.054031l-0.402405,-0.00222l0.000427,-0.053902l-0.603149,-0.003319l0.000488,-0.054039l-0.401947,-0.002213l0.000397,-0.05397l-0.603058,-0.003319l0.000519,-0.053909l-0.402008,-0.002205l0.000519,-0.054077l-0.603668,-0.003326l0.000397,-0.053925l-0.401855,-0.00222l0.000458,-0.05397l-0.401917,-0.002213l0.000427,-0.054039l-0.603149,-0.003319l0.000427,-0.053894l-0.401825,-0.00222l0.000427,-0.053902l-0.603149,-0.003319l0.000458,-0.054047l-0.402405,-0.002205l0.000397,-0.05397l-0.401917,-0.00222l0.000427,-0.05397l-0.603149,-0.003311l0.000427,-0.053909l-0.402405,-0.002213l0.000458,-0.054039l-0.602539,-0.003304l0.000397,-0.053986l-0.402435,-0.002213l0.000488,-0.05397l-0.401947,-0.002213l0.000397,-0.05397l-0.603149,-0.003319l0.000519,-0.05397l-0.401947,-0.00222l0.000427,-0.05397l-0.603607,-0.003319l0.000427,-0.05397l-0.401947,-0.00222l0.000427,-0.053963l-0.602997,-0.003319l0.000427,-0.053909l-0.401978,-0.002205l0.000488,-0.054047l-0.402435,-0.002213l0.000427,-0.053963l-0.603149,-0.003326l0.000458,-0.054039l-0.401947,-0.002213l0.000397,-0.053902l-0.603119,-0.003319l0.000427,-0.05397l-0.401794,-0.002213l0.000427,-0.054039l-0.402435,-0.002213l0.000458,-0.053909l-0.603119,-0.003311l0.000397,-0.053978l-0.401947,-0.002213l0.000519,-0.053963l-0.60318,-0.003326l0.000458,-0.054039l-0.401825,-0.002213l0.000397,-0.053833l-0.603699,-0.003319l0.000427,-0.054039l-0.401794,-0.002213l0.000397,-0.053909l-0.401917,-0.002205l0.000458,-0.054115l-0.603149,-0.003311l0.000397,-0.053902l-0.402405,-0.00222l0.000458,-0.05397l-0.603149,-0.003319l0.000397,-0.05397l-0.401947,-0.00222l0.000519,-0.054031l-0.401825,-0.002213l0.000366,-0.053909l-0.603149,-0.003311l0.000488,-0.053978l-0.402405,-0.002213l0.000397,-0.054039l-0.602661,-0.003319l0.000427,-0.05397l-0.402374,-0.002213l0.000427,-0.053894l-0.603119,-0.003326l0.000397,-0.054039l-0.401794,-0.00222l0.000427,-0.053963l-0.402527,-0.002213l0.000427,-0.053978l-0.603058,-0.003311l0.000488,-0.053909l-0.401947,-0.002213l0.000397,-0.054039l-0.603119,-0.003319l0.000488,-0.05397l-0.401825,-0.002213l0.000366,-0.05397l-0.402527,-0.00222l0.000488,-0.053902l-0.602539,-0.003311l0.000397,-0.054039l-0.402405,-0.002213l0.000458,-0.053978l-0.603119,-0.003311l0.000397,-0.053978l-0.401978,-0.002213l0.000458,-0.053902l-0.401794,-0.002213l0.000427,-0.054039l-0.603699,-0.003326l0.000397,-0.053963l-0.401794,-0.00222l0.000427,-0.05397l-0.603119,-0.003319l0.000397,-0.05397l-0.401886,-0.002205l0.000427,-0.054047l-0.603149,-0.003311l0.000397,-0.053909l-0.402435,-0.002213l0.000488,-0.053894l-0.401825,-0.00222l0.000397,-0.054039l-0.603119,-0.003326l0.000458,-0.053963l-0.402557,-0.00222l0.000397,-0.05397l-0.602997,-0.003319l0.000458,-0.054039l-0.401917,-0.002213l0.000397,-0.053825l-0.401978,-0.00222l0.000458,-0.05397l-0.602997,-0.003319l0.000458,-0.054039l-0.402557,-0.00222l0.000427,-0.053902l-0.602509,-0.003311l0.000458,-0.054039l-0.402405,-0.002213l0.000366,-0.053978l-0.603119,-0.003311l0.000458,-0.053909l-0.401947,-0.002213l0.000397,-0.05397l-0.402374,-0.002213l0.000427,-0.054039l-0.602539,-0.003319l0.000397,-0.05397l-0.402374,-0.00222l0.000458,-0.054039l-0.60318,-0.003319l0.000427,-0.053902l-0.401947,-0.002205l0.000458,-0.053978l-0.402405,-0.002213l0.000397,-0.05397l-0.603149,-0.003319l0.000458,-0.054047l-0.401825,-0.002205l0.000519,-0.05397l-0.603149,-0.003319l0.000397,-0.053902l-0.401917,-0.00222l0.000427,-0.05397l-0.603149,-0.003319l0.000427,-0.05397l-0.401794,-0.002205l0.000427,-0.053902l-0.402527,-0.00222l0.000397,-0.054039l-0.602997,-0.003319l0.000458,-0.054047l-0.401978,-0.002205l0.000427,-0.05397l-0.603149,-0.003326l0.000458,-0.053963l-0.401886,-0.00222l0.000366,-0.053902l-0.402405,-0.002205l0.000427,-0.054047l-0.603088,-0.003319l0.000366,-0.053978l-0.402405,-0.002205l0.000458,-0.053902l-0.602509,-0.003319l0.000427,-0.05397l-0.402405,-0.00222l0.000427,-0.05397l-0.603149,-0.003319l0.000458,-0.05397l-0.401947,-0.002205l0.000427,-0.053978l-0.401855,-0.002205l0.000488,-0.053978l-0.603149,-0.003319l0.000397,-0.054047l-0.402527,-0.002205l0.000458,-0.05397l-0.603027,-0.003319l0.000427,-0.053902l-0.401978,-0.00222l0.000519,-0.054031l-0.401947,-0.00222l0.000397,-0.05397l-0.603638,-0.003326l0.000519,-0.053963l-0.401947,-0.002213l0.000397,-0.053909l-0.603058,-0.003311l0.000488,-0.05397l-0.401947,-0.002213l0.000458,-0.054039l-0.603149,-0.003326l0.000412,-0.053963l-0.401947,-0.00222l0.000473,-0.053902l-0.402405,-0.002205l0.000412,-0.054047l-0.603149,-0.003326l0.000443,-0.054031l-0.40181,-0.002213l0.000397,-0.053909l-0.603149,-0.003311l0.000534,-0.054047l-0.402466,-0.002213l0.000397,-0.053833l-0.603134,-0.003319l0.000504,-0.054039l-0.401947,-0.002213l0.000397,-0.05397l-0.401794,-0.002197l0.000427,-0.053986l-0.603119,-0.003319l0.000412,-0.05397l-0.402542,-0.002213l0.000443,-0.053978l-0.603012,-0.003311l0.000458,-0.053978l-0.401947,-0.002213l0.000397,-0.05397l-0.401947,-0.002213l0.000519,-0.05397l-0.603073,-0.003319l0.000412,-0.05397l-0.402542,-0.002213l0.000519,-0.054047l-0.603073,-0.003319l0.000412,-0.05397l-0.401947,-0.002205l0.000504,-0.053902l-0.603149,-0.003319l0.000412,-0.05397l-0.401932,-0.00222l0.000427,-0.05397l-0.402405,-0.002213l0.000412,-0.05397l-0.602554,-0.003319l0.000473,-0.05397l-0.402405,-0.002213l0.000412,-0.054047l-0.603149,-0.003311l0.000443,-0.053909l-0.401932,-0.002205l0.000488,-0.05397l-0.402451,-0.00222l0.000397,-0.054039l-0.603134,-0.003319l0.000504,-0.05397l-0.40181,-0.002213l0.000351,-0.05397l-0.603088,-0.003319l0.000443,-0.053902l-0.402527,-0.002213l0.000412,-0.053978l-0.60257,-0.003311l0.000458,-0.053894l-0.402405,-0.002228l0.000412,-0.054115l-0.401932,-0.002205l0.000458,-0.053902l-0.603027,-0.003319l0.000397,-0.05397l-0.401932,-0.002205l0.000458,-0.054047l-0.603745,-0.003326l0.000412,-0.053833l-0.401825,-0.002205l0.000458,-0.054047l-0.401932,-0.002213l0.000488,-0.054031l-0.603653,-0.003326l0.000412,-0.05397l-0.401932,-0.002213l0.000488,-0.05397l-0.603149,-0.003326l0.000412,-0.053963l-0.401825,-0.00222l0.000458,-0.05397l-0.603134,-0.003319l0.000397,-0.053833l-0.401932,-0.002205l0.000443,-0.054039l-0.40239,-0.00222l0.000412,-0.05397l-0.602554,-0.003319l0.000443,-0.054039l-0.402527,-0.002213l0.000397,-0.05397l-0.602997,-0.003326l0.000458,-0.053963l-0.401917,-0.002213l0.000366,-0.054047l-0.40242,-0.002213l0.000473,-0.053894l-0.602524,-0.003319l0.000412,-0.053978l-0.402496,-0.002213l0.000412,-0.05397l-0.603012,-0.003319l0.000458,-0.05397l-0.401932,-0.002213l0.000412,-0.05397l-0.603149,-0.003326l0.000443,-0.053894l-0.402405,-0.002213l0.000397,-0.053978l-0.401932,-0.002213l0.000458,-0.054039l-0.603149,-0.003319l0.000412,-0.053978l-0.40181,-0.002205l0.000488,-0.053902l-0.603149,-0.003319l0.000366,-0.05397l-0.40239,-0.002213l0.000488,-0.054047l-0.401947,-0.002205l0.000412,-0.053978l-0.603149,-0.003311l0.000458,-0.053978l-0.401794,-0.002213l0.000397,-0.053963l-0.603699,-0.003326l0.000397,-0.054047l-0.401917,-0.002205l0.000443,-0.053902l-0.603043,-0.003326l0.000412,-0.053894l-0.401917,-0.002213l0.000443,-0.054047l-0.401886,-0.002205l0.000351,-0.053902l-0.603592,-0.003326l0.000443,-0.054039l-0.401901,-0.002205l0.000366,-0.054054l-0.603012,-0.003311l0.000504,-0.053902l-0.401947,-0.002213l0.000381,-0.05397l-0.402405,-0.00222l0.000473,-0.05397l-0.603149,-0.003319l0.000412,-0.054039l-0.401932,-0.002213l0.000443,-0.05397l-0.603088,-0.003319l0.000397,-0.053909l-0.401947,-0.002205l0.000504,-0.05397l-0.401917,-0.002213l0.000519,-0.05397l-0.603134,-0.003319l0.000351,-0.05397l-0.402405,-0.002213l0.000488,-0.053978l-0.603119,-0.003311l0.000351,-0.054047l-0.401871,-0.002213l0.000458,-0.053902l-0.603134,-0.003319l0.000397,-0.053902l-0.402405,-0.002213l0.000458,-0.054108l-0.401855,-0.00222l0.000397,-0.053963l-0.603119,-0.003326l0.000443,-0.053902l-0.401871,-0.002205l0.000381,-0.05397l-0.603104,-0.003319l0.000443,-0.053978l-0.402405,-0.002213l0.000366,-0.054047l-0.401886,-0.002205l0.000443,-0.053902l-0.603104,-0.003319l0.000504,-0.05397l-0.401932,-0.00222l0.000397,-0.054039l-0.603653,-0.003319l0.000488,-0.05397l-0.401917,-0.002213l0.000397,-0.053902l-0.401917,-0.002213l0.000458,-0.05397l-0.603134,-0.003319l0.000412,-0.054047l-0.401855,-0.002205l0.000443,-0.053902l-0.603683,-0.003326l0.000397,-0.054039l-0.40184,-0.002205l0.000443,-0.053909l-0.603149,-0.003319l0.000412,-0.054108l-0.401855,-0.00222l0.000443,-0.053894l-0.401886,-0.002213l0.000412,-0.053978l-0.603149,-0.003311l0.000488,-0.053902l-0.402451,-0.00222l0.000504,-0.053963l-0.603149,-0.003326l0.000412,-0.054031l-0.401901,-0.00222l0.000458,-0.053894l-0.402435,-0.00222l0.000397,-0.053978l-0.603104,-0.003311l0.000443,-0.054047l-0.401886,-0.002205l0.000366,-0.053978l-0.603058,-0.003311l0.000427,-0.053902l-0.401917,-0.00222l0.000412,-0.054108l-0.603073,-0.003319l0.000458,-0.053902l-0.401932,-0.002213l0.000397,-0.05397l-0.402405,-0.002213l0.000443,-0.053978l-0.603134,-0.003311l0.000443,-0.053978l-0.401901,-0.002205l0.000458,-0.05397l-0.603683,-0.003326l0.000458,-0.053894l-0.401871,-0.002213l0.000412,-0.054039l-0.401886,-0.002213l0.000488,-0.05397l-0.603134,-0.003326l0.000366,-0.05397l-0.401871,-0.002213l0.000458,-0.053978l-0.603134,-0.003311l0.000397,-0.053978l-0.40242,-0.002213l0.000458,-0.054031l-0.603119,-0.003326l0.000412,-0.053894l-0.401871,-0.002213l0.000443,-0.053902l-0.401932,-0.002205l0.000397,-0.053978l-0.603058,-0.003319l0.000443,-0.053978l-0.402466,-0.002213l0.000397,-0.054039l-0.603058,-0.003311l0.000458,-0.054047l-0.401932,-0.002213l0.000443,-0.053909l-0.40242,-0.002205l0.000412,-0.05397l-0.602585,-0.003319l0.000458,-0.05397l-0.402405,-0.002228l0.000397,-0.054031l-0.603149,-0.003319l0.000458,-0.053909l-0.401855,-0.002205l0.000366,-0.05397l-0.603149,-0.003311l0.000488,-0.054047l-0.401886,-0.00222l0.000412,-0.053963l-0.40239,-0.002213l0.000443,-0.053833l-0.603149,-0.003319l0.000412,-0.054047l-0.40184,-0.00222l0.000427,-0.054039l-0.603149,-0.003319l0.000412,-0.053894l-0.402481,-0.002213l0.000458,-0.053978l-0.401855,-0.002213l0.000443,-0.05397l-0.603073,-0.003311l0.000412,-0.05397l-0.401932,-0.002213l0.000443,-0.054047l-0.603027,-0.003319l0.000351,-0.053902l-0.402466,-0.002213l0.000473,-0.053978l-0.401871,-0.002205l0.000366,-0.053978l-0.603104,-0.003319l0.000458,-0.054039l-0.401901,-0.002213l0.000412,-0.053902l-0.603653,-0.003319l0.000443,-0.05397l-0.401886,-0.00222l0.000412,-0.054039l-0.603134,-0.003311l0.000473,-0.053909l-0.401886,-0.002205l0.000412,-0.05397l-0.402496,-0.00222l0.000488,-0.054047l-0.603088,-0.003311l0.000458,-0.05397l-0.401932,-0.002213l0.000381,-0.053978l-0.603043,-0.003311l0.000443,-0.053902l-0.40184,-0.00222l0.000412,-0.054039l-0.402496,-0.002205l0.000427,-0.053978l-0.603134,-0.003319l0.000412,-0.053963l-0.401855,-0.00222l0.000443,-0.05397l-0.603088,-0.003319l0.000412,-0.053978l-0.401962,-0.002205l0.000519,-0.05397l-0.603104,-0.003319l0.000397,-0.05397l-0.402481,-0.00222l0.000504,-0.05397l-0.401917,-0.002205l0.000412,-0.05397l-0.603149,-0.003326l0.000443,-0.05397l-0.40184,-0.002213l0.000443,-0.053902l-0.603149,-0.003319l0.000412,-0.054039l-0.40239,-0.00222l0.000443,-0.053894l-0.401947,-0.002213l0.000412,-0.054047l-0.603058,-0.003311l0.000458,-0.054047l-0.401855,-0.002213l0.000366,-0.053833l-0.603638,-0.003319l0.000443,-0.054039l-0.401947,-0.002213l0.000412,-0.053978l-0.603104,-0.003311l0.000504,-0.053902l-0.401901,-0.002213l0.000397,-0.054047l-0.401932,-0.002205l0.000504,-0.053978l-0.603714,-0.003319l0.000412,-0.054039l-0.401901,-0.002213l0.000504,-0.05397l-0.602554,-0.003319l0.000458,-0.053894l-0.402496,-0.00222l0.000412,-0.05397l-0.401855,-0.002213l0.000443,-0.05397l-0.603683,-0.003319l0.000412,-0.053978l-0.401855,-0.002213l0.000443,-0.05397l-0.603149,-0.003326l0.000412,-0.053963l-0.401855,-0.002213l0.000458,-0.05397l-0.402481,-0.002213l0.000397,-0.054039l-0.603058,-0.003326l0.000458,-0.053894l-0.401947,-0.00222l0.000397,-0.05397l-0.603088,-0.003319l0.000488,-0.054039l-0.401886,-0.002213l0.000397,-0.053894l-0.603134,-0.003326l0.000458,-0.05397l-0.401855,-0.002213l0.000427,-0.054039l-0.402435,-0.002213l0.000366,-0.05397l-0.603149,-0.003326l0.000488,-0.053825l-0.401886,-0.00222l0.000412,-0.054176l-0.603058,-0.003319l0.000443,-0.053902l-0.402481,-0.002213l0.000412,-0.053833l-0.401871,-0.002213l0.000458,-0.054039l-0.603149,-0.003319l0.000412,-0.053978l-0.402405,-0.002213l0.000443,-0.05397l-0.602585,-0.003311l0.000412,-0.054047l-0.402451,-0.002213l0.000504,-0.05397l-0.603149,-0.003311l0.000412,-0.053978l-0.401901,-0.002213l0.000443,-0.05397l-0.401901,-0.002213l0.000458,-0.053909l-0.603607,-0.003319l0.000381,-0.05397l-0.401917,-0.002205l0.000458,-0.054047l-0.603104,-0.003319l0.000397,-0.05397l-0.401917,-0.002213l0.000473,-0.05397l-0.402435,-0.002213l0.000412,-0.054047l-0.603149,-0.003319l0.000488,-0.053894l-0.401871,-0.002213l0.000397,-0.053978l-0.603149,-0.003319l0.000443,-0.053894l-0.401855,-0.002213l0.000412,-0.054123l-0.603104,-0.003311l0.000488,-0.053902l-0.401932,-0.002213l0.000412,-0.053902l-0.402451,-0.002213l0.000504,-0.054047l-0.603149,-0.003311l0.000458,-0.053978l-0.401871,-0.002205l0.000366,-0.053902l-0.603134,-0.003326l0.000488,-0.054031l-0.402451,-0.00222l0.000412,-0.053902l-0.401932,-0.002213l0.000473,-0.054039l-0.603088,-0.003326l0.000412,-0.05397l-0.401947,-0.002205l0.000443,-0.05397l-0.603058,-0.003319l0.000427,-0.053909l-0.401901,-0.002205l0.000488,-0.054039l-0.402481,-0.002213l0.000397,-0.053978l-0.603134,-0.003319l0.000458,-0.05397l-0.401871,-0.002213l0.000412,-0.053963l-0.603088,-0.003326l0.000443,-0.05397l-0.402451,-0.002213l0.000458,-0.053978l-0.603149,-0.003319l0.000412,-0.05397l-0.401855,-0.002213l0.000443,-0.05397l-0.401886,-0.002205l0.000397,-0.053978l-0.603134,-0.003319l0.000488,-0.053902l-0.402451,-0.002213l0.000412,-0.054115l-0.603134,-0.003311l0.000473,-0.053909l-0.401886,-0.002205l0.000412,-0.053978l-0.402496,-0.002213l0.000504,-0.05397l-0.602554,-0.003319l0.000412,-0.054039l-0.402496,-0.00222l0.000443,-0.053894l-0.603043,-0.003326l0.000397,-0.05397l-0.401932,-0.002205l0.000458,-0.05397l-0.603058,-0.003319l0.000443,-0.054047l-0.401901,-0.002205l0.000397,-0.05397l-0.402435,-0.00222l0.000443,-0.053902l-0.603134,-0.003319l0.000397,-0.054047l-0.401886,-0.002213l0.000488,-0.053963l-0.603134,-0.003326l0.000397,-0.05397l-0.401886,-0.002205l0.000443,-0.053902l-0.402405,-0.00222l0.000412,-0.054039l-0.603104,-0.003319l0.000412,-0.053978l-0.401855,-0.002205l0.000443,-0.05397l-0.603134,-0.003319l0.000397,-0.053902l-0.40239,-0.002213l0.000443,-0.054047l-0.603134,-0.003319l0.000397,-0.053902l-0.40184,-0.002205l0.000397,-0.05397l-0.401932,-0.00222l0.000443,-0.054039l-0.603104,-0.003319l0.000458,-0.05397l-0.401932,-0.002213l0.000443,-0.05397l-0.603645,-0.003326l0.000443,-0.05397l-0.401939,-0.002205l0.00045,-0.053978l-0.401901,-0.002205l0.000458,-0.05397l-0.603691,-0.003326l0.000458,-0.053909l-0.401314,-0.002205l0.000404,-0.054108l-0.603645,-0.003319l0.000412,-0.053909l-0.401863,-0.002205l0.000412,-0.05397l-0.401855,-0.002213l0.000412,-0.053978l-0.603149,-0.003311l0.00045,-0.053909l-0.402397,-0.002213l0.000412,-0.054031l-0.603149,-0.003326l0.00045,-0.053978l-0.401855,-0.002205l0.000404,-0.053902l-0.603142,-0.003319l0.000458,-0.054115l-0.401901,-0.002213l0.000443,-0.053894l-0.402481,-0.00222l0.00045,-0.05397l-0.603096,-0.003311l0.00045,-0.053978l-0.401955,-0.002213l0.000458,-0.05397l-0.60305,-0.003319l0.000404,-0.05397l-0.401939,-0.002213l0.00045,-0.05397l-0.402405,-0.00222l0.000397,-0.053902l-0.603127,-0.003311l0.000443,-0.054047l-0.401855,-0.002213l0.00042,-0.05397l-0.603157,-0.003319l0.000458,-0.053967l-0.402397,-0.002216l0.000404,-0.053978l-0.603142,-0.003315l0.000443,-0.053974l-0.401894,-0.002209l0.000443,-0.05397l-0.401886,-0.002209l0.000443,-0.053974l-0.603134,-0.003323l0.00045,-0.05397l-0.402458,-0.002209l0.000458,-0.053978l-0.602592,-0.003311l0.000443,-0.053978l-0.402405,-0.002209l0.000412,-0.05397l-0.401894,-0.002216l0.000404,-0.054035l-0.60305,-0.003323l0.000404,-0.053902l-0.401939,-0.002216l0.000443,-0.053967l-0.603096,-0.003323l0.000443,-0.054039l-0.402481,-0.002216l0.00045,-0.053833l-0.401894,-0.002209l0.00045,-0.054047l-0.603699,-0.003315l0.000458,-0.053978l-0.401901,-0.002209l0.00045,-0.054035l-0.603134,-0.003323l0.000443,-0.053902l-0.401894,-0.002205l0.000443,-0.053978l-0.603134,-0.003315l0.000412,-0.054047l-0.401863,-0.002213l0.00045,-0.053894l-0.402405,-0.00222l0.000443,-0.053967l-0.602623,-0.003319l0.000443,-0.05397l-0.402397,-0.002213l0.000404,-0.054043l-0.603134,-0.003323l0.00045,-0.05397l-0.401855,-0.002205l0.000404,-0.053909l-0.402496,-0.002213l0.000465,-0.054043l-0.603065,-0.003323l0.000412,-0.053963l-0.401939,-0.002216l0.00045,-0.053967l-0.603111,-0.003323l0.000465,-0.053902l-0.401939,-0.002216l0.000443,-0.053967l-0.603088,-0.003315l0.000443,-0.054047l-0.402481,-0.002216l0.000404,-0.05397l-0.401848,-0.002209l0.000443,-0.053898l-0.603149,-0.003323l0.000465,-0.053978l-0.402405,-0.002209l0.000404,-0.054039l-0.603142,-0.003323l0.000443,-0.053974l-0.401848,-0.002209l0.000404,-0.053902l-0.401855,-0.002216l0.000404,-0.054039l-0.603645,-0.003315l0.000404,-0.053909l-0.401848,-0.002209l0.000404,-0.053974l-0.602585,-0.003311l0.000443,-0.05397l-0.402443,-0.002213l0.000443,-0.054043l-0.401939,-0.002209l0.00045,-0.053978l-0.603691,-0.003323l0.000404,-0.05397l-0.401848,-0.002216l0.00045,-0.053967l-0.602554,-0.003311l0.000412,-0.053978l-0.402405,-0.002213l0.000412,-0.053967l-0.603065,-0.003323l0.000412,-0.053902l-0.401947,-0.002216l0.000465,-0.054035l-0.402405,-0.002213l0.000404,-0.053905l-0.603142,-0.003315l0.000443,-0.054047l-0.401894,-0.002209l0.00045,-0.053967l-0.603142,-0.003323l0.00045,-0.05397l-0.401901,-0.002216l0.000458,-0.053974l-0.402496,-0.002213l0.000458,-0.05397l-0.603104,-0.003319l0.000443,-0.053902l-0.401886,-0.002209l0.000443,-0.054047l-0.603142,-0.003311l0.000412,-0.053978l-0.402451,-0.00222l0.000404,-0.053967l-0.603004,-0.003323l0.000404,-0.054039l-0.401848,-0.002205l0.000404,-0.053902l-0.401939,-0.002209l0.00045,-0.053978l-0.603104,-0.003311l0.00045,-0.054047l-0.402489,-0.002213l0.00045,-0.053829l-0.602547,-0.003319l0.000443,-0.054047l-0.402481,-0.002213l0.000443,-0.053974l-0.401894,-0.002209l0.000443,-0.054039l-0.603134,-0.003323l0.000404,-0.053898l-0.402397,-0.002213l0.000443,-0.053974l-0.603134,-0.003315l0.000397,-0.053909l-0.401848,-0.002209l0.000443,-0.054111l-0.603134,-0.003315l0.000412,-0.053902l-0.401863,-0.002216l0.00045,-0.053974l-0.402481,-0.002213l0.000443,-0.05397l-0.603096,-0.003319l0.00045,-0.054047l-0.401855,-0.002209l0.000404,-0.053967l-0.603142,-0.003323l0.00045,-0.053902l-0.401901,-0.002216l0.000458,-0.054035l-0.401947,-0.002209l0.000458,-0.053978l-0.603096,-0.003315l0.000443,-0.053829l-0.402489,-0.00222l0.00045,-0.054108l-0.603096,-0.003319l0.00045,-0.05397l-0.401939,-0.002209l0.000404,-0.053978l-0.402405,-0.002216l0.00045,-0.053894l-0.603142,-0.003323l0.000404,-0.053967l-0.401848,-0.002216l0.00045,-0.053978l-0.603149,-0.003315l0.00045,-0.054035l-0.401894,-0.002216l0.00045,-0.053902l-0.603142,-0.003311l0.00045,-0.054115l-0.402451,-0.00222l0.000458,-0.053898l-0.401901,-0.002209l0.00045,-0.053978l-0.603142,-0.003323l0.00045,-0.053898l-0.402489,-0.002213l0.00045,-0.054047l-0.603096,-0.003311l0.000443,-0.053902l-0.401894,-0.002216l0.00045,-0.054035l-0.401939,-0.002209l0.000404,-0.053909l-0.60305,-0.003323l0.000404,-0.054035l-0.401894,-0.002216l0.000404,-0.054039l-0.603058,-0.003315l0.00045,-0.053898l-0.402489,-0.00222l0.00045,-0.054039l-0.603104,-0.003319l0.00045,-0.053902l-0.401939,-0.002216l0.00045,-0.05397l-0.401894,-0.002205l0.00045,-0.053978l-0.603142,-0.003323l0.000404,-0.05397l-0.402405,-0.002209l0.00045,-0.05397l-0.603142,-0.003319l0.000412,-0.05397l-0.401855,-0.002216l0.000404,-0.054039l-0.402443,-0.002216l0.000404,-0.053902l-0.603054,-0.003323l0.000408,-0.053967l-0.401897,-0.002216l0.000404,-0.05397l-0.603054,-0.003315l0.000408,-0.054043l-0.401859,-0.002209l0.00045,-0.053902l-0.603138,-0.003319l0.000446,-0.053978l-0.402489,-0.002213l0.00045,-0.053967l-0.401897,-0.002209l0.000454,-0.053978l-0.6031,-0.003315l0.00045,-0.054043l-0.401943,-0.002209l0.00045,-0.053909l-0.603687,-0.003323l0.000404,-0.053902l-0.401852,-0.002209l0.000404,-0.054115l-0.401855,-0.002205l0.000454,-0.053902l-0.603146,-0.003323l0.000412,-0.05397l-0.401859,-0.002213l0.000408,-0.054039l-0.603138,-0.003315l0.000446,-0.053905l-0.402401,-0.002213l0.000404,-0.05397l-0.603142,-0.003319l0.000496,-0.05397l-0.401897,-0.002216l0.000446,-0.054039l-0.402489,-0.002216l0.000454,-0.05397l-0.602554,-0.003319l0.00045,-0.053898l-0.402489,-0.002213l0.00045,-0.053978l-0.6031,-0.003311l0.00045,-0.054047l-0.401897,-0.002216l0.00045,-0.053894l-0.401939,-0.002216l0.000408,-0.053967l-0.603058,-0.003323l0.000408,-0.054047l-0.402447,-0.002209l0.000412,-0.053978l-0.603062,-0.003315l0.000408,-0.053967l-0.401897,-0.002209l0.000408,-0.053909l-0.401855,-0.002209l0.000408,-0.054043l-0.603649,-0.003326l0.000454,-0.053967l-0.401897,-0.002209l0.000446,-0.053909l-0.603142,-0.003315l0.000454,-0.053967l-0.401901,-0.002216l0.000454,-0.054039l-0.603146,-0.003323l0.000408,-0.053898l-0.401855,-0.002209l0.000408,-0.054047l-0.402443,-0.00222l0.000408,-0.053959l-0.603058,-0.003323l0.000404,-0.053902l-0.402443,-0.002216l0.000408,-0.054047l-0.602509,-0.003311l0.000404,-0.053974l-0.402447,-0.002213l0.000412,-0.054039l-0.401855,-0.002216l0.000404,-0.053898l-0.603058,-0.003315l0.000408,-0.053978l-0.401939,-0.002216l0.00045,-0.053898l-0.603058,-0.003315l0.00045,-0.05397l-0.402485,-0.002216l0.000446,-0.054047l-0.603142,-0.003315l0.000408,-0.053967l-0.401855,-0.002209l0.000408,-0.053909l-0.401855,-0.002209l0.00045,-0.054043l-0.603142,-0.003323l0.000408,-0.05397l-0.402405,-0.002209l0.00045,-0.05397l-0.603142,-0.003323l0.000408,-0.054043l-0.401855,-0.002209l0.000408,-0.053902l-0.401855,-0.002216l0.000408,-0.05397l-0.603142,-0.003311l0.00045,-0.053978l-0.402489,-0.002213l0.00045,-0.053974l-0.6031,-0.003315l0.00045,-0.053905l-0.401897,-0.002209l0.000408,-0.054047l-0.603058,-0.003315l0.000408,-0.054035l-0.402447,-0.00222l0.000408,-0.053902l-0.401855,-0.002209l0.00045,-0.053974l-0.603142,-0.003315l0.000408,-0.053978l-0.401855,-0.002216l0.000408,-0.054035l-0.603058,-0.003315l0.000408,-0.053909l-0.402447,-0.002209l0.000408,-0.053978l-0.401855,-0.002209l0.000408,-0.053967l-0.603142,-0.003323l0.00045,-0.054047l-0.402405,-0.002209l0.000408,-0.053902l-0.602594,-0.003319l0.000448,-0.05397l-0.401896,-0.002209l0.00045,-0.054043l-0.603647,-0.003319l0.000406,-0.053898l-0.401855,-0.002216l0.00045,-0.053978l-0.401939,-0.002209l0.000408,-0.05397l-0.603058,-0.003311l0.000408,-0.054047l-0.402445,-0.002216l0.000406,-0.053902l-0.603056,-0.003315l0.000408,-0.054043l-0.401939,-0.002216l0.000448,-0.053894l-0.401855,-0.002216l0.000408,-0.054039l-0.603058,-0.003319l0.000408,-0.053978l-0.402447,-0.002213l0.000408,-0.053898l-0.603144,-0.003315l0.000452,-0.053978l-0.401897,-0.002216l0.00045,-0.054035l-0.603098,-0.003315l0.000448,-0.053837l-0.401939,-0.002209l0.000448,-0.054039l-0.402403,-0.00222l0.00045,-0.054035l-0.60314,-0.003323l0.000408,-0.05397l-0.401857,-0.002216l0.000408,-0.053967l-0.603098,-0.003323l0.000406,-0.053902l-0.402405,-0.002216l0.00041,-0.054039l-0.401899,-0.002209l0.000408,-0.053967l-0.603058,-0.003323l0.000408,-0.053909l-0.401939,-0.002209l0.000448,-0.053967l-0.6031,-0.003323l0.00045,-0.053902l-0.401855,-0.002216l0.00041,-0.054104l-0.60314,-0.003323l0.000446,-0.05397l-0.402487,-0.002209l0.00045,-0.053978l-0.401899,-0.002209l0.00045,-0.053978l-0.603056,-0.003311l0.000448,-0.05397l-0.402489,-0.002216l0.00041,-0.05397l-0.60251,-0.003319l0.00041,-0.05397l-0.402448,-0.002209l0.000408,-0.053978l-0.401855,-0.002209l0.000408,-0.053978l-0.603142,-0.003311l0.000451,-0.054047l-0.402404,-0.00222l0.000404,-0.05389l-0.60259,-0.003319l0.000447,-0.053833l-0.402404,-0.002213l0.00041,-0.054111l-0.603144,-0.003323l0.00045,-0.053902l-0.401897,-0.002209l0.000451,-0.054043l-0.402488,-0.002213l0.000448,-0.053967l-0.602551,-0.003319l0.00045,-0.053909l-0.402445,-0.002213l0.000407,-0.054043l-0.603058,-0.003315l0.000408,-0.053978l-0.401938,-0.002209l0.000448,-0.053967l-0.402404,-0.002213l0.00041,-0.054047l-0.603142,-0.003319l0.00045,-0.053902l-0.401855,-0.002209l0.000406,-0.054043l-0.603142,-0.003315l0.00045,-0.053909l-0.401896,-0.002209l0.000446,-0.053898l-0.603099,-0.003323l0.00045,-0.05397l-0.402488,-0.002216l0.000451,-0.054039l-0.4019,-0.002209l0.000453,-0.053978l-0.603144,-0.003319l0.000451,-0.054039l-0.402445,-0.00222l0.00049,-0.053822l-0.603141,-0.003323l0.000408,-0.054115l-0.401855,-0.002205l0.000406,-0.053978l-0.401896,-0.002209l0.000408,-0.05397l-0.603058,-0.003319l0.00041,-0.053902l-0.402449,-0.002213l0.00041,-0.053974l-0.602554,-0.003311l0.000454,-0.053909l-0.40249,-0.002213l0.000447,-0.054104l-0.401896,-0.002216l0.000448,-0.053902l-0.60314,-0.003323l0.000449,-0.053967l-0.401896,-0.002216l0.000449,-0.054039l-0.603691,-0.003323l0.000451,-0.05397l-0.401896,-0.002209l0.000448,-0.053905l-0.60314,-0.003315l0.000449,-0.053978l-0.401855,-0.002209l0.000408,-0.053967l-0.401855,-0.002216l0.000408,-0.054039l-0.60314,-0.003323l0.000452,-0.053898l-0.402402,-0.002213l0.000404,-0.054115l-0.603144,-0.003319l0.000452,-0.053833l-0.401896,-0.002209l0.000449,-0.053967l-0.402488,-0.00222l0.000449,-0.054039l-0.603099,-0.003319l0.000448,-0.053902l-0.401937,-0.002216l0.000449,-0.054039l-0.603099,-0.003319l0.000449,-0.053978l-0.402488,-0.002213l0.000448,-0.053898l-0.602548,-0.003311l0.00045,-0.054115l-0.402492,-0.00222l0.000452,-0.053898l-0.401855,-0.002209l0.000403,-0.053902l-0.60314,-0.003323l0.000448,-0.054035l-0.401896,-0.002216l0.000449,-0.05397l-0.603054,-0.003319l0.000407,-0.05397l-0.402488,-0.00222l0.000448,-0.053967l-0.401851,-0.002216l0.000403,-0.053894l-0.60314,-0.003323l0.000449,-0.054035l-0.402402,-0.00222l0.000403,-0.05397l-0.60314,-0.003319l0.000448,-0.053909l-0.401896,-0.002209l0.000449,-0.054035l-0.60314,-0.003323l0.000407,-0.05397l-0.401855,-0.002216l0.000448,-0.053967l-0.402488,-0.00222l0.000449,-0.054039l-0.602507,-0.003311l0.000402,-0.053898l-0.402483,-0.00222l0.000448,-0.053978l-0.603058,-0.003311l0.000407,-0.05397l-0.40194,-0.002216l0.000448,-0.05397l-0.401896,-0.002209l0.000452,-0.053974l-0.603144,-0.003315l0.000454,-0.053978l-0.402443,-0.002216l0.000444,-0.054039l-0.603144,-0.003311l0.000448,-0.053978l-0.401896,-0.002209l0.000452,-0.053833l-0.603144,-0.003319l0.000408,-0.054039l-0.402403,-0.00222l0.000448,-0.054035l-0.401899,-0.002216l0.000448,-0.053902l-0.603136,-0.003315l0.000404,-0.053974l-0.401814,-0.002209l0.000406,-0.05397l-0.603134,-0.003323l0.000444,-0.053967l-0.402403,-0.00222l0.000408,-0.054035l-0.401941,-0.002216l0.000448,-0.053902l-0.603098,-0.003323l0.000452,-0.053898l-0.401941,-0.002209l0.000454,-0.054115l-0.603651,-0.003323l0.000448,-0.053902l-0.401936,-0.002209l0.000448,-0.054039l-0.603098,-0.003319l0.000448,-0.053909l-0.401941,-0.002209l0.000408,-0.054039l-0.401855,-0.002213l0.000452,-0.053902l-0.603144,-0.003315l0.000408,-0.053978l-0.402403,-0.002209l0.000408,-0.054047l-0.603098,-0.003311l0.000448,-0.053909l-0.401896,-0.002209l0.000444,-0.053978l-0.401855,-0.002209l0.000408,-0.053967l-0.603691,-0.003326l0.000452,-0.054035l-0.401854,-0.002209l0.000412,-0.053978l-0.603149,-0.003323l0.000454,-0.053898l-0.401901,-0.002209l0.000454,-0.054047l-0.603144,-0.003319l0.00041,-0.053894l-0.402405,-0.00222l0.000448,-0.054035l-0.401937,-0.002216l0.000448,-0.053902l-0.6031,-0.003323l0.00045,-0.054035l-0.401939,-0.002209l0.000404,-0.053978l-0.603058,-0.003323l0.000412,-0.053967l-0.402451,-0.002213l0.000454,-0.053909l-0.401863,-0.002205l0.000412,-0.054039l-0.603138,-0.003323l0.000443,-0.053967l-0.401901,-0.002216l0.000454,-0.05397l-0.603142,-0.003323l0.000401,-0.053898l-0.402405,-0.00222l0.000454,-0.054039l-0.602554,-0.003311l0.000454,-0.053974l-0.402489,-0.002213l0.000454,-0.053902l-0.401901,-0.002216l0.000446,-0.054035l-0.603142,-0.003323l0.000404,-0.053902l-0.402405,-0.002209l0.00045,-0.054047l-0.602581,-0.003319l0.000401,-0.053902l-0.402405,-0.002209l0.000412,-0.05397l-0.402447,-0.002216l0.000454,-0.054047l-0.602562,-0.003311l0.000462,-0.053978l-0.402496,-0.002209l0.000462,-0.053902l-0.6031,-0.003323l0.000446,-0.054043l-0.401943,-0.002209l0.000446,-0.05397l-0.401894,-0.002209l0.000446,-0.053898l-0.603134,-0.00333l0.000404,-0.054039l-0.401859,-0.002209l0.000404,-0.053967l-0.603058,-0.003323l0.000412,-0.053978l-0.402447,-0.002209l0.000404,-0.05397l-0.6031,-0.003323l0.000412,-0.053967l-0.401852,-0.002209l0.000404,-0.053909l-0.402409,-0.002213l0.000454,-0.054043l-0.603138,-0.003323l0.000443,-0.054039l-0.401875,-0.002213l0.000439,-0.05397l-0.603149,-0.003315l0.000427,-0.053898l-0.401875,-0.002216l0.000454,-0.05397l-0.402489,-0.00222l0.000427,-0.054035l-0.603073,-0.003323l0.00042,-0.053833l-0.401909,-0.002209l0.000427,-0.054111l-0.603081,-0.003323l0.000427,-0.053894l-0.402462,-0.002216l0.000427,-0.054039l-0.401882,-0.002216l0.000427,-0.053967l-0.603142,-0.003323l0.000427,-0.053902l-0.401848,-0.002209l0.000427,-0.053905l-0.603142,-0.003315l0.000431,-0.054115l-0.401875,-0.002209l0.000465,-0.053905l-0.603695,-0.003326l0.000439,-0.053967l-0.401886,-0.002209l0.000431,-0.054039l-0.401852,-0.002216l0.000427,-0.053967l-0.603138,-0.003323l0.00042,-0.05397l-0.402466,-0.002216l0.000431,-0.053902l-0.603077,-0.003323l0.000427,-0.053967l-0.401875,-0.002209l0.000431,-0.054047l-0.401917,-0.002209l0.00042,-0.053902l-0.603077,-0.003319l0.000431,-0.05397l-0.402466,-0.00222l0.00042,-0.054035l-0.603073,-0.003323l0.000427,-0.053902l-0.401932,-0.002209l0.000427,-0.053974l-0.603081,-0.003315l0.000469,-0.053978l-0.402481,-0.002209l0.000427,-0.054047l-0.401867,-0.002209l0.000439,-0.053967l-0.603149,-0.003323l0.000435,-0.053902l-0.401875,-0.002209l0.000427,-0.053974l-0.603138,-0.003315l0.000427,-0.054047l-0.402405,-0.002209l0.000427,-0.053978l-0.401917,-0.002216l0.000427,-0.053902l-0.603073,-0.003311l0.000427,-0.054047l-0.401882,-0.002209l0.000427,-0.053974l-0.603138,-0.003315l0.000427,-0.05397l-0.401867,-0.002209l0.000427,-0.053974l-0.402473,-0.00222l0.000435,-0.053894l-0.603081,-0.003319l0.000473,-0.054047l-0.401939,-0.002209l0.000427,-0.05397l-0.603088,-0.003319l0.000435,-0.05397l-0.401917,-0.002216l0.000427,-0.053978l-0.603622,-0.003315l0.000427,-0.053978l-0.401924,-0.002205l0.000435,-0.054039l-0.401878,-0.002216l0.000435,-0.053902l-0.603149,-0.003311l0.000435,-0.053978l-0.402405,-0.002213l0.000427,-0.053974l-0.603142,-0.003315l0.00042,-0.053978l-0.401863,-0.002209l0.00042,-0.054035l-0.401855,-0.002216l0.000435,-0.053902l-0.603142,-0.003323l0.000427,-0.053967l-0.401878,-0.002216l0.000427,-0.05397l-0.603134,-0.003323l0.000427,-0.053967l-0.402405,-0.002213l0.00042,-0.054035l-0.603096,-0.003323l0.000435,-0.053978l-0.401901,-0.002209l0.000435,-0.053898l-0.402451,-0.00222l0.00042,-0.053902l-0.602562,-0.003311l0.000427,-0.054043l-0.402458,-0.002213l0.000488,-0.053909l-0.603134,-0.003311l0.000458,-0.054115l-0.401917,-0.002209l0.000427,-0.053898l-0.402428,-0.00222l0.000427,-0.05397l-0.603134,-0.003319l0.00042,-0.05397l-0.401863,-0.002209l0.00042,-0.053902l-0.603142,-0.003326l0.000435,-0.054039l-0.401863,-0.002209l0.000427,-0.05397l-0.402489,-0.002216l0.000458,-0.054047l-0.603088,-0.003315l0.000443,-0.053974l-0.401878,-0.002209l0.00042,-0.053902l-0.603134,-0.003315l0.00042,-0.054043l-0.402458,-0.002213l0.000427,-0.053974l-0.602539,-0.003311l0.00045,-0.053909l-0.402443,-0.002213l0.000435,-0.053967l-0.401909,-0.002216l0.000443,-0.05397l-0.603035,-0.003323l0.00042,-0.053967l-0.402504,-0.00222l0.000427,-0.054039l-0.602509,-0.003319l0.000435,-0.053898l-0.402489,-0.00222l0.00042,-0.054039l-0.401863,-0.002213l0.00042,-0.053963l-0.603104,-0.003323l0.000435,-0.053898l-0.402428,-0.00222l0.000427,-0.054047l-0.603142,-0.003311l0.00045,-0.053902l-0.401909,-0.002209l0.000427,-0.054047l-0.603127,-0.003319l0.000427,-0.05397l-0.40242,-0.002213l0.000427,-0.053905l-0.401901,-0.002209l0.000435,-0.05397l-0.603043,-0.003319l0.000435,-0.054047l-0.40197,-0.002209l0.000427,-0.053902l-0.603073,-0.003319l0.000427,-0.054039l-0.402466,-0.00222l0.000427,-0.053967l-0.401871,-0.002216l0.000427,-0.05397l-0.602547,-0.003319l0.000443,-0.054039l-0.402489,-0.002216l0.000427,-0.053825l-0.603073,-0.003323l0.000443,-0.054035l-0.401909,-0.002216l0.000435,-0.053902l-0.603111,-0.003323l0.000435,-0.054043l-0.402466,-0.002213l0.000427,-0.054035l-0.401863,-0.002216l0.000458,-0.053902l-0.603149,-0.003315l0.000427,-0.054043l-0.401871,-0.002209l0.000427,-0.053909l-0.603134,-0.003315l0.000427,-0.053974l-0.402405,-0.002213l0.000427,-0.05397l-0.401939,-0.002209l0.000435,-0.053898l-0.603088,-0.00333l0.000458,-0.054104l-0.401886,-0.002216l0.000427,-0.053902l-0.603111,-0.003323l0.000427,-0.053967l-0.402489,-0.002213l0.000427,-0.054047l-0.603081,-0.003319l0.000435,-0.053902l-0.401833,-0.002201l0.000427,-0.053978l-0.402489,-0.002216l0.00045,-0.05397l-0.603142,-0.003315l0.000435,-0.053974l-0.401886,-0.002209l0.000427,-0.053909l-0.603073,-0.003315l0.00042,-0.054035l-0.401932,-0.002216l0.000443,-0.054039l-0.40242,-0.002216l0.000427,-0.053902l-0.603142,-0.003323l0.00045,-0.053967l-0.401863,-0.002209l0.000427,-0.053978l-0.603142,-0.003323l0.000435,-0.054035l-0.401878,-0.002209l0.000412,-0.053909l-0.603653,-0.003315l0.000412,-0.05397l-0.401863,-0.002216l0.000427,-0.053967l-0.401939,-0.002216l0.000427,-0.054039l-0.603065,-0.003323l0.000427,-0.053829l-0.401871,-0.002209l0.000443,-0.054115l-0.603111,-0.003315l0.000427,-0.053974l-0.402435,-0.002213l0.000412,-0.05397l-0.401909,-0.002216l0.000427,-0.053898l-0.60305,-0.003323l0.000435,-0.054047l-0.401909,-0.002205l0.000427,-0.05397l-0.603134,-0.003323l0.000427,-0.053902l-0.402458,-0.002209l0.000427,-0.053978l-0.401863,-0.002209l0.00045,-0.053974l-0.603149,-0.003315l0.000427,-0.054047l-0.401863,-0.002209l0.000427,-0.053898l-0.603683,-0.003319l0.000427,-0.053974l-0.401871,-0.002209l0.000427,-0.054123l-0.603149,-0.003315l0.000427,-0.053898l-0.401878,-0.002209l0.000481,-0.053978l-0.402466,-0.002209l0.000427,-0.053902l-0.603081,-0.003323l0.000427,-0.054111l-0.401939,-0.002209l0.000427,-0.053902l-0.603081,-0.003323l0.000427,-0.053967l-0.401909,-0.002216l0.000427,-0.05397l-0.402412,-0.00222l0.000443,-0.053959l-0.603142,-0.003323l0.000427,-0.053978l-0.401878,-0.002205l0.000427,-0.05397l-0.603127,-0.003323l0.000404,-0.053902l-0.401871,-0.002213l0.000458,-0.054108l-0.603081,-0.003323l0.000427,-0.053898l-0.402496,-0.00222l0.000427,-0.05397l-0.40184,-0.002209l0.000427,-0.053974l-0.603096,-0.003315l0.000427,-0.05397l-0.401909,-0.002216l0.000427,-0.053967l-0.603134,-0.003323l0.00045,-0.053902l-0.40242,-0.002209l0.00045,-0.053978l-0.401924,-0.002209l0.000427,-0.054043l-0.603081,-0.003315l0.000427,-0.053978l-0.401962,-0.002209l0.00045,-0.053898l-0.603073,-0.003323l0.000435,-0.054115l-0.402435,-0.002216l0.000412,-0.053894l-0.602562,-0.003319l0.000465,-0.053902l-0.402496,-0.002216l0.000443,-0.054039l-0.401871,-0.002216l0.000427,-0.053898l-0.603691,-0.003319l0.00045,-0.054115l-0.401878,-0.002205l0.000427,-0.053909l-0.603149,-0.003315l0.000427,-0.05397l-0.401871,-0.002213l0.000443,-0.053902l-0.402382,-0.002213l0.000427,-0.054043l-0.603149,-0.003323l0.000412,-0.054039l-0.401855,-0.002216l0.000412,-0.053829l-0.603119,-0.003315l0.000427,-0.054115l-0.401871,-0.002205l0.000427,-0.053909l-0.603149,-0.003315l0.000443,-0.054039l-0.402405,-0.002216l0.000443,-0.053978l-0.401932,-0.002209l0.000427,-0.053898l-0.603088,-0.003323l0.000427,-0.05397l-0.401932,-0.002216l0.000412,-0.054028l-0.603043,-0.00333l0.000443,-0.053825l-0.402496,-0.002216l0.000427,-0.054039l-0.401855,-0.002216l0.000443,-0.054035l-0.603134,-0.003323l0.000412,-0.05397l-0.40184,-0.002209l0.000427,-0.053974l-0.603104,-0.003323l0.000443,-0.053902l-0.402481,-0.002209l0.000427,-0.054047l-0.602539,-0.003319l0.000427,-0.05397l-0.402481,-0.002209l0.000443,-0.053978l-0.401871,-0.002209l0.000443,-0.053902l-0.603134,-0.003319l0.000443,-0.054108l-0.40239,-0.002216l0.000427,-0.053833l-0.603119,-0.003315l0.000412,-0.054047l-0.401871,-0.002205l0.000427,-0.053909l-0.402466,-0.002213l0.000412,-0.053967l-0.602554,-0.003319l0.000427,-0.054047l-0.402466,-0.002213l0.000443,-0.053898l-0.603043,-0.003315l0.000412,-0.054054l-0.401947,-0.002201l0.000427,-0.053898l-0.603088,-0.003323l0.000412,-0.054047l-0.402435,-0.002216l0.000427,-0.053894l-0.401871,-0.002216l0.000443,-0.053967l-0.603119,-0.003323l0.000443,-0.054039l-0.401886,-0.002216l0.000427,-0.053967l-0.603149,-0.003323l0.000412,-0.053902l-0.401871,-0.002209l0.000443,-0.054043l-0.402405,-0.002213l0.000427,-0.053978l-0.603149,-0.003319l0.000427,-0.05397l-0.401871,-0.002209l0.000443,-0.053898l-0.603134,-0.003315l0.000427,-0.054047l-0.40184,-0.002216l0.000443,-0.053967l-0.603165,-0.003323l0.000427,-0.053902l-0.402405,-0.002209l0.000427,-0.054039l-0.401917,-0.002216l0.000443,-0.053978l-0.603073,-0.003311l0.000427,-0.054039l-0.402496,-0.00222l0.000427,-0.053898l-0.603058,-0.003323l0.000458,-0.05397l-0.401978,-0.002216l0.000427,-0.053898l-0.401871,-0.002216l0.000443,-0.054039l-0.603149,-0.003323l0.000443,-0.054035l-0.402374,-0.002213l0.000427,-0.053829l-0.603165,-0.003323l0.000427,-0.054047l-0.401886,-0.002209l0.000427,-0.053974l-0.603104,-0.003315l0.000427,-0.054039l-0.40242,-0.002209l0.000412,-0.053909l-0.401337,-0.002205l0.000443,-0.053978l-0.603668,-0.003315l0.000427,-0.054047l-0.401886,-0.002216l0.000427,-0.053898l-0.603104,-0.003315l0.000458,-0.054039l-0.402435,-0.002216l0.000443,-0.053902l-0.401978,-0.002216l0.000458,-0.054039l-0.603058,-0.003319l0.000427,-0.05397l-0.401962,-0.002216l0.000458,-0.0539l-0.603104,-0.003315l0.000443,-0.053972l-0.401932,-0.002213l0.000427,-0.054041l-0.40242,-0.002214l0.000458,-0.053974l-0.603134,-0.003317l0.000427,-0.0539l-0.401871,-0.002213l0.000427,-0.05411l-0.603119,-0.003323l0.000412,-0.0539l-0.401871,-0.002213l0.000443,-0.053968l-0.603104,-0.003319l0.000427,-0.053904l-0.402466,-0.002214l0.000443,-0.054043l-0.40184,-0.002211l0.000427,-0.05397l-0.603165,-0.003321l0.000412,-0.053968l-0.40181,-0.002213l0.000427,-0.0539l-0.60318,-0.003323l0.000427,-0.054041l-0.402405,-0.002211l0.000427,-0.053978l-0.401917,-0.002209l0.000427,-0.0539l-0.603073,-0.003321l0.000427,-0.05397l-0.402466,-0.002218l0.000412,-0.054037l-0.603027,-0.003321l0.000443,-0.05397l-0.401978,-0.002213l0.000427,-0.053972l-0.603073,-0.003317l0.000427,-0.053974l-0.401947,-0.002209l0.000443,-0.053904l-0.402405,-0.002214l0.000412,-0.053968l-0.603119,-0.003323l0.000443,-0.053968l-0.401886,-0.002213l0.000427,-0.054041l-0.603104,-0.003319l0.000443,-0.053972l-0.401917,-0.002213l0.000427,-0.053972l-0.402359,-0.002211l0.000427,-0.053905l-0.60318,-0.003317l0.000443,-0.054041l-0.401871,-0.002213l0.000443,-0.053902l-0.603134,-0.003317l0.000427,-0.054041l-0.40184,-0.002213l0.000443,-0.053972l-0.603195,-0.003319l0.000443,-0.053904l-0.401871,-0.002209l0.000443,-0.054045l-0.402481,-0.002213l0.000427,-0.053972l-0.603073,-0.003321l0.000443,-0.053968l-0.401947,-0.002213l0.000443,-0.053902l-0.603073,-0.003321l0.000427,-0.054041l-0.402435,-0.002216l0.000412,-0.054037l-0.401901,-0.002213l0.000443,-0.053904l-0.603134,-0.003315l0.000412,-0.053976l-0.40239,-0.002211l0.000473,-0.053972l-0.602646,-0.003317l0.000443,-0.054041l-0.40242,-0.002214l0.000427,-0.053831l-0.603104,-0.003319l0.000427,-0.054045l-0.401886,-0.002209l0.000412,-0.053972l-0.401855,-0.002209l0.000427,-0.054041l-0.603668,-0.003325l0.000412,-0.053831l-0.401855,-0.002213l0.000427,-0.054041l-0.603149,-0.003319l0.000443,-0.054041l-0.401871,-0.002213l0.000427,-0.053968l-0.402435,-0.002218l0.000443,-0.053902l-0.603134,-0.003317l0.000458,-0.054041l-0.401947,-0.002213l0.000443,-0.053974l-0.603088,-0.003317l0.000412,-0.053972l-0.401917,-0.002209l0.000427,-0.053833l-0.603058,-0.003321l0.000443,-0.054037l-0.402481,-0.002216l0.000427,-0.053972l-0.401886,-0.002213l0.000443,-0.054041l-0.603134,-0.003317l0.000443,-0.053905l-0.40242,-0.002211l0.000412,-0.053972l-0.603134,-0.003319l0.000443,-0.053972l-0.401855,-0.002213l0.000458,-0.053968l-0.401886,-0.002216l0.000443,-0.053968l-0.603165,-0.003323l0.000443,-0.054037l-0.401871,-0.002213l0.000427,-0.053972l-0.603149,-0.003319l0.000412,-0.053904l-0.40239,-0.002211l0.000458,-0.053972l-0.603165,-0.003319l0.000427,-0.054113l-0.401855,-0.002209l0.000427,-0.053831l-0.401932,-0.002213l0.000427,-0.054041l-0.603043,-0.003319l0.000412,-0.054041l-0.402481,-0.002214l0.000427,-0.053905l-0.603058,-0.003317l0.000443,-0.053972l-0.401947,-0.002209l0.000427,-0.053972l-0.40184,-0.002213l0.000412,-0.05397l-0.603668,-0.003323l0.000412,-0.05397l-0.401871,-0.002211l0.000412,-0.053974l-0.603134,-0.003321l0.000427,-0.05397l-0.40184,-0.002211l0.000443,-0.054043l-0.402542,-0.002214l0.000458,-0.0539l-0.603043,-0.003323l0.000427,-0.0539l-0.401886,-0.002213l0.000427,-0.053968l-0.603134,-0.003323l0.000427,-0.054041l-0.40184,-0.002213l0.000427,-0.053968l-0.60318,-0.003319l0.000458,-0.053972l-0.402481,-0.002214l0.000427,-0.053968l-0.40184,-0.002213l0.000443,-0.053972l-0.603088,-0.003319l0.000443,-0.053972l-0.401978,-0.002213l0.000443,-0.053968l-0.603043,-0.003323l0.000443,-0.054037l-0.402481,-0.002218l0.000427,-0.0539l-0.401886,-0.002209l0.000427,-0.053974l-0.603149,-0.003317l0.000412,-0.053972l-0.40181,-0.002213l0.000427,-0.053972l-0.603165,-0.003319l0.000427,-0.053972l-0.40242,-0.002211l0.000427,-0.053974l-0.603088,-0.003321l0.000443,-0.054041l-0.401932,-0.002213l0.000443,-0.053829l-0.401871,-0.002211l0.000427,-0.054043l-0.603134,-0.003317l0.000427,-0.053974l-0.402481,-0.002214l0.000458,-0.054041l-0.603073,-0.003317l0.000427,-0.053974l-0.401871,-0.002213l0.000443,-0.0539l-0.401978,-0.002213l0.000443,-0.053968l-0.603668,-0.003325l0.000443,-0.054041l-0.401855,-0.002213l0.000427,-0.0539l-0.603073,-0.003319l0.000443,-0.053972l-0.401962,-0.002213l0.000427,-0.054041l-0.603088,-0.003319l0.000443,-0.053972l-0.402466,-0.002214l0.000427,-0.0539l-0.401871,-0.002213l0.000427,-0.053968l-0.603119,-0.003323l0.000427,-0.054041l-0.401871,-0.002209l0.000473,-0.053972l-0.603195,-0.003319l0.000443,-0.053904l-0.40239,-0.002214l0.000412,-0.053974l-0.401917,-0.002213l0.000427,-0.054037l-0.603104,-0.003321l0.000427,-0.05397l-0.40184,-0.002211l0.000427,-0.053905l-0.603149,-0.003317l0.000427,-0.053972l-0.402466,-0.002213l0.000427,-0.054045l-0.401871,-0.002209l0.000458,-0.053968l-0.603088,-0.003321l0.000427,-0.053905l-0.401932,-0.002209l0.000412,-0.053972l-0.603088,-0.003317l0.000458,-0.054043l-0.401917,-0.002213l0.000427,-0.053968l-0.603073,-0.003321l0.000412,-0.053902l-0.402451,-0.002214l0.000412,-0.054041l-0.40184,-0.002213l0.000412,-0.0539l-0.603149,-0.003323l0.000458,-0.054037l-0.402451,-0.002214l0.000458,-0.053904l-0.603119,-0.003319l0.000443,-0.054041l-0.401901,-0.002213l0.000443,-0.053968l-0.401901,-0.002213l0.000427,-0.0539l-0.603119,-0.003323l0.000427,-0.054041l-0.402481,-0.002214l0.000458,-0.053902l-0.603043,-0.003321l0.000412,-0.054041l-0.401901,-0.002209l0.000427,-0.053974l-0.603134,-0.003317l0.000443,-0.053972l-0.401871,-0.002209l0.000427,-0.053976l-0.402481,-0.002213l0.000427,-0.053972l-0.603012,-0.003317l0.000412,-0.053902l-0.401962,-0.002213l0.000443,-0.054041l-0.603104,-0.003321l0.000427,-0.05397l-0.401901,-0.002211l0.000412,-0.053905l-0.401855,-0.002209l0.000443,-0.054113l-0.603668,-0.003321l0.000443,-0.0539l-0.401917,-0.002213l0.000458,-0.053968l-0.603149,-0.003323l0.000427,-0.053968l-0.401871,-0.002213l0.000443,-0.054041l-0.402481,-0.002214l0.000427,-0.053905l-0.603073,-0.003317l0.000427,-0.053972l-0.401871,-0.002213l0.000443,-0.054041l-0.603149,-0.003319l0.000412,-0.053968l-0.401855,-0.002213l0.000443,-0.0539l-0.603119,-0.003323l0.000443,-0.053968l-0.402512,-0.002214l0.000427,-0.05397l-0.401855,-0.002211l0.000427,-0.053974l-0.603043,-0.003321l0.000427,-0.053968l-0.402496,-0.002216l0.000427,-0.053972l-0.603119,-0.003317l0.000443,-0.054043l-0.401886,-0.002211l0.000412,-0.053974l-0.401855,-0.002211l0.000427,-0.053902l-0.603149,-0.003317l0.000443,-0.053974l-0.40242,-0.002214l0.000443,-0.053968l-0.603165,-0.003323l0.000443,-0.053968l-0.401871,-0.002213l0.000427,-0.053968l-0.603088,-0.003321l0.000412,-0.054047l-0.402405,-0.002211l0.000443,-0.053968l-0.401917,-0.002213l0.000412,-0.053976l-0.603058,-0.003315l0.000443,-0.053904l-0.401947,-0.002213l0.000443,-0.054037l-0.603104,-0.003319l0.000412,-0.053972l-0.402451,-0.002218l0.000412,-0.0539l-0.401855,-0.002213l0.000443,-0.05397l-0.603149,-0.003317l0.000443,-0.053972l-0.401855,-0.002213l0.000412,-0.054041l-0.603073,-0.003319l0.000412,-0.053904l-0.401932,-0.002209l0.000443,-0.053972l-0.603043,-0.003319l0.000412,-0.054041l-0.402481,-0.002214l0.000443,-0.053974l-0.401855,-0.002211l0.000412,-0.053902l-0.603149,-0.003317l0.000473,-0.054041l-0.401917,-0.002213l0.000443,-0.053974l-0.603638,-0.003319l0.000443,-0.053974l-0.401901,-0.002207l0.000412,-0.053902l-0.401917,-0.002213l0.000443,-0.054045l-0.603088,-0.003317l0.000458,-0.05397l-0.402451,-0.002218l0.000443,-0.053972l-0.603119,-0.003317l0.000443,-0.05397l-0.401947,-0.002213l0.000443,-0.053968l-0.401901,-0.002213l0.000443,-0.053976l-0.603073,-0.003315l0.000443,-0.053976l-0.402481,-0.002211l0.000443,-0.053968l-0.603149,-0.003323l0.000412,-0.0539l-0.401825,-0.002216l0.000412,-0.054041l-0.603073,-0.003315l0.000443,-0.054041l-0.401932,-0.002213l0.000412,-0.0539l-0.401886,-0.002213l0.000473,-0.053972l-0.603699,-0.003321l0.000443,-0.053972l-0.401886,-0.002213l0.000443,-0.054043l-0.603149,-0.003317l0.000443,-0.0539l-0.401855,-0.002213l0.000412,-0.053904l-0.402481,-0.002216l0.000397,-0.054037l-0.602478,-0.003315l0.000427,-0.054045l-0.402466,-0.002216l0.000397,-0.0539l-0.603058,-0.003317l0.000427,-0.053972l-0.401855,-0.002213l0.000458,-0.05397l-0.60318,-0.003321l0.000427,-0.053968l-0.402466,-0.00222l0.000397,-0.053968l-0.401855,-0.002213l0.000458,-0.053972l-0.603119,-0.003319l0.000397,-0.054041l-0.401855,-0.002209l0.000458,-0.053904l-0.603058,-0.003317l0.000458,-0.053974l-0.402557,-0.002214l0.000458,-0.053968l-0.401886,-0.002213l0.000427,-0.053972l-0.603149,-0.003319l0.000458,-0.053972l-0.402405,-0.002214l0.000427,-0.053972l-0.60318,-0.003315l0.000427,-0.053972l-0.401855,-0.002213l0.000427,-0.053974l-0.401917,-0.002207l0.000427,-0.054043l-0.603058,-0.003321l0.000458,-0.053968l-0.402496,-0.002218l0.000458,-0.05397l-0.60257,-0.003315l0.000458,-0.053972l-0.402527,-0.002214l0.000458,-0.053833l-0.603088,-0.003321l0.000458,-0.054037l-0.401947,-0.002213l0.000458,-0.054043l-0.402435,-0.002214l0.000427,-0.053968l-0.603119,-0.003321l0.000427,-0.05397l-0.401855,-0.002213l0.000366,-0.053904l-0.603088,-0.003317l0.000427,-0.054043l-0.402435,-0.002214l0.000458,-0.053904l-0.401855,-0.002209l0.000427,-0.054037l-0.603149,-0.003323l0.000427,-0.0539l-0.401886,-0.002213l0.000427,-0.054041l-0.603149,-0.003319l0.000458,-0.053972l-0.401855,-0.002213l0.000397,-0.053972l-0.603119,-0.003319l0.000458,-0.0539l-0.402405,-0.002214l0.000397,-0.054041l-0.401917,-0.002213l0.000427,-0.053968l-0.603088,-0.003323l0.000427,-0.053904l-0.402435,-0.002211l0.000427,-0.053974l-0.603027,-0.003317l0.000397,-0.054045l-0.401917,-0.002209l0.000427,-0.053974l-0.401886,-0.002207l0.000458,-0.054047l-0.60318,-0.003317l0.000397,-0.05397l-0.402405,-0.002214l0.000458,-0.053904l-0.602539,-0.003315l0.000427,-0.053968l-0.402466,-0.002218l0.000458,-0.05397l-0.60318,-0.003321l0.000427,-0.05397l-0.401886,-0.002209l0.000458,-0.053976l-0.402405,-0.002211l0.000458,-0.053972l-0.6026,-0.003315l0.000366,-0.053974l-0.402374,-0.002214l0.000458,-0.053968l-0.603149,-0.003319l0.000427,-0.053972l-0.401886,-0.002213l0.000458,-0.054045l-0.402496,-0.002211l0.000427,-0.053974l-0.602539,-0.003315l0.000458,-0.0539l-0.402466,-0.002214l0.000458,-0.053972l-0.603119,-0.003319l0.000458,-0.053972l-0.401947,-0.002213l0.000458,-0.053968l-0.401886,-0.002213l0.000397,-0.053972l-0.603088,-0.003319l0.000397,-0.053904l-0.402374,-0.002211l0.000366,-0.054115l-0.603058,-0.003317l0.000427,-0.053831l-0.401917,-0.002213l0.000427,-0.054041l-0.603088,-0.003319l0.000458,-0.054041l-0.402496,-0.002214l0.000458,-0.053974l-0.401886,-0.002213l0.000427,-0.0539l-0.603149,-0.003317l0.000458,-0.053974l-0.401917,-0.002209l0.000458,-0.054045l-0.603149,-0.003317l0.000458,-0.053974l-0.402405,-0.002211l0.000366,-0.0539l-0.401825,-0.002213l0.000427,-0.053972l-0.603088,-0.003321l0.000397,-0.054039l-0.401855,-0.002213l0.000458,-0.0539l-0.60318,-0.003321l0.000397,-0.05397l-0.402374,-0.002214l0.000427,-0.054041l-0.603119,-0.003323l0.000427,-0.0539l-0.401886,-0.002213l0.000427,-0.054041l-0.402496,-0.002214l0.000488,-0.053902l-0.603088,-0.003321l0.000397,-0.054037l-0.401886,-0.002213l0.000427,-0.053973l-0.603119,-0.003318l0.000427,-0.053972l-0.402374,-0.002214l0.000427,-0.053901l-0.401917,-0.002213l0.000427,-0.054042l-0.603149,-0.003318l0.000427,-0.0539l-0.401886,-0.002213l0.000458,-0.054041l-0.603119,-0.003318l0.000397,-0.053905l-0.401855,-0.002209l0.000427,-0.054045l-0.401855,-0.002213l0.000427,-0.053968l-0.603699,-0.003325l0.000458,-0.053901l-0.401947,-0.002212l0.000458,-0.054111l-0.603119,-0.003318l0.000458,-0.0539l-0.401917,-0.002216l0.000427,-0.053969l-0.603088,-0.003318l0.000427,-0.053972l-0.402466,-0.002215l0.000427,-0.053972l-0.401855,-0.002209l0.000397,-0.053973l-0.603088,-0.003317l0.000427,-0.053973l-0.401886,-0.002213l0.000427,-0.054041l-0.603668,-0.003321l0.000458,-0.053904l-0.401886,-0.002209l0.000427,-0.053973l-0.401947,-0.002213l0.000427,-0.053972l-0.603119,-0.003318l0.000458,-0.054042l-0.401855,-0.002208l0.000397,-0.053977l-0.603088,-0.003314l0.000397,-0.053904l-0.402405,-0.002215l0.000397,-0.053968l-0.603088,-0.003322l0.000427,-0.053901l-0.401886,-0.002212l0.000427,-0.053969l-0.401855,-0.002212l0.000458,-0.054046l-0.603149,-0.003318l0.000427,-0.054042l-0.402466,-0.002214l0.000427,-0.053969l-0.603088,-0.003318l0.000427,-0.053904l-0.401917,-0.002209l0.000427,-0.053973l-0.401855,-0.002212l0.000397,-0.054042l-0.603058,-0.003322l0.000458,-0.0539l-0.402466,-0.002212l0.000427,-0.053976l-0.603088,-0.003314l0.000397,-0.053977l-0.401917,-0.002208l0.000458,-0.054042l-0.603088,-0.003318l0.000397,-0.053901l-0.401917,-0.002215l0.000458,-0.053969l-0.402466,-0.002214l0.000458,-0.054042l-0.603149,-0.003322l0.000427,-0.0539l-0.401855,-0.002209l0.000427,-0.053973l-0.603119,-0.003317l0.000427,-0.053973l-0.402405,-0.002214l0.000427,-0.053969l-0.401917,-0.002216l0.000427,-0.054037l-0.603088,-0.003318l0.000427,-0.053905l-0.401855,-0.002212l0.000397,-0.053973l-0.603149,-0.003314l0.000427,-0.054042l-0.401794,-0.002212l0.000397,-0.053973l-0.402435,-0.002214l0.000427,-0.053901l-0.603149,-0.003322l0.000427,-0.053968l-0.401886,-0.002213l0.000427,-0.054042l-0.603119,-0.003318l0.000458,-0.053972l-0.402435,-0.002214l0.000427,-0.053901l-0.603088,-0.003318l0.000458,-0.053904l-0.402008,-0.002213l0.000488,-0.05411l-0.402405,-0.002214l0.000397,-0.053973l-0.603119,-0.003318l0.000427,-0.053904l-0.401855,-0.002209l0.000427,-0.054041l-0.603119,-0.003318l0.000397,-0.053905l-0.402374,-0.002211l0.000397,-0.054046l-0.401917,-0.002209l0.000427,-0.053904l-0.602539,-0.003316l0.000427,-0.053972l-0.402466,-0.002215l0.000427,-0.053968l-0.603058,-0.003322l0.000427,-0.054037l-0.401886,-0.002213l0.000458,-0.053973l-0.603149,-0.003318l0.000397,-0.053972l-0.401825,-0.002213l0.000427,-0.053969l-0.402466,-0.002214l0.000427,-0.053905l-0.603119,-0.003318l0.000427,-0.054041l-0.401886,-0.002213l0.000458,-0.053972l-0.603119,-0.003318l0.000427,-0.053969l-0.402466,-0.002214l0.000427,-0.054042l-0.401886,-0.002213l0.000458,-0.053831l-0.603149,-0.003318l0.000427,-0.054046l-0.401855,-0.002208l0.000427,-0.053973l-0.603149,-0.003318l0.000427,-0.053901l-0.401855,-0.002212l0.000427,-0.054114l-0.603668,-0.00332l0.000427,-0.053901l-0.401855,-0.002212l0.000427,-0.053969l-0.401947,-0.002213l0.000458,-0.054041l-0.603119,-0.003322l0.000458,-0.053901l-0.402496,-0.002214l0.000458,-0.053969l-0.603088,-0.003322l0.000458,-0.053968l-0.401947,-0.002216l0.000427,-0.053969l-0.401855,-0.002208l0.000427,-0.053977l-0.603119,-0.003318l0.000488,-0.053972l-0.402527,-0.002212l0.000458,-0.053972l-0.603149,-0.003318l0.000458,-0.054042l-0.401855,-0.002213l0.000397,-0.053972l-0.401855,-0.002213l0.000427,-0.0539l-0.603088,-0.003318l0.000397,-0.053973l-0.401886,-0.002209l0.000397,-0.053976l-0.603638,-0.003321l0.000427,-0.053972l-0.401855,-0.002213l0.000427,-0.053966l-0.603149,-0.003321l0.000458,-0.054042l-0.401886,-0.002213l0.000427,-0.053972l-0.402496,-0.002215l0.000427,-0.053901l-0.603058,-0.003317l0.000427,-0.054042l-0.401917,-0.002213l0.000427,-0.053831l-0.603027,-0.003318l0.000366,-0.054046l-0.401825,-0.002212l0.000427,-0.053969l-0.402496,-0.002214l0.000427,-0.053973l-0.603119,-0.003318l0.000427,-0.054037l-0.401886,-0.002213l0.000458,-0.053973l-0.603088,-0.003321l0.000427,-0.054038l-0.401947,-0.002213l0.000458,-0.053831l-0.603119,-0.003319l0.000427,-0.053972l-0.402466,-0.002214l0.000427,-0.053973l-0.401855,-0.002213l0.000427,-0.054041l-0.603119,-0.003318l0.000458,-0.053901l-0.402405,-0.002214l0.000397,-0.054042l-0.603119,-0.003317l0.000397,-0.053905l-0.401855,-0.002209l0.000458,-0.054045l-0.402496,-0.002212l0.000458,-0.053972l-0.603088,-0.003322l0.000458,-0.053901l-0.401978,-0.002213l0.000458,-0.05411l-0.603119,-0.003318l0.000458,-0.053905l-0.401947,-0.002213l0.000427,-0.053968l-0.401825,-0.002213l0.000366,-0.053972l-0.603058,-0.003314l0.000458,-0.053977l-0.402435,-0.002211l0.000397,-0.053969l-0.602509,-0.003319l0.000397,-0.053972l-0.402466,-0.002215l0.000427,-0.053901l-0.603149,-0.003318l0.000427,-0.054041l-0.401855,-0.002213l0.000427,-0.053904l-0.402405,-0.002212l0.000427,-0.054045l-0.603149,-0.003318l0.000458,-0.054042l-0.401886,-0.002208l0.000397,-0.053905l-0.603119,-0.003318l0.000458,-0.053973l-0.402405,-0.002214l0.000427,-0.053968l-0.401917,-0.002213l0.000397,-0.053905l-0.603058,-0.003314l0.000427,-0.054113l-0.401947,-0.002213l0.000427,-0.053901l-0.603058,-0.003317l0.000397,-0.053973l-0.401886,-0.002213l0.000397,-0.053901l-0.603027,-0.003321l0.000427,-0.054038l-0.402466,-0.002218l0.000427,-0.053969l-0.401917,-0.002213l0.000458,-0.053968l-0.603149,-0.003322l0.000427,-0.054042l-0.401886,-0.002208l0.000458,-0.053977l-0.603668,-0.003316l0.000427,-0.053905l-0.401886,-0.002213l0.000458,-0.054037l-0.401886,-0.002216l0.000458,-0.0539l-0.603149,-0.003318l0.000366,-0.053973l-0.402374,-0.002214l0.000458,-0.053973l-0.6026,-0.003315l0.000458,-0.054041l-0.402435,-0.002211l0.000458,-0.053977l-0.60318,-0.003314l0.000427,-0.053904l-0.401886,-0.002213l0.000458,-0.054041l-0.401978,-0.002209l0.000458,-0.053973l-0.603607,-0.003324l0.000458,-0.053969l-0.401947,-0.002213l0.000427,-0.0539l-0.603088,-0.003317l0.000427,-0.054046l-0.401917,-0.002208l0.000427,-0.053973l-0.402374,-0.002214l0.000397,-0.053973l-0.603119,-0.003318l0.000458,-0.053973l-0.401886,-0.002208l0.000427,-0.053973l-0.603149,-0.003318l0.000458,-0.053904l-0.401917,-0.002212l0.000427,-0.053969l-0.402405,-0.002214l0.000427,-0.053973l-0.60257,-0.003315l0.000427,-0.053973l-0.402405,-0.002214l0.000397,-0.053969l-0.603119,-0.003317l0.000458,-0.054046l-0.401886,-0.002212l0.000397,-0.053969l-0.603119,-0.003322l0.000427,-0.053897l-0.402374,-0.002214l0.000397,-0.053973l-0.401917,-0.002213l0.000427,-0.053969l-0.603058,-0.003321l0.000427,-0.054038l-0.402496,-0.002215l0.000427,-0.053973l-0.603088,-0.003321l0.000458,-0.053969l-0.401917,-0.002213l0.000397,-0.0539l-0.402374,-0.002215l0.000427,-0.054045l-0.603119,-0.003318l0.000427,-0.053973l-0.401917,-0.002209l0.000458,-0.053904l-0.603149,-0.003318l0.000427,-0.053969l-0.401855,-0.002212l0.000427,-0.053973l-0.603119,-0.003318l0.000397,-0.054042l-0.401825,-0.002212l0.000427,-0.053969l-0.401886,-0.002212l0.000458,-0.053973l-0.60318,-0.003318l0.000458,-0.053973l-0.402435,-0.002215l0.000458,-0.053973l-0.603149,-0.003318l0.000427,-0.0539l-0.401886,-0.002213l0.000458,-0.05411l-0.402496,-0.002219l0.000458,-0.053896l-0.603119,-0.003322l0.000458,-0.053973l-0.401947,-0.002208l0.000427,-0.054046l-0.603058,-0.003317l0.000427,-0.0539l-0.401917,-0.002213l0.000458,-0.053969l-0.603088,-0.003321l0.000458,-0.053973l-0.402527,-0.002215l0.000458,-0.053969l-0.401886,-0.002212l0.000427,-0.0539l-0.603149,-0.003322l0.000458,-0.054038l-0.401886,-0.002212l0.000427,-0.053973l-0.603119,-0.003318l0.000427,-0.054041l-0.402466,-0.002215l0.000458,-0.0539l-0.401825,-0.002212l0.000366,-0.053973l-0.603119,-0.003317l0.000458,-0.054041l-0.401855,-0.002213l0.000427,-0.0539l-0.603668,-0.003325l0.000427,-0.054038l-0.401886,-0.002212l0.000427,-0.053904l-0.401947,-0.002213l0.000427,-0.053969l-0.603058,-0.003321l0.000427,-0.053969l-0.401917,-0.002213l0.000397,-0.053973l-0.603027,-0.003318l0.000397,-0.053973l-0.402466,-0.002211l0.000397,-0.054041l-0.603027,-0.003321l0.000427,-0.053901l-0.401947,-0.002213l0.000427,-0.053969l-0.401855,-0.002212l0.000458,-0.054045l-0.603668,-0.00332l0.000397,-0.053969l-0.401886,-0.002213l0.000488,-0.053904l-0.60318,-0.003318l0.000427,-0.053969l-0.401855,-0.002212l0.000427,-0.054045l-0.401886,-0.002208l0.000427,-0.053973l-0.603638,-0.00332l0.000397,-0.053904l-0.401855,-0.002208l0.000458,-0.053973l-0.602661,-0.003316l0.000458,-0.054041l-0.402435,-0.002215l0.000458,-0.053973l-0.603149,-0.003318l0.000427,-0.053904l-0.401855,-0.002208l0.000427,-0.053973l-70.163422,-0.386075" id="path172"/>
     </g>
    </g>
   </g>
   <path fill="#6aa9d8" fill-rule="nonzero" d="m334.128418,37.938057c-15.959045,-7.838194 -36.169464,-17.767986 -62.46524,-30.68383l-58.949646,-0.324368c22.0466,8.39248 40.659073,15.476139 56.497498,21.508612c27.46225,10.449594 48.353455,18.408327 64.7854,24.657728c13.16507,5.017139 24.030792,9.154842 33.164795,12.629234l428.230621,2.409752l0.091431,-11.419056c-315.232727,-1.743164 -428.007599,-2.38588 -428.007477,-2.395031c-9.162018,-4.501244 -20.094696,-9.870853 -33.347382,-16.383041" id="path144"/>
  </g>
 </g>
</svg>