<svg width="762.17499" height="1064.525" xmlns="http://www.w3.org/2000/svg">
 <metadata id="metadata8">image/svg+xml</metadata>
 <defs>
  <clipPath clipPathUnits="userSpaceOnUse" id="clipPath124">
   <path d="m4264.359863,4004.929932c-3.959961,-82.01001 -9.060059,-186.149902 -15.580078,-323.030029c-4.199707,-85.869873 -9.060059,-187.679932 -15.060059,-310.399902c-7.179688,-150.699951 -16.319824,-340.27002 -28.179688,-585.890137c-7.42041,-152.290039 -15.990234,-330.949951 -26.290039,-543.649902c-5.840332,-122.23999 -12.360352,-257.290039 -19.600098,-407.370117c-8.160156,-167.669922 -17.220215,-356.269897 -27.530273,-569.949951c-11.769531,-244.030029 -25.359863,-525.531006 -41.179688,-853.851013c-6.179932,-128.475891 -12.859863,-265.308884 -19.77002,-410.788879l-1916.069824,0c66.899902,146.641006 129.840088,284.460999 188.98999,413.929993c149.689941,327.812012 278.050049,608.890015 389.360107,852.620056c97.369873,213.419922 183.539795,401.769897 259.909912,569.27002c68.389893,149.959961 130.080078,284.889893 185.859863,407.050049c96.970215,212.469971 178.540039,391 247.980225,543.169922c112.119873,245.469971 198.629883,434.949951 267.429932,585.580078c56.01001,122.659912 102.469971,224.539795 141.699951,310.369873c62.52002,136.790039 110.02002,240.929932 147.419922,322.939941c30.23999,66.140137 55.200195,120.690186 76.050049,166.420166c0.23999,0 0.580078,1060.149902 0.820068,2628.219727l211.890137,0l-0.160156,-2629.179688c-2.319824,-45.5 -4.850098,-99.780029 -7.990234,-165.460205z" id="path126"/>
  </clipPath>
  <linearGradient x1="-1.0178" y1="0" x2="-1.017328" y2="0" gradientTransform="matrix(2117.42,0,0,-2117.42,2155.1,3399.79)" spreadMethod="pad" id="linearGradient128">
   <stop stop-color="#fce98f" offset="0" id="stop130"/>
   <stop stop-color="#fac708" offset="0.5" id="stop132"/>
   <stop stop-color="#f7a40e" offset="1" id="stop134"/>
  </linearGradient>
  <clipPath clipPathUnits="userSpaceOnUse" id="clipPath154">
   <path d="m0,0l0,8516l6097,0l0,-8516l-6097,0z" id="path156"/>
  </clipPath>
  <clipPath clipPathUnits="userSpaceOnUse" id="clipPath160">
   <path d="m4581.950195,4004.929932c33.939941,-82.01001 77.119629,-186.209961 133.799805,-323.099854c35.5,-85.860107 77.600098,-187.72998 128.509766,-310.52002c62.44043,-150.780029 140.960449,-340.449951 242.800293,-586.22998c63.089844,-152.370117 137.149902,-331.209961 225.22998,-544.110107c50.660156,-122.349854 106.77002,-257.589966 168.899902,-407.780029c69.52002,-167.869995 147.620117,-356.709961 236.27002,-570.689941c101.260254,-244.469971 218.069824,-526.460999 354.260254,-855.320007c8.469727,-20.417999 17.049805,-41.218994 25.699707,-62.070984l0,-345.109009l-1773.830078,0c-0.739746,145.300995 -1.489746,281.94101 -2.299805,410.312988c-1.819824,328.416992 -3.379883,609.997009 -4.790039,854.087036c-1.149902,213.73999 -2.220215,402.329956 -3.120117,570.01001c-0.830078,150.079956 -1.580078,285.180054 -2.22998,407.479858c-1.22998,212.650146 -2.219727,391.370117 -3.040039,543.650146c-1.409668,245.659912 -2.47998,435.26001 -3.299805,585.959961c-0.740234,122.659912 -1.319824,224.530029 -1.72998,310.399902c-0.740234,136.820068 -1.330078,241.02002 -1.72998,323.030029c-0.419922,66.170166 -0.75,120.690186 -0.910156,166.449951c0,0 0,0 0.080078,0l0,3391.439941l211.899902,0c0.149902,-1568.07959 0.410156,-3391.409668 0.490234,-3391.409668c19.029785,-45.790039 41.609863,-100.310059 69.040039,-166.480225l0,0z" id="path162"/>
  </clipPath>
  <linearGradient x1="-2.392877" y1="0" x2="-2.392321" y2="0" gradientTransform="matrix(1796.97,0,0,-1796.97,4300.44,3781.41)" spreadMethod="pad" id="linearGradient164">
   <stop stop-color="#f68341" offset="0" id="stop166"/>
   <stop stop-color="#f26319" offset="0.5" id="stop168"/>
   <stop stop-color="#d55221" offset="1" id="stop170"/>
  </linearGradient>
 </defs>
 <g>
  <title>Layer 1</title>
  <g id="g10">
   <g id="g12">
    <path fill="#100f0d" fill-rule="nonzero" d="m28.30275,28.128744c-2.942375,3.079956 -6.464375,4.688723 -10.5655,4.824953l0,-5.922487c2.119251,-0.106201 3.933126,-1.13623 5.442501,-3.087524c0.747,-0.959961 1.31925,-2.012451 1.71575,-3.15625l6.311501,3.271362c-0.731876,1.462402 -1.700127,2.819946 -2.904251,4.069946zm-5.122999,-18.981201c-1.509375,-1.936279 -3.32325,-2.95752 -5.442501,-3.065063l0,-6.013794c4.101124,0.137573 7.623125,1.737549 10.5655,4.802613c1.494125,1.569946 2.622,3.301147 3.38475,5.191162l-6.494625,3.201294c-0.381374,-1.525024 -1.05225,-2.89624 -2.013124,-4.116211zm-6.631376,-3.018799c-1.905749,0.22876 -3.560124,1.234985 -4.962924,3.018799c-1.600588,2.04248 -2.400875,4.512451 -2.400875,7.408691c0,2.882568 0.800287,5.34375 2.400875,7.387451c1.4028,1.798828 3.057175,2.813843 4.962924,3.04126l0,5.946291c-4.040499,-0.152466 -7.508824,-1.753786 -10.405799,-4.802492c-3.06445,-3.201294 -4.596675,-7.07373 -4.596675,-11.617554c0,-4.543701 1.532225,-8.423706 4.596675,-11.639893c2.896975,-3.033814 6.365301,-4.627564 10.405799,-4.78003l0,6.037476" id="path14"/>
    <path fill="#100f0d" fill-rule="nonzero" d="m56.152874,18.203695c0.578999,0.59375 1.13625,1.456299 1.669376,2.58374c0.227997,0.243774 0.42675,1.219971 0.594749,2.92749l0.2285,1.16626l0.685997,3.61377c0.152878,0.380005 0.350628,1.112549 0.594753,2.194946c0.258747,0.397583 0.723625,1.121338 1.394997,2.172487l-7.798248,0.046265c-0.259377,0 -0.724625,-0.929934 -1.3955,-2.789919c-0.137249,-0.22876 -0.525875,-2.401245 -1.166126,-6.518799c-0.274872,-0.974976 -0.899872,-1.752441 -1.875,-2.33252c-0.914997,-0.319946 -3.15625,-0.47998 -6.723625,-0.47998l0,-5.944946l5.96925,0c2.332127,-0.823853 3.498627,-2.36377 3.498627,-4.619995l0,-0.57251c-0.519123,-2.453735 -1.921501,-3.727539 -4.208126,-3.818848l-5.25975,0l0,-5.831177l5.25975,0c4.405876,0 7.599625,1.196289 9.582127,3.589966c1.402248,2.043823 2.1045,4.185059 2.1045,6.42627l0,0.435059c0,2.559937 -0.73975,4.809937 -2.21875,6.746216c-0.274502,0.366211 -0.587002,0.701172 -0.9375,1.006226zm-14.979,14.750002l-7.455624,0l0,-32.862551l7.455624,0l0,32.862551" id="path16"/>
    <path fill="#100f0d" fill-rule="nonzero" d="m87.410622,26.871176l0,6.037477l-15.367622,0l0,-6.037477l15.367622,0zm-1.280251,-14.293701l0,6.037476l-14.110374,0l0,-6.037476l14.110374,0zm1.211876,-12.417603l0,6.037598l-15.367622,0l0,-6.037598l15.367622,0zm-16.648376,32.793825l-7.455624,0l0,-32.862551l7.455624,0l0,32.862551" id="path18"/>
    <path fill="#100f0d" fill-rule="nonzero" d="m107.714874,0.159994l11.594749,32.793703l-8.461502,0l-2.195244,-6.974977l-9.078629,0l1.76075,-6.059937l5.579498,0l0,-0.11499l-3.384247,-12.073853l-0.114754,0l-7.089371,25.223757l-6.631752,0l0,-4.757448l9.536125,-28.036255l8.484375,0" id="path20"/>
    <path fill="#100f0d" fill-rule="nonzero" d="m136.960007,32.886192l-7.455002,0l0,-25.408693l7.455002,0l0,25.408693zm8.301254,-32.658694l0,6.038696l-24.423378,0l0,-6.038696l24.423378,0" id="path22"/>
    <path fill="#100f0d" fill-rule="nonzero" d="m171.946243,26.871176l0,6.037477l-15.368744,0l0,-6.037477l15.368744,0zm-1.28125,-14.293701l0,6.037476l-14.110001,0l0,-6.037476l14.110001,0zm1.212494,-12.417603l0,6.037598l-15.367493,0l0,-6.037598l15.367493,0zm-16.648743,32.793825l-7.455002,0l0,-32.862551l7.455002,0l0,32.862551" id="path24"/>
    <path fill="#100f0d" fill-rule="nonzero" d="m192.341248,10.038778c-0.518753,-2.561279 -1.921249,-3.86377 -4.207504,-3.910034l-5.259995,-0.068726l0,-6.059937l5.259995,0c4.404999,0 7.598755,1.242432 9.581253,3.727417c1.402496,2.13501 2.104996,4.361328 2.104996,6.67749l0,12.119995c0,2.317505 -0.702499,4.543823 -2.104996,6.678833c-1.982498,2.484985 -5.176254,3.727419 -9.581253,3.727419l-5.259995,0l0,-6.059938l5.259995,-0.068726c2.286255,-0.046265 3.688751,-1.350098 4.207504,-3.911255l0,-12.852539zm-10.65625,22.915041l-7.456253,0l0,-32.862551l7.456253,0l0,32.862551" id="path26"/>
    <path fill="#100f0d" fill-rule="nonzero" d="m222.797501,0.091268l0.091248,0c5.275009,0 8.606247,1.875 9.993759,5.626221c0.319992,0.746338 0.479996,1.608765 0.479996,2.58374l0,0.571289c0.014999,0.838745 -0.183746,1.547485 -0.595001,2.127441c-0.487503,1.432617 -1.294998,2.598755 -2.423752,3.498779l-1.051254,0.594971l-0.548752,0.182617c0.59375,0.319946 1.081253,0.571167 1.46376,0.754883c2.316238,1.387573 3.634995,3.452515 3.956253,6.196289c0.074997,0.306274 0.113739,0.663818 0.113739,1.076294c-0.122498,1.951172 -0.3125,3.078735 -0.571243,3.383667c-0.152496,0.823853 -0.693756,1.800049 -1.623749,2.927612c-1.097504,1.554932 -3.080002,2.653688 -5.946259,3.293703l-1.967499,0.11377l-0.113754,0c-0.152496,0 -0.571243,-0.008789 -1.257492,-0.022583l-6.861252,0.022583l0,-5.991335l7.661255,0c1.967499,-0.639893 2.972504,-1.844971 3.018753,-3.613647l0,-0.960083c0.122498,-1.188721 -0.418762,-2.164917 -1.623764,-2.92749c-0.243744,-0.381226 -0.976242,-0.625 -2.194992,-0.732422l-6.837494,-0.045044l0.022491,-6.151245l6.815002,0c0.274994,-0.061279 0.654999,-0.092529 1.143753,-0.092529c1.386246,-0.59375 2.080002,-1.684937 2.080002,-3.27002l-0.113754,-0.82373l-0.228745,-0.571289l-0.113754,0c-0.611252,-0.883667 -1.532501,-1.387451 -2.767502,-1.509888l-6.90625,0.046143l0.044998,-6.311157l6.861252,0.022461" id="path28"/>
    <path fill="#100f0d" fill-rule="nonzero" d="m245.732498,17.037436l9.878754,-16.901245l8.211258,0l-10.612518,18.158692l0,14.591311l-7.454987,0l-0.022507,-15.848757zm-9.285004,-16.901245l8.210007,0l4.847504,8.30127l-4.138763,6.953735l-8.918747,-15.255005" id="path30"/>
    <path fill="#7fcc2b" fill-rule="nonzero" d="m295.649994,20.376181l7.339996,-20.148804l7.089996,0l-11.9375,32.748781l-2.492493,0l0,-12.599977zm-1.39624,12.577517l-2.401245,0l-11.960022,-32.793825l7.088745,0l7.272522,19.941284l0,12.852541" id="path32"/>
    <path fill="#7fcc2b" fill-rule="nonzero" d="m335.733765,26.871176l0,6.037477l-15.367493,0l0,-6.037477l15.367493,0zm-1.279999,-14.293701l0,6.037476l-14.110016,0l0,-6.037476l14.110016,0zm1.212494,-12.417603l0,6.037598l-15.368744,0l0,-6.037598l15.368744,0zm-16.648743,32.793825l-7.455017,0l0,-32.862551l7.455017,0l0,32.862551" id="path34"/>
    <path fill="#7fcc2b" fill-rule="nonzero" d="m364.774994,28.128744c-2.942505,3.079956 -6.464996,4.688723 -10.565002,4.824953l0,-5.922487c2.118744,-0.106201 3.932495,-1.13623 5.442505,-3.087524c0.746246,-0.959961 1.318756,-2.012451 1.714996,-3.15625l6.3125,3.271362c-0.732483,1.462402 -1.701233,2.819946 -2.904999,4.069946zm-5.122498,-18.981201c-1.51001,-1.936279 -3.323761,-2.95752 -5.442505,-3.065063l0,-6.013794c4.100006,0.137573 7.622498,1.737549 10.565002,4.802613c1.493744,1.569946 2.621246,3.301147 3.38501,5.191162l-6.494995,3.201294c-0.381256,-1.525024 -1.052521,-2.89624 -2.012512,-4.116211zm-6.631256,-3.018799c-1.90625,0.22876 -3.561249,1.234985 -4.963745,3.018799c-1.600006,2.04248 -2.401245,4.512451 -2.401245,7.408691c0,2.882568 0.801239,5.34375 2.401245,7.387451c1.402496,1.798828 3.057495,2.813843 4.963745,3.04126l0,5.946291c-4.04126,-0.152466 -7.51001,-1.753786 -10.40625,-4.802492c-3.065002,-3.201294 -4.596252,-7.07373 -4.596252,-11.617554c0,-4.543701 1.53125,-8.423706 4.596252,-11.639893c2.89624,-3.033814 6.36499,-4.627564 10.40625,-4.78003l0,6.037476" id="path36"/>
    <path fill="#7fcc2b" fill-rule="nonzero" d="m386.244995,32.886192l-7.454987,0l0,-25.408693l7.454987,0l0,25.408693zm8.301239,-32.658694l0,6.038696l-24.423737,0l0,-6.038696l24.423737,0" id="path38"/>
    <path fill="#7fcc2b" fill-rule="nonzero" d="m413.248749,27.03121c2.118744,-0.106201 3.933746,-1.13623 5.443756,-3.087524c1.600006,-2.043701 2.401245,-4.505005 2.401245,-7.387451c0,-2.89624 -0.801239,-5.366333 -2.401245,-7.408813c-1.51001,-1.936157 -3.325012,-2.95752 -5.443756,-3.064941l0,-6.013794c4.100006,0.137573 7.623749,1.737549 10.565002,4.80249c3.063751,3.216309 4.597504,7.096313 4.597504,11.640015c0,4.543823 -1.533752,8.41626 -4.597504,11.617554c-2.941254,3.079956 -6.464996,4.688723 -10.565002,4.824953l0,-5.922487zm-1.188751,-20.902466c-1.904999,0.22876 -3.561249,1.234985 -4.962494,3.018677c-1.601257,2.04248 -2.402496,4.512573 -2.402496,7.408813c0,2.882446 0.801239,5.34375 2.402496,7.387451c1.401245,1.798828 3.057495,2.813721 4.962494,3.04126l0,5.946291c-4.040009,-0.152466 -7.508759,-1.753786 -10.40625,-4.802492c-3.063751,-3.201294 -4.596252,-7.07373 -4.596252,-11.617554c0,-4.543701 1.532501,-8.423706 4.596252,-11.640015c2.897491,-3.033692 6.366241,-4.627442 10.40625,-4.779907l0,6.037476" id="path40"/>
    <path fill="#7fcc2b" fill-rule="nonzero" d="m453.059998,18.203695c0.578735,0.59375 1.13501,1.456299 1.668762,2.58374c0.227478,0.243774 0.426239,1.219971 0.59375,2.92749l0.22998,1.16626l0.686249,3.61377c0.151245,0.380005 0.348755,1.112549 0.592499,2.194946c0.258759,0.397583 0.725006,1.121338 1.397522,2.172487l-7.800018,0.046265c-0.259979,0 -0.723755,-0.929934 -1.394989,-2.789919c-0.136261,-0.22876 -0.526245,-2.401245 -1.167511,-6.518799c-0.272491,-0.974976 -0.897491,-1.752441 -1.875,-2.33252c-0.913757,-0.319946 -3.154999,-0.47998 -6.722504,-0.47998l0,-5.944946l5.96875,0c2.33252,-0.823853 3.498749,-2.36377 3.498749,-4.619995l0,-0.57251c-0.517487,-2.453735 -1.921234,-3.727539 -4.206238,-3.818848l-5.261261,0l0,-5.831177l5.261261,0c4.403748,0 7.598755,1.196289 9.581238,3.589966c1.402496,2.043823 2.10376,4.185059 2.10376,6.42627l0,0.435059c0,2.559937 -0.73999,4.809937 -2.217499,6.746216c-0.276245,0.366211 -0.588745,0.701172 -0.9375,1.006226zm-14.981262,14.750002l-7.453735,0l0,-32.862551l7.453735,0l0,32.862551" id="path42"/>
    <path fill="#7fcc2b" fill-rule="nonzero" d="m474.048737,-0.00004c4.40625,0 7.600006,1.242554 9.582489,3.727539c1.402527,2.13501 2.10376,4.361206 2.10376,6.67749l0,0.45752c0,2.668701 -0.738739,5.008667 -2.21875,7.02124c-1.982483,2.683716 -5.915009,3.92627 -11.798737,3.726196l-2.927521,0l0,-6.173706l5.96875,0c2.331268,-0.85376 3.498749,-2.453735 3.498749,-4.80249l0,-0.595093c-0.519989,-2.561157 -1.921234,-3.887451 -4.20874,-3.978638l-5.258759,0l0,-6.060059l5.258759,0zm-6.44751,32.953737l-7.456238,0l0,-32.862429l7.456238,0l0,32.862429" id="path44"/>
    <path fill="#7fcc2b" fill-rule="nonzero" d="m504.323761,27.03121c2.119995,-0.106201 3.933746,-1.13623 5.442505,-3.087524c1.601257,-2.043701 2.402496,-4.505005 2.402496,-7.387451c0,-2.89624 -0.801239,-5.366333 -2.402496,-7.408813c-1.508759,-1.936157 -3.32251,-2.95752 -5.442505,-3.064941l0,-6.013794c4.102509,0.137573 7.622498,1.737549 10.566254,4.80249c3.065002,3.216309 4.596252,7.096313 4.596252,11.640015c0,4.543823 -1.53125,8.41626 -4.596252,11.617554c-2.943756,3.079956 -6.463745,4.688723 -10.566254,4.824953l0,-5.922487zm-1.188751,-20.902466c-1.90625,0.22876 -3.558746,1.234985 -4.962494,3.018677c-1.601257,2.04248 -2.399994,4.512573 -2.399994,7.408813c0,2.882446 0.798737,5.34375 2.399994,7.387451c1.403748,1.798828 3.056244,2.813721 4.962494,3.04126l0,5.946291c-4.040009,-0.152466 -7.51001,-1.753786 -10.404999,-4.802492c-3.065002,-3.201294 -4.597504,-7.07373 -4.597504,-11.617554c0,-4.543701 1.532501,-8.423706 4.597504,-11.640015c2.894989,-3.033692 6.36499,-4.627442 10.404999,-4.779907l0,6.037476" id="path46"/>
    <path fill="#7fcc2b" fill-rule="nonzero" d="m544.133728,18.203695c0.580017,0.59375 1.13623,1.456299 1.669983,2.58374c0.22876,0.243774 0.42749,1.219971 0.595032,2.92749l0.227478,1.16626l0.686279,3.61377c0.153748,0.380005 0.351257,1.112549 0.596252,2.194946c0.258728,0.397583 0.722473,1.121338 1.393738,2.172487l-7.797485,0.046265c-0.258789,0 -0.725037,-0.929934 -1.396301,-2.789919c-0.137451,-0.22876 -0.524963,-2.401245 -1.164978,-6.518799c-0.276245,-0.974976 -0.901245,-1.752441 -1.875,-2.33252c-0.91626,-0.319946 -3.157471,-0.47998 -6.723755,-0.47998l0,-5.944946l5.96875,0c2.33252,-0.823853 3.498779,-2.36377 3.498779,-4.619995l0,-0.57251c-0.52002,-2.453735 -1.921265,-3.727539 -4.208801,-3.818848l-5.258728,0l0,-5.831177l5.258728,0c4.40625,0 7.600037,1.196289 9.58252,3.589966c1.402527,2.043823 2.10498,4.185059 2.10498,6.42627l0,0.435059c0,2.559937 -0.73999,4.809937 -2.219971,6.746216c-0.273743,0.366211 -0.586243,0.701172 -0.9375,1.006226zm-14.977478,14.750002l-7.456299,0l0,-32.862551l7.456299,0l0,32.862551" id="path48"/>
    <path fill="#7fcc2b" fill-rule="nonzero" d="m567.273743,32.886192l-7.455017,0l0,-25.408693l7.455017,0l0,25.408693zm8.30127,-32.658694l0,6.038696l-24.423767,0l0,-6.038696l24.423767,0" id="path50"/>
    <path fill="#7fcc2b" fill-rule="nonzero" d="m596.106262,0.159994l11.596252,32.793703l-8.461243,0l-2.196289,-6.974977l-9.077454,0l1.76001,-6.059937l5.579956,0l0,-0.11499l-3.38501,-12.073853l-0.11499,0l-7.088745,25.223757l-6.632507,0l0,-4.757448l9.536255,-28.036255l8.483765,0" id="path52"/>
    <path fill="#7fcc2b" fill-rule="nonzero" d="m633.67749,26.893759l0,6.037477l-15.368774,0l0,-6.037477l15.368774,0zm-16.923767,6.060061l-7.454956,0l0,-32.862551l7.454956,0l0,32.862551" id="path54"/>
    <path fill="#7fcc2b" fill-rule="nonzero" d="m636.16626,32.953697l7.45459,0l0,-6.0376l-7.45459,0l0,6.0376z" id="path56"/>
    <path fill="#7fcc2b" fill-rule="nonzero" d="m672.6875,28.128744c-2.943726,3.079956 -6.463745,4.688723 -10.565002,4.824953l0,-5.922487c2.118774,-0.106201 3.932495,-1.13623 5.441223,-3.087524c0.747559,-0.959961 1.320007,-2.012451 1.716309,-3.15625l6.311218,3.271362c-0.732483,1.462402 -1.69873,2.819946 -2.903748,4.069946zm-5.123779,-18.981201c-1.508728,-1.936279 -3.322449,-2.95752 -5.441223,-3.065063l0,-6.013794c4.101257,0.137573 7.621277,1.737549 10.565002,4.802613c1.493774,1.569946 2.622498,3.301147 3.38501,5.191162l-6.493774,3.201294c-0.382507,-1.525024 -1.05249,-2.89624 -2.015015,-4.116211zm-6.629944,-3.018799c-1.907532,0.22876 -3.559998,1.234985 -4.963806,3.018799c-1.599976,2.04248 -2.399963,4.512451 -2.399963,7.408691c0,2.882568 0.799988,5.34375 2.399963,7.387451c1.403809,1.798828 3.056274,2.813843 4.963806,3.04126l0,5.946291c-4.04126,-0.152466 -7.51001,-1.753786 -10.40625,-4.802492c-3.065002,-3.201294 -4.596252,-7.07373 -4.596252,-11.617554c0,-4.543701 1.53125,-8.423706 4.596252,-11.639893c2.89624,-3.033814 6.36499,-4.627564 10.40625,-4.78003l0,6.037476" id="path58"/>
    <path fill="#7fcc2b" fill-rule="nonzero" d="m694.293762,27.03121c2.118774,-0.106201 3.933777,-1.13623 5.443726,-3.087524c1.600037,-2.043701 2.400024,-4.505005 2.400024,-7.387451c0,-2.89624 -0.799988,-5.366333 -2.400024,-7.408813c-1.509949,-1.936157 -3.324951,-2.95752 -5.443726,-3.064941l0,-6.013794c4.099976,0.137573 7.623779,1.737549 10.565002,4.80249c3.063721,3.216309 4.597473,7.096313 4.597473,11.640015c0,4.543823 -1.533752,8.41626 -4.597473,11.617554c-2.941223,3.079956 -6.465027,4.688723 -10.565002,4.824953l0,-5.922487zm-1.188721,-20.902466c-1.90625,0.22876 -3.561279,1.234985 -4.962524,3.018677c-1.601257,2.04248 -2.402527,4.512573 -2.402527,7.408813c0,2.882446 0.80127,5.34375 2.402527,7.387451c1.401245,1.798828 3.056274,2.813721 4.962524,3.04126l0,5.946291c-4.04126,-0.152466 -7.508789,-1.753786 -10.40625,-4.802492c-3.063782,-3.201294 -4.596252,-7.07373 -4.596252,-11.617554c0,-4.543701 1.532471,-8.423706 4.596252,-11.640015c2.897461,-3.033692 6.36499,-4.627442 10.40625,-4.779907l0,6.037476" id="path60"/>
    <path fill="#7fcc2b" fill-rule="nonzero" d="m742.17627,14.567465l7.456238,-12.441284l0,30.827517l-7.456238,0l0,-18.386232zm-10.518738,4.185059l11.067505,-18.59253l7.089966,0l-18.157471,30.507447l0,-11.914917zm-1.73877,11.9375l-18.157471,-30.507569l7.089966,0l11.067505,18.59253l0,11.915039zm-10.794983,2.263674l-7.455017,0l0,-30.827517l7.455017,12.441284l0,18.386232" id="path62"/>
    <path fill="#888c8f" fill-rule="nonzero" d="m12.961375,58.313744c1.30225,-0.065002 2.4175,-0.69751 3.34525,-1.897522c0.983875,-1.255005 1.476625,-2.768738 1.476625,-4.539978c0,-1.78125 -0.49275,-3.298767 -1.476625,-4.554993c-0.927751,-1.190002 -2.043,-1.817505 -3.34525,-1.883728l0,-3.696289c2.5205,0.08374 4.685624,1.067505 6.494624,2.951233c1.883875,1.977539 2.82575,4.362549 2.82575,7.15625c0,2.792542 -0.941875,5.172546 -2.82575,7.140015c-1.809,1.893738 -3.974124,2.882507 -6.494624,2.966248l0,-3.641235zm-0.730412,-12.847473c-1.171875,0.139954 -2.188975,0.759949 -3.050788,1.85498c-0.983888,1.256226 -1.475587,2.773743 -1.475587,4.554993c0,1.77124 0.4917,3.284973 1.475587,4.539978c0.861813,1.106262 1.878913,1.72876 3.050788,1.869995l0,3.655029c-2.484375,-0.095032 -4.615725,-1.078735 -6.396488,-2.952515c-1.883788,-1.967468 -2.8252,-4.347473 -2.8252,-7.140015c0,-2.793701 0.941412,-5.178711 2.8252,-7.15625c1.780763,-1.863708 3.912113,-2.84375 6.396488,-2.9375l0,3.711304" id="path64"/>
    <path fill="#888c8f" fill-rule="nonzero" d="m45.862251,52.888756c0.356499,0.36499 0.69825,0.893738 1.026875,1.587524c0.140125,0.149963 0.262249,0.75 0.36525,1.798706l0.140625,0.717529l0.421875,2.221252c0.09375,0.234985 0.215374,0.683716 0.365749,1.348755c0.159126,0.243713 0.444878,0.690002 0.857376,1.336243l-4.793873,0.027466c-0.159252,0 -0.445377,-0.571228 -0.857502,-1.714966c-0.083874,-0.140015 -0.32275,-1.475037 -0.717251,-4.005005c-0.168499,-0.601257 -0.55275,-1.078735 -1.152374,-1.434998c-0.5625,-0.196228 -1.939373,-0.294983 -4.132248,-0.294983l0,-3.655029l3.668373,0c1.433624,-0.506226 2.150875,-1.452515 2.150875,-2.838745l0,-0.352478c-0.318249,-1.508789 -1.181126,-2.290039 -2.586376,-2.346252l-3.232872,0l0,-3.585022l3.232872,0c2.708,0 4.671375,0.734985 5.889626,2.206238c0.861877,1.256287 1.293499,2.57251 1.293499,3.950012l0,0.267517c0,1.575012 -0.454624,2.956238 -1.363247,4.14624c-0.169502,0.224976 -0.360878,0.432495 -0.577251,0.619995zm-9.207001,9.066223l-4.5825,0l0,-20.199951l4.5825,0l0,20.199951" id="path66"/>
    <path fill="#888c8f" fill-rule="nonzero" d="m58.647999,61.954979l4.582523,0l0,-20.200623l-4.582523,0l0,20.200623z" id="path68"/>
    <path fill="#888c8f" fill-rule="nonzero" d="m86.330124,47.321251c-0.92775,-1.190002 -2.042999,-1.817505 -3.345253,-1.883728l0,-3.696289c2.5205,0.08374 4.685501,1.067505 6.494629,2.951294c0.917999,0.964966 1.611374,2.028748 2.080124,3.191223l-3.991753,1.967529c-0.234375,-0.936279 -0.646996,-1.780029 -1.237747,-2.530029zm5.974625,4.765015c-0.056747,2.690002 -0.998123,4.991211 -2.825249,6.902466c-1.809128,1.893799 -3.974129,2.882507 -6.494629,2.966248l0,-3.641235c1.302254,-0.065002 2.417503,-0.69751 3.345253,-1.897522c0.159622,-0.197449 0.305122,-0.402466 0.435501,-0.617493l-3.809128,0l0,-3.712463l9.348251,0zm-10.050873,-6.619995c-1.171875,0.139954 -2.188499,0.76001 -3.050255,1.85498c-0.983871,1.256226 -1.47612,2.773743 -1.47612,4.554993c0,1.77124 0.492249,3.285034 1.47612,4.539978c0.861755,1.106262 1.87838,1.72876 3.050255,1.870056l0,3.654968c-2.483879,-0.094971 -4.61525,-1.078735 -6.3965,-2.952515c-1.883255,-1.967468 -2.825127,-4.347473 -2.825127,-7.139954c0,-2.793762 0.941872,-5.178772 2.825127,-7.15625c1.78125,-1.86377 3.912621,-2.84375 6.3965,-2.9375l0,3.711243" id="path70"/>
    <path fill="#888c8f" fill-rule="nonzero" d="m102.138123,61.954979l4.582527,0l0,-20.200623l-4.582527,0l0,20.200623z" id="path72"/>
    <path fill="#888c8f" fill-rule="nonzero" d="m128.372498,41.797508l4.582504,0l0,18.94873l-4.582504,-7.647461l0,-11.30127zm0.182495,20.143738l-11.976372,-20.130005l4.357376,0l11.990257,20.143738l-4.371262,-0.013733zm-7.449997,0.013733l-4.582497,0l0,-18.94873l4.582497,7.64624l0,11.30249" id="path74"/>
    <path fill="#888c8f" fill-rule="nonzero" d="m153.962494,41.797508l7.128754,20.157471l-5.202499,0l-1.348755,-4.287476l-5.581253,0l1.082504,-3.724976l3.429993,0l0,-0.070007l-2.079987,-7.422485l-0.070007,0l-4.358749,15.504944l-4.076248,0l0,-2.923706l5.862503,-17.233765l5.213745,0" id="path76"/>
    <path fill="#888c8f" fill-rule="nonzero" d="m185.486252,58.230003l0,3.711243l-9.444992,0l0,-3.711243l9.444992,0zm-10.402496,3.724976l-4.582504,0l0,-20.199951l4.582504,0l0,20.199951" id="path78"/>
    <path fill="#7fcc2b" fill-rule="nonzero" d="m226.361252,49.430016l0,3.711243l-8.672501,0l0,-3.711243l8.672501,0zm0.746246,-7.632507l0,3.710022l-9.447495,0l0,-3.710022l9.447495,0zm-10.233749,20.157532l-4.582504,0l0,-20.200012l4.582504,0l0,20.200012" id="path80"/>
    <path fill="#7fcc2b" fill-rule="nonzero" d="m250.686249,52.888756c0.356247,0.36499 0.698746,0.893738 1.027496,1.587524c0.139999,0.149963 0.262497,0.75 0.365005,1.798706l0.139999,0.717529l0.422501,2.221252c0.09375,0.234985 0.214996,0.683716 0.365005,1.348755c0.159988,0.243713 0.444992,0.690002 0.857498,1.336243l-4.793762,0.027466c-0.158737,0 -0.444992,-0.571228 -0.857498,-1.714966c-0.08374,-0.140015 -0.322495,-1.475037 -0.716248,-4.005005c-0.168747,-0.601257 -0.553741,-1.078735 -1.152496,-1.434998c-0.5625,-0.196228 -1.940002,-0.294983 -4.132507,-0.294983l0,-3.655029l3.668762,0c1.433746,-0.506226 2.149994,-1.452515 2.149994,-2.838745l0,-0.352478c-0.318756,-1.508789 -1.181244,-2.290039 -2.586243,-2.346252l-3.232513,0l0,-3.585022l3.232513,0c2.707489,0 4.671249,0.734985 5.889999,2.206238c0.861237,1.256287 1.293747,2.57251 1.293747,3.950012l0,0.267517c0,1.575012 -0.455002,2.956238 -1.363754,4.14624c-0.169998,0.224976 -0.361252,0.432495 -0.577499,0.619995zm-9.206253,9.066223l-4.582504,0l0,-20.199951l4.582504,0l0,20.199951" id="path82"/>
    <path fill="#7fcc2b" fill-rule="nonzero" d="m278.331238,58.214989l0,3.711243l-9.44751,0l0,-3.711243l9.44751,0zm-0.787506,-8.784973l0,3.711243l-8.673737,0l0,-3.711243l8.673737,0zm0.744995,-7.632507l0,3.709961l-9.446228,0l0,-3.709961l9.446228,0zm-10.233734,20.157471l-4.58252,0l0,-20.200012l4.58252,0l0,20.200012" id="path84"/>
    <path fill="#7fcc2b" fill-rule="nonzero" d="m303.02124,58.214989l0,3.711243l-9.446259,0l0,-3.711243l9.446259,0zm-0.786255,-8.784973l0,3.711243l-8.673737,0l0,-3.711243l8.673737,0zm0.743744,-7.632507l0,3.709961l-9.446228,0l0,-3.709961l9.446228,0zm-10.233734,20.157471l-4.58252,0l0,-20.200012l4.58252,0l0,20.200012" id="path86"/>
    <path fill="#7fcc2b" fill-rule="nonzero" d="m339.440002,54.223717l4.513763,-12.383728l4.357483,0l-7.338745,20.128723l-1.532501,0l0,-7.744995zm-0.856262,7.731262l-1.476227,0l-7.352509,-20.157532l4.358734,0l4.470001,12.257507l0,7.900024" id="path88"/>
    <path fill="#7fcc2b" fill-rule="nonzero" d="m372.51001,58.214989l0,3.711243l-9.446259,0l0,-3.711243l9.446259,0zm-0.787506,-8.784973l0,3.711243l-8.672485,0l0,-3.711243l8.672485,0zm0.746246,-7.632507l0,3.709961l-9.447479,0l0,-3.709961l9.447479,0zm-10.233734,20.157471l-4.58252,0l0,-20.200012l4.58252,0l0,20.200012" id="path90"/>
    <path fill="#7fcc2b" fill-rule="nonzero" d="m398.790009,58.988731c-1.809998,1.893738 -3.973755,2.882507 -6.494995,2.966248l0,-3.641235c1.30249,-0.065002 2.418732,-0.69751 3.346252,-1.897522c0.45874,-0.589966 0.811249,-1.237488 1.053741,-1.940002l3.880005,2.011292c-0.450012,0.898743 -1.043762,1.732483 -1.785004,2.501221zm-3.148743,-11.66748c-0.927521,-1.190002 -2.043762,-1.817505 -3.346252,-1.883789l0,-3.696228c2.52124,0.08374 4.684998,1.067505 6.494995,2.951233c0.917511,0.965027 1.611237,2.028748 2.079987,3.191284l-3.992493,1.967468c-0.233734,-0.936218 -0.64624,-1.779968 -1.236237,-2.529968zm-4.077515,-1.855042c-1.169983,0.140015 -2.188751,0.76001 -3.049988,1.855042c-0.983765,1.256226 -1.476257,2.773743 -1.476257,4.554993c0,1.77124 0.492493,3.284973 1.476257,4.539978c0.861237,1.106262 1.880005,1.72876 3.049988,1.869995l0,3.655029c-2.482483,-0.095032 -4.61499,-1.078735 -6.394989,-2.952515c-1.88501,-1.967529 -2.825012,-4.347473 -2.825012,-7.140015c0,-2.793762 0.940002,-5.178711 2.825012,-7.15625c1.779999,-1.863708 3.912506,-2.84375 6.394989,-2.9375l0,3.711243" id="path92"/>
    <path fill="#7fcc2b" fill-rule="nonzero" d="m420.41626,61.912498l-4.582489,0l0,-15.617493l4.582489,0l0,15.617493zm5.10376,-20.07251l0,3.710022l-15.013763,0l0,-3.710022l15.013763,0" id="path94"/>
    <path fill="#7fcc2b" fill-rule="nonzero" d="m445.445007,58.313744c1.30249,-0.065002 2.418762,-0.69751 3.346252,-1.897522c0.983734,-1.255005 1.475006,-2.768738 1.475006,-4.539978c0,-1.78125 -0.491272,-3.298767 -1.475006,-4.554993c-0.92749,-1.190002 -2.043762,-1.817505 -3.346252,-1.883728l0,-3.696289c2.52124,0.08374 4.684998,1.067505 6.493744,2.951233c1.883759,1.977539 2.826263,4.362549 2.826263,7.15625c0,2.792542 -0.942505,5.172546 -2.826263,7.140015c-1.808746,1.893738 -3.972504,2.882507 -6.493744,2.966248l0,-3.641235zm-0.731262,-12.847473c-1.171234,0.139954 -2.188751,0.759949 -3.049988,1.85498c-0.984985,1.256226 -1.476257,2.773743 -1.476257,4.554993c0,1.77124 0.491272,3.284973 1.476257,4.539978c0.861237,1.106262 1.878754,1.72876 3.049988,1.869995l0,3.655029c-2.482483,-0.095032 -4.61499,-1.078735 -6.394989,-2.952515c-1.88501,-1.967468 -2.826263,-4.347473 -2.826263,-7.140015c0,-2.793701 0.941254,-5.178711 2.826263,-7.15625c1.779999,-1.863708 3.912506,-2.84375 6.394989,-2.9375l0,3.711304" id="path96"/>
    <path fill="#7fcc2b" fill-rule="nonzero" d="m478.346252,52.888756c0.355011,0.36499 0.698761,0.893738 1.027496,1.587524c0.138763,0.149963 0.261261,0.75 0.36499,1.798706l0.140015,0.717529l0.422485,2.221252c0.092499,0.234985 0.215027,0.683716 0.365021,1.348755c0.160004,0.243713 0.445007,0.690002 0.856232,1.336243l-4.793732,0.027466c-0.158752,0 -0.443756,-0.571228 -0.856262,-1.714966c-0.084991,-0.140015 -0.32373,-1.475037 -0.716248,-4.005005c-0.169983,-0.601257 -0.553741,-1.078735 -1.153748,-1.434998c-0.5625,-0.196228 -1.940002,-0.294983 -4.132507,-0.294983l0,-3.655029l3.668762,0c1.433746,-0.506226 2.149994,-1.452515 2.149994,-2.838745l0,-0.352478c-0.318756,-1.508789 -1.179993,-2.290039 -2.584991,-2.346252l-3.233765,0l0,-3.585022l3.233765,0c2.707489,0 4.669983,0.734985 5.888733,2.206238c0.862518,1.256287 1.293762,2.57251 1.293762,3.950012l0,0.267517c0,1.575012 -0.453766,2.956238 -1.363739,4.14624c-0.168762,0.224976 -0.361267,0.432495 -0.576263,0.619995zm-9.207489,9.066223l-4.58252,0l0,-20.199951l4.58252,0l0,20.199951" id="path98"/>
    <path fill="#7fcc2b" fill-rule="nonzero" d="m499.832489,41.797508c2.015015,0 3.79126,0.566223 5.326263,1.700012c0.901245,0.751221 1.557495,2.137512 1.970001,4.161255l0,0.196228l-2.306274,0.282532l-1.911255,0.125c-0.178741,-1.105042 -0.497498,-1.831299 -0.956238,-2.178772c-0.375,-0.318726 -1.077484,-0.612488 -2.108734,-0.88501l-0.013763,-3.401245zm-2.01001,11.554993c-4.048737,-0.731262 -6.072479,-2.609985 -6.072479,-5.637512l0,-0.267456c0,-3.157532 2.04248,-5.018799 6.128754,-5.580017l1.264984,-0.027527l0.027496,3.358765c-0.918732,0.075012 -1.556244,0.1875 -1.911255,0.337524c-0.741241,0.28125 -1.102478,0.918701 -1.082489,1.911255c0,0.92749 1.176239,1.607483 3.527496,2.038696c0.591248,0.10376 1.075012,0.201294 1.448761,0.295044c4.169983,0.693726 6.255005,2.679993 6.255005,5.959961l0,0.28125c0,3.365051 -2.043762,5.347534 -6.128754,5.946289l-1.377502,0.04248l0,-3.556274c0.975006,-0.102478 1.639984,-0.234985 1.996246,-0.393738c0.741241,-0.299988 1.101257,-0.97998 1.082489,-2.038757c0,-0.992493 -1.161255,-1.76123 -3.486237,-2.304993c-0.524994,-0.158752 -1.101257,-0.294983 -1.72876,-0.407471l0.056244,0.04248zm-1.518738,4.033752c0.862488,0.497498 1.682495,0.79248 2.459991,0.88623l0.407501,0.070007l-0.027496,3.612488c-2.446259,0.065002 -4.320007,-0.436218 -5.622498,-1.504944c-1.452515,-0.936279 -2.231262,-2.566284 -2.33374,-4.891296l4.22998,-0.407471c0.076263,0.983765 0.371246,1.709961 0.886261,2.178711l0,0.056274" id="path100"/>
    <path fill="#888c8f" fill-rule="nonzero" d="m534.366272,41.797508c2.015015,0 3.79126,0.566223 5.326233,1.700012c0.901245,0.751221 1.557495,2.137512 1.970032,4.161255l0,0.196228l-2.306274,0.282532l-1.911255,0.125c-0.178711,-1.105042 -0.497498,-1.831299 -0.956238,-2.178772c-0.375,-0.318726 -1.077515,-0.612488 -2.108765,-0.88501l-0.013733,-3.401245zm-2.01001,11.554993c-4.048767,-0.731262 -6.07251,-2.609985 -6.07251,-5.637512l0,-0.267456c0,-3.157532 2.042542,-5.018799 6.128784,-5.580017l1.265015,-0.027527l0.027466,3.358765c-0.918762,0.075012 -1.556274,0.1875 -1.911255,0.337524c-0.741211,0.28125 -1.102478,0.918701 -1.08252,1.911255c0,0.92749 1.17627,1.607483 3.527527,2.038696c0.591248,0.10376 1.07373,0.201294 1.44873,0.295044c4.170044,0.693726 6.255005,2.679993 6.255005,5.959961l0,0.28125c0,3.365051 -2.043762,5.347534 -6.128723,5.946289l-1.377502,0.04248l0,-3.556274c0.974976,-0.102478 1.640015,-0.234985 1.996216,-0.393738c0.741272,-0.299988 1.101257,-0.97998 1.08252,-2.038757c0,-0.992493 -1.161255,-1.76123 -3.486267,-2.304993c-0.524963,-0.158752 -1.101196,-0.294983 -1.728699,-0.407471l0.056213,0.04248zm-1.518738,4.033752c0.862488,0.497498 1.682495,0.79248 2.460022,0.88623l0.407471,0.070007l-0.027466,3.612488c-2.446289,0.065002 -4.320007,-0.436218 -5.622559,-1.504944c-1.452454,-0.936279 -2.231201,-2.566284 -2.33374,-4.891296l4.230042,-0.407471c0.076233,0.983765 0.371216,1.709961 0.88623,2.178711l0,0.056274" id="path102"/>
    <path fill="#888c8f" fill-rule="nonzero" d="m551.775024,61.954979l4.58252,0l0,-20.200623l-4.58252,0l0,20.200623z" id="path104"/>
    <path fill="#888c8f" fill-rule="nonzero" d="m578.01123,41.797508l4.58252,0l0,18.94873l-4.58252,-7.647461l0,-11.30127zm0.182495,20.143738l-11.977478,-20.130005l4.357483,0l11.991272,20.143738l-4.371277,-0.013733zm-7.451233,0.013733l-4.58252,0l0,-18.94873l4.58252,7.64624l0,11.30249" id="path106"/>
    <path fill="#888c8f" fill-rule="nonzero" d="m608.969971,58.988731c-1.808777,1.893738 -3.972473,2.882507 -6.493774,2.966248l0,-3.641235c1.302551,-0.065002 2.418762,-0.69751 3.346252,-1.897522c0.458801,-0.589966 0.809998,-1.237488 1.052551,-1.940002l3.881226,2.011292c-0.450012,0.898743 -1.044983,1.732483 -1.786255,2.501221zm-3.147522,-11.66748c-0.92749,-1.190002 -2.043701,-1.817505 -3.346252,-1.883789l0,-3.696228c2.521301,0.08374 4.684998,1.067505 6.493774,2.951233c0.918762,0.965027 1.611267,2.028748 2.080017,3.191284l-3.991272,1.967468c-0.234985,-0.936218 -0.647522,-1.779968 -1.236267,-2.529968zm-4.077454,-1.855042c-1.171265,0.140015 -2.188782,0.76001 -3.050049,1.855042c-0.984985,1.256226 -1.476196,2.773743 -1.476196,4.554993c0,1.77124 0.491211,3.284973 1.476196,4.539978c0.861267,1.106262 1.878784,1.72876 3.050049,1.869995l0,3.655029c-2.482544,-0.095032 -4.615051,-1.078735 -6.39502,-2.952515c-1.88501,-1.967529 -2.826233,-4.347473 -2.826233,-7.140015c0,-2.793762 0.941223,-5.178711 2.826233,-7.15625c1.779968,-1.863708 3.912476,-2.84375 6.39502,-2.9375l0,3.711243" id="path108"/>
    <path fill="#888c8f" fill-rule="nonzero" d="m635.588745,58.214989l0,3.711243l-9.445007,0l0,-3.711243l9.445007,0zm-0.787476,-8.784973l0,3.711243l-8.672546,0l0,-3.711243l8.672546,0zm0.746216,-7.632507l0,3.709961l-9.44751,0l0,-3.709961l9.44751,0zm-10.234985,20.157471l-4.58252,0l0,-20.200012l4.58252,0l0,20.200012" id="path110"/>
    <path fill="#888c8f" fill-rule="nonzero" d="m677.940002,58.230003l0,3.711243l-10.612488,0l0,-3.711243l10.612488,0zm-10.82373,-12.202515c-0.487549,0.441284 -0.768799,1.116272 -0.84375,2.025024l-4.006287,-0.380005c0.09375,-2.155029 0.830017,-3.668762 2.20752,-4.539978c1.236267,-0.993774 3.012512,-1.462524 5.326233,-1.40625l0.030029,3.359985l-0.381287,0.070007c-0.73999,0.084961 -1.517456,0.361206 -2.332458,0.829956l0,0.04126zm-4.86499,12.0625l0,-0.591248c0,-3.279968 2.142456,-5.491211 6.424988,-6.63501c0.375,-0.09375 0.857483,-0.192505 1.44751,-0.294983c2.296204,-0.664978 3.41748,-1.733765 3.361206,-3.205017c0.017517,-0.993713 -0.34375,-1.631226 -1.08374,-1.912476c-0.356262,-0.150024 -0.993713,-0.262512 -1.911255,-0.336243l0.028748,-3.359985l1.263794,0.027466c4.086243,0.5625 6.129944,2.422485 6.129944,5.581238l0,0.266296c0,3.027466 -1.96875,5.296204 -5.904968,6.804993c-0.591248,0.08374 -1.147522,0.204956 -1.672485,0.36499c-2.52124,0.731262 -3.73877,1.724976 -3.655029,2.97998l0.015015,4.217529l-4.443726,0l0,-3.907532" id="path112"/>
    <path fill="#888c8f" fill-rule="nonzero" d="m695.068726,41.782494c2.445007,0.085022 4.23999,0.820007 5.383728,2.20752l0.070007,-0.070007l0,0.070007l-0.070007,0.070007c0.861267,1.3125 1.293762,2.681213 1.293762,4.10498l0,7.267517c0,1.639954 -0.623718,3.21875 -1.869995,4.737488c-0.92749,1.029968 -2.53125,1.630005 -4.807495,1.798767l0,-3.837524c1.387512,-0.477478 2.080017,-1.423767 2.080017,-2.840027l0,-7.351257c-0.280029,-1.377441 -0.973755,-2.151245 -2.080017,-2.319946l0,-3.837524zm-1.012512,3.796265c-1.106262,0.168762 -1.799988,0.941223 -2.080017,2.318726l0,7.352539c0,1.414978 0.692505,2.361206 2.080017,2.839966l0,3.836243c-2.277466,-0.16748 -3.880005,-0.767517 -4.807495,-1.798767c-1.246216,-1.517456 -1.869995,-3.097473 -1.869995,-4.736206l0,-7.268738c0,-1.425049 0.432495,-2.792542 1.293762,-4.10376l-0.071289,-0.071289l0,-0.070007l0.071289,0.070007c1.142517,-1.38623 2.9375,-2.122498 5.383728,-2.206238l0,3.837524" id="path114"/>
    <path fill="#888c8f" fill-rule="nonzero" d="m719.336243,41.782494c2.446228,0.085022 4.241272,0.820007 5.38501,2.20752l0.070007,-0.070007l0,0.070007l-0.070007,0.070007c0.861267,1.3125 1.29248,2.681213 1.29248,4.10498l0,7.267517c0,1.639954 -0.622498,3.21875 -1.868713,4.737488c-0.927551,1.029968 -2.530029,1.630005 -4.808777,1.798767l0,-3.837524c1.387512,-0.477478 2.081238,-1.423767 2.081238,-2.840027l0,-7.351257c-0.28125,-1.377441 -0.974976,-2.151245 -2.081238,-2.319946l0,-3.837524zm-1.01001,3.796265c-1.106262,0.168762 -1.80127,0.941223 -2.081238,2.318726l0,7.352539c0,1.414978 0.692505,2.361206 2.081238,2.839966l0,3.836243c-2.278748,-0.16748 -3.881226,-0.767517 -4.808716,-1.798767c-1.246277,-1.517456 -1.868774,-3.097473 -1.868774,-4.736206l0,-7.268738c0,-1.425049 0.429993,-2.792542 1.29248,-4.10376l-0.071228,-0.071289l0,-0.070007l0.071228,0.070007c1.143799,-1.38623 2.938782,-2.122498 5.38501,-2.206238l0,3.837524" id="path116"/>
    <path fill="#888c8f" fill-rule="nonzero" d="m740.401245,46.112511c-0.206238,2.025024 0.861267,3.092529 3.205017,3.205017c0.786255,-0.008789 1.606262,0.127502 2.459961,0.407471c3.673767,1.21875 5.51001,3.341248 5.51001,6.367493l0,0.267517c0,3.158752 -2.043762,5.018738 -6.128723,5.581238l-1.265015,0.027527l-0.027527,-3.358765c0.917542,-0.076233 1.555054,-0.1875 1.911255,-0.337524c0.740051,-0.28125 1.101257,-0.918701 1.08252,-1.912476c0.056274,-1.471252 -0.951233,-2.538757 -3.022522,-3.205017c-0.815002,-0.10376 -1.556213,-0.201233 -2.221252,-0.294983c-4.103699,-0.289978 -6.081238,-2.534973 -5.932495,-6.733765l4.428772,-0.013733zm0.380005,11.625c0.815002,0.46875 1.587524,0.744995 2.318726,0.830017l0.393799,0.070007l-0.028809,3.359985c-2.314941,0.056213 -4.089966,-0.412537 -5.327454,-1.40625c-1.376282,-0.871277 -2.112488,-2.38501 -2.206238,-4.540039l4.006226,-0.379944c0.07373,0.909973 0.356262,1.58374 0.84375,2.023743l0,0.04248zm-4.849976,-12.243774l0,-3.711243l15.673706,0l0,3.711243l-15.673706,0" id="path118"/>
    <g id="g120">
     <g id="g122" clip-path="url(#clipPath124)">
      <path fill="url(#linearGradient128)" fill-rule="nonzero" d="m533.044983,563.908752c-0.494995,10.251221 -1.132507,23.268738 -1.94751,40.378723c-0.524963,10.733765 -1.132507,23.460022 -1.882507,38.799988c-0.897461,18.837524 -2.039978,42.533813 -3.522461,73.236328c-0.927551,19.036255 -1.998779,41.368713 -3.286255,67.956238c-0.730042,15.279968 -1.545044,32.161255 -2.450012,50.921265c-1.02002,20.95874 -2.152527,44.533691 -3.441284,71.243713c-1.471191,30.503784 -3.169983,65.691406 -5.147461,106.731384c-0.772491,16.059448 -1.607483,33.163574 -2.471252,51.348633l-239.508728,0c8.362488,-18.3302 16.230011,-35.557617 23.623749,-51.741272c18.711243,-40.976501 34.756256,-76.111267 48.670013,-106.577515c12.171234,-26.67749 22.942474,-50.221252 32.488739,-71.158752c8.548737,-18.744995 16.26001,-35.611206 23.232483,-50.881226c12.121277,-26.558777 22.317505,-48.875 30.997528,-67.89624c14.014984,-30.683777 24.828735,-54.368774 33.428741,-73.197571c7.001251,-15.332458 12.808746,-28.067444 17.712494,-38.796204c7.815002,-17.098755 13.752502,-30.116272 18.42749,-40.367493c3.779999,-8.267517 6.900024,-15.086304 9.506256,-20.802551c0.029999,0 0.07251,-132.518707 0.102509,-328.527435l26.486267,0l-0.02002,328.64743c-0.289978,5.6875 -0.606262,12.472534 -0.998779,20.682556" id="path136"/>
     </g>
    </g>
    <path fill="#183b34" fill-rule="nonzero" d="m493.356262,563.91748c-5.237488,10.242493 -11.880005,23.26001 -20.601257,40.362488c-5.46875,10.724976 -11.967499,23.452515 -19.793732,38.784973c-9.617523,18.836304 -21.70752,42.517578 -37.372528,73.205078c-9.709991,19.013733 -21.089996,41.330017 -34.651245,67.888733c-7.796265,15.263733 -16.404999,32.130005 -25.962494,50.866272c-10.678741,20.936218 -22.706268,44.471252 -36.311249,71.143738c-15.559998,30.464966 -33.48877,65.601379 -54.393768,106.56134c-8.269989,16.199707 -17.074982,33.440918 -26.434982,51.794922l-237.835007,0l0,-1.717773c16.404249,-17.855957 31.851126,-34.66748 46.361374,-50.474609c37.567375,-40.892639 69.790504,-75.981384 97.749878,-106.401367c24.457504,-26.641296 46.073746,-50.153748 65.289993,-71.059998c17.1875,-18.721252 32.654999,-35.57251 46.671265,-50.820007c24.38623,-26.543762 44.868744,-48.837524 62.32373,-67.842529c28.17627,-30.664978 49.913757,-54.337463 67.205017,-73.158752c14.086243,-15.326233 25.764984,-28.044983 35.632507,-38.777527c15.693726,-17.094971 27.648743,-30.112488 37.0625,-40.35498c7.598724,-8.272522 19.267487,-20.806274 19.329987,-20.806274l0,-361.191193l26.429993,0l-0.113739,361.252472c-2.903748,5.703735 -6.386261,12.496216 -10.586243,20.744995" id="path138"/>
    <path fill="#41b93c" fill-rule="nonzero" d="m453.682495,563.91748c-9.95874,10.242493 -22.626251,23.26001 -39.236237,40.35498c-10.432526,10.732483 -22.798767,23.455017 -37.711273,38.777527c-18.298737,18.816284 -41.316254,42.493774 -71.138733,73.151245c-18.486267,18.997498 -40.163757,41.298767 -65.960007,67.83374c-14.828751,15.248779 -31.213745,32.100037 -49.410004,50.8125c-20.318741,20.90625 -43.199997,44.420044 -69.090492,71.052551c-29.585999,30.419983 -63.703625,65.493591 -103.454624,106.38623c-5.755838,5.91748 -11.657688,11.982422 -17.681126,18.183594l0,-163.292358c15.858875,-11.484985 30.78075,-22.293762 44.836876,-32.482483c25.807625,-18.705017 49.050377,-35.533752 70.089378,-50.766235c36.588745,-26.52124 67.34874,-48.798767 93.568741,-67.78125c42.303757,-30.650024 74.959991,-54.299988 100.941254,-73.121277c21.153748,-15.317505 38.690002,-28.03125 53.498749,-38.76001c23.592499,-17.088745 41.5625,-30.099976 55.702515,-40.348755c11.429993,-8.265015 28.916229,-20.798767 29.029999,-20.798767l0,-289.904938l26.383759,0l-0.185028,289.95871c-5.549988,5.703735 -12.172485,12.5 -20.183746,20.744995" id="path140"/>
    <path fill="#7fcc2b" fill-rule="nonzero" d="m414.024994,563.91748c-14.686249,10.242493 -33.356262,23.26001 -57.86499,40.348755c-15.376251,10.72876 -33.61377,23.440002 -55.601257,38.76001c-26.980011,18.8125 -60.901245,42.471252 -104.855011,73.11499c-27.237488,18.981262 -59.193741,41.258789 -97.203232,67.771301c-21.852005,15.226196 -45.990753,32.068726 -72.796879,50.759949c-8.279749,5.772522 -16.847662,11.743774 -25.703625,17.923767l0,-82.942505c37.566875,-20.38623 70.149872,-38.07373 98.685997,-53.575012c30.162758,-16.359985 56.424004,-30.618713 79.521492,-43.161255c20.452515,-11.099976 38.701263,-21.013733 55.096252,-29.910034c28.216248,-15.313721 51.63501,-28.024963 71.38501,-38.75c31.471252,-17.087463 55.445007,-30.091248 74.301239,-40.339966c15.231262,-8.265015 38.576263,-20.795044 38.711243,-20.795044l0,-245.472443l26.465027,0l0,245.522491c0,0 -18.320007,12.496216 -30.141266,20.744995" id="path142"/>
    <path fill="#6aa9d8" fill-rule="nonzero" d="m691.913757,563.902466c17.94873,9.961243 40.6875,22.576294 70.263733,38.98999l0,36.652527c-19.154968,-13.748779 -35.32251,-25.356262 -49.091248,-35.233765c-23.849976,-17.126221 -42.015015,-30.154968 -56.278748,-40.402466c-11.451233,-8.210022 -20.89502,-14.986267 -28.825012,-20.682556l-0.123718,-266.259979l26.446228,0c0.02002,196.001282 0.071289,266.121246 0.092529,266.121246c10.307495,5.71875 22.60376,12.54248 37.516235,20.815002" id="path144"/>
    <path fill="#3171bb" fill-rule="nonzero" d="m652.172485,563.902466c13.747498,10.253784 31.183777,23.282532 54.107483,40.408752c14.397522,10.743774 31.450012,23.482483 52.036255,38.837524c1.246277,0.934998 2.58374,1.932495 3.861267,2.891235l0,73.810059c-1.05127,-1.126282 -2.131226,-2.283752 -3.152527,-3.388794c-28.617493,-30.748718 -50.686218,-54.46875 -68.224976,-73.33252c-14.29126,-15.351257 -26.15625,-28.08374 -36.14502,-38.83252c-15.921204,-17.111206 -28.039978,-30.13623 -37.587463,-40.387451c-7.652527,-8.240051 -13.976257,-15.032532 -19.288757,-20.736267l-0.196289,-325.412506l26.467529,0c0.059998,196.001282 0.184998,325.336212 0.244995,325.336212c7.672485,5.710022 16.798767,12.533752 27.877502,20.806274" id="path146"/>
    <path fill="#1a1e46" fill-rule="nonzero" d="m612.443726,563.908752c8.98999,10.251221 20.409973,23.276245 35.414978,40.387512c9.412537,10.748718 20.576294,23.481201 34.045044,38.832458c16.528748,18.856323 37.319946,42.576294 64.27124,73.326294c5.054993,5.765015 10.399963,11.867493 16.002502,18.253723l0,224.164856c-8.775024,-18.767578 -16.900024,-36.114868 -24.386292,-52.129822c-12.522461,-26.756287 -23.572449,-50.361267 -33.397461,-71.34375c-8.772522,-18.782532 -16.692505,-35.686279 -23.859985,-50.98877c-12.441284,-26.607483 -22.902527,-48.967468 -31.821289,-68.01001c-14.375,-30.726257 -25.466248,-54.434998 -34.29126,-73.290039c-7.179993,-15.341248 -13.131226,-28.074951 -18.15625,-38.815002c-8.01123,-17.111206 -14.107483,-30.13623 -18.897461,-40.387451c-3.852539,-8.225037 -7.033752,-15.017517 -9.690002,-20.713806l-0.102539,-378.721222l26.475037,0c0.04126,196.001282 0.10376,378.622467 0.15625,378.622467c5.005005,5.71875 10.987488,12.54126 18.237488,20.812561" id="path148"/>
    <g id="g150">
     <g id="g152" clip-path="url(#clipPath154)">
      <g id="g158" clip-path="url(#clipPath160)">
       <path fill="url(#linearGradient164)" fill-rule="nonzero" d="m540.375,1064.525024l0,-14.125l-0.125,0l0,-22.5l-0.125,0l0,-21.25l-0.125,0l0,-22.5l-0.125,0l0,-22.375l-0.125,0l0,-22.375l-0.125,0l0,-22l-0.125,0l0,-22.5l-0.125,0l0,-22.75l-0.125,0l0,-22.625l-0.125,0l0,-22.875l-0.125,0l0,-22.625l-0.125,0l0,-23l-0.125,0l0,-21.875l-0.125,0l0,-22.375l-0.125,0l0,-22.875l-0.125,0l0,-21.875l-0.125,0l0,-22l-0.125,0l0,-22.500061l-0.125,0l0,-21.625l-0.125,0l0,-23.5l-0.125,0l0,-22.875l-0.125,0l0,-22.625l-0.125,0l0,-437.749977l26.625,0l0,423.874977l0.125,0l0,0.375l0.125,0l0,0.25l0.125,0l0,0.375l0.125,0l0,0.25l0.125,0l0,0.25l0.125,0l0,0.375l0.125,0l0,0.25l0.125,0l0,0.375l0.125,0l0,0.25l0.125,0l0,0.25l0.125,0l0,0.375l0.125,0l0,0.25l0.125,0l0,0.375l0.125,0l0,0.25l0.125,0l0,0.25l0.125,0l0,0.375l0.125,0l0,0.25l0.125,0l0,0.375l0.125,0l0,0.25l0.125,0l0,0.25l0.125,0l0,0.375l0.125,0l0,0.25l0.125,0l0,0.375l0.125,0l0,0.25l0.125,0l0,0.375l0.125,0l0,0.25l0.125,0l0,0.25l0.125,0l0,0.375l0.125,0l0,0.25l0.125,0l0,0.375l0.125,0l0,0.25l0.125,0l0,0.25l0.125,0l0,0.375l0.125,0l0,0.25l0.125,0l0,0.375l0.125,0l0,0.25l0.125,0l0,0.25l0.125,0l0,0.375l0.125,0l0,0.25l0.125,0l0,0.375l0.125,0l0,0.25l0.125,0l0,0.375l0.125,0l0,0.25l0.125,0l0,0.25l0.125,0l0,0.375l0.125,0l0,0.25l0.125,0l0,0.375l0.125,0l0,0.25l0.125,0l0,0.25l0.125,0l0,0.375l0.125,0l0,0.25l0.125,0l0,0.375l0.125,0l0,0.25l0.125,0l0,0.375l0.125,0l0,0.25l0.125,0l0,0.25l0.125,0l0,0.375l0.125,0l0,0.25l0.125,0l0,0.375l0.125,0l0,0.25l0.125,0l0,0.25l0.125,0l0,0.375l0.125,0l0,0.25l0.125,0l0,0.375l0.125,0l0,0.25l0.125,0l0,0.25l0.125,0l0,0.375l0.125,0l0,0.25l0.125,0l0,0.375l0.125,0l0,0.25l0.125,0l0,0.375l0.125,0l0,0.25l0.125,0l0,0.25l0.125,0l0,0.375l0.125,0l0,0.25l0.125,0l0,0.375l0.125,0l0,0.25l0.125,0l0,0.25l0.125,0l0,0.375l0.125,0l0,0.25l0.125,0l0,0.375l0.125,0l0,0.25l0.125,0l0,0.375l0.125,0l0,0.25l0.125,0l0,0.25l0.125,0l0,0.375l0.125,0l0,0.25l0.125,0l0,0.375l0.125,0l0,0.25l0.125,0l0,0.25l0.125,0l0,0.375l0.125,0l0,0.25l0.125,0l0,0.375l0.125,0l0,0.25l0.125,0l0,0.25l0.125,0l0,0.375l0.125,0l0,0.25l0.125,0l0,0.375l0.125,0l0,0.25l0.125,0l0,0.375l0.125,0l0,0.25l0.125,0l0,0.25l0.125,0l0,0.375l0.125,0l0,0.25l0.125,0l0,0.375l0.125,0l0,0.25l0.125,0l0,0.25l0.125,0l0,0.375l0.125,0l0,0.25l0.125,0l0,0.375l0.125,0l0,0.25l0.125,0l0,0.375l0.125,0l0,0.25l0.125,0l0,0.25l0.125,0l0,0.375l0.125,0l0,0.25l0.125,0l0,0.375l0.125,0l0,0.25l0.125,0l0,0.25l0.125,0l0,0.375l0.125,0l0,0.25l0.125,0l0,0.375l0.125,0l0,0.25l0.125,0l0,0.375l0.125,0l0,0.25l0.125,0l0,0.25l0.125,0l0,0.375l0.125,0l0,0.25l0.125,0l0,0.375l0.125,0l0,0.25l0.125,0l0,0.25l0.125,0l0,0.375l0.125,0l0,0.25l0.125,0l0,0.375l0.125,0l0,0.25l0.125,0l0,0.25l0.125,0l0,0.375l0.125,0l0,0.25l0.125,0l0,0.375l0.125,0l0,0.25l0.125,0l0,0.375l0.125,0l0,0.25l0.125,0l0,0.25l0.125,0l0,0.375l0.125,0l0,0.25l0.125,0l0,0.375l0.125,0l0,0.25l0.125,0l0,0.25l0.125,0l0,0.375l0.125,0l0,0.25l0.125,0l0,0.375l0.125,0l0,0.25l0.125,0l0,0.375l0.125,0l0,0.25l0.125,0l0,0.25l0.125,0l0,0.375l0.125,0l0,0.25l0.125,0l0,0.375l0.125,0l0,0.25l0.125,0l0,0.25l0.125,0l0,0.375l0.125,0l0,0.25l0.125,0l0,0.375l0.125,0l0,0.25l0.125,0l0,0.375l0.125,0l0,0.25l0.125,0l0,0.25l0.125,0l0,0.375l0.125,0l0,0.25l0.125,0l0,0.375l0.125,0l0,0.25l0.125,0l0,0.25l0.125,0l0,0.375l0.125,0l0,0.25l0.125,0l0,0.375l0.125,0l0,0.25l0.125,0l0,0.25l0.125,0l0,0.375l0.125,0l0,0.25l0.125,0l0,0.375l0.125,0l0,0.25l0.125,0l0,0.375l0.125,0l0,0.25l0.125,0l0,0.25l0.125,0l0,0.375l0.125,0l0,0.25l0.125,0l0,0.375l0.125,0l0,0.25l0.125,0l0,0.25l0.125,0l0,0.375l0.125,0l0,0.25l0.125,0l0,0.375l0.125,0l0,0.25l0.125,0l0,0.375l0.125,0l0,0.25l0.125,0l0,0.25l0.125,0l0,0.375l0.125,0l0,0.25l0.125,0l0,0.375l0.125,0l0,0.25l0.125,0l0,0.25l0.125,0l0,0.375l0.125,0l0,0.25l0.125,0l0,0.375l0.125,0l0,0.25l0.125,0l0,0.375l0.125,0l0,0.25l0.125,0l0,0.25l0.125,0l0,0.375l0.125,0l0,0.25l0.125,0l0,0.375l0.125,0l0,0.25l0.125,0l0,0.25l0.125,0l0,0.375l0.125,0l0,0.25l0.125,0l0,0.375l0.125,0l0,0.25l0.125,0l0,0.375l0.125,0l0,0.25l0.125,0l0,0.25l0.125,0l0,0.375l0.125,0l0,0.25l0.125,0l0,0.375l0.125,0l0,0.25l0.125,0l0,0.25l0.125,0l0,0.375l0.125,0l0,0.25l0.125,0l0,0.375l0.125,0l0,0.25l0.125,0l0,0.375l0.125,0l0,0.25l0.125,0l0,0.25l0.125,0l0,0.375l0.125,0l0,0.25l0.125,0l0,0.375l0.125,0l0,0.25l0.125,0l0,0.375l0.125,0l0,0.25l0.125,0l0,0.25l0.125,0l0,0.375l0.125,0l0,0.25l0.125,0l0,0.375l0.125,0l0,0.25l0.125,0l0,0.25l0.125,0l0,0.375l0.125,0l0,0.25l0.125,0l0,0.375l0.125,0l0,0.25l0.125,0l0,0.375l0.125,0l0,0.25l0.125,0l0,0.25l0.125,0l0,0.375l0.125,0l0,0.25l0.125,0l0,0.375l0.125,0l0,0.25l0.125,0l0,0.25l0.125,0l0,0.375l0.125,0l0,0.25l0.125,0l0,0.375l0.125,0l0,0.25l0.125,0l0,0.375l0.125,0l0,0.25l0.125,0l0,0.25l0.125,0l0,0.375l0.125,0l0,0.25l0.125,0l0,0.375l0.125,0l0,0.25l0.125,0l0,0.25l0.125,0l0,0.375l0.125,0l0,0.25l0.125,0l0,0.375l0.125,0l0,0.25l0.125,0l0,0.375l0.125,0l0,0.25l0.125,0l0,0.25l0.125,0l0,0.375l0.125,0l0,0.25l0.125,0l0,0.375l0.125,0l0,0.25l0.125,0l0,0.25l0.125,0l0,0.375l0.125,0l0,0.25l0.125,0l0,0.375l0.125,0l0,0.25l0.125,0l0,0.375l0.125,0l0,0.25l0.125,0l0,0.25l0.125,0l0,0.375l0.125,0l0,0.25l0.125,0l0,0.375l0.125,0l0,0.25l0.125,0l0,0.25l0.125,0l0,0.375l0.125,0l0,0.25l0.125,0l0,0.375l0.125,0l0,0.25l0.125,0l0,0.375l0.125,0l0,0.25l0.125,0l0,0.25l0.125,0l0,0.375l0.125,0l0,0.25l0.125,0l0,0.375l0.125,0l0,0.25l0.125,0l0,0.25l0.125,0l0,0.375l0.125,0l0,0.25l0.125,0l0,0.375l0.125,0l0,0.25l0.125,0l0,0.25l0.125,0l0,0.375l0.125,0l0,0.25l0.125,0l0,0.375l0.125,0l0,0.25l0.125,0l0,0.375l0.125,0l0,0.25l0.125,0l0,0.25l0.125,0l0,0.375l0.125,0l0,0.25l0.125,0l0,0.375l0.125,0l0,0.25l0.125,0l0,0.25l0.125,0l0,0.375l0.125,0l0,0.25l0.125,0l0,0.375l0.125,0l0,0.25l0.125,0l0,0.25l0.125,0l0,0.375l0.125,0l0,0.25l0.125,0l0,0.375l0.125,0l0,0.25l0.125,0l0,0.375l0.125,0l0,0.25l0.125,0l0,0.25l0.125,0l0,0.375l0.125,0l0,0.25l0.125,0l0,0.375l0.125,0l0,0.25l0.125,0l0,0.25l0.125,0l0,0.375l0.125,0l0,0.25l0.125,0l0,0.375l0.125,0l0,0.25l0.125,0l0,0.375l0.125,0l0,0.25l0.125,0l0,0.25l0.125,0l0,0.375l0.125,0l0,0.25l0.125,0l0,0.375l0.125,0l0,0.25l0.125,0l0,0.25l0.125,0l0,0.375l0.125,0l0,0.25l0.125,0l0,0.375l0.125,0l0,0.25l0.125,0l0,0.375l0.125,0l0,0.25l0.125,0l0,0.25l0.125,0l0,0.375l0.125,0l0,0.25l0.125,0l0,0.375l0.125,0l0,0.25l0.125,0l0,0.250061l0.125,0l0,0.374939l0.125,0l0,0.25l0.125,0l0,0.375061l0.125,0l0,0.249939l0.125,0l0,0.375l0.125,0l0,0.25l0.125,0l0,0.250061l0.125,0l0,0.374939l0.125,0l0,0.250061l0.125,0l0,0.375l0.125,0l0,0.25l0.125,0l0,0.249939l0.125,0l0,0.375061l0.125,0l0,0.249939l0.125,0l0,0.375l0.125,0l0,0.250061l0.125,0l0,0.25l0.125,0l0,0.375l0.125,0l0,0.25l0.125,0l0,0.375l0.125,0l0,0.25l0.125,0l0,0.375l0.125,0l0,0.25l0.125,0l0,0.25l0.125,0l0,0.375l0.125,0l0,0.25l0.125,0l0,0.375l0.125,0l0,0.25l0.125,0l0,0.25l0.125,0l0,0.375l0.125,0l0,0.25l0.125,0l0,0.375l0.125,0l0,0.25l0.125,0l0,0.375l0.125,0l0,0.25l0.125,0l0,0.25l0.125,0l0,0.375l0.125,0l0,0.25l0.125,0l0,0.375l0.125,0l0,0.25l0.125,0l0,0.25l0.125,0l0,0.375l0.125,0l0,0.25l0.125,0l0,0.375l0.125,0l0,0.25l0.125,0l0,0.375l0.125,0l0,0.25l0.125,0l0,0.25l0.125,0l0,0.375l0.125,0l0,0.25l0.125,0l0,0.375l0.125,0l0,0.25l0.125,0l0,0.25l0.125,0l0,0.375l0.125,0l0,0.25l0.125,0l0,0.375l0.125,0l0,0.25l0.125,0l0,0.25l0.125,0l0,0.375l0.125,0l0,0.25l0.125,0l0,0.375l0.125,0l0,0.25l0.125,0l0,0.375l0.125,0l0,0.25l0.125,0l0,0.25l0.125,0l0,0.375l0.125,0l0,0.25l0.125,0l0,0.375l0.125,0l0,0.25l0.125,0l0,0.25l0.125,0l0,0.375l0.125,0l0,0.25l0.125,0l0,0.375l0.125,0l0,0.25l0.125,0l0,0.375l0.125,0l0,0.25l0.125,0l0,0.25l0.125,0l0,0.375l0.125,0l0,0.25l0.125,0l0,0.375l0.125,0l0,0.25l0.125,0l0,0.25l0.125,0l0,0.375l0.125,0l0,0.25l0.125,0l0,0.375l0.125,0l0,0.25l0.125,0l0,0.375l0.125,0l0,0.25l0.125,0l0,0.25l0.125,0l0,0.375l0.125,0l0,0.25l0.125,0l0,0.375l0.125,0l0,0.25l0.125,0l0,0.25l0.125,0l0,0.375l0.125,0l0,0.25l0.125,0l0,0.375l0.125,0l0,0.25l0.125,0l0,0.25l0.125,0l0,0.375l0.125,0l0,0.25l0.125,0l0,0.375l0.125,0l0,0.25l0.125,0l0,0.375l0.125,0l0,0.25l0.125,0l0,0.25l0.125,0l0,0.375l0.125,0l0,0.25l0.125,0l0,0.375l0.125,0l0,0.25l0.125,0l0,0.25l0.125,0l0,0.375l0.125,0l0,0.25l0.125,0l0,0.375l0.125,0l0,0.25l0.125,0l0,0.375l0.125,0l0,0.25l0.125,0l0,0.25l0.125,0l0,0.375l0.125,0l0,0.25l0.125,0l0,0.375l0.125,0l0,0.25l0.125,0l0,0.25l0.125,0l0,0.375l0.125,0l0,0.25l0.125,0l0,0.375l0.125,0l0,0.25l0.125,0l0,0.375l0.125,0l0,0.25l0.125,0l0,0.25l0.125,0l0,0.375l0.125,0l0,0.25l0.125,0l0,0.375l0.125,0l0,0.25l0.125,0l0,0.25l0.125,0l0,0.375l0.125,0l0,0.25l0.125,0l0,0.375l0.125,0l0,0.25l0.125,0l0,0.25l0.125,0l0,0.375l0.125,0l0,0.25l0.125,0l0,0.375l0.125,0l0,0.25l0.125,0l0,0.375l0.125,0l0,0.25l0.125,0l0,0.25l0.125,0l0,0.375l0.125,0l0,0.25l0.125,0l0,0.375l0.125,0l0,0.25l0.125,0l0,0.25l0.125,0l0,0.375l0.125,0l0,0.25l0.125,0l0,0.375l0.125,0l0,0.25l0.125,0l0,0.375l0.125,0l0,0.25l0.125,0l0,0.25l0.125,0l0,0.375l0.125,0l0,0.25l0.125,0l0,0.375l0.125,0l0,0.25l0.125,0l0,0.25l0.125,0l0,0.375l0.125,0l0,0.25l0.125,0l0,0.375l0.125,0l0,0.25l0.125,0l0,0.25l0.125,0l0,0.375l0.125,0l0,0.25l0.125,0l0,0.375l0.125,0l0,0.25l0.125,0l0,0.375l0.125,0l0,0.25l0.125,0l0,0.25l0.125,0l0,0.375l0.125,0l0,0.25l0.125,0l0,0.375l0.125,0l0,0.25l0.125,0l0,0.25l0.125,0l0,0.375l0.125,0l0,0.25l0.125,0l0,0.375l0.125,0l0,0.25l0.125,0l0,0.375l0.125,0l0,0.25l0.125,0l0,0.25l0.125,0l0,0.375l0.125,0l0,0.25l0.125,0l0,0.375l0.125,0l0,0.25l0.125,0l0,0.25l0.125,0l0,0.375l0.125,0l0,0.25l0.125,0l0,0.375l0.125,0l0,0.25l0.125,0l0,0.25l0.125,0l0,0.375l0.125,0l0,0.25l0.125,0l0,0.375l0.125,0l0,0.25l0.125,0l0,0.375l0.125,0l0,0.25l0.125,0l0,0.25l0.125,0l0,0.375l0.125,0l0,0.25l0.125,0l0,0.375l0.125,0l0,0.25l0.125,0l0,0.25l0.125,0l0,0.375l0.125,0l0,0.25l0.125,0l0,0.375l0.125,0l0,0.25l0.125,0l0,0.375l0.125,0l0,0.25l0.125,0l0,0.25l0.125,0l0,0.375l0.125,0l0,0.25l0.125,0l0,0.375l0.125,0l0,0.25l0.125,0l0,0.25l0.125,0l0,0.375l0.125,0l0,0.25l0.125,0l0,0.375l0.125,0l0,0.25l0.125,0l0,0.375l0.125,0l0,0.25l0.125,0l0,0.25l0.125,0l0,0.375l0.125,0l0,0.25l0.125,0l0,0.375l0.125,0l0,0.25l0.125,0l0,0.25l0.125,0l0,0.375l0.125,0l0,0.25l0.125,0l0,0.375l0.125,0l0,0.25l0.125,0l0,0.25l0.125,0l0,0.375l0.125,0l0,0.25l0.125,0l0,0.375l0.125,0l0,0.25l0.125,0l0,0.375l0.125,0l0,0.25l0.125,0l0,0.25l0.125,0l0,0.375l0.125,0l0,0.25l0.125,0l0,0.375l0.125,0l0,0.25l0.125,0l0,0.25l0.125,0l0,0.375l0.125,0l0,0.25l0.125,0l0,0.375l0.125,0l0,0.25l0.125,0l0,0.375l0.125,0l0,0.25l0.125,0l0,0.25l0.125,0l0,0.375l0.125,0l0,0.25l0.125,0l0,0.375l0.125,0l0,0.25l0.125,0l0,0.25l0.125,0l0,0.375l0.125,0l0,0.25l0.125,0l0,0.375l0.125,0l0,0.25l0.125,0l0,0.375l0.125,0l0,0.25l0.125,0l0,0.25l0.125,0l0,0.375l0.125,0l0,0.25l0.125,0l0,0.375l0.125,0l0,0.25l0.125,0l0,0.25l0.125,0l0,0.375l0.125,0l0,0.25l0.125,0l0,0.375l0.125,0l0,0.25l0.125,0l0,0.375l0.125,0l0,0.25l0.125,0l0,0.25l0.125,0l0,0.375l0.125,0l0,0.25l0.125,0l0,0.375l0.125,0l0,0.25l0.125,0l0,0.25l0.125,0l0,0.375l0.125,0l0,0.25l0.125,0l0,0.375l0.125,0l0,0.25l0.125,0l0,0.25l0.125,0l0,0.375l0.125,0l0,0.25l0.125,0l0,0.375l0.125,0l0,0.25l0.125,0l0,0.375l0.125,0l0,0.25l0.125,0l0,0.25l0.125,0l0,0.375l0.125,0l0,0.25l0.125,0l0,0.375l0.125,0l0,0.25l0.125,0l0,0.25l0.125,0l0,0.375l0.125,0l0,0.25l0.125,0l0,0.375l0.125,0l0,0.25l0.125,0l0,0.375l0.125,0l0,0.25l0.125,0l0,0.25l0.125,0l0,0.375l0.125,0l0,0.25l0.125,0l0,0.375l0.125,0l0,0.25l0.125,0l0,0.25l0.125,0l0,0.375l0.125,0l0,0.25l0.125,0l0,0.375l0.125,0l0,0.25l0.125,0l0,0.375l0.125,0l0,0.25l0.125,0l0,0.25l0.125,0l0,0.375l0.125,0l0,0.25l0.125,0l0,0.375l0.125,0l0,0.25l0.125,0l0,0.25l0.125,0l0,0.375l0.125,0l0,0.25l0.125,0l0,0.375l0.125,0l0,0.25l0.125,0l0,0.375l0.125,0l0,0.25l0.125,0l0,0.25l0.125,0l0,0.375l0.125,0l0,0.25l0.125,0l0,0.375l0.125,0l0,0.25l0.125,0l0,0.25l0.125,0l0,0.375l0.125,0l0,0.25l0.125,0l0,0.375l0.125,0l0,0.25l0.125,0l0,0.375l0.125,0l0,0.25l0.125,0l0,0.25l0.125,0l0,0.375l0.125,0l0,0.25l0.125,0l0,0.375l0.125,0l0,0.25l0.125,0l0,0.25l0.125,0l0,0.375l0.125,0l0,0.25l0.125,0l0,0.375l0.125,0l0,0.25l0.125,0l0,0.375l0.125,0l0,0.25l0.125,0l0,0.25l0.125,0l0,0.375l0.125,0l0,0.25l0.125,0l0,0.375l0.125,0l0,0.25l0.125,0l0,0.25l0.125,0l0,0.375l0.125,0l0,0.25l0.125,0l0,0.375l0.125,0l0,0.25l0.125,0l0,0.375l0.125,0l0,0.25l0.125,0l0,0.25l0.125,0l0,0.375l0.125,0l0,0.25l0.125,0l0,0.375l0.125,0l0,0.25l0.125,0l0,0.25l0.125,0l0,0.375l0.125,0l0,0.25l0.125,0l0,0.375l0.125,0l0,0.25l0.125,0l0,0.375l0.125,0l0,0.25l0.125,0l0,0.25l0.125,0l0,0.375l0.125,0l0,0.25l0.125,0l0,0.375l0.125,0l0,0.25l0.125,0l0,0.25l0.125,0l0,0.375l0.125,0l0,0.25l0.125,0l0,0.375l0.125,0l0,0.25l0.125,0l0,0.25l0.125,0l0,0.375l0.125,0l0,0.25l0.125,0l0,0.375l0.125,0l0,0.25l0.125,0l0,0.375l0.125,0l0,0.25l0.125,0l0,0.25l0.125,0l0,0.375l0.125,0l0,0.25l0.125,0l0,0.375l0.125,0l0,0.25l0.125,0l0,0.25l0.125,0l0,0.375l0.125,0l0,0.25l0.125,0l0,0.375l0.125,0l0,0.25l0.125,0l0,0.375l0.125,0l0,0.25l0.125,0l0,0.25l0.125,0l0,0.375l0.125,0l0,0.25l0.125,0l0,0.375l0.125,0l0,0.25l0.125,0l0,0.25l0.125,0l0,0.375l0.125,0l0,0.25l0.125,0l0,0.375l0.125,0l0,0.25l0.125,0l0,0.375l0.125,0l0,0.25l0.125,0l0,0.25l0.125,0l0,0.375l0.125,0l0,0.25l0.125,0l0,0.375l0.125,0l0,0.25l0.125,0l0,0.25l0.125,0l0,0.375l0.125,0l0,0.25l0.125,0l0,0.375l0.125,0l0,0.25l0.125,0l0,0.375l0.125,0l0,0.25l0.125,0l0,0.25l0.125,0l0,0.375l0.125,0l0,0.25l0.125,0l0,0.375l0.125,0l0,0.25l0.125,0l0,0.25l0.125,0l0,0.375l0.125,0l0,0.25l0.125,0l0,0.375l0.125,0l0,0.25l0.125,0l0,0.375l0.125,0l0,0.25l0.125,0l0,0.25l0.125,0l0,0.375l0.125,0l0,0.25l0.125,0l0,0.375l0.125,0l0,0.25l0.125,0l0,0.25l0.125,0l0,0.375l0.125,0l0,0.25l0.125,0l0,0.375l0.125,0l0,0.25l0.125,0l0,0.375l0.125,0l0,0.25l0.125,0l0,0.25l0.125,0l0,0.375l0.125,0l0,0.25l0.125,0l0,0.375l0.125,0l0,0.25l0.125,0l0,0.25l0.125,0l0,0.375l0.125,0l0,0.25l0.125,0l0,0.375l0.125,0l0,0.25l0.125,0l0,0.375l0.125,0l0,0.25l0.125,0l0,0.25l0.125,0l0,0.375l0.125,0l0,0.25l0.125,0l0,0.375l0.125,0l0,0.25l0.125,0l0,0.25l0.125,0l0,0.375l0.125,0l0,0.25l0.125,0l0,0.375l0.125,0l0,0.25l0.125,0l0,0.25l0.125,0l0,0.375l0.125,0l0,0.25l0.125,0l0,0.375l0.125,0l0,0.25l0.125,0l0,0.375l0.125,0l0,0.25l0.125,0l0,0.25l0.125,0l0,0.375l0.125,0l0,0.25l0.125,0l0,0.375l0.125,0l0,0.25l0.125,0l0,0.25l0.125,0l0,0.375l0.125,0l0,0.25l0.125,0l0,0.375l0.125,0l0,0.25l0.125,0l0,0.25l0.125,0l0,0.375l0.125,0l0,0.25l0.125,0l0,0.375l0.125,0l0,0.25l0.125,0l0,0.375l0.125,0l0,0.25l0.125,0l0,0.25l0.125,0l0,0.375l0.125,0l0,0.25l0.125,0l0,0.375l0.125,0l0,0.25l0.125,0l0,0.25l0.125,0l0,0.375l0.125,0l0,0.25l0.125,0l0,0.375l0.125,0l0,0.25l0.125,0l0,0.375l0.125,0l0,0.25l0.125,0l0,0.25l0.125,0l0,0.375l0.125,0l0,0.25l0.125,0l0,0.375l0.125,0l0,0.25l0.125,0l0,0.25l0.125,0l0,0.375l0.125,0l0,0.25l0.125,0l0,0.375l0.125,0l0,0.25l0.125,0l0,0.25l0.125,0l0,0.375l0.125,0l0,0.25l0.125,0l0,0.375l0.125,0l0,0.25l0.125,0l0,0.375l0.125,0l0,0.25l0.125,0l0,0.25l0.125,0l0,0.375l0.125,0l0,0.25l0.125,0l0,0.375l0.125,0l0,0.25l0.125,0l0,0.25l0.125,0l0,0.375l0.125,0l0,0.25l0.125,0l0,0.375l0.125,0l0,0.25l0.125,0l0,0.375l0.125,0l0,0.25l0.125,0l0,0.25l0.125,0l0,0.375l0.125,0l0,0.25l0.125,0l0,0.375l0.125,0l0,0.25l0.125,0l0,0.25l0.125,0l0,0.375l0.125,0l0,0.25l0.125,0l0,0.375l0.125,0l0,0.25l0.125,0l0,0.25l0.125,0l0,0.375l0.125,0l0,0.25l0.125,0l0,0.375l0.125,0l0,0.25l0.125,0l0,0.375l0.125,0l0,0.25l0.125,0l0,0.25l0.125,0l0,0.375l0.125,0l0,0.25l0.125,0l0,0.375l0.125,0l0,0.25l0.125,0l0,0.25l0.125,0l0,0.375l0.125,0l0,0.25l0.125,0l0,0.375l0.125,0l0,0.25l0.125,0l0,0.375l0.125,0l0,0.25l0.125,0l0,0.25l0.125,0l0,0.375l0.125,0l0,0.25l0.125,0l0,0.375l0.125,0l0,0.25l0.125,0l0,0.25l0.125,0l0,0.375l0.125,0l0,0.25l0.125,0l0,0.375l0.125,0l0,0.25l0.125,0l0,0.375l0.125,0l0,0.25l0.125,0l0,0.25l0.125,0l0,0.375l0.125,0l0,0.25l0.125,0l0,0.375l0.125,0l0,0.25l0.125,0l0,0.25l0.125,0l0,0.375l0.125,0l0,0.25l0.125,0l0,0.375l0.125,0l0,0.25l0.125,0l0,0.375l0.125,0l0,0.25l0.125,0l0,0.25l0.125,0l0,0.375l0.125,0l0,0.25l0.125,0l0,0.375l0.125,0l0,0.25l0.125,0l0,0.25l0.125,0l0,0.375l0.125,0l0,0.25l0.125,0l0,0.375l0.125,0l0,0.25l0.125,0l0,0.375l0.125,0l0,0.25l0.125,0l0,0.25l0.125,0l0,0.375l0.125,0l0,0.25l0.125,0l0,0.375l0.125,0l0,0.25l0.125,0l0,0.25l0.125,0l0,0.375l0.125,0l0,0.25l0.125,0l0,0.375l0.125,0l0,0.25l0.125,0l0,0.25l0.125,0l0,0.375l0.125,0l0,0.25l0.125,0l0,0.375l0.125,0l0,0.25l0.125,0l0,0.375l0.125,0l0,0.25l0.125,0l0,0.25l0.125,0l0,0.375l0.125,0l0,0.25l0.125,0l0,0.375l0.125,0l0,0.25l0.125,0l0,0.25l0.125,0l0,0.375l0.125,0l0,0.25l0.125,0l0,0.375l0.125,0l0,0.25l0.125,0l0,0.375l0.125,0l0,0.25l0.125,0l0,0.25l0.125,0l0,0.375l0.125,0l0,0.25l0.125,0l0,0.375l0.125,0l0,0.25l0.125,0l0,0.25l0.125,0l0,0.375l0.125,0l0,0.25l0.125,0l0,0.375l0.125,0l0,0.25l0.125,0l0,0.375l0.125,0l0,0.25l0.125,0l0,0.25l0.125,0l0,0.375l0.125,0l0,0.25l0.125,0l0,0.375l0.125,0l0,0.25l0.125,0l0,0.25l0.125,0l0,0.375l0.125,0l0,0.25l0.125,0l0,0.375l0.125,0l0,0.25l0.125,0l0,0.375l0.125,0l0,0.25l0.125,0l0,0.25l0.125,0l0,0.375l0.125,0l0,0.25l0.125,0l0,0.375l0.125,0l0,0.25l0.125,0l0,0.25l0.125,0l0,0.375l0.125,0l0,0.25l0.125,0l0,0.375l0.125,0l0,0.25l0.125,0l0,0.375l0.125,0l0,0.25l0.125,0l0,0.25l0.125,0l0,0.375l0.125,0l0,0.25l0.125,0l0,0.375l0.125,0l0,0.25l0.125,0l0,0.25l0.125,0l0,0.375l0.125,0l0,0.25l0.125,0l0,0.375l0.125,0l0,0.25l0.125,0l0,0.375l0.125,0l0,0.25l0.125,0l0,0.25l0.125,0l0,0.375l0.125,0l0,0.25l0.125,0l0,0.375l0.125,0l0,0.25l0.125,0l0,0.25l0.125,0l0,0.375l0.125,0l0,0.25l0.125,0l0,0.375l0.125,0l0,0.25l0.125,0l0,0.375l0.125,0l0,0.25l0.125,0l0,0.25l0.125,0l0,0.375l0.125,0l0,0.25l0.125,0l0,0.375l0.125,0l0,0.25l0.125,0l0,0.25l0.125,0l0,0.375l0.125,0l0,0.25l0.125,0l0,0.375l0.125,0l0,0.25l0.125,0l0,0.375l0.125,0l0,0.25l0.125,0l0,0.25l0.125,0l0,0.375l0.125,0l0,0.25l0.125,0l0,0.375l0.125,0l0,0.25l0.125,0l0,0.25l0.125,0l0,0.375l0.125,0l0,0.25l0.125,0l0,0.375l0.125,0l0,0.25l0.125,0l0,0.25l0.125,0l0,0.375l0.125,0l0,0.25l0.125,0l0,0.375l0.125,0l0,0.25l0.125,0l0,0.375l0.125,0l0,0.25l0.125,0l0,0.25l0.125,0l0,0.375l0.125,0l0,0.25l0.125,0l0,0.375l0.125,0l0,0.25l0.125,0l0,0.25l0.125,0l0,0.375l0.125,0l0,0.25l0.125,0l0,0.375l0.125,0l0,0.25l0.125,0l0,0.375l0.125,0l0,0.25l0.125,0l0,0.25l0.125,0l0,0.375l0.125,0l0,0.25l0.125,0l0,0.375l0.125,0l0,0.25l0.125,0l0,0.25l0.125,0l0,0.375l0.125,0l0,0.25l0.125,0l0,0.375l0.125,0l0,0.25l0.125,0l0,0.375l0.125,0l0,0.25l0.125,0l0,0.25l0.125,0l0,0.375l0.125,0l0,0.25l0.125,0l0,0.375l0.125,0l0,0.25l0.125,0l0,0.25l0.125,0l0,0.375l0.125,0l0,0.25l0.125,0l0,0.375l0.125,0l0,0.25l0.125,0l0,0.375l0.125,0l0,0.25l0.125,0l0,0.25l0.125,0l0,0.375l0.125,0l0,0.25l0.125,0l0,0.375l0.125,0l0,0.25l0.125,0l0,0.25l0.125,0l0,0.375l0.125,0l0,0.25l0.125,0l0,0.375l0.125,0l0,0.25l0.125,0l0,0.375l0.125,0l0,0.25l0.125,0l0,0.25l0.125,0l0,0.375l0.125,0l0,0.25l0.125,0l0,0.375l0.125,0l0,0.25l0.125,0l0,0.25l0.125,0l0,0.375l0.125,0l0,0.25l0.125,0l0,0.375l0.125,0l0,0.25l0.125,0l0,0.375l0.125,0l0,0.25l0.125,0l0,0.25l0.125,0l0,0.375l0.125,0l0,0.25l0.125,0l0,0.375l0.125,0l0,0.25l0.125,0l0,0.25l0.125,0l0,0.375l0.125,0l0,0.25l0.125,0l0,0.375l0.125,0l0,0.25l0.125,0l0,0.25l0.125,0l0,0.375l0.125,0l0,0.25l0.125,0l0,0.375l0.125,0l0,0.25l0.125,0l0,0.375l0.125,0l0,0.25l0.125,0l0,0.25l0.125,0l0,0.375l0.125,0l0,0.25l0.125,0l0,0.375l0.125,0l0,0.25l0.125,0l0,0.25l0.125,0l0,0.375l0.125,0l0,0.25l0.125,0l0,0.375l0.125,0l0,0.25l0.125,0l0,0.375l0.125,0l0,0.25l0.125,0l0,0.25l0.125,0l0,0.375l0.125,0l0,0.25l0.125,0l0,0.375l0.125,0l0,0.25l0.125,0l0,0.25l0.125,0l0,0.375l0.125,0l0,0.25l0.125,0l0,0.375l0.125,0l0,0.25l0.125,0l0,0.375l0.125,0l0,0.25l0.125,0l0,0.25l0.125,0l0,0.375l0.125,0l0,0.25l0.125,0l0,0.375l0.125,0l0,0.25l0.125,0l0,0.25l0.125,0l0,0.375l0.125,0l0,0.25l0.125,0l0,0.375l0.125,0l0,0.25l0.125,0l0,0.25l0.125,0l0,0.375l0.125,0l0,0.25l0.125,0l0,0.375l0.125,0l0,0.25l0.125,0l0,0.375l0.125,0l0,0.25l0.125,0l0,0.25l0.125,0l0,0.375l0.125,0l0,0.25l0.125,0l0,0.375l0.125,0l0,0.25l0.125,0l0,0.25l0.125,0l0,0.375l0.125,0l0,0.25l0.125,0l0,0.375l0.125,0l0,0.25l0.125,0l0,0.375l0.125,0l0,0.25l0.125,0l0,0.25l0.125,0l0,0.375l0.125,0l0,0.25l0.125,0l0,0.375l0.125,0l0,0.25l0.125,0l0,0.25l0.125,0l0,0.375l0.125,0l0,0.25l0.125,0l0,0.375l0.125,0l0,0.25l0.125,0l0,0.25l0.125,0l0,0.375l0.125,0l0,0.25l0.125,0l0,0.375l0.125,0l0,0.25l0.125,0l0,0.375l0.125,0l0,0.25l0.125,0l0,0.25l0.125,0l0,0.375l0.125,0l0,0.25l0.125,0l0,0.375l0.125,0l0,0.25l0.125,0l0,0.25l0.125,0l0,0.375l0.125,0l0,0.25l0.125,0l0,0.375l0.125,0l0,0.25l0.125,0l0,0.375l0.125,0l0,0.25l0.125,0l0,0.25l0.125,0l0,0.375l0.125,0l0,0.25l0.125,0l0,0.375l0.125,0l0,0.25l0.125,0l0,0.25l0.125,0l0,0.375l0.125,0l0,0.25l0.125,0l0,0.375l0.125,0l0,0.25l0.125,0l0,0.375l0.125,0l0,0.25l0.125,0l0,0.25l0.125,0l0,0.375l0.125,0l0,0.25l0.125,0l0,0.375l0.125,0l0,0.25l0.125,0l0,0.25l0.125,0l0,0.375l0.125,0l0,0.25l0.125,0l0,0.375l0.125,0l0,0.25l0.125,0l0,0.25l0.125,0l0,0.375l0.125,0l0,0.25l0.125,0l0,0.375l0.125,0l0,0.25l0.125,0l0,0.375l0.125,0l0,0.25l0.125,0l0,0.25l0.125,0l0,0.375l0.125,0l0,0.25l0.125,0l0,0.375l0.125,0l0,0.25l0.125,0l0,0.25l0.125,0l0,0.375l0.125,0l0,0.25l0.125,0l0,0.375l0.125,0l0,0.25l0.125,0l0,0.375l0.125,0l0,0.25l0.125,0l0,0.25l0.125,0l0,0.375l0.125,0l0,0.25l0.125,0l0,0.375l0.125,0l0,0.25l0.125,0l0,0.25l0.125,0l0,0.375l0.125,0l0,0.25l0.125,0l0,0.375l0.125,0l0,0.25l0.125,0l0,0.25l0.125,0l0,0.375l0.125,0l0,0.25l0.125,0l0,0.375l0.125,0l0,0.25l0.125,0l0,0.375l0.125,0l0,0.25l0.125,0l0,0.25l0.125,0l0,0.375l0.125,0l0,0.25l0.125,0l0,0.375l0.125,0l0,0.25l0.125,0l0,0.25l0.125,0l0,0.375l0.125,0l0,0.25l0.125,0l0,0.375l0.125,0l0,0.25l0.125,0l0,0.375l0.125,0l0,0.25l0.125,0l0,0.25l0.125,0l0,0.375l0.125,0l0,0.25l0.125,0l0,0.375l0.125,0l0,0.25l0.125,0l0,0.25l0.125,0l0,0.375l0.125,0l0,0.25l0.125,0l0,0.375l0.125,0l0,0.25l0.125,0l0,0.375l0.125,0l0,0.25l0.125,0l0,0.25l0.125,0l0,0.375l0.125,0l0,0.25l0.125,0l0,0.375l0.125,0l0,0.25l0.125,0l0,0.25l0.125,0l0,0.375l0.125,0l0,0.25l0.125,0l0,0.375l0.125,0l0,0.25l0.125,0l0,0.25l0.125,0l0,0.375l0.125,0l0,0.25l0.125,0l0,0.375l0.125,0l0,0.25l0.125,0l0,0.375l0.125,0l0,0.25l0.125,0l0,0.25l0.125,0l0,0.375l0.125,0l0,0.25l0.125,0l0,0.375l0.125,0l0,0.25l0.125,0l0,0.25l0.125,0l0,0.375l0.125,0l0,0.25l0.125,0l0,0.375l0.125,0l0,0.25l0.125,0l0,0.375l0.125,0l0,0.25l0.125,0l0,0.25l0.125,0l0,0.375l0.125,0l0,0.25l0.125,0l0,0.375l0.125,0l0,0.25l0.125,0l0,0.25l0.125,0l0,0.375l0.125,0l0,0.25l0.125,0l0,0.375l0.125,0l0,0.25l0.125,0l0,0.25l0.125,0l0,0.375l0.125,0l0,0.25l0.125,0l0,0.375l0.125,0l0,0.25l0.125,0l0,0.375l0.125,0l0,0.25l0.125,0l0,0.25l0.125,0l0,0.375l0.125,0l0,0.25l0.125,0l0,0.375l0.125,0l0,0.25l0.125,0l0,0.25l0.125,0l0,0.375l0.125,0l0,0.25l0.125,0l0,0.375l0.125,0l0,0.25l0.125,0l0,0.375l0.125,0l0,0.25l0.125,0l0,0.25l0.125,0l0,0.375l0.125,0l0,0.25l0.125,0l0,0.375l0.125,0l0,0.25l0.125,0l0,0.25l0.125,0l0,0.375l0.125,0l0,0.25l0.125,0l0,0.375l0.125,0l0,0.25l0.125,0l0,0.375l0.125,0l0,0.25l0.125,0l0,0.25l0.125,0l0,0.375l0.125,0l0,0.25l0.125,0l0,0.375l0.125,0l0,0.25l0.125,0l0,0.25l0.125,0l0,0.375l0.125,0l0,0.25l0.125,0l0,0.375l0.125,0l0,0.25l0.125,0l0,0.25l0.125,0l0,0.375l0.125,0l0,0.25l0.125,0l0,0.375l0.125,0l0,0.25l0.125,0l0,0.375l0.125,0l0,0.25l0.125,0l0,0.25l0.125,0l0,0.375l0.125,0l0,0.25l0.125,0l0,0.375l0.125,0l0,0.25l0.125,0l0,0.25l0.125,0l0,0.375l0.125,0l0,0.25l0.125,0l0,0.375l0.125,0l0,0.25l0.125,0l0,0.375l0.125,0l0,0.25l0.125,0l0,0.25l0.125,0l0,0.375l0.125,0l0,0.25l0.125,0l0,0.375l0.125,0l0,0.25l0.125,0l0,0.25l0.125,0l0,0.375l0.125,0l0,0.25l0.125,0l0,0.375l0.125,0l0,0.25l0.125,0l0,0.375l0.125,0l0,0.25l0.125,0l0,0.25l0.125,0l0,0.375l0.125,0l0,0.25l0.125,0l0,0.375l0.125,0l0,0.25l0.125,0l0,0.25l0.125,0l0,0.375l0.125,0l0,0.25l0.125,0l0,0.375l0.125,0l0,0.25l0.125,0l0,0.25l0.125,0l0,0.375l0.125,0l0,0.25l0.125,0l0,0.375l0.125,0l0,0.25l0.125,0l0,0.375l0.125,0l0,0.25l0.125,0l0,0.25l0.125,0l0,0.375l0.125,0l0,0.25l0.125,0l0,0.375l0.125,0l0,0.25l0.125,0l0,0.25l0.125,0l0,0.375l0.125,0l0,0.25l0.125,0l0,0.375l0.125,0l0,0.25l0.125,0l0,0.375l0.125,0l0,0.25l0.125,0l0,0.25l0.125,0l0,0.375l0.125,0l0,0.25l0.125,0l0,0.375l0.125,0l0,0.25l0.125,0l0,0.25l0.125,0l0,0.375l0.125,0l0,0.25l0.125,0l0,0.375l0.125,0l0,0.25l0.125,0l0,0.25l0.125,0l0,0.375l0.125,0l0,0.25l0.125,0l0,0.375l0.125,0l0,0.25l0.125,0l0,0.375l0.125,0l0,0.25l0.125,0l0,0.25l0.125,0l0,0.375l0.125,0l0,0.25l0.125,0l0,0.375l0.125,0l0,0.25l0.125,0l0,0.25l0.125,0l0,0.375l0.125,0l0,0.25l0.125,0l0,0.375l0.125,0l0,0.25l0.125,0l0,0.375l0.125,0l0,0.25l0.125,0l0,0.25l0.125,0l0,0.375l0.125,0l0,0.25l0.125,0l0,0.375l0.125,0l0,0.25l0.125,0l0,0.25l0.125,0l0,0.375l0.125,0l0,0.25l0.125,0l0,0.375l0.125,0l0,0.25l0.125,0l0,0.375l0.125,0l0,0.25l0.125,0l0,0.25l0.125,0l0,0.375l0.125,0l0,0.25l0.125,0l0,0.375l0.125,0l0,0.25l0.125,0l0,0.25l0.125,0l0,0.375l0.125,0l0,0.25l0.125,0l0,0.375l0.125,0l0,0.25l0.125,0l0,0.25l0.125,0l0,0.375l0.125,0l0,0.25l0.125,0l0,0.375l0.125,0l0,0.25l0.125,0l0,0.375l0.125,0l0,0.25l0.125,0l0,0.25l0.125,0l0,0.375l0.125,0l0,0.25l0.125,0l0,0.375l0.125,0l0,0.25l0.125,0l0,0.25l0.125,0l0,0.375l0.125,0l0,0.25l0.125,0l0,0.375l0.125,0l0,0.25l0.125,0l0,0.375l0.125,0l0,0.25l0.125,0l0,0.25l0.125,0l0,0.375l0.125,0l0,0.25l0.125,0l0,0.375l0.125,0l0,0.25l0.125,0l0,0.25l0.125,0l0,0.375l0.125,0l0,0.25l0.125,0l0,0.375l0.125,0l0,0.25l0.125,0l0,0.375l0.125,0l0,0.25l0.125,0l0,0.25l0.125,0l0,0.375l0.125,0l0,0.25l0.125,0l0,0.375l0.125,0l0,0.25l0.125,0l0,0.25l0.125,0l0,0.375l0.125,0l0,0.25l0.125,0l0,0.375l0.125,0l0,0.25l0.125,0l0,0.25l0.125,0l0,0.375l0.125,0l0,0.25l0.125,0l0,0.375l0.125,0l0,0.25l0.125,0l0,0.375l0.125,0l0,0.25l0.125,0l0,0.25l0.125,0l0,0.375l0.125,0l0,0.25l0.125,0l0,0.375l0.125,0l0,0.25l0.125,0l0,0.25l0.125,0l0,0.375l0.125,0l0,0.25l0.125,0l0,0.375l0.125,0l0,0.25l0.125,0l0,0.375l0.125,0l0,0.25l0.125,0l0,43.625" id="path172"/>
      </g>
     </g>
    </g>
   </g>
  </g>
  <rect id="svg_2" height="61.999999" width="753.000021" y="2.474977" x="2.825016" stroke-width="5" stroke="#ffffff" fill="#ffffff"/>
 </g>
</svg>