<svg width="991.20001" height="827.875" xmlns="http://www.w3.org/2000/svg">
 <metadata id="metadata8">image/svg+xml</metadata>
 <defs>
  <clipPath clipPathUnits="userSpaceOnUse" id="clipPath34">
   <path d="m5.24219,6178.240234l7924.350095,0l0,289.992188l-7924.350095,0l0,-289.992188z" id="path36"/>
  </clipPath>
 </defs>
 <g>
  <title>Layer 1</title>
  <rect id="svg_2" height="9.666667" width="182.833342" y="577.708333" x="669.133649" stroke-linecap="null" stroke-linejoin="null" fill="#00adef"/>
  <rect id="svg_3" height="0" width="8.333333" y="623.791667" x="674.133291" stroke-linecap="null" stroke-linejoin="null" fill="#00adef"/>
  <g id="svg_4">
   <path transform="rotate(179.77630615234375 354.1979675292968,478.42019653320307) " fill="#bd0c8d" fill-rule="nonzero" d="m36.6954,409.013489c33.142399,0.014404 56.480534,0.030457 56.480534,0.041748c2.387604,2.810425 5.238861,6.158081 8.693634,10.224426c4.282501,5.03717 9.72644,11.436157 16.879242,19.84668c4.489502,5.278809 9.813324,11.537292 16.229218,19.083008c7.882935,9.266479 17.795837,20.929932 30.650879,36.042175c7.966431,9.373291 17.324463,20.371033 28.459534,33.46698c6.402191,7.529602 13.48056,15.850159 21.343414,25.098022c1.241455,1.459167 2.512573,2.953613 3.79895,4.465759l0,0.072754c0,0 0.021667,0 0.061829,0c0.015259,0.017822 0.029724,0.036377 0.044983,0.052979l0,-0.052979c2.323853,0.004944 46.735535,0.076538 99.372253,0.178406c38.441467,-0.073914 263.143402,-0.22168 291.348358,-0.249634l61.642273,-28.186584l-61.642273,-26.805359c-30.576172,0.039368 -257.93277,0.166199 -291.348358,0.236023c-45.713318,-0.097107 -99.43573,-0.210388 -99.43573,-0.210388c-1.323303,-1.082397 -2.632141,-2.149536 -3.908936,-3.194275c-7.85321,-6.41748 -14.921936,-12.19574 -21.320129,-17.418396c-11.128632,-9.093079 -20.476227,-16.727051 -28.43866,-23.234497c-12.847809,-10.493469 -22.757507,-18.589172 -30.638031,-25.026733c-6.412659,-5.238708 -11.73407,-9.587708 -16.221985,-13.252563c-7.15036,-5.841736 -12.592773,-10.287048 -16.873993,-13.785706c-3.443787,-2.812866 -6.279633,-5.131042 -8.66449,-7.076721c0,0 -23.352844,-0.009644 -56.512516,-0.021667l0,9.706543" id="path24"/>
   <path transform="rotate(179.77630615234375 354.4684753417968,609.9761962890625) " fill="#00adef" fill-rule="nonzero" d="m36.965916,640.170959c33.171635,-0.000793 56.534824,-0.00238 56.534824,-0.00238c2.377228,-0.101196 5.210907,-0.220032 8.642792,-0.365356c4.28186,-0.182312 9.72052,-0.41272 16.867767,-0.714661c4.483887,-0.189514 9.802879,-0.415161 16.209099,-0.686584c7.872528,-0.333191 17.770966,-0.75238 30.5979,-1.296814c7.951202,-0.336426 17.283539,-0.7323 28.388062,-1.202026c6.384552,-0.271423 13.438812,-0.569336 21.274384,-0.904175c1.254272,-0.05304 2.541443,-0.105225 3.843079,-0.162231l0,0.031311c0,0 53.889435,-0.015259 99.656586,-0.02887c33.33606,0.01123 260.551331,-0.0755 291.348328,-0.069885l61.642273,-28.040344l-61.642273,-26.94751c-28.36792,-0.009644 -252.974304,0.059387 -291.348328,0.033691c-51.692444,0.036133 -95.494659,0.062622 -99.372345,0.065063l0,-0.032104c-0.028076,0.01123 -0.053772,0.023254 -0.081055,0.032104c-0.126892,0 -0.203186,0 -0.203186,0l0,0.081909c-1.324097,0.531555 -2.632141,1.055908 -3.908936,1.567444c-7.829163,3.134827 -14.874573,5.963745 -21.25351,8.519714c-11.095673,4.450134 -20.420807,8.187256 -28.36557,11.375122c-12.819733,5.139099 -22.715759,9.105103 -30.581818,12.259216c-6.405457,2.567932 -11.724449,4.699097 -16.206718,6.494568c-7.14444,2.867493 -12.581879,5.046814 -16.863739,6.761963c-3.454437,1.385193 -6.302582,2.531006 -8.691132,3.486572c0,0.004028 -23.341522,0.009644 -56.486515,0.015259l0,9.729004" id="path14"/>
   <path transform="rotate(179.77630615234375 354.7518310546875,682.5534667968749) " fill="#fbbc09" fill-rule="nonzero" d="m37.249275,763.914246c33.159668,-0.012024 56.512482,-0.020874 56.512482,-0.020874c2.384888,-2.033936 5.223206,-4.460571 8.668518,-7.399536c4.278473,-3.654358 9.715912,-8.297241 16.858734,-14.394348c4.483093,-3.827087 9.797264,-8.364746 16.199486,-13.829895c7.862091,-6.713013 17.751678,-15.153992 30.560974,-26.091492c7.937531,-6.78125 17.253021,-14.733215 28.339874,-24.197266c6.370117,-5.437805 13.411499,-11.448975 21.22699,-18.124268c1.364319,-1.164368 2.764709,-2.360779 4.183594,-3.571716c0,0 53.790619,-0.114014 99.463837,-0.209534c33.374634,0.069824 262.49057,0.149292 293.107758,0.187073l59.882874,-26.682495l-61.642273,-28.387268c-30.532776,0 -390.720642,0.090698 -390.720642,0.090698l0,-0.010437c-0.003235,0.003235 -0.005615,0.00647 -0.009644,0.010437l-0.431213,0l0,0.52356c-1.319336,1.600403 -2.62738,3.183044 -3.900146,4.724792c-7.811462,9.465637 -14.843201,17.990173 -21.208496,25.705261c-11.074829,13.421204 -20.383087,24.70636 -28.315002,34.322205c-12.80365,15.518555 -22.686859,27.497498 -30.547302,37.022583c-6.399017,7.760071 -11.713188,14.197632 -16.193077,19.626648c-7.140411,8.655396 -12.576965,15.247131 -16.856323,20.431213c-3.454712,4.187622 -8.689148,10.607483 -8.689148,10.64447c0,0 -23.343445,0 -56.491852,0l0,9.630188" id="path18"/>
   <path transform="rotate(179.77630615234375 354.894287109375,719.0440673828125) " fill="#fff200" fill-rule="nonzero" d="m37.391743,825.986572c33.159672,0 56.512486,0 56.512486,0c0,0 5.223206,-6.72113 8.669159,-11.057983c4.277832,-5.387329 9.715271,-12.235168 16.855682,-21.225464c4.479889,-5.641724 9.790855,-12.333069 16.192284,-20.391113c7.861237,-9.896729 17.743652,-22.339844 30.544891,-38.463135c7.931915,-9.989136 17.238556,-21.712036 28.313385,-35.654297c6.35968,-8.014648 13.397034,-16.869995 21.206909,-26.703369c1.396423,-1.756958 2.829712,-3.562866 4.282349,-5.391296c0,0 320.616562,-0.089905 390.785751,-0.089905l61.642212,-26.554871l-61.642212,-28.180115c-30.523193,0 -390.720688,0.089172 -390.720688,0.089172l0,-0.262573c-0.054626,0.089111 -0.108398,0.175049 -0.163025,0.262573l-0.087524,0l0,0.142944c-1.412476,2.282043 -2.806458,4.53772 -4.161865,6.732239c-7.803467,12.618164 -14.828796,23.980469 -21.186066,34.265137c-11.06601,17.896179 -20.365417,32.938599 -28.293335,45.759888c-6.835846,11.061218 -12.793213,20.696289 -18.031891,29.163757c-4.638885,7.507141 -8.779877,14.202515 -12.496918,20.21051c-6.39743,10.350525 -11.707573,18.938477 -16.188255,26.182251c-7.138977,11.546997 -12.57135,20.339661 -16.851685,27.25824c-3.453735,5.587219 -8.688568,14.148621 -8.688568,14.196838c0,0 -23.344086,0 -56.493076,0l0,9.710571" id="path20"/>
   <path transform="rotate(179.77630615234375 354.2368469238281,550.6483154296874) " fill="#0b8ed8" fill-rule="nonzero" d="m36.734287,532.534973c33.143986,0.004028 56.484623,0.007202 56.484623,0.010437c2.388916,0.870422 5.236053,1.906311 8.692352,3.163757c4.282501,1.554565 9.723633,3.533142 16.870819,6.131592c4.487091,1.631714 9.806084,3.564514 16.216331,5.896362c7.874908,2.863464 17.780579,6.463257 30.61557,11.130249c7.957611,2.892334 17.296356,6.289001 28.41214,10.330444c6.390167,2.320618 13.452484,4.890991 21.298492,7.742432c1.263062,0.45929 2.559082,0.931458 3.871216,1.407593l0,0.106812c0,0 45.441132,0.0177 99.552948,0.042542c38.409363,-0.016846 263.067139,-0.111572 291.348328,-0.118835l61.642273,-28.521301l-61.642273,-26.333252c-30.521545,0 -390.720612,0.089111 -390.720612,0.089111l0,-0.196716c-1.396423,-0.007202 -2.775146,-0.014465 -4.119324,-0.020081c-7.837219,-0.038513 -14.892273,-0.073059 -21.276001,-0.103577c-11.106964,-0.056213 -20.438477,-0.100342 -28.390472,-0.138916c-12.83017,-0.063416 -22.729401,-0.111633 -30.600311,-0.150146c-6.407043,-0.032959 -11.72683,-0.058594 -16.209923,-0.078674c-7.146118,-0.036194 -12.587982,-0.061035 -16.869202,-0.081909c-3.453796,-0.0177 -6.302795,-0.032166 -8.692017,-0.043396l0,0.00647c0,0 -23.340973,0 -56.484959,0l0,9.729004" id="path28"/>
   <path transform="rotate(179.77630615234375 354.60876464843744,645.9136962890625) " fill="#f68712" fill-rule="nonzero" d="m37.106224,701.658752c33.159676,-0.006409 56.512489,-0.012817 56.512489,-0.012817c2.384888,-1.065552 5.223206,-2.337524 8.666016,-3.882446c4.280975,-1.915955 9.719635,-4.355408 16.863647,-7.556946c4.481506,-2.00824 9.79805,-4.389954 16.2043,-7.261414c7.867706,-3.524292 17.762115,-7.957642 30.581024,-13.703796c7.944794,-3.558838 17.266693,-7.739258 28.361572,-12.711304c6.378143,-2.857056 13.424347,-6.015991 21.251923,-9.522705c1.370667,-0.612671 2.776733,-1.243774 4.201233,-1.882141l0,-0.096375c0,0 53.711929,-0.067444 99.372269,-0.124451c33.41394,0.041748 260.822784,1.12738 291.348358,1.148254l61.642273,-29.416687l-61.642273,-26.374207c-30.525574,0 -390.720627,0.092346 -390.720627,0.092346l0,-0.185486c-0.077881,0.062622 -0.152588,0.123657 -0.229675,0.185486l-0.0755,0l0,0.061035c-1.341797,1.082458 -2.668335,2.153625 -3.961121,3.194275c-7.821106,6.302673 -14.860107,11.983032 -21.231018,17.122192c-11.085266,8.939636 -20.403137,16.456421 -28.342285,22.857849c-12.809296,10.33606 -22.699707,18.310547 -30.563354,24.654175c-6.403839,5.163208 -11.716415,9.449585 -16.198685,13.066223c-7.143646,5.759827 -12.582367,10.144165 -16.862061,13.596985c-3.453491,2.788025 -8.688568,7.06311 -8.688568,7.0896c0,0 -23.342804,0 -56.489937,0l0,9.662354" id="path16"/>
   <path transform="rotate(179.77630615234375 354.09622192382807,514.6309204101562) " fill="#8d198f" fill-rule="nonzero" d="m36.59367,470.877625c33.142704,0.009644 56.482059,0.019287 56.482059,0.027344c2.388672,1.838013 5.237335,4.03183 8.694275,6.690491c4.28186,3.297058 9.724274,7.486267 16.874664,12.985901c4.488708,3.452881 9.80928,7.550476 16.22197,12.488129c7.877319,6.063324 17.789398,13.690094 30.634003,23.576508c7.962433,6.130066 17.310028,13.320007 28.435455,21.884644c6.39743,4.923157 13.465302,10.365845 21.321747,16.409912c1.263916,0.974792 2.559937,1.971313 3.871216,2.981506l0,0.071472c0,0 0.03772,0 0.094727,0c0.003235,0.004028 0.008057,0.006409 0.012085,0.009583l0,-0.009583c2.323853,0.00238 46.734772,0.045776 99.372284,0.108398c38.441467,-0.045776 263.143372,-0.169434 291.348328,-0.186279l61.642273,-27.976135l-61.642273,-27.061584c-30.61792,0.018494 -257.947205,0.125305 -291.348328,0.161438c-45.728577,-0.048157 -99.479095,-0.103577 -99.479095,-0.103577l0,0.004822c-1.33374,-0.548462 -2.653076,-1.091278 -3.93866,-1.618835c-7.846008,-3.220764 -14.908264,-6.126038 -21.299286,-8.74939c-11.117371,-4.56897 -20.458527,-8.404053 -28.415344,-11.673828c-12.834991,-5.274017 -22.741455,-9.34198 -30.617981,-12.580444c-6.409454,-2.632996 -11.729233,-4.817932 -16.216324,-6.660736c-7.147736,-2.93576 -12.589569,-5.172852 -16.870789,-6.931427c-3.438171,-1.411682 -6.273041,-2.57843 -8.65448,-3.555573c0,0 -23.357239,-0.004852 -56.522526,-0.010498l0,9.717743" id="path26"/>
   <path transform="rotate(179.77630615234375 353.8049621582031,440.0301208496094) " fill="#ec008c" fill-rule="nonzero" d="m36.30241,335.364105c33.171635,0.00885 56.534824,0.014465 56.534824,0.014465c2.381653,2.905212 5.210907,6.370117 8.64151,10.568115c4.280334,5.237915 9.724915,11.896301 16.877075,20.644897c4.489502,5.48999 9.814117,12.002258 16.230011,19.850647c7.882141,9.642334 17.798248,21.772278 30.652466,37.494751c7.969666,9.749878 17.329315,21.190918 28.464355,34.815979c6.404633,7.829895 13.481415,16.493347 21.344269,26.111694c1.26709,1.550415 2.564697,3.136353 3.876831,4.743896c0,0 53.707901,0.075562 99.393143,0.139893c33.418762,-0.04834 260.808289,-0.189453 291.348328,-0.21521l61.642273,26.933685l-61.642273,27.862183c-28.278015,0.008789 -252.936584,0.107605 -291.348328,0.135803c-52.150085,-0.0354 -96.243851,-0.062683 -99.372269,-0.06366l0,0.294861c-0.062622,-0.098816 -0.124451,-0.196106 -0.187134,-0.294861l-0.004761,0l0,-0.007813c-1.231812,-1.948242 -2.449158,-3.877014 -3.641602,-5.762451c-7.871704,-12.455688 -14.954041,-23.668701 -21.363495,-33.809906c-11.146301,-17.636597 -20.511536,-32.450134 -28.485229,-45.069153c-6.875183,-10.878113 -12.861481,-20.353333 -18.124268,-28.676392c-4.658936,-7.375427 -8.814392,-13.950317 -12.544281,-19.85144c-6.419891,-10.154602 -11.746124,-18.582764 -16.235626,-25.688416c-7.155212,-11.318176 -12.597626,-19.934204 -16.881653,-26.713013c-3.456635,-5.46759 -6.30603,-9.977966 -8.695801,-13.757629c0,-0.004822 -23.337494,-0.009644 -56.478367,-0.016052l0,-9.684875" id="path22"/>
   <rect id="svg_10" height="9.499999" width="196.999998" y="589.125" x="669.633317" stroke-linecap="null" stroke-linejoin="null" fill="#ff7f00"/>
   <rect id="svg_25" height="597.999996" width="10.666667" y="0.791733" x="861.466624" stroke-linecap="null" stroke-linejoin="null" fill="#ff7f00"/>
   <rect id="svg_27" height="10" width="218.000003" y="600.124998" x="670.133291" stroke-linecap="null" stroke-linejoin="null" fill="#fbbc09"/>
   <rect id="svg_28" height="600.000025" width="9.333333" y="0.791695" x="878.799958" stroke-linecap="null" stroke-linejoin="null" fill="#fbbc09"/>
  </g>
  <rect id="svg_5" height="9.499999" width="165.91666" y="546.625" x="666.299988" stroke-linecap="null" stroke-linejoin="null" fill="#bd0c8d"/>
  <rect id="svg_7" height="1" width="1" y="565.125" x="436.799988" stroke-linecap="null" stroke-linejoin="null" fill="#bd0c8d"/>
  <rect id="svg_8" height="1" width="5" y="648.125" x="442.799988" stroke-linecap="null" stroke-linejoin="null" fill="#bd0c8d"/>
  <rect id="svg_9" height="1" width="0" y="572.125" x="407.799988" stroke-linecap="null" stroke-linejoin="null" fill="#bd0c8d"/>
  <rect id="svg_24" height="580.000026" width="14" y="-1.20837" x="838.133291" stroke-linecap="null" stroke-linejoin="null" fill="#00adef"/>
  <rect id="svg_26" height="547.333318" width="12" y="0.791692" x="820.133293" stroke-linecap="null" stroke-linejoin="null" fill="#bd0c8d"/>
 </g>
</svg>