<svg width="991.2000100000001" height="1400" xmlns="http://www.w3.org/2000/svg">
 <metadata id="metadata8">image/svg+xml</metadata>
 <defs>
  <clipPath id="clipPath34" clipPathUnits="userSpaceOnUse">
   <path id="path36" d="m5.24219,6178.240234l7924.350095,0l0,289.992188l-7924.350095,0l0,-289.992188z"/>
  </clipPath>
 </defs>
 <g>
  <title>Layer 1</title>
  <path id="path20" fill-rule="nonzero" fill="#fff200" transform="rotate(-179.81997680664062 511.0869750976563,387.94058227539057) "/>
  <rect fill="#f68712" stroke-linejoin="null" stroke-linecap="null" x="194.000002" y="712.925004" width="0.4" height="0.4" id="svg_30"/>
  <rect fill="#fbbc09" stroke-linejoin="null" stroke-linecap="null" x="654.800008" y="749.725004" width="0.4" height="0" id="svg_33"/>
  <g id="svg_37">
   <path id="path18" d="m621.783264,1399.18103c0.148499,-72.236694 0.252686,-123.109497 0.252686,-123.109497c-2.116638,-5.218262 -4.64209,-11.428833 -7.700562,-18.967163c-3.80304,-9.361328 -8.634766,-21.258667 -14.979858,-36.887451c-3.982849,-9.809204 -8.705139,-21.43689 -14.392517,-35.445068c-6.986145,-17.202759 -15.770569,-38.841187 -27.153076,-66.868652c-7.057129,-17.367432 -15.332581,-37.750244 -25.181763,-62.008545c-5.659058,-13.938232 -11.914734,-29.344849 -18.861511,-46.44574c-1.211731,-2.985107 -2.456848,-6.049011 -3.717041,-9.153625c0,0 0.141968,-117.181396 0.263916,-216.67926c0.235107,-72.703979 1.431091,-571.820374 1.619385,-638.517914l-27.628998,-130.75143l-30.003052,133.965709c-0.148346,66.514099 -1.802826,851.165878 -1.802826,851.165878l-0.010925,-0.000305c0.003357,0.007202 0.006683,0.01239 0.010834,0.021179l-0.002075,0.939392l0.547852,0.005859c1.668182,2.892029 3.317871,5.759338 4.924896,8.549438c9.866699,17.122986 18.752319,32.53717 26.794281,46.490295c13.989807,24.276611 25.753021,44.680786 35.776215,62.068115c16.176025,28.066406 28.662415,49.730957 38.591064,66.961426c8.088867,14.027222 14.799072,25.676025 20.45813,35.496338c9.022156,15.652222 15.893127,27.569458 21.296875,36.949951c4.364929,7.573242 11.057068,19.048096 11.095764,19.04834c0,0 -0.113403,50.852905 -0.274414,123.064453l10.076721,0.108276" fill-rule="nonzero" fill="#fbbc09"/>
   <path id="path16" d="m632.697632,1400.735474c0.15448,-72.362793 0.261353,-123.324341 0.261353,-123.324341c-1.103333,-5.216553 -2.420471,-11.424805 -4.020325,-18.955322c-1.983948,-9.363525 -4.510132,-21.259277 -7.825317,-36.885498c-2.079712,-9.802246 -4.545959,-21.431152 -7.519409,-35.443237c-3.649536,-17.20874 -8.240295,-38.850586 -14.190552,-66.889404c-3.685242,-17.377197 -8.01416,-37.76709 -13.162842,-62.034546c-2.958557,-13.950684 -6.229736,-29.362915 -9.861023,-46.483948c-0.634338,-2.998108 -1.287903,-6.073608 -1.948975,-9.189453l-0.10083,-0.001038c0,0 0.190491,-117.213318 0.353027,-216.855957c0.206116,-72.917053 2.447815,-569.166351 2.618103,-635.780426l-30.48114,-134.849142l-27.896851,134.222403c-0.148438,66.613968 -1.803223,852.648926 -1.803223,852.648926l-0.194092,-0.001953c0.065186,0.170593 0.128662,0.334229 0.192932,0.503113l-0.000305,0.164795l0.063904,0.000793c1.126099,2.940247 2.24054,5.847107 3.323059,8.680054c6.556885,17.138245 12.466492,32.562927 17.812988,46.523743c9.300232,24.291016 17.120361,44.709351 23.779968,62.106445c10.753052,28.069092 19.049255,49.741943 25.648865,66.973877c5.37146,14.032715 9.830811,25.674316 13.593384,35.496338c5.992126,15.653809 10.553345,27.571777 14.145447,36.949829c2.900513,7.567627 7.34845,19.040039 7.37616,19.040405c0,0 -0.113586,50.939575 -0.274719,123.27478l10.110413,0.108765" fill-rule="nonzero" fill="#f68712"/>
  </g>
 </g>
</svg>