<?xml version="1.0" encoding="UTF-8" standalone="no"?>
<svg
   xmlns:dc="http://purl.org/dc/elements/1.1/"
   xmlns:cc="http://creativecommons.org/ns#"
   xmlns:rdf="http://www.w3.org/1999/02/22-rdf-syntax-ns#"
   xmlns:svg="http://www.w3.org/2000/svg"
   xmlns="http://www.w3.org/2000/svg"
   viewBox="0 0 762.17499 1064.525"
   height="1064.525"
   width="762.17499"
   xml:space="preserve"
   version="1.1"
   id="svg2"><metadata
     id="metadata8"><rdf:RDF><cc:Work
         rdf:about=""><dc:format>image/svg+xml</dc:format><dc:type
           rdf:resource="http://purl.org/dc/dcmitype/StillImage" /></cc:Work></rdf:RDF></metadata><defs
     id="defs6"><clipPath
       id="clipPath124"
       clipPathUnits="userSpaceOnUse"><path
         id="path126"
         d="m 4264.36,4004.93 c -3.96,-82.01 -9.06,-186.15 -15.58,-323.03 -4.2,-85.87 -9.06,-187.68 -15.06,-310.4 -7.18,-150.7 -16.32,-340.27 -28.18,-585.89 -7.42,-152.29 -15.99,-330.95 -26.29,-543.65 -5.84,-122.24 -12.36,-257.29 -19.6,-407.37 -8.16,-167.67 -17.22,-356.27 -27.53,-569.95 -11.77,-244.03 -25.36,-525.531 -41.18,-853.851 C 4084.76,282.313 4078.08,145.48 4071.17,0 L 2155.1,0 c 66.9,146.641 129.84,284.461 188.99,413.93 149.69,327.812 278.05,608.89 389.36,852.62 97.37,213.42 183.54,401.77 259.91,569.27 68.39,149.96 130.08,284.89 185.86,407.05 96.97,212.47 178.54,391 247.98,543.17 112.12,245.47 198.63,434.95 267.43,585.58 56.01,122.66 102.47,224.54 141.7,310.37 62.52,136.79 110.02,240.93 147.42,322.94 30.24,66.14 55.2,120.69 76.05,166.42 0.24,0 0.58,1060.15 0.82,2628.22 l 211.89,0 -0.16,-2629.18 c -2.32,-45.5 -4.85,-99.78 -7.99,-165.46 z" /></clipPath><linearGradient
       id="linearGradient128"
       spreadMethod="pad"
       gradientTransform="matrix(2117.42,0,0,-2117.42,2155.1,3399.79)"
       gradientUnits="userSpaceOnUse"
       y2="0"
       x2="1"
       y1="0"
       x1="0"><stop
         id="stop130"
         offset="0"
         style="stop-opacity:1;stop-color:#fce98f" /><stop
         id="stop132"
         offset="0.5"
         style="stop-opacity:1;stop-color:#fac708" /><stop
         id="stop134"
         offset="1"
         style="stop-opacity:1;stop-color:#f7a40e" /></linearGradient><clipPath
       id="clipPath154"
       clipPathUnits="userSpaceOnUse"><path
         id="path156"
         d="m 0,0 0,8516 6097,0 L 6097,0 0,0 Z" /></clipPath><clipPath
       id="clipPath160"
       clipPathUnits="userSpaceOnUse"><path
         id="path162"
         d="m 4581.95,4004.93 c 33.94,-82.01 77.12,-186.21 133.8,-323.1 35.5,-85.86 77.6,-187.73 128.51,-310.52 62.44,-150.78 140.96,-340.45 242.8,-586.23 63.09,-152.37 137.15,-331.21 225.23,-544.11 50.66,-122.35 106.77,-257.59 168.9,-407.78 69.52,-167.87 147.62,-356.71 236.27,-570.69 101.26,-244.47 218.07,-526.461 354.26,-855.32 8.47,-20.418 17.05,-41.219 25.7,-62.071 L 6097.42,0 4323.59,0 c -0.74,145.301 -1.49,281.941 -2.3,410.313 -1.82,328.417 -3.38,609.997 -4.79,854.087 -1.15,213.74 -2.22,402.33 -3.12,570.01 -0.83,150.08 -1.58,285.18 -2.23,407.48 -1.23,212.65 -2.22,391.37 -3.04,543.65 -1.41,245.66 -2.48,435.26 -3.3,585.96 -0.74,122.66 -1.32,224.53 -1.73,310.4 -0.74,136.82 -1.33,241.02 -1.73,323.03 -0.42,66.17 -0.75,120.69 -0.91,166.45 0,0 0,0 0.08,0 l 0,3391.44 211.9,0 c 0.15,-1568.08 0.41,-3391.41 0.49,-3391.41 19.03,-45.79 41.61,-100.31 69.04,-166.48 z" /></clipPath><linearGradient
       id="linearGradient164"
       spreadMethod="pad"
       gradientTransform="matrix(1796.97,0,0,-1796.97,4300.44,3781.41)"
       gradientUnits="userSpaceOnUse"
       y2="0"
       x2="1"
       y1="0"
       x1="0"><stop
         id="stop166"
         offset="0"
         style="stop-opacity:1;stop-color:#f68341" /><stop
         id="stop168"
         offset="0.5"
         style="stop-opacity:1;stop-color:#f26319" /><stop
         id="stop170"
         offset="1"
         style="stop-opacity:1;stop-color:#d55221" /></linearGradient></defs><g
     transform="matrix(1.25,0,0,-1.25,0,1064.525)"
     id="g10"><g
       transform="scale(0.1,0.1)"
       id="g12"><path
         id="path14"
         style="fill:#100f0d;fill-opacity:1;fill-rule:nonzero;stroke:none"
         d="m 226.422,8291.17 c -23.539,-24.64 -51.715,-37.51 -84.524,-38.6 l 0,47.38 c 16.954,0.85 31.465,9.09 43.54,24.7 5.976,7.68 10.554,16.1 13.726,25.25 l 50.492,-26.17 c -5.855,-11.7 -13.601,-22.56 -23.234,-32.56 z m -40.984,151.85 c -12.075,15.49 -26.586,23.66 -43.54,24.52 l 0,48.11 c 32.809,-1.1 60.985,-13.9 84.524,-38.42 11.953,-12.56 20.976,-26.41 27.078,-41.53 l -51.957,-25.61 c -3.051,12.2 -8.418,23.17 -16.105,32.93 z m -53.051,24.15 c -15.246,-1.83 -28.481,-9.88 -39.7034,-24.15 -12.8047,-16.34 -19.207,-36.1 -19.207,-59.27 0,-23.06 6.4023,-42.75 19.207,-59.1 11.2224,-14.39 24.4574,-22.51 39.7034,-24.33 l 0,-47.57 c -32.324,1.22 -60.0706,14.03 -83.2464,38.42 -24.5156,25.61 -36.7734,56.59 -36.7734,92.94 0,36.35 12.2578,67.39 36.7734,93.12 23.1758,24.27 50.9224,37.02 83.2464,38.24 l 0,-48.3" /><path
         id="path16"
         style="fill:#100f0d;fill-opacity:1;fill-rule:nonzero;stroke:none"
         d="m 449.223,8370.57 c 4.632,-4.75 9.09,-11.65 13.355,-20.67 1.824,-1.95 3.414,-9.76 4.758,-23.42 l 1.828,-9.33 5.488,-28.91 c 1.223,-3.04 2.805,-8.9 4.758,-17.56 2.07,-3.18 5.789,-8.97 11.16,-17.38 l -62.386,-0.37 c -2.075,0 -5.797,7.44 -11.164,22.32 -1.098,1.83 -4.207,19.21 -9.329,52.15 -2.199,7.8 -7.199,14.02 -15,18.66 -7.32,2.56 -25.25,3.84 -53.789,3.84 l 0,47.56 47.754,0 c 18.657,6.59 27.989,18.91 27.989,36.96 l 0,4.58 c -4.153,19.63 -15.372,29.82 -33.665,30.55 l -42.078,0 0,46.65 42.078,0 c 35.247,0 60.797,-9.57 76.657,-28.72 11.218,-16.35 16.836,-33.48 16.836,-51.41 l 0,-3.48 c 0,-20.48 -5.918,-38.48 -17.75,-53.97 -2.196,-2.93 -4.696,-5.61 -7.5,-8.05 z m -119.832,-118 -59.645,0 0,262.9 59.645,0 0,-262.9" /><path
         id="path18"
         style="fill:#100f0d;fill-opacity:1;fill-rule:nonzero;stroke:none"
         d="m 699.285,8301.23 0,-48.3 -122.941,0 0,48.3 122.941,0 z m -10.242,114.35 0,-48.3 -112.883,0 0,48.3 112.883,0 z m 9.695,99.34 0,-48.3 -122.941,0 0,48.3 122.941,0 z m -133.187,-262.35 -59.645,0 0,262.9 59.645,0 0,-262.9" /><path
         id="path20"
         style="fill:#100f0d;fill-opacity:1;fill-rule:nonzero;stroke:none"
         d="m 861.719,8514.92 92.758,-262.35 -67.692,0 -17.562,55.8 -72.629,0 14.086,48.48 44.636,0 0,0.92 -27.074,96.59 -0.918,0 -56.715,-201.79 -53.054,0 0,38.06 76.289,224.29 67.875,0" /><path
         id="path22"
         style="fill:#100f0d;fill-opacity:1;fill-rule:nonzero;stroke:none"
         d="m 1095.68,8253.11 -59.64,0 0,203.27 59.64,0 0,-203.27 z m 66.41,261.27 0,-48.31 -195.387,0 0,48.31 195.387,0" /><path
         id="path24"
         style="fill:#100f0d;fill-opacity:1;fill-rule:nonzero;stroke:none"
         d="m 1375.57,8301.23 0,-48.3 -122.95,0 0,48.3 122.95,0 z m -10.25,114.35 0,-48.3 -112.88,0 0,48.3 112.88,0 z m 9.7,99.34 0,-48.3 -122.94,0 0,48.3 122.94,0 z m -133.19,-262.35 -59.64,0 0,262.9 59.64,0 0,-262.9" /><path
         id="path26"
         style="fill:#100f0d;fill-opacity:1;fill-rule:nonzero;stroke:none"
         d="m 1538.73,8435.89 c -4.15,20.49 -15.37,30.91 -33.66,31.28 l -42.08,0.55 0,48.48 42.08,0 c 35.24,0 60.79,-9.94 76.65,-29.82 11.22,-17.08 16.84,-34.89 16.84,-53.42 l 0,-96.96 c 0,-18.54 -5.62,-36.35 -16.84,-53.43 -15.86,-19.88 -41.41,-29.82 -76.65,-29.82 l -42.08,0 0,48.48 42.08,0.55 c 18.29,0.37 29.51,10.8 33.66,31.29 l 0,102.82 z m -85.25,-183.32 -59.65,0 0,262.9 59.65,0 0,-262.9" /><path
         id="path28"
         style="fill:#100f0d;fill-opacity:1;fill-rule:nonzero;stroke:none"
         d="m 1782.38,8515.47 0.73,0 c 42.2,0 68.85,-15 79.95,-45.01 2.56,-5.97 3.84,-12.87 3.84,-20.67 l 0,-4.57 c 0.12,-6.71 -1.47,-12.38 -4.76,-17.02 -3.9,-11.46 -10.36,-20.79 -19.39,-27.99 l -8.41,-4.76 -4.39,-1.46 c 4.75,-2.56 8.65,-4.57 11.71,-6.04 18.53,-11.1 29.08,-27.62 31.65,-49.57 0.6,-2.45 0.91,-5.31 0.91,-8.61 -0.98,-15.61 -2.5,-24.63 -4.57,-27.07 -1.22,-6.59 -5.55,-14.4 -12.99,-23.42 -8.78,-12.44 -24.64,-21.23 -47.57,-26.35 l -15.74,-0.91 -0.91,0 c -1.22,0 -4.57,0.07 -10.06,0.18 l -54.89,-0.18 0,47.93 61.29,0 c 15.74,5.12 23.78,14.76 24.15,28.91 l 0,7.68 c 0.98,9.51 -3.35,17.32 -12.99,23.42 -1.95,3.05 -7.81,5 -17.56,5.86 l -54.7,0.36 0.18,49.21 54.52,0 c 2.2,0.49 5.24,0.74 9.15,0.74 11.09,4.75 16.64,13.48 16.64,26.16 l -0.91,6.59 -1.83,4.57 -0.91,0 c -4.89,7.07 -12.26,11.1 -22.14,12.08 l -55.25,-0.37 0.36,50.49 54.89,-0.18" /><path
         id="path30"
         style="fill:#100f0d;fill-opacity:1;fill-rule:nonzero;stroke:none"
         d="m 1965.86,8379.9 79.03,135.21 65.69,0 -84.9,-145.27 0,-116.73 -59.64,0 -0.18,126.79 z m -74.28,135.21 65.68,0 38.78,-66.41 -33.11,-55.63 -71.35,122.04" /><path
         id="path32"
         style="fill:#7fcc2b;fill-opacity:1;fill-rule:nonzero;stroke:none"
         d="m 2365.2,8353.19 58.72,161.19 56.72,0 -95.5,-261.99 -19.94,0 0,100.8 z m -11.17,-100.62 -19.21,0 -95.68,262.35 56.71,0 58.18,-159.53 0,-102.82" /><path
         id="path34"
         style="fill:#7fcc2b;fill-opacity:1;fill-rule:nonzero;stroke:none"
         d="m 2685.87,8301.23 0,-48.3 -122.94,0 0,48.3 122.94,0 z m -10.24,114.35 0,-48.3 -112.88,0 0,48.3 112.88,0 z m 9.7,99.34 0,-48.3 -122.95,0 0,48.3 122.95,0 z m -133.19,-262.35 -59.64,0 0,262.9 59.64,0 0,-262.9" /><path
         id="path36"
         style="fill:#7fcc2b;fill-opacity:1;fill-rule:nonzero;stroke:none"
         d="m 2918.2,8291.17 c -23.54,-24.64 -51.72,-37.51 -84.52,-38.6 l 0,47.38 c 16.95,0.85 31.46,9.09 43.54,24.7 5.97,7.68 10.55,16.1 13.72,25.25 l 50.5,-26.17 c -5.86,-11.7 -13.61,-22.56 -23.24,-32.56 z m -40.98,151.85 c -12.08,15.49 -26.59,23.66 -43.54,24.52 l 0,48.11 c 32.8,-1.1 60.98,-13.9 84.52,-38.42 11.95,-12.56 20.97,-26.41 27.08,-41.53 l -51.96,-25.61 c -3.05,12.2 -8.42,23.17 -16.1,32.93 z m -53.05,24.15 c -15.25,-1.83 -28.49,-9.88 -39.71,-24.15 -12.8,-16.34 -19.21,-36.1 -19.21,-59.27 0,-23.06 6.41,-42.75 19.21,-59.1 11.22,-14.39 24.46,-22.51 39.71,-24.33 l 0,-47.57 c -32.33,1.22 -60.08,14.03 -83.25,38.42 -24.52,25.61 -36.77,56.59 -36.77,92.94 0,36.35 12.25,67.39 36.77,93.12 23.17,24.27 50.92,37.02 83.25,38.24 l 0,-48.3" /><path
         id="path38"
         style="fill:#7fcc2b;fill-opacity:1;fill-rule:nonzero;stroke:none"
         d="m 3089.96,8253.11 -59.64,0 0,203.27 59.64,0 0,-203.27 z m 66.41,261.27 0,-48.31 -195.39,0 0,48.31 195.39,0" /><path
         id="path40"
         style="fill:#7fcc2b;fill-opacity:1;fill-rule:nonzero;stroke:none"
         d="m 3305.99,8299.95 c 16.95,0.85 31.47,9.09 43.55,24.7 12.8,16.35 19.21,36.04 19.21,59.1 0,23.17 -6.41,42.93 -19.21,59.27 -12.08,15.49 -26.6,23.66 -43.55,24.52 l 0,48.11 c 32.8,-1.1 60.99,-13.9 84.52,-38.42 24.51,-25.73 36.78,-56.77 36.78,-93.12 0,-36.35 -12.27,-67.33 -36.78,-92.94 -23.53,-24.64 -51.72,-37.51 -84.52,-38.6 l 0,47.38 z m -9.51,167.22 c -15.24,-1.83 -28.49,-9.88 -39.7,-24.15 -12.81,-16.34 -19.22,-36.1 -19.22,-59.27 0,-23.06 6.41,-42.75 19.22,-59.1 11.21,-14.39 24.46,-22.51 39.7,-24.33 l 0,-47.57 c -32.32,1.22 -60.07,14.03 -83.25,38.42 -24.51,25.61 -36.77,56.59 -36.77,92.94 0,36.35 12.26,67.39 36.77,93.12 23.18,24.27 50.93,37.02 83.25,38.24 l 0,-48.3" /><path
         id="path42"
         style="fill:#7fcc2b;fill-opacity:1;fill-rule:nonzero;stroke:none"
         d="m 3624.48,8370.57 c 4.63,-4.75 9.08,-11.65 13.35,-20.67 1.82,-1.95 3.41,-9.76 4.75,-23.42 l 1.84,-9.33 5.49,-28.91 c 1.21,-3.04 2.79,-8.9 4.74,-17.56 2.07,-3.18 5.8,-8.97 11.18,-17.38 l -62.4,-0.37 c -2.08,0 -5.79,7.44 -11.16,22.32 -1.09,1.83 -4.21,19.21 -9.34,52.15 -2.18,7.8 -7.18,14.02 -15,18.66 -7.31,2.56 -25.24,3.84 -53.78,3.84 l 0,47.56 47.75,0 c 18.66,6.59 27.99,18.91 27.99,36.96 l 0,4.58 c -4.14,19.63 -15.37,29.82 -33.65,30.55 l -42.09,0 0,46.65 42.09,0 c 35.23,0 60.79,-9.57 76.65,-28.72 11.22,-16.35 16.83,-33.48 16.83,-51.41 l 0,-3.48 c 0,-20.48 -5.92,-38.48 -17.74,-53.97 -2.21,-2.93 -4.71,-5.61 -7.5,-8.05 z m -119.85,-118 -59.63,0 0,262.9 59.63,0 0,-262.9" /><path
         id="path44"
         style="fill:#7fcc2b;fill-opacity:1;fill-rule:nonzero;stroke:none"
         d="m 3792.39,8516.2 c 35.25,0 60.8,-9.94 76.66,-29.82 11.22,-17.08 16.83,-34.89 16.83,-53.42 l 0,-3.66 c 0,-21.35 -5.91,-40.07 -17.75,-56.17 -15.86,-21.47 -47.32,-31.41 -94.39,-29.81 l -23.42,0 0,49.39 47.75,0 c 18.65,6.83 27.99,19.63 27.99,38.42 l 0,4.76 c -4.16,20.49 -15.37,31.1 -33.67,31.83 l -42.07,0 0,48.48 42.07,0 z m -51.58,-263.63 -59.65,0 0,262.9 59.65,0 0,-262.9" /><path
         id="path46"
         style="fill:#7fcc2b;fill-opacity:1;fill-rule:nonzero;stroke:none"
         d="m 4034.59,8299.95 c 16.96,0.85 31.47,9.09 43.54,24.7 12.81,16.35 19.22,36.04 19.22,59.1 0,23.17 -6.41,42.93 -19.22,59.27 -12.07,15.49 -26.58,23.66 -43.54,24.52 l 0,48.11 c 32.82,-1.1 60.98,-13.9 84.53,-38.42 24.52,-25.73 36.77,-56.77 36.77,-93.12 0,-36.35 -12.25,-67.33 -36.77,-92.94 -23.55,-24.64 -51.71,-37.51 -84.53,-38.6 l 0,47.38 z m -9.51,167.22 c -15.25,-1.83 -28.47,-9.88 -39.7,-24.15 -12.81,-16.34 -19.2,-36.1 -19.2,-59.27 0,-23.06 6.39,-42.75 19.2,-59.1 11.23,-14.39 24.45,-22.51 39.7,-24.33 l 0,-47.57 c -32.32,1.22 -60.08,14.03 -83.24,38.42 -24.52,25.61 -36.78,56.59 -36.78,92.94 0,36.35 12.26,67.39 36.78,93.12 23.16,24.27 50.92,37.02 83.24,38.24 l 0,-48.3" /><path
         id="path48"
         style="fill:#7fcc2b;fill-opacity:1;fill-rule:nonzero;stroke:none"
         d="m 4353.07,8370.57 c 4.64,-4.75 9.09,-11.65 13.36,-20.67 1.83,-1.95 3.42,-9.76 4.76,-23.42 l 1.82,-9.33 5.49,-28.91 c 1.23,-3.04 2.81,-8.9 4.77,-17.56 2.07,-3.18 5.78,-8.97 11.15,-17.38 l -62.38,-0.37 c -2.07,0 -5.8,7.44 -11.17,22.32 -1.1,1.83 -4.2,19.21 -9.32,52.15 -2.21,7.8 -7.21,14.02 -15,18.66 -7.33,2.56 -25.26,3.84 -53.79,3.84 l 0,47.56 47.75,0 c 18.66,6.59 27.99,18.91 27.99,36.96 l 0,4.58 c -4.16,19.63 -15.37,29.82 -33.67,30.55 l -42.07,0 0,46.65 42.07,0 c 35.25,0 60.8,-9.57 76.66,-28.72 11.22,-16.35 16.84,-33.48 16.84,-51.41 l 0,-3.48 c 0,-20.48 -5.92,-38.48 -17.76,-53.97 -2.19,-2.93 -4.69,-5.61 -7.5,-8.05 z m -119.82,-118 -59.65,0 0,262.9 59.65,0 0,-262.9" /><path
         id="path50"
         style="fill:#7fcc2b;fill-opacity:1;fill-rule:nonzero;stroke:none"
         d="m 4538.19,8253.11 -59.64,0 0,203.27 59.64,0 0,-203.27 z m 66.41,261.27 0,-48.31 -195.39,0 0,48.31 195.39,0" /><path
         id="path52"
         style="fill:#7fcc2b;fill-opacity:1;fill-rule:nonzero;stroke:none"
         d="m 4768.85,8514.92 92.77,-262.35 -67.69,0 -17.57,55.8 -72.62,0 14.08,48.48 44.64,0 0,0.92 -27.08,96.59 -0.92,0 -56.71,-201.79 -53.06,0 0,38.06 76.29,224.29 67.87,0" /><path
         id="path54"
         style="fill:#7fcc2b;fill-opacity:1;fill-rule:nonzero;stroke:none"
         d="m 5069.42,8301.05 0,-48.3 -122.95,0 0,48.3 122.95,0 z m -135.39,-48.48 -59.64,0 0,262.9 59.64,0 0,-262.9" /><path
         id="path56"
         style="fill:#7fcc2b;fill-opacity:1;fill-rule:nonzero;stroke:none"
         d="m 5089.33,8252.57 59.6367,0 0,48.3008 -59.6367,0 0,-48.3008 z" /><path
         id="path58"
         style="fill:#7fcc2b;fill-opacity:1;fill-rule:nonzero;stroke:none"
         d="m 5381.5,8291.17 c -23.55,-24.64 -51.71,-37.51 -84.52,-38.6 l 0,47.38 c 16.95,0.85 31.46,9.09 43.53,24.7 5.98,7.68 10.56,16.1 13.73,25.25 l 50.49,-26.17 c -5.86,-11.7 -13.59,-22.56 -23.23,-32.56 z m -40.99,151.85 c -12.07,15.49 -26.58,23.66 -43.53,24.52 l 0,48.11 c 32.81,-1.1 60.97,-13.9 84.52,-38.42 11.95,-12.56 20.98,-26.41 27.08,-41.53 l -51.95,-25.61 c -3.06,12.2 -8.42,23.17 -16.12,32.93 z m -53.04,24.15 c -15.26,-1.83 -28.48,-9.88 -39.71,-24.15 -12.8,-16.34 -19.2,-36.1 -19.2,-59.27 0,-23.06 6.4,-42.75 19.2,-59.1 11.23,-14.39 24.45,-22.51 39.71,-24.33 l 0,-47.57 c -32.33,1.22 -60.08,14.03 -83.25,38.42 -24.52,25.61 -36.77,56.59 -36.77,92.94 0,36.35 12.25,67.39 36.77,93.12 23.17,24.27 50.92,37.02 83.25,38.24 l 0,-48.3" /><path
         id="path60"
         style="fill:#7fcc2b;fill-opacity:1;fill-rule:nonzero;stroke:none"
         d="m 5554.35,8299.95 c 16.95,0.85 31.47,9.09 43.55,24.7 12.8,16.35 19.2,36.04 19.2,59.1 0,23.17 -6.4,42.93 -19.2,59.27 -12.08,15.49 -26.6,23.66 -43.55,24.52 l 0,48.11 c 32.8,-1.1 60.99,-13.9 84.52,-38.42 24.51,-25.73 36.78,-56.77 36.78,-93.12 0,-36.35 -12.27,-67.33 -36.78,-92.94 -23.53,-24.64 -51.72,-37.51 -84.52,-38.6 l 0,47.38 z m -9.51,167.22 c -15.25,-1.83 -28.49,-9.88 -39.7,-24.15 -12.81,-16.34 -19.22,-36.1 -19.22,-59.27 0,-23.06 6.41,-42.75 19.22,-59.1 11.21,-14.39 24.45,-22.51 39.7,-24.33 l 0,-47.57 c -32.33,1.22 -60.07,14.03 -83.25,38.42 -24.51,25.61 -36.77,56.59 -36.77,92.94 0,36.35 12.26,67.39 36.77,93.12 23.18,24.27 50.92,37.02 83.25,38.24 l 0,-48.3" /><path
         id="path62"
         style="fill:#7fcc2b;fill-opacity:1;fill-rule:nonzero;stroke:none"
         d="m 5937.41,8399.66 59.65,99.53 0,-246.62 -59.65,0 0,147.09 z m -84.15,-33.48 88.54,148.74 56.72,0 -145.26,-244.06 0,95.32 z m -13.91,-95.5 -145.26,244.06 56.72,0 88.54,-148.74 0,-95.32 z m -86.36,-18.11 -59.64,0 0,246.62 59.64,-99.53 0,-147.09" /><path
         id="path64"
         style="fill:#888c8f;fill-opacity:1;fill-rule:nonzero;stroke:none"
         d="m 103.691,8049.69 c 10.418,0.52 19.34,5.58 26.762,15.18 7.871,10.04 11.813,22.15 11.813,36.32 0,14.25 -3.942,26.39 -11.813,36.44 -7.422,9.52 -16.344,14.54 -26.762,15.07 l 0,29.57 c 20.164,-0.67 37.485,-8.54 51.957,-23.61 15.071,-15.82 22.606,-34.9 22.606,-57.25 0,-22.34 -7.535,-41.38 -22.606,-57.12 -14.472,-15.15 -31.793,-23.06 -51.957,-23.73 l 0,29.13 z m -5.8433,102.78 c -9.375,-1.12 -17.5118,-6.08 -24.4063,-14.84 -7.8711,-10.05 -11.8047,-22.19 -11.8047,-36.44 0,-14.17 3.9336,-26.28 11.8047,-36.32 6.8945,-8.85 15.0313,-13.83 24.4063,-14.96 l 0,-29.24 c -19.875,0.76 -36.9258,8.63 -51.1719,23.62 -15.0703,15.74 -22.6016,34.78 -22.6016,57.12 0,22.35 7.5313,41.43 22.6016,57.25 14.2461,14.91 31.2969,22.75 51.1719,23.5 l 0,-29.69" /><path
         id="path66"
         style="fill:#888c8f;fill-opacity:1;fill-rule:nonzero;stroke:none"
         d="m 366.898,8093.09 c 2.852,-2.92 5.586,-7.15 8.215,-12.7 1.121,-1.2 2.098,-6 2.922,-14.39 l 1.125,-5.74 3.375,-17.77 c 0.75,-1.88 1.723,-5.47 2.926,-10.79 1.273,-1.95 3.559,-5.52 6.859,-10.69 l -38.351,-0.22 c -1.274,0 -3.563,4.57 -6.86,13.72 -0.671,1.12 -2.582,11.8 -5.738,32.04 -1.348,4.81 -4.422,8.63 -9.219,11.48 -4.5,1.57 -15.515,2.36 -33.058,2.36 l 0,29.24 29.347,0 c 11.469,4.05 17.207,11.62 17.207,22.71 l 0,2.82 c -2.546,12.07 -9.449,18.32 -20.691,18.77 l -25.863,0 0,28.68 25.863,0 c 21.664,0 37.371,-5.88 47.117,-17.65 6.895,-10.05 10.348,-20.58 10.348,-31.6 l 0,-2.14 c 0,-12.6 -3.637,-23.65 -10.906,-33.17 -1.356,-1.8 -2.887,-3.46 -4.618,-4.96 z m -73.656,-72.53 -36.66,0 0,161.6 36.66,0 0,-161.6" /><path
         id="path68"
         style="fill:#888c8f;fill-opacity:1;fill-rule:nonzero;stroke:none"
         d="m 469.184,8020.56 36.6602,0 0,161.605 -36.6602,0 0,-161.605 z" /><path
         id="path70"
         style="fill:#888c8f;fill-opacity:1;fill-rule:nonzero;stroke:none"
         d="m 690.641,8137.63 c -7.422,9.52 -16.344,14.54 -26.762,15.07 l 0,29.57 c 20.164,-0.67 37.484,-8.54 51.957,-23.61 7.344,-7.72 12.891,-16.23 16.641,-25.53 l -31.934,-15.74 c -1.875,7.49 -5.176,14.24 -9.902,20.24 z m 47.797,-38.12 c -0.454,-21.52 -7.985,-39.93 -22.602,-55.22 -14.473,-15.15 -31.793,-23.06 -51.957,-23.73 l 0,29.13 c 10.418,0.52 19.34,5.58 26.762,15.18 1.277,1.58 2.441,3.22 3.484,4.94 l -30.473,0 0,29.7 74.786,0 z m -80.407,52.96 c -9.375,-1.12 -17.508,-6.08 -24.402,-14.84 -7.871,-10.05 -11.809,-22.19 -11.809,-36.44 0,-14.17 3.938,-26.28 11.809,-36.32 6.894,-8.85 15.027,-13.83 24.402,-14.96 l 0,-29.24 c -19.871,0.76 -36.922,8.63 -51.172,23.62 -15.066,15.74 -22.601,34.78 -22.601,57.12 0,22.35 7.535,41.43 22.601,57.25 14.25,14.91 31.301,22.75 51.172,23.5 l 0,-29.69" /><path
         id="path72"
         style="fill:#888c8f;fill-opacity:1;fill-rule:nonzero;stroke:none"
         d="m 817.105,8020.56 36.6602,0 0,161.605 -36.6602,0 0,-161.605 z" /><path
         id="path74"
         style="fill:#888c8f;fill-opacity:1;fill-rule:nonzero;stroke:none"
         d="m 1026.98,8181.82 36.66,0 0,-151.59 -36.66,61.18 0,90.41 z m 1.46,-161.15 -95.811,161.04 34.859,0 95.922,-161.15 -34.97,0.11 z m -59.6,-0.11 -36.66,0 0,151.59 36.66,-61.17 0,-90.42" /><path
         id="path76"
         style="fill:#888c8f;fill-opacity:1;fill-rule:nonzero;stroke:none"
         d="m 1231.7,8181.82 57.03,-161.26 -41.62,0 -10.79,34.3 -44.65,0 8.66,29.8 27.44,0 0,0.56 -16.64,59.38 -0.56,0 -34.87,-124.04 -32.61,0 0,23.39 46.9,137.87 41.71,0" /><path
         id="path78"
         style="fill:#888c8f;fill-opacity:1;fill-rule:nonzero;stroke:none"
         d="m 1483.89,8050.36 0,-29.69 -75.56,0 0,29.69 75.56,0 z m -83.22,-29.8 -36.66,0 0,161.6 36.66,0 0,-161.6" /><path
         id="path80"
         style="fill:#7fcc2b;fill-opacity:1;fill-rule:nonzero;stroke:none"
         d="m 1810.89,8120.76 0,-29.69 -69.38,0 0,29.69 69.38,0 z m 5.97,61.06 0,-29.68 -75.58,0 0,29.68 75.58,0 z m -81.87,-161.26 -36.66,0 0,161.6 36.66,0 0,-161.6" /><path
         id="path82"
         style="fill:#7fcc2b;fill-opacity:1;fill-rule:nonzero;stroke:none"
         d="m 2005.49,8093.09 c 2.85,-2.92 5.59,-7.15 8.22,-12.7 1.12,-1.2 2.1,-6 2.92,-14.39 l 1.12,-5.74 3.38,-17.77 c 0.75,-1.88 1.72,-5.47 2.92,-10.79 1.28,-1.95 3.56,-5.52 6.86,-10.69 l -38.35,-0.22 c -1.27,0 -3.56,4.57 -6.86,13.72 -0.67,1.12 -2.58,11.8 -5.73,32.04 -1.35,4.81 -4.43,8.63 -9.22,11.48 -4.5,1.57 -15.52,2.36 -33.06,2.36 l 0,29.24 29.35,0 c 11.47,4.05 17.2,11.62 17.2,22.71 l 0,2.82 c -2.55,12.07 -9.45,18.32 -20.69,18.77 l -25.86,0 0,28.68 25.86,0 c 21.66,0 37.37,-5.88 47.12,-17.65 6.89,-10.05 10.35,-20.58 10.35,-31.6 l 0,-2.14 c 0,-12.6 -3.64,-23.65 -10.91,-33.17 -1.36,-1.8 -2.89,-3.46 -4.62,-4.96 z m -73.65,-72.53 -36.66,0 0,161.6 36.66,0 0,-161.6" /><path
         id="path84"
         style="fill:#7fcc2b;fill-opacity:1;fill-rule:nonzero;stroke:none"
         d="m 2226.65,8050.48 0,-29.69 -75.58,0 0,29.69 75.58,0 z m -6.3,70.28 0,-29.69 -69.39,0 0,29.69 69.39,0 z m 5.96,61.06 0,-29.68 -75.57,0 0,29.68 75.57,0 z m -81.87,-161.26 -36.66,0 0,161.6 36.66,0 0,-161.6" /><path
         id="path86"
         style="fill:#7fcc2b;fill-opacity:1;fill-rule:nonzero;stroke:none"
         d="m 2424.17,8050.48 0,-29.69 -75.57,0 0,29.69 75.57,0 z m -6.29,70.28 0,-29.69 -69.39,0 0,29.69 69.39,0 z m 5.95,61.06 0,-29.68 -75.57,0 0,29.68 75.57,0 z m -81.87,-161.26 -36.66,0 0,161.6 36.66,0 0,-161.6" /><path
         id="path88"
         style="fill:#7fcc2b;fill-opacity:1;fill-rule:nonzero;stroke:none"
         d="m 2715.52,8082.41 36.11,99.07 34.86,0 -58.71,-161.03 -12.26,0 0,61.96 z m -6.85,-61.85 -11.81,0 -58.82,161.26 34.87,0 35.76,-98.06 0,-63.2" /><path
         id="path90"
         style="fill:#7fcc2b;fill-opacity:1;fill-rule:nonzero;stroke:none"
         d="m 2980.08,8050.48 0,-29.69 -75.57,0 0,29.69 75.57,0 z m -6.3,70.28 0,-29.69 -69.38,0 0,29.69 69.38,0 z m 5.97,61.06 0,-29.68 -75.58,0 0,29.68 75.58,0 z m -81.87,-161.26 -36.66,0 0,161.6 36.66,0 0,-161.6" /><path
         id="path92"
         style="fill:#7fcc2b;fill-opacity:1;fill-rule:nonzero;stroke:none"
         d="m 3190.32,8044.29 c -14.48,-15.15 -31.79,-23.06 -51.96,-23.73 l 0,29.13 c 10.42,0.52 19.35,5.58 26.77,15.18 3.67,4.72 6.49,9.9 8.43,15.52 l 31.04,-16.09 c -3.6,-7.19 -8.35,-13.86 -14.28,-20.01 z m -25.19,93.34 c -7.42,9.52 -16.35,14.54 -26.77,15.07 l 0,29.57 c 20.17,-0.67 37.48,-8.54 51.96,-23.61 7.34,-7.72 12.89,-16.23 16.64,-25.53 l -31.94,-15.74 c -1.87,7.49 -5.17,14.24 -9.89,20.24 z m -32.62,14.84 c -9.36,-1.12 -17.51,-6.08 -24.4,-14.84 -7.87,-10.05 -11.81,-22.19 -11.81,-36.44 0,-14.17 3.94,-26.28 11.81,-36.32 6.89,-8.85 15.04,-13.83 24.4,-14.96 l 0,-29.24 c -19.86,0.76 -36.92,8.63 -51.16,23.62 -15.08,15.74 -22.6,34.78 -22.6,57.12 0,22.35 7.52,41.43 22.6,57.25 14.24,14.91 31.3,22.75 51.16,23.5 l 0,-29.69" /><path
         id="path94"
         style="fill:#7fcc2b;fill-opacity:1;fill-rule:nonzero;stroke:none"
         d="m 3363.33,8020.9 -36.66,0 0,124.94 36.66,0 0,-124.94 z m 40.83,160.58 0,-29.68 -120.11,0 0,29.68 120.11,0" /><path
         id="path96"
         style="fill:#7fcc2b;fill-opacity:1;fill-rule:nonzero;stroke:none"
         d="m 3563.56,8049.69 c 10.42,0.52 19.35,5.58 26.77,15.18 7.87,10.04 11.8,22.15 11.8,36.32 0,14.25 -3.93,26.39 -11.8,36.44 -7.42,9.52 -16.35,14.54 -26.77,15.07 l 0,29.57 c 20.17,-0.67 37.48,-8.54 51.95,-23.61 15.07,-15.82 22.61,-34.9 22.61,-57.25 0,-22.34 -7.54,-41.38 -22.61,-57.12 -14.47,-15.15 -31.78,-23.06 -51.95,-23.73 l 0,29.13 z m -5.85,102.78 c -9.37,-1.12 -17.51,-6.08 -24.4,-14.84 -7.88,-10.05 -11.81,-22.19 -11.81,-36.44 0,-14.17 3.93,-26.28 11.81,-36.32 6.89,-8.85 15.03,-13.83 24.4,-14.96 l 0,-29.24 c -19.86,0.76 -36.92,8.63 -51.16,23.62 -15.08,15.74 -22.61,34.78 -22.61,57.12 0,22.35 7.53,41.43 22.61,57.25 14.24,14.91 31.3,22.75 51.16,23.5 l 0,-29.69" /><path
         id="path98"
         style="fill:#7fcc2b;fill-opacity:1;fill-rule:nonzero;stroke:none"
         d="m 3826.77,8093.09 c 2.84,-2.92 5.59,-7.15 8.22,-12.7 1.11,-1.2 2.09,-6 2.92,-14.39 l 1.12,-5.74 3.38,-17.77 c 0.74,-1.88 1.72,-5.47 2.92,-10.79 1.28,-1.95 3.56,-5.52 6.85,-10.69 l -38.35,-0.22 c -1.27,0 -3.55,4.57 -6.85,13.72 -0.68,1.12 -2.59,11.8 -5.73,32.04 -1.36,4.81 -4.43,8.63 -9.23,11.48 -4.5,1.57 -15.52,2.36 -33.06,2.36 l 0,29.24 29.35,0 c 11.47,4.05 17.2,11.62 17.2,22.71 l 0,2.82 c -2.55,12.07 -9.44,18.32 -20.68,18.77 l -25.87,0 0,28.68 25.87,0 c 21.66,0 37.36,-5.88 47.11,-17.65 6.9,-10.05 10.35,-20.58 10.35,-31.6 l 0,-2.14 c 0,-12.6 -3.63,-23.65 -10.91,-33.17 -1.35,-1.8 -2.89,-3.46 -4.61,-4.96 z m -73.66,-72.53 -36.66,0 0,161.6 36.66,0 0,-161.6" /><path
         id="path100"
         style="fill:#7fcc2b;fill-opacity:1;fill-rule:nonzero;stroke:none"
         d="m 3998.66,8181.82 c 16.12,0 30.33,-4.53 42.61,-13.6 7.21,-6.01 12.46,-17.1 15.76,-33.29 l 0,-1.57 -18.45,-2.26 -15.29,-1 c -1.43,8.84 -3.98,14.65 -7.65,17.43 -3,2.55 -8.62,4.9 -16.87,7.08 l -0.11,27.21 z m -16.08,-92.44 c -32.39,5.85 -48.58,20.88 -48.58,45.1 l 0,2.14 c 0,25.26 16.34,40.15 49.03,44.64 l 10.12,0.22 0.22,-26.87 c -7.35,-0.6 -12.45,-1.5 -15.29,-2.7 -5.93,-2.25 -8.82,-7.35 -8.66,-15.29 0,-7.42 9.41,-12.86 28.22,-16.31 4.73,-0.83 8.6,-1.61 11.59,-2.36 33.36,-5.55 50.04,-21.44 50.04,-47.68 l 0,-2.25 c 0,-26.92 -16.35,-42.78 -49.03,-47.57 l -11.02,-0.34 0,28.45 c 7.8,0.82 13.12,1.88 15.97,3.15 5.93,2.4 8.81,7.84 8.66,16.31 0,7.94 -9.29,14.09 -27.89,18.44 -4.2,1.27 -8.81,2.36 -13.83,3.26 l 0.45,-0.34 z m -12.15,-32.27 c 6.9,-3.98 13.46,-6.34 19.68,-7.09 l 3.26,-0.56 -0.22,-28.9 c -19.57,-0.52 -34.56,3.49 -44.98,12.04 -11.62,7.49 -17.85,20.53 -18.67,39.13 l 33.84,3.26 c 0.61,-7.87 2.97,-13.68 7.09,-17.43 l 0,-0.45" /><path
         id="path102"
         style="fill:#888c8f;fill-opacity:1;fill-rule:nonzero;stroke:none"
         d="m 4274.93,8181.82 c 16.12,0 30.33,-4.53 42.61,-13.6 7.21,-6.01 12.46,-17.1 15.76,-33.29 l 0,-1.57 -18.45,-2.26 -15.29,-1 c -1.43,8.84 -3.98,14.65 -7.65,17.43 -3,2.55 -8.62,4.9 -16.87,7.08 l -0.11,27.21 z m -16.08,-92.44 c -32.39,5.85 -48.58,20.88 -48.58,45.1 l 0,2.14 c 0,25.26 16.34,40.15 49.03,44.64 l 10.12,0.22 0.22,-26.87 c -7.35,-0.6 -12.45,-1.5 -15.29,-2.7 -5.93,-2.25 -8.82,-7.35 -8.66,-15.29 0,-7.42 9.41,-12.86 28.22,-16.31 4.73,-0.83 8.59,-1.61 11.59,-2.36 33.36,-5.55 50.04,-21.44 50.04,-47.68 l 0,-2.25 c 0,-26.92 -16.35,-42.78 -49.03,-47.57 l -11.02,-0.34 0,28.45 c 7.8,0.82 13.12,1.88 15.97,3.15 5.93,2.4 8.81,7.84 8.66,16.31 0,7.94 -9.29,14.09 -27.89,18.44 -4.2,1.27 -8.81,2.36 -13.83,3.26 l 0.45,-0.34 z m -12.15,-32.27 c 6.9,-3.98 13.46,-6.34 19.68,-7.09 l 3.26,-0.56 -0.22,-28.9 c -19.57,-0.52 -34.56,3.49 -44.98,12.04 -11.62,7.49 -17.85,20.53 -18.67,39.13 l 33.84,3.26 c 0.61,-7.87 2.97,-13.68 7.09,-17.43 l 0,-0.45" /><path
         id="path104"
         style="fill:#888c8f;fill-opacity:1;fill-rule:nonzero;stroke:none"
         d="m 4414.2,8020.56 36.6602,0 0,161.605 -36.6602,0 0,-161.605 z" /><path
         id="path106"
         style="fill:#888c8f;fill-opacity:1;fill-rule:nonzero;stroke:none"
         d="m 4624.09,8181.82 36.66,0 0,-151.59 -36.66,61.18 0,90.41 z m 1.46,-161.15 -95.82,161.04 34.86,0 95.93,-161.15 -34.97,0.11 z m -59.61,-0.11 -36.66,0 0,151.59 36.66,-61.17 0,-90.42" /><path
         id="path108"
         style="fill:#888c8f;fill-opacity:1;fill-rule:nonzero;stroke:none"
         d="m 4871.76,8044.29 c -14.47,-15.15 -31.78,-23.06 -51.95,-23.73 l 0,29.13 c 10.42,0.52 19.35,5.58 26.77,15.18 3.67,4.72 6.48,9.9 8.42,15.52 l 31.05,-16.09 c -3.6,-7.19 -8.36,-13.86 -14.29,-20.01 z m -25.18,93.34 c -7.42,9.52 -16.35,14.54 -26.77,15.07 l 0,29.57 c 20.17,-0.67 37.48,-8.54 51.95,-23.61 7.35,-7.72 12.89,-16.23 16.64,-25.53 l -31.93,-15.74 c -1.88,7.49 -5.18,14.24 -9.89,20.24 z m -32.62,14.84 c -9.37,-1.12 -17.51,-6.08 -24.4,-14.84 -7.88,-10.05 -11.81,-22.19 -11.81,-36.44 0,-14.17 3.93,-26.28 11.81,-36.32 6.89,-8.85 15.03,-13.83 24.4,-14.96 l 0,-29.24 c -19.86,0.76 -36.92,8.63 -51.16,23.62 -15.08,15.74 -22.61,34.78 -22.61,57.12 0,22.35 7.53,41.43 22.61,57.25 14.24,14.91 31.3,22.75 51.16,23.5 l 0,-29.69" /><path
         id="path110"
         style="fill:#888c8f;fill-opacity:1;fill-rule:nonzero;stroke:none"
         d="m 5084.71,8050.48 0,-29.69 -75.56,0 0,29.69 75.56,0 z m -6.3,70.28 0,-29.69 -69.38,0 0,29.69 69.38,0 z m 5.97,61.06 0,-29.68 -75.58,0 0,29.68 75.58,0 z m -81.88,-161.26 -36.66,0 0,161.6 36.66,0 0,-161.6" /><path
         id="path112"
         style="fill:#888c8f;fill-opacity:1;fill-rule:nonzero;stroke:none"
         d="m 5423.52,8050.36 0,-29.69 -84.9,0 0,29.69 84.9,0 z m -86.59,97.62 c -3.9,-3.53 -6.15,-8.93 -6.75,-16.2 l -32.05,3.04 c 0.75,17.24 6.64,29.35 17.66,36.32 9.89,7.95 24.1,11.7 42.61,11.25 l 0.24,-26.88 -3.05,-0.56 c -5.92,-0.68 -12.14,-2.89 -18.66,-6.64 l 0,-0.33 z m -38.92,-96.5 0,4.73 c 0,26.24 17.14,43.93 51.4,53.08 3,0.75 6.86,1.54 11.58,2.36 18.37,5.32 27.34,13.87 26.89,25.64 0.14,7.95 -2.75,13.05 -8.67,15.3 -2.85,1.2 -7.95,2.1 -15.29,2.69 l 0.23,26.88 10.11,-0.22 c 32.69,-4.5 49.04,-19.38 49.04,-44.65 l 0,-2.13 c 0,-24.22 -15.75,-42.37 -47.24,-54.44 -4.73,-0.67 -9.18,-1.64 -13.38,-2.92 -20.17,-5.85 -29.91,-13.8 -29.24,-23.84 l 0.12,-33.74 -35.55,0 0,31.26" /><path
         id="path114"
         style="fill:#888c8f;fill-opacity:1;fill-rule:nonzero;stroke:none"
         d="m 5560.55,8181.94 c 19.56,-0.68 33.92,-6.56 43.07,-17.66 l 0.56,0.56 0,-0.56 -0.56,-0.56 c 6.89,-10.5 10.35,-21.45 10.35,-32.84 l 0,-58.14 c 0,-13.12 -4.99,-25.75 -14.96,-37.9 -7.42,-8.24 -20.25,-13.04 -38.46,-14.39 l 0,30.7 c 11.1,3.82 16.64,11.39 16.64,22.72 l 0,58.81 c -2.24,11.02 -7.79,17.21 -16.64,18.56 l 0,30.7 z m -8.1,-30.37 c -8.85,-1.35 -14.4,-7.53 -16.64,-18.55 l 0,-58.82 c 0,-11.32 5.54,-18.89 16.64,-22.72 l 0,-30.69 c -18.22,1.34 -31.04,6.14 -38.46,14.39 -9.97,12.14 -14.96,24.78 -14.96,37.89 l 0,58.15 c 0,11.4 3.46,22.34 10.35,32.83 l -0.57,0.57 0,0.56 0.57,-0.56 c 9.14,11.09 23.5,16.98 43.07,17.65 l 0,-30.7" /><path
         id="path116"
         style="fill:#888c8f;fill-opacity:1;fill-rule:nonzero;stroke:none"
         d="m 5754.69,8181.94 c 19.57,-0.68 33.93,-6.56 43.08,-17.66 l 0.56,0.56 0,-0.56 -0.56,-0.56 c 6.89,-10.5 10.34,-21.45 10.34,-32.84 l 0,-58.14 c 0,-13.12 -4.98,-25.75 -14.95,-37.9 -7.42,-8.24 -20.24,-13.04 -38.47,-14.39 l 0,30.7 c 11.1,3.82 16.65,11.39 16.65,22.72 l 0,58.81 c -2.25,11.02 -7.8,17.21 -16.65,18.56 l 0,30.7 z m -8.08,-30.37 c -8.85,-1.35 -14.41,-7.53 -16.65,-18.55 l 0,-58.82 c 0,-11.32 5.54,-18.89 16.65,-22.72 l 0,-30.69 c -18.23,1.34 -31.05,6.14 -38.47,14.39 -9.97,12.14 -14.95,24.78 -14.95,37.89 l 0,58.15 c 0,11.4 3.44,22.34 10.34,32.83 l -0.57,0.57 0,0.56 0.57,-0.56 c 9.15,11.09 23.51,16.98 43.08,17.65 l 0,-30.7" /><path
         id="path118"
         style="fill:#888c8f;fill-opacity:1;fill-rule:nonzero;stroke:none"
         d="m 5923.21,8147.3 c -1.65,-16.2 6.89,-24.74 25.64,-25.64 6.29,0.07 12.85,-1.02 19.68,-3.26 29.39,-9.75 44.08,-26.73 44.08,-50.94 l 0,-2.14 c 0,-25.27 -16.35,-40.15 -49.03,-44.65 l -10.12,-0.22 -0.22,26.87 c 7.34,0.61 12.44,1.5 15.29,2.7 5.92,2.25 8.81,7.35 8.66,15.3 0.45,11.77 -7.61,20.31 -24.18,25.64 -6.52,0.83 -12.45,1.61 -17.77,2.36 -32.83,2.32 -48.65,20.28 -47.46,53.87 l 35.43,0.11 z m 3.04,-93 c 6.52,-3.75 12.7,-5.96 18.55,-6.64 l 3.15,-0.56 -0.23,-26.88 c -18.52,-0.45 -32.72,3.3 -42.62,11.25 -11.01,6.97 -16.9,19.08 -17.65,36.32 l 32.05,3.04 c 0.59,-7.28 2.85,-12.67 6.75,-16.19 l 0,-0.34 z m -38.8,97.95 0,29.69 125.39,0 0,-29.69 -125.39,0" /><g
         id="g120"><g
           clip-path="url(#clipPath124)"
           id="g122"><path
             id="path136"
             style="fill:url(#linearGradient128);fill-opacity:1;fill-rule:nonzero;stroke:none"
             d="m 4264.36,4004.93 c -3.96,-82.01 -9.06,-186.15 -15.58,-323.03 -4.2,-85.87 -9.06,-187.68 -15.06,-310.4 -7.18,-150.7 -16.32,-340.27 -28.18,-585.89 -7.42,-152.29 -15.99,-330.95 -26.29,-543.65 -5.84,-122.24 -12.36,-257.29 -19.6,-407.37 -8.16,-167.67 -17.22,-356.27 -27.53,-569.95 -11.77,-244.03 -25.36,-525.531 -41.18,-853.851 C 4084.76,282.313 4078.08,145.48 4071.17,0 L 2155.1,0 c 66.9,146.641 129.84,284.461 188.99,413.93 149.69,327.812 278.05,608.89 389.36,852.62 97.37,213.42 183.54,401.77 259.91,569.27 68.39,149.96 130.08,284.89 185.86,407.05 96.97,212.47 178.54,391 247.98,543.17 112.12,245.47 198.63,434.95 267.43,585.58 56.01,122.66 102.47,224.54 141.7,310.37 62.52,136.79 110.02,240.93 147.42,322.94 30.24,66.14 55.2,120.69 76.05,166.42 0.24,0 0.58,1060.15 0.82,2628.22 l 211.89,0 -0.16,-2629.18 c -2.32,-45.5 -4.85,-99.78 -7.99,-165.46" /></g></g><path
         id="path138"
         style="fill:#183b34;fill-opacity:1;fill-rule:nonzero;stroke:none"
         d="m 3946.85,4004.86 c -41.9,-81.94 -95.04,-186.08 -164.81,-322.9 -43.75,-85.8 -95.74,-187.62 -158.35,-310.28 -76.94,-150.69 -173.66,-340.14 -298.98,-585.64 C 3247.03,2633.93 3155.99,2455.4 3047.5,2242.93 2985.13,2120.82 2916.26,1985.89 2839.8,1836 2754.37,1668.51 2658.15,1480.23 2549.31,1266.85 2424.83,1023.13 2281.4,742.039 2114.16,414.359 2048,284.762 1977.56,146.832 1902.68,0 L 0,0 0,13.7422 C 131.234,156.59 254.809,291.082 370.891,417.539 671.43,744.68 929.215,1025.39 1152.89,1268.75 c 195.66,213.13 368.59,401.23 522.32,568.48 137.5,149.77 261.24,284.58 373.37,406.56 195.09,212.35 358.95,390.7 498.59,542.74 225.41,245.32 399.31,434.7 537.64,585.27 112.69,122.61 206.12,224.36 285.06,310.22 125.55,136.76 221.19,240.9 296.5,322.84 60.79,66.18 154.14,166.45 154.64,166.45 l 0,2889.53 211.44,0 -0.91,-2890.02 c -23.23,-45.63 -51.09,-99.97 -84.69,-165.96" /><path
         id="path140"
         style="fill:#41b93c;fill-opacity:1;fill-rule:nonzero;stroke:none"
         d="m 3629.46,4004.86 c -79.67,-81.94 -181.01,-186.08 -313.89,-322.84 -83.46,-85.86 -182.39,-187.64 -301.69,-310.22 -146.39,-150.53 -330.53,-339.95 -569.11,-585.21 -147.89,-151.98 -321.31,-330.39 -527.68,-542.67 -118.63,-121.99 -249.71,-256.8 -395.28,-406.5 C 1359.26,1670.17 1176.21,1482.06 969.086,1269 732.398,1025.64 459.457,745.051 141.449,417.91 95.4023,370.57 48.1875,322.051 0,272.441 L 0,1578.78 c 126.871,91.88 246.246,178.35 358.695,259.86 206.461,149.64 392.403,284.27 560.715,406.13 292.71,212.17 538.79,390.39 748.55,542.25 338.43,245.2 599.68,434.4 807.53,584.97 169.23,122.54 309.52,224.25 427.99,310.08 188.74,136.71 332.5,240.8 445.62,322.79 91.44,66.12 231.33,166.39 232.24,166.39 l 0,2319.24 211.07,0 -1.48,-2319.67 c -44.4,-45.63 -97.38,-100 -161.47,-165.96" /><path
         id="path142"
         style="fill:#7fcc2b;fill-opacity:1;fill-rule:nonzero;stroke:none"
         d="m 3312.2,4004.86 c -117.49,-81.94 -266.85,-186.08 -462.92,-322.79 -123.01,-85.83 -268.91,-187.52 -444.81,-310.08 -215.84,-150.5 -487.21,-339.77 -838.84,-584.92 C 1347.73,2635.22 1092.08,2457 788.004,2244.9 613.188,2123.09 420.078,1988.35 205.629,1838.82 139.391,1792.64 70.8477,1744.87 0,1695.43 l 0,663.54 c 300.535,163.09 561.199,304.59 789.488,428.6 241.302,130.88 451.392,244.95 636.172,345.29 163.62,88.8 309.61,168.11 440.77,239.28 225.73,122.51 413.08,224.2 571.08,310 251.77,136.7 443.56,240.73 594.41,322.72 121.85,66.12 308.61,166.36 309.69,166.36 l 0,1963.78 211.72,0 0,-1964.18 c 0,0 -146.56,-99.97 -241.13,-165.96" /><path
         id="path144"
         style="fill:#6aa9d8;fill-opacity:1;fill-rule:nonzero;stroke:none"
         d="m 5535.31,4004.98 c 143.59,-79.69 325.5,-180.61 562.11,-311.92 l 0,-293.22 c -153.24,109.99 -282.58,202.85 -392.73,281.87 -190.8,137.01 -336.12,241.24 -450.23,323.22 -91.61,65.68 -167.16,119.89 -230.6,165.46 l -0.99,2130.08 211.57,0 c 0.16,-1568.01 0.57,-2128.97 0.74,-2128.97 82.46,-45.75 180.83,-100.34 300.13,-166.52" /><path
         id="path146"
         style="fill:#3171bb;fill-opacity:1;fill-rule:nonzero;stroke:none"
         d="m 5217.38,4004.98 c 109.98,-82.03 249.47,-186.26 432.86,-323.27 115.18,-85.95 251.6,-187.86 416.29,-310.7 9.97,-7.48 20.67,-15.46 30.89,-23.13 l 0,-590.48 c -8.41,9.01 -17.05,18.27 -25.22,27.11 -228.94,245.99 -405.49,435.75 -545.8,586.66 -114.33,122.81 -209.25,224.67 -289.16,310.66 -127.37,136.89 -224.32,241.09 -300.7,323.1 -61.22,65.92 -111.81,120.26 -154.31,165.89 l -1.57,2603.3 211.74,0 c 0.48,-1568.01 1.48,-2602.69 1.96,-2602.69 61.38,-45.68 134.39,-100.27 223.02,-166.45" /><path
         id="path148"
         style="fill:#1a1e46;fill-opacity:1;fill-rule:nonzero;stroke:none"
         d="m 4899.55,4004.93 c 71.92,-82.01 163.28,-186.21 283.32,-323.1 75.3,-85.99 164.61,-187.85 272.36,-310.66 132.23,-150.85 298.56,-340.61 514.17,-586.61 40.44,-46.12 83.2,-94.94 128.02,-146.03 l 0,-1793.319 c -70.2,150.141 -135.2,288.919 -195.09,417.039 -100.18,214.05 -188.58,402.89 -267.18,570.75 -70.18,150.26 -133.54,285.49 -190.88,407.91 -99.53,212.86 -183.22,391.74 -254.57,544.08 -115,245.81 -203.73,435.48 -274.33,586.32 -57.44,122.73 -105.05,224.6 -145.25,310.52 -64.09,136.89 -112.86,241.09 -151.18,323.1 -30.82,65.8 -56.27,120.14 -77.52,165.71 l -0.82,3029.77 211.8,0 c 0.33,-1568.01 0.83,-3028.98 1.25,-3028.98 40.04,-45.75 87.9,-100.33 145.9,-166.5" /><g
         id="g150"><g
           clip-path="url(#clipPath154)"
           id="g152"><g
             clip-path="url(#clipPath160)"
             id="g158"><path
               id="path172"
               style="fill:url(#linearGradient164);fill-opacity:1;fill-rule:nonzero;stroke:none"
               d="m 4323,0 0,113 -1,0 0,180 -1,0 0,170 -1,0 0,180 -1,0 0,179 -1,0 0,179 -1,0 0,176 -1,0 0,180 -1,0 0,182 -1,0 0,181 -1,0 0,183 -1,0 0,181 -1,0 0,184 -1,0 0,175 -1,0 0,179 -1,0 0,183 -1,0 0,175 -1,0 0,176 -1,0 0,180 -1,0 0,173 -1,0 0,188 -1,0 0,183 -1,0 0,181 -1,0 0,3502 213,0 0,-3391 1,0 0,-3 1,0 0,-2 1,0 0,-3 1,0 0,-2 1,0 0,-2 1,0 0,-3 1,0 0,-2 1,0 0,-3 1,0 0,-2 1,0 0,-2 1,0 0,-3 1,0 0,-2 1,0 0,-3 1,0 0,-2 1,0 0,-2 1,0 0,-3 1,0 0,-2 1,0 0,-3 1,0 0,-2 1,0 0,-2 1,0 0,-3 1,0 0,-2 1,0 0,-3 1,0 0,-2 1,0 0,-3 1,0 0,-2 1,0 0,-2 1,0 0,-3 1,0 0,-2 1,0 0,-3 1,0 0,-2 1,0 0,-2 1,0 0,-3 1,0 0,-2 1,0 0,-3 1,0 0,-2 1,0 0,-2 1,0 0,-3 1,0 0,-2 1,0 0,-3 1,0 0,-2 1,0 0,-3 1,0 0,-2 1,0 0,-2 1,0 0,-3 1,0 0,-2 1,0 0,-3 1,0 0,-2 1,0 0,-2 1,0 0,-3 1,0 0,-2 1,0 0,-3 1,0 0,-2 1,0 0,-3 1,0 0,-2 1,0 0,-2 1,0 0,-3 1,0 0,-2 1,0 0,-3 1,0 0,-2 1,0 0,-2 1,0 0,-3 1,0 0,-2 1,0 0,-3 1,0 0,-2 1,0 0,-2 1,0 0,-3 1,0 0,-2 1,0 0,-3 1,0 0,-2 1,0 0,-3 1,0 0,-2 1,0 0,-2 1,0 0,-3 1,0 0,-2 1,0 0,-3 1,0 0,-2 1,0 0,-2 1,0 0,-3 1,0 0,-2 1,0 0,-3 1,0 0,-2 1,0 0,-3 1,0 0,-2 1,0 0,-2 1,0 0,-3 1,0 0,-2 1,0 0,-3 1,0 0,-2 1,0 0,-2 1,0 0,-3 1,0 0,-2 1,0 0,-3 1,0 0,-2 1,0 0,-2 1,0 0,-3 1,0 0,-2 1,0 0,-3 1,0 0,-2 1,0 0,-3 1,0 0,-2 1,0 0,-2 1,0 0,-3 1,0 0,-2 1,0 0,-3 1,0 0,-2 1,0 0,-2 1,0 0,-3 1,0 0,-2 1,0 0,-3 1,0 0,-2 1,0 0,-3 1,0 0,-2 1,0 0,-2 1,0 0,-3 1,0 0,-2 1,0 0,-3 1,0 0,-2 1,0 0,-2 1,0 0,-3 1,0 0,-2 1,0 0,-3 1,0 0,-2 1,0 0,-3 1,0 0,-2 1,0 0,-2 1,0 0,-3 1,0 0,-2 1,0 0,-3 1,0 0,-2 1,0 0,-2 1,0 0,-3 1,0 0,-2 1,0 0,-3 1,0 0,-2 1,0 0,-2 1,0 0,-3 1,0 0,-2 1,0 0,-3 1,0 0,-2 1,0 0,-3 1,0 0,-2 1,0 0,-2 1,0 0,-3 1,0 0,-2 1,0 0,-3 1,0 0,-2 1,0 0,-2 1,0 0,-3 1,0 0,-2 1,0 0,-3 1,0 0,-2 1,0 0,-3 1,0 0,-2 1,0 0,-2 1,0 0,-3 1,0 0,-2 1,0 0,-3 1,0 0,-2 1,0 0,-2 1,0 0,-3 1,0 0,-2 1,0 0,-3 1,0 0,-2 1,0 0,-3 1,0 0,-2 1,0 0,-2 1,0 0,-3 1,0 0,-2 1,0 0,-3 1,0 0,-2 1,0 0,-2 1,0 0,-3 1,0 0,-2 1,0 0,-3 1,0 0,-2 1,0 0,-2 1,0 0,-3 1,0 0,-2 1,0 0,-3 1,0 0,-2 1,0 0,-3 1,0 0,-2 1,0 0,-2 1,0 0,-3 1,0 0,-2 1,0 0,-3 1,0 0,-2 1,0 0,-2 1,0 0,-3 1,0 0,-2 1,0 0,-3 1,0 0,-2 1,0 0,-3 1,0 0,-2 1,0 0,-2 1,0 0,-3 1,0 0,-2 1,0 0,-3 1,0 0,-2 1,0 0,-2 1,0 0,-3 1,0 0,-2 1,0 0,-3 1,0 0,-2 1,0 0,-3 1,0 0,-2 1,0 0,-2 1,0 0,-3 1,0 0,-2 1,0 0,-3 1,0 0,-2 1,0 0,-2 1,0 0,-3 1,0 0,-2 1,0 0,-3 1,0 0,-2 1,0 0,-3 1,0 0,-2 1,0 0,-2 1,0 0,-3 1,0 0,-2 1,0 0,-3 1,0 0,-2 1,0 0,-2 1,0 0,-3 1,0 0,-2 1,0 0,-3 1,0 0,-2 1,0 0,-3 1,0 0,-2 1,0 0,-2 1,0 0,-3 1,0 0,-2 1,0 0,-3 1,0 0,-2 1,0 0,-3 1,0 0,-2 1,0 0,-2 1,0 0,-3 1,0 0,-2 1,0 0,-3 1,0 0,-2 1,0 0,-2 1,0 0,-3 1,0 0,-2 1,0 0,-3 1,0 0,-2 1,0 0,-3 1,0 0,-2 1,0 0,-2 1,0 0,-3 1,0 0,-2 1,0 0,-3 1,0 0,-2 1,0 0,-2 1,0 0,-3 1,0 0,-2 1,0 0,-3 1,0 0,-2 1,0 0,-3 1,0 0,-2 1,0 0,-2 1,0 0,-3 1,0 0,-2 1,0 0,-3 1,0 0,-2 1,0 0,-2 1,0 0,-3 1,0 0,-2 1,0 0,-3 1,0 0,-2 1,0 0,-3 1,0 0,-2 1,0 0,-2 1,0 0,-3 1,0 0,-2 1,0 0,-3 1,0 0,-2 1,0 0,-2 1,0 0,-3 1,0 0,-2 1,0 0,-3 1,0 0,-2 1,0 0,-3 1,0 0,-2 1,0 0,-2 1,0 0,-3 1,0 0,-2 1,0 0,-3 1,0 0,-2 1,0 0,-2 1,0 0,-3 1,0 0,-2 1,0 0,-3 1,0 0,-2 1,0 0,-3 1,0 0,-2 1,0 0,-2 1,0 0,-3 1,0 0,-2 1,0 0,-3 1,0 0,-2 1,0 0,-2 1,0 0,-3 1,0 0,-2 1,0 0,-3 1,0 0,-2 1,0 0,-2 1,0 0,-3 1,0 0,-2 1,0 0,-3 1,0 0,-2 1,0 0,-3 1,0 0,-2 1,0 0,-2 1,0 0,-3 1,0 0,-2 1,0 0,-3 1,0 0,-2 1,0 0,-2 1,0 0,-3 1,0 0,-2 1,0 0,-3 1,0 0,-2 1,0 0,-2 1,0 0,-3 1,0 0,-2 1,0 0,-3 1,0 0,-2 1,0 0,-3 1,0 0,-2 1,0 0,-2 1,0 0,-3 1,0 0,-2 1,0 0,-3 1,0 0,-2 1,0 0,-2 1,0 0,-3 1,0 0,-2 1,0 0,-3 1,0 0,-2 1,0 0,-3 1,0 0,-2 1,0 0,-2 1,0 0,-3 1,0 0,-2 1,0 0,-3 1,0 0,-2 1,0 0,-2 1,0 0,-3 1,0 0,-2 1,0 0,-3 1,0 0,-2 1,0 0,-3 1,0 0,-2 1,0 0,-2 1,0 0,-3 1,0 0,-2 1,0 0,-3 1,0 0,-2 1,0 0,-2 1,0 0,-3 1,0 0,-2 1,0 0,-3 1,0 0,-2 1,0 0,-3 1,0 0,-2 1,0 0,-2 1,0 0,-3 1,0 0,-2 1,0 0,-3 1,0 0,-2 1,0 0,-2 1,0 0,-3 1,0 0,-2 1,0 0,-3 1,0 0,-2 1,0 0,-2 1,0 0,-3 1,0 0,-2 1,0 0,-3 1,0 0,-2 1,0 0,-3 1,0 0,-2 1,0 0,-2 1,0 0,-3 1,0 0,-2 1,0 0,-3 1,0 0,-2 1,0 0,-2 1,0 0,-3 1,0 0,-2 1,0 0,-3 1,0 0,-2 1,0 0,-3 1,0 0,-2 1,0 0,-2 1,0 0,-3 1,0 0,-2 1,0 0,-3 1,0 0,-2 1,0 0,-2 1,0 0,-3 1,0 0,-2 1,0 0,-3 1,0 0,-2 1,0 0,-3 1,0 0,-2 1,0 0,-2 1,0 0,-3 1,0 0,-2 1,0 0,-3 1,0 0,-2 1,0 0,-2 1,0 0,-3 1,0 0,-2 1,0 0,-3 1,0 0,-2 1,0 0,-2 1,0 0,-3 1,0 0,-2 1,0 0,-3 1,0 0,-2 1,0 0,-3 1,0 0,-2 1,0 0,-2 1,0 0,-3 1,0 0,-2 1,0 0,-3 1,0 0,-2 1,0 0,-2 1,0 0,-3 1,0 0,-2 1,0 0,-3 1,0 0,-2 1,0 0,-3 1,0 0,-2 1,0 0,-2 1,0 0,-3 1,0 0,-2 1,0 0,-3 1,0 0,-2 1,0 0,-2 1,0 0,-3 1,0 0,-2 1,0 0,-3 1,0 0,-2 1,0 0,-3 1,0 0,-2 1,0 0,-2 1,0 0,-3 1,0 0,-2 1,0 0,-3 1,0 0,-2 1,0 0,-2 1,0 0,-3 1,0 0,-2 1,0 0,-3 1,0 0,-2 1,0 0,-2 1,0 0,-3 1,0 0,-2 1,0 0,-3 1,0 0,-2 1,0 0,-3 1,0 0,-2 1,0 0,-2 1,0 0,-3 1,0 0,-2 1,0 0,-3 1,0 0,-2 1,0 0,-2 1,0 0,-3 1,0 0,-2 1,0 0,-3 1,0 0,-2 1,0 0,-3 1,0 0,-2 1,0 0,-2 1,0 0,-3 1,0 0,-2 1,0 0,-3 1,0 0,-2 1,0 0,-2 1,0 0,-3 1,0 0,-2 1,0 0,-3 1,0 0,-2 1,0 0,-3 1,0 0,-2 1,0 0,-2 1,0 0,-3 1,0 0,-2 1,0 0,-3 1,0 0,-2 1,0 0,-2 1,0 0,-3 1,0 0,-2 1,0 0,-3 1,0 0,-2 1,0 0,-2 1,0 0,-3 1,0 0,-2 1,0 0,-3 1,0 0,-2 1,0 0,-3 1,0 0,-2 1,0 0,-2 1,0 0,-3 1,0 0,-2 1,0 0,-3 1,0 0,-2 1,0 0,-2 1,0 0,-3 1,0 0,-2 1,0 0,-3 1,0 0,-2 1,0 0,-3 1,0 0,-2 1,0 0,-2 1,0 0,-3 1,0 0,-2 1,0 0,-3 1,0 0,-2 1,0 0,-2 1,0 0,-3 1,0 0,-2 1,0 0,-3 1,0 0,-2 1,0 0,-2 1,0 0,-3 1,0 0,-2 1,0 0,-3 1,0 0,-2 1,0 0,-3 1,0 0,-2 1,0 0,-2 1,0 0,-3 1,0 0,-2 1,0 0,-3 1,0 0,-2 1,0 0,-2 1,0 0,-3 1,0 0,-2 1,0 0,-3 1,0 0,-2 1,0 0,-3 1,0 0,-2 1,0 0,-2 1,0 0,-3 1,0 0,-2 1,0 0,-3 1,0 0,-2 1,0 0,-2 1,0 0,-3 1,0 0,-2 1,0 0,-3 1,0 0,-2 1,0 0,-2 1,0 0,-3 1,0 0,-2 1,0 0,-3 1,0 0,-2 1,0 0,-3 1,0 0,-2 1,0 0,-2 1,0 0,-3 1,0 0,-2 1,0 0,-3 1,0 0,-2 1,0 0,-2 1,0 0,-3 1,0 0,-2 1,0 0,-3 1,0 0,-2 1,0 0,-3 1,0 0,-2 1,0 0,-2 1,0 0,-3 1,0 0,-2 1,0 0,-3 1,0 0,-2 1,0 0,-2 1,0 0,-3 1,0 0,-2 1,0 0,-3 1,0 0,-2 1,0 0,-3 1,0 0,-2 1,0 0,-2 1,0 0,-3 1,0 0,-2 1,0 0,-3 1,0 0,-2 1,0 0,-2 1,0 0,-3 1,0 0,-2 1,0 0,-3 1,0 0,-2 1,0 0,-2 1,0 0,-3 1,0 0,-2 1,0 0,-3 1,0 0,-2 1,0 0,-3 1,0 0,-2 1,0 0,-2 1,0 0,-3 1,0 0,-2 1,0 0,-3 1,0 0,-2 1,0 0,-2 1,0 0,-3 1,0 0,-2 1,0 0,-3 1,0 0,-2 1,0 0,-3 1,0 0,-2 1,0 0,-2 1,0 0,-3 1,0 0,-2 1,0 0,-3 1,0 0,-2 1,0 0,-2 1,0 0,-3 1,0 0,-2 1,0 0,-3 1,0 0,-2 1,0 0,-3 1,0 0,-2 1,0 0,-2 1,0 0,-3 1,0 0,-2 1,0 0,-3 1,0 0,-2 1,0 0,-2 1,0 0,-3 1,0 0,-2 1,0 0,-3 1,0 0,-2 1,0 0,-3 1,0 0,-2 1,0 0,-2 1,0 0,-3 1,0 0,-2 1,0 0,-3 1,0 0,-2 1,0 0,-2 1,0 0,-3 1,0 0,-2 1,0 0,-3 1,0 0,-2 1,0 0,-2 1,0 0,-3 1,0 0,-2 1,0 0,-3 1,0 0,-2 1,0 0,-3 1,0 0,-2 1,0 0,-2 1,0 0,-3 1,0 0,-2 1,0 0,-3 1,0 0,-2 1,0 0,-2 1,0 0,-3 1,0 0,-2 1,0 0,-3 1,0 0,-2 1,0 0,-3 1,0 0,-2 1,0 0,-2 1,0 0,-3 1,0 0,-2 1,0 0,-3 1,0 0,-2 1,0 0,-2 1,0 0,-3 1,0 0,-2 1,0 0,-3 1,0 0,-2 1,0 0,-3 1,0 0,-2 1,0 0,-2 1,0 0,-3 1,0 0,-2 1,0 0,-3 1,0 0,-2 1,0 0,-2 1,0 0,-3 1,0 0,-2 1,0 0,-3 1,0 0,-2 1,0 0,-3 1,0 0,-2 1,0 0,-2 1,0 0,-3 1,0 0,-2 1,0 0,-3 1,0 0,-2 1,0 0,-2 1,0 0,-3 1,0 0,-2 1,0 0,-3 1,0 0,-2 1,0 0,-3 1,0 0,-2 1,0 0,-2 1,0 0,-3 1,0 0,-2 1,0 0,-3 1,0 0,-2 1,0 0,-2 1,0 0,-3 1,0 0,-2 1,0 0,-3 1,0 0,-2 1,0 0,-3 1,0 0,-2 1,0 0,-2 1,0 0,-3 1,0 0,-2 1,0 0,-3 1,0 0,-2 1,0 0,-2 1,0 0,-3 1,0 0,-2 1,0 0,-3 1,0 0,-2 1,0 0,-3 1,0 0,-2 1,0 0,-2 1,0 0,-3 1,0 0,-2 1,0 0,-3 1,0 0,-2 1,0 0,-2 1,0 0,-3 1,0 0,-2 1,0 0,-3 1,0 0,-2 1,0 0,-3 1,0 0,-2 1,0 0,-2 1,0 0,-3 1,0 0,-2 1,0 0,-3 1,0 0,-2 1,0 0,-2 1,0 0,-3 1,0 0,-2 1,0 0,-3 1,0 0,-2 1,0 0,-2 1,0 0,-3 1,0 0,-2 1,0 0,-3 1,0 0,-2 1,0 0,-3 1,0 0,-2 1,0 0,-2 1,0 0,-3 1,0 0,-2 1,0 0,-3 1,0 0,-2 1,0 0,-2 1,0 0,-3 1,0 0,-2 1,0 0,-3 1,0 0,-2 1,0 0,-3 1,0 0,-2 1,0 0,-2 1,0 0,-3 1,0 0,-2 1,0 0,-3 1,0 0,-2 1,0 0,-2 1,0 0,-3 1,0 0,-2 1,0 0,-3 1,0 0,-2 1,0 0,-3 1,0 0,-2 1,0 0,-2 1,0 0,-3 1,0 0,-2 1,0 0,-3 1,0 0,-2 1,0 0,-2 1,0 0,-3 1,0 0,-2 1,0 0,-3 1,0 0,-2 1,0 0,-3 1,0 0,-2 1,0 0,-2 1,0 0,-3 1,0 0,-2 1,0 0,-3 1,0 0,-2 1,0 0,-2 1,0 0,-3 1,0 0,-2 1,0 0,-3 1,0 0,-2 1,0 0,-3 1,0 0,-2 1,0 0,-2 1,0 0,-3 1,0 0,-2 1,0 0,-3 1,0 0,-2 1,0 0,-2 1,0 0,-3 1,0 0,-2 1,0 0,-3 1,0 0,-2 1,0 0,-3 1,0 0,-2 1,0 0,-2 1,0 0,-3 1,0 0,-2 1,0 0,-3 1,0 0,-2 1,0 0,-2 1,0 0,-3 1,0 0,-2 1,0 0,-3 1,0 0,-2 1,0 0,-3 1,0 0,-2 1,0 0,-2 1,0 0,-3 1,0 0,-2 1,0 0,-3 1,0 0,-2 1,0 0,-2 1,0 0,-3 1,0 0,-2 1,0 0,-3 1,0 0,-2 1,0 0,-2 1,0 0,-3 1,0 0,-2 1,0 0,-3 1,0 0,-2 1,0 0,-3 1,0 0,-2 1,0 0,-2 1,0 0,-3 1,0 0,-2 1,0 0,-3 1,0 0,-2 1,0 0,-2 1,0 0,-3 1,0 0,-2 1,0 0,-3 1,0 0,-2 1,0 0,-2 1,0 0,-3 1,0 0,-2 1,0 0,-3 1,0 0,-2 1,0 0,-3 1,0 0,-2 1,0 0,-2 1,0 0,-3 1,0 0,-2 1,0 0,-3 1,0 0,-2 1,0 0,-2 1,0 0,-3 1,0 0,-2 1,0 0,-3 1,0 0,-2 1,0 0,-3 1,0 0,-2 1,0 0,-2 1,0 0,-3 1,0 0,-2 1,0 0,-3 1,0 0,-2 1,0 0,-2 1,0 0,-3 1,0 0,-2 1,0 0,-3 1,0 0,-2 1,0 0,-2 1,0 0,-3 1,0 0,-2 1,0 0,-3 1,0 0,-2 1,0 0,-3 1,0 0,-2 1,0 0,-2 1,0 0,-3 1,0 0,-2 1,0 0,-3 1,0 0,-2 1,0 0,-2 1,0 0,-3 1,0 0,-2 1,0 0,-3 1,0 0,-2 1,0 0,-3 1,0 0,-2 1,0 0,-2 1,0 0,-3 1,0 0,-2 1,0 0,-3 1,0 0,-2 1,0 0,-2 1,0 0,-3 1,0 0,-2 1,0 0,-3 1,0 0,-2 1,0 0,-2 1,0 0,-3 1,0 0,-2 1,0 0,-3 1,0 0,-2 1,0 0,-3 1,0 0,-2 1,0 0,-2 1,0 0,-3 1,0 0,-2 1,0 0,-3 1,0 0,-2 1,0 0,-2 1,0 0,-3 1,0 0,-2 1,0 0,-3 1,0 0,-2 1,0 0,-3 1,0 0,-2 1,0 0,-2 1,0 0,-3 1,0 0,-2 1,0 0,-3 1,0 0,-2 1,0 0,-2 1,0 0,-3 1,0 0,-2 1,0 0,-3 1,0 0,-2 1,0 0,-3 1,0 0,-2 1,0 0,-2 1,0 0,-3 1,0 0,-2 1,0 0,-3 1,0 0,-2 1,0 0,-2 1,0 0,-3 1,0 0,-2 1,0 0,-3 1,0 0,-2 1,0 0,-3 1,0 0,-2 1,0 0,-2 1,0 0,-3 1,0 0,-2 1,0 0,-3 1,0 0,-2 1,0 0,-2 1,0 0,-3 1,0 0,-2 1,0 0,-3 1,0 0,-2 1,0 0,-3 1,0 0,-2 1,0 0,-2 1,0 0,-3 1,0 0,-2 1,0 0,-3 1,0 0,-2 1,0 0,-2 1,0 0,-3 1,0 0,-2 1,0 0,-3 1,0 0,-2 1,0 0,-2 1,0 0,-3 1,0 0,-2 1,0 0,-3 1,0 0,-2 1,0 0,-3 1,0 0,-2 1,0 0,-2 1,0 0,-3 1,0 0,-2 1,0 0,-3 1,0 0,-2 1,0 0,-2 1,0 0,-3 1,0 0,-2 1,0 0,-3 1,0 0,-2 1,0 0,-3 1,0 0,-2 1,0 0,-2 1,0 0,-3 1,0 0,-2 1,0 0,-3 1,0 0,-2 1,0 0,-2 1,0 0,-3 1,0 0,-2 1,0 0,-3 1,0 0,-2 1,0 0,-3 1,0 0,-2 1,0 0,-2 1,0 0,-3 1,0 0,-2 1,0 0,-3 1,0 0,-2 1,0 0,-2 1,0 0,-3 1,0 0,-2 1,0 0,-3 1,0 0,-2 1,0 0,-3 1,0 0,-2 1,0 0,-2 1,0 0,-3 1,0 0,-2 1,0 0,-3 1,0 0,-2 1,0 0,-2 1,0 0,-3 1,0 0,-2 1,0 0,-3 1,0 0,-2 1,0 0,-3 1,0 0,-2 1,0 0,-2 1,0 0,-3 1,0 0,-2 1,0 0,-3 1,0 0,-2 1,0 0,-2 1,0 0,-3 1,0 0,-2 1,0 0,-3 1,0 0,-2 1,0 0,-3 1,0 0,-2 1,0 0,-2 1,0 0,-3 1,0 0,-2 1,0 0,-3 1,0 0,-2 1,0 0,-2 1,0 0,-3 1,0 0,-2 1,0 0,-3 1,0 0,-2 1,0 0,-3 1,0 0,-2 1,0 0,-2 1,0 0,-3 1,0 0,-2 1,0 0,-3 1,0 0,-2 1,0 0,-2 1,0 0,-3 1,0 0,-2 1,0 0,-3 1,0 0,-2 1,0 0,-3 1,0 0,-2 1,0 0,-2 1,0 0,-3 1,0 0,-2 1,0 0,-3 1,0 0,-2 1,0 0,-2 1,0 0,-3 1,0 0,-2 1,0 0,-3 1,0 0,-2 1,0 0,-2 1,0 0,-3 1,0 0,-2 1,0 0,-3 1,0 0,-2 1,0 0,-3 1,0 0,-2 1,0 0,-2 1,0 0,-3 1,0 0,-2 1,0 0,-3 1,0 0,-2 1,0 0,-2 1,0 0,-3 1,0 0,-2 1,0 0,-3 1,0 0,-2 1,0 0,-3 1,0 0,-2 1,0 0,-2 1,0 0,-3 1,0 0,-2 1,0 0,-3 1,0 0,-2 1,0 0,-2 1,0 0,-3 1,0 0,-2 1,0 0,-3 1,0 0,-2 1,0 0,-3 1,0 0,-2 1,0 0,-2 1,0 0,-3 1,0 0,-2 1,0 0,-3 1,0 0,-2 1,0 0,-2 1,0 0,-3 1,0 0,-2 1,0 0,-3 1,0 0,-2 1,0 0,-3 1,0 0,-2 1,0 0,-2 1,0 0,-3 1,0 0,-2 1,0 0,-3 1,0 0,-2 1,0 0,-2 1,0 0,-3 1,0 0,-2 1,0 0,-3 1,0 0,-2 1,0 0,-3 1,0 0,-2 1,0 0,-2 1,0 0,-3 1,0 0,-2 1,0 0,-3 1,0 0,-2 1,0 0,-2 1,0 0,-3 1,0 0,-2 1,0 0,-3 1,0 0,-2 1,0 0,-3 1,0 0,-2 1,0 0,-2 1,0 0,-3 1,0 0,-2 1,0 0,-3 1,0 0,-2 1,0 0,-2 1,0 0,-3 1,0 0,-2 1,0 0,-3 1,0 0,-2 1,0 0,-2 1,0 0,-3 1,0 0,-2 1,0 0,-3 1,0 0,-2 1,0 0,-3 1,0 0,-2 1,0 0,-2 1,0 0,-3 1,0 0,-2 1,0 0,-3 1,0 0,-2 1,0 0,-2 1,0 0,-3 1,0 0,-2 1,0 0,-3 1,0 0,-2 1,0 0,-3 1,0 0,-2 1,0 0,-2 1,0 0,-3 1,0 0,-2 1,0 0,-3 1,0 0,-2 1,0 0,-2 1,0 0,-3 1,0 0,-2 1,0 0,-3 1,0 0,-2 1,0 0,-3 1,0 0,-2 1,0 0,-2 1,0 0,-3 1,0 0,-2 1,0 0,-3 1,0 0,-2 1,0 0,-2 1,0 0,-3 1,0 0,-2 1,0 0,-3 1,0 0,-2 1,0 0,-2 1,0 0,-3 1,0 0,-2 1,0 0,-3 1,0 0,-2 1,0 0,-3 1,0 0,-2 1,0 0,-2 1,0 0,-3 1,0 0,-2 1,0 0,-3 1,0 0,-2 1,0 0,-2 1,0 0,-3 1,0 0,-2 1,0 0,-3 1,0 0,-2 1,0 0,-3 1,0 0,-2 1,0 0,-2 1,0 0,-3 1,0 0,-2 1,0 0,-3 1,0 0,-2 1,0 0,-2 1,0 0,-3 1,0 0,-2 1,0 0,-3 1,0 0,-2 1,0 0,-2 1,0 0,-3 1,0 0,-2 1,0 0,-3 1,0 0,-2 1,0 0,-3 1,0 0,-2 1,0 0,-2 1,0 0,-3 1,0 0,-2 1,0 0,-3 1,0 0,-2 1,0 0,-2 1,0 0,-3 1,0 0,-2 1,0 0,-3 1,0 0,-2 1,0 0,-3 1,0 0,-2 1,0 0,-2 1,0 0,-3 1,0 0,-2 1,0 0,-3 1,0 0,-2 1,0 0,-2 1,0 0,-3 1,0 0,-2 1,0 0,-3 1,0 0,-2 1,0 0,-3 1,0 0,-2 1,0 0,-2 1,0 0,-3 1,0 0,-2 1,0 0,-3 1,0 0,-2 1,0 0,-2 1,0 0,-3 1,0 0,-2 1,0 0,-3 1,0 0,-2 1,0 0,-2 1,0 0,-3 1,0 0,-2 1,0 0,-3 1,0 0,-2 1,0 0,-3 1,0 0,-2 1,0 0,-2 1,0 0,-3 1,0 0,-2 1,0 0,-3 1,0 0,-2 1,0 0,-2 1,0 0,-3 1,0 0,-2 1,0 0,-3 1,0 0,-2 1,0 0,-3 1,0 0,-2 1,0 0,-2 1,0 0,-3 1,0 0,-2 1,0 0,-3 1,0 0,-2 1,0 0,-2 1,0 0,-3 1,0 0,-2 1,0 0,-3 1,0 0,-2 1,0 0,-2 1,0 0,-3 1,0 0,-2 1,0 0,-3 1,0 0,-2 1,0 0,-3 1,0 0,-2 1,0 0,-2 1,0 0,-3 1,0 0,-2 1,0 0,-3 1,0 0,-2 1,0 0,-2 1,0 0,-3 1,0 0,-2 1,0 0,-3 1,0 0,-2 1,0 0,-3 1,0 0,-2 1,0 0,-2 1,0 0,-3 1,0 0,-2 1,0 0,-3 1,0 0,-2 1,0 0,-2 1,0 0,-3 1,0 0,-2 1,0 0,-3 1,0 0,-2 1,0 0,-3 1,0 0,-2 1,0 0,-2 1,0 0,-3 1,0 0,-2 1,0 0,-3 1,0 0,-2 1,0 0,-2 1,0 0,-3 1,0 0,-2 1,0 0,-3 1,0 0,-2 1,0 0,-2 1,0 0,-3 1,0 0,-2 1,0 0,-3 1,0 0,-2 1,0 0,-3 1,0 0,-2 1,0 0,-2 1,0 0,-3 1,0 0,-2 1,0 0,-3 1,0 0,-2 1,0 0,-2 1,0 0,-3 1,0 0,-2 1,0 0,-3 1,0 0,-2 1,0 0,-3 1,0 0,-2 1,0 0,-2 1,0 0,-3 1,0 0,-2 1,0 0,-3 1,0 0,-2 1,0 0,-2 1,0 0,-3 1,0 0,-2 1,0 0,-3 1,0 0,-2 1,0 0,-2 1,0 0,-3 1,0 0,-2 1,0 0,-3 1,0 0,-2 1,0 0,-3 1,0 0,-2 1,0 0,-2 1,0 0,-3 1,0 0,-2 1,0 0,-3 1,0 0,-2 1,0 0,-2 1,0 0,-3 1,0 0,-2 1,0 0,-3 1,0 0,-2 1,0 0,-3 1,0 0,-2 1,0 0,-2 1,0 0,-3 1,0 0,-2 1,0 0,-3 1,0 0,-2 1,0 0,-2 1,0 0,-3 1,0 0,-2 1,0 0,-3 1,0 0,-2 1,0 0,-3 1,0 0,-2 1,0 0,-2 1,0 0,-3 1,0 0,-2 1,0 0,-3 1,0 0,-2 1,0 0,-2 1,0 0,-3 1,0 0,-2 1,0 0,-3 1,0 0,-2 1,0 0,-2 1,0 0,-3 1,0 0,-2 1,0 0,-3 1,0 0,-2 1,0 0,-3 1,0 0,-2 1,0 0,-2 1,0 0,-3 1,0 0,-2 1,0 0,-3 1,0 0,-2 1,0 0,-2 1,0 0,-3 1,0 0,-2 1,0 0,-3 1,0 0,-2 1,0 0,-3 1,0 0,-2 1,0 0,-2 1,0 0,-3 1,0 0,-2 1,0 0,-3 1,0 0,-2 1,0 0,-2 1,0 0,-3 1,0 0,-2 1,0 0,-3 1,0 0,-2 1,0 0,-3 1,0 0,-2 1,0 0,-2 1,0 0,-3 1,0 0,-2 1,0 0,-3 1,0 0,-2 1,0 0,-2 1,0 0,-3 1,0 0,-2 1,0 0,-3 1,0 0,-2 1,0 0,-2 1,0 0,-3 1,0 0,-2 1,0 0,-3 1,0 0,-2 1,0 0,-3 1,0 0,-2 1,0 0,-2 1,0 0,-3 1,0 0,-2 1,0 0,-3 1,0 0,-2 1,0 0,-2 1,0 0,-3 1,0 0,-2 1,0 0,-3 1,0 0,-2 1,0 0,-3 1,0 0,-2 1,0 0,-2 1,0 0,-3 1,0 0,-2 1,0 0,-3 1,0 0,-2 1,0 0,-2 1,0 0,-3 1,0 0,-2 1,0 0,-3 1,0 0,-2 1,0 0,-2 1,0 0,-3 1,0 0,-2 1,0 0,-3 1,0 0,-2 1,0 0,-3 1,0 0,-2 1,0 0,-2 1,0 0,-3 1,0 0,-2 1,0 0,-3 1,0 0,-2 1,0 0,-2 1,0 0,-3 1,0 0,-2 1,0 0,-3 1,0 0,-2 1,0 0,-3 1,0 0,-2 1,0 0,-2 1,0 0,-3 1,0 0,-2 1,0 0,-3 1,0 0,-2 1,0 0,-2 1,0 0,-3 1,0 0,-2 1,0 0,-3 1,0 0,-2 1,0 0,-3 1,0 0,-2 1,0 0,-2 1,0 0,-3 1,0 0,-2 1,0 0,-3 1,0 0,-2 1,0 0,-2 1,0 0,-3 1,0 0,-2 1,0 0,-3 1,0 0,-2 1,0 0,-2 1,0 0,-3 1,0 0,-2 1,0 0,-3 1,0 0,-2 1,0 0,-3 1,0 0,-2 1,0 0,-2 1,0 0,-3 1,0 0,-2 1,0 0,-3 1,0 0,-2 1,0 0,-2 1,0 0,-3 1,0 0,-2 1,0 0,-3 1,0 0,-2 1,0 0,-3 1,0 0,-2 1,0 0,-2 1,0 0,-3 1,0 0,-2 1,0 0,-3 1,0 0,-2 1,0 0,-2 1,0 0,-3 1,0 0,-2 1,0 0,-3 1,0 0,-2 1,0 0,-3 1,0 0,-2 1,0 0,-2 1,0 0,-3 1,0 0,-2 1,0 0,-3 1,0 0,-2 1,0 0,-2 1,0 0,-3 1,0 0,-2 1,0 0,-3 1,0 0,-2 1,0 0,-2 1,0 0,-3 1,0 0,-2 1,0 0,-3 1,0 0,-2 1,0 0,-3 1,0 0,-2 1,0 0,-2 1,0 0,-3 1,0 0,-2 1,0 0,-3 1,0 0,-2 1,0 0,-2 1,0 0,-3 1,0 0,-2 1,0 0,-3 1,0 0,-2 1,0 0,-3 1,0 0,-2 1,0 0,-349" /></g></g></g></g></g></svg>