<svg width="991.20001" height="827.875" xmlns="http://www.w3.org/2000/svg">
 <metadata id="metadata8">image/svg+xml</metadata>
 <defs>
  <clipPath clipPathUnits="userSpaceOnUse" id="clipPath34">
   <path d="m5.24219,6178.240234l7924.350095,0l0,289.992188l-7924.350095,0l0,-289.992188z" id="path36"/>
  </clipPath>
 </defs>
 <g>
  <title>Layer 1</title>
  <path fill="#00adef" fill-rule="nonzero" d="m0,447.392487c51.637749,-0.001251 88.006874,-0.003754 88.006874,-0.003754c3.700623,-0.157501 8.111748,-0.342499 13.454124,-0.568756c6.665504,-0.283752 15.131752,-0.642487 26.257751,-1.112488c6.979996,-0.295013 15.259995,-0.64624 25.232498,-1.068756c12.255005,-0.518738 27.663757,-1.171234 47.631256,-2.018738c12.377487,-0.523773 26.904999,-1.140015 44.191238,-1.871246c9.938751,-0.422516 20.920013,-0.886261 33.117493,-1.407501c1.952515,-0.08252 3.956268,-0.163757 5.982513,-0.252502l0,0.048737c0,0 83.888733,-0.023743 155.133728,-0.044983c51.893768,0.017487 405.596283,-0.117523 453.537506,-0.108765l95.95752,-43.649994l-95.95752,-41.948761c-44.159973,-0.014984 -393.801239,0.092499 -453.537506,0.052521c-80.46875,0.056244 -148.654999,0.097473 -154.691254,0.101227l0,-0.049988c-0.043732,0.017487 -0.08374,0.036255 -0.126221,0.049988c-0.19751,0 -0.316254,0 -0.316254,0l0,0.127502c-2.061249,0.827515 -4.097504,1.643768 -6.085022,2.440002c-12.1875,4.880005 -23.154984,9.283752 -33.084991,13.262512c-17.272491,6.92749 -31.788742,12.744995 -44.15625,17.707489c-19.956253,8 -35.361252,14.173767 -47.606247,19.08374c-9.971252,3.997498 -18.251251,7.315002 -25.228752,10.110016c-11.12162,4.463745 -19.585999,7.856232 -26.251495,10.526245c-5.377502,2.15625 -9.811127,3.940002 -13.529381,5.42749c0,0.006256 -36.335373,0.015015 -87.931623,0.023773l0,15.144989" id="path14"/>
  <path fill="#f68712" fill-rule="nonzero" d="m0,431.222504c51.619125,-0.01001 87.972122,-0.019989 87.972122,-0.019989c3.712502,-1.658752 8.130875,-3.638763 13.49025,-6.043762c6.664124,-2.982513 15.130371,-6.779999 26.251373,-11.763763c6.976257,-3.126221 15.252502,-6.83374 25.225006,-11.303741c12.247498,-5.486237 27.649994,-12.387482 47.604996,-21.332489c12.367508,-5.540009 26.878754,-12.047516 44.150009,-19.787506c9.928741,-4.44751 20.897491,-9.36499 33.082489,-14.823761c2.133759,-0.953735 4.32251,-1.936249 6.540009,-2.929993l0,-0.149994c0,0 83.612488,-0.105011 154.691254,-0.193756c52.014984,0.065002 406.018738,1.755005 453.537476,1.787506l95.95752,-45.79248l-95.95752,-41.056274c-47.518738,0 -608.228729,0.143738 -608.228729,0.143738l0,-0.288757c-0.121246,0.097534 -0.237518,0.192505 -0.357513,0.288757l-0.117493,0l0,0.095032c-2.088745,1.684998 -4.153748,3.352478 -6.16626,4.972473c-12.174988,9.811279 -23.132492,18.653748 -33.049988,26.653748c-17.256256,13.91626 -31.761246,25.617493 -44.119995,35.58252c-19.940002,16.089996 -35.336258,28.503754 -47.577499,38.378754c-9.96875,8.037476 -18.238754,14.709991 -25.216255,20.339996c-11.120377,8.966248 -19.586746,15.791229 -26.248871,21.166229c-5.375999,4.340027 -13.525375,10.995026 -13.525375,11.036255c0,0 -36.337379,0 -87.936999,0l0,15.04126" id="path16"/>
  <path fill="#fbbc09" fill-rule="nonzero" d="m0,414.061249c51.619125,-0.018738 87.972122,-0.032501 87.972122,-0.032501c3.712502,-3.16626 8.130875,-6.943756 13.494125,-11.518738c6.660248,-5.688751 15.124626,-12.91626 26.243752,-22.407501c6.978752,-5.95752 15.251244,-13.021271 25.217491,-21.528748c12.238754,-10.450012 27.633759,-23.589996 47.573761,-40.616272c12.356247,-10.556244 26.857498,-22.934967 44.116241,-37.667511c9.91626,-8.464966 20.877502,-17.822449 33.043762,-28.21376c2.123749,-1.8125 4.303741,-3.674988 6.512482,-5.559998c0,0 83.735016,-0.17749 154.833771,-0.326233c51.953735,0.108765 408.61499,0.232483 456.276245,0.29126l93.21875,-41.536255l-95.95752,-44.190002c-47.529968,0 -608.228729,0.141235 -608.228729,0.141235l0,-0.016235c-0.005005,0.005005 -0.008759,0.01001 -0.015015,0.016235l-0.671234,0l0,0.815002c-2.053772,2.491272 -4.090027,4.955017 -6.071259,7.35498c-12.160004,14.735046 -23.106262,28.005005 -33.014999,40.015015c-17.240005,20.892517 -31.730011,38.460022 -44.077499,53.428787c-19.931259,24.157471 -35.316254,42.804993 -47.552505,57.632477c-9.961258,12.080017 -18.233749,22.101257 -25.207504,30.552521c-11.115364,13.473755 -19.578362,23.734985 -26.23999,31.804993c-5.377876,6.518738 -13.526245,16.512512 -13.526245,16.570007c0,0 -36.338375,0 -87.940002,0l0,14.991241" id="path18"/>
  <path fill="#fff200" fill-rule="nonzero" d="m0,397.078735c51.619125,0 87.972122,0 87.972122,0c0,0 8.130875,-10.462494 13.495125,-17.213745c6.659248,-8.386261 15.123627,-19.046265 26.238998,-33.04126c6.973747,-8.782501 15.241249,-19.19873 25.206245,-31.742493c12.237503,-15.40625 27.621262,-34.776245 47.548752,-59.875015c12.347504,-15.549988 26.835007,-33.798767 44.075012,-55.502502c9.899994,-12.476257 20.85498,-26.26123 33.012482,-41.568726c2.173767,-2.735046 4.404999,-5.546265 6.66626,-8.392517c0,0 499.098785,-0.140015 608.330048,-0.140015l95.957458,-41.337456l-95.957458,-43.867554c-47.515015,0 -608.22879,0.138786 -608.22879,0.138786l0,-0.408745c-0.084991,0.138733 -0.168732,0.272461 -0.253754,0.408745l-0.13623,0l0,0.222481c-2.198761,3.55249 -4.368774,7.063782 -6.47876,10.47998c-12.147491,19.642517 -23.083755,37.330017 -32.979996,53.340019c-17.226257,27.858765 -31.702499,51.275024 -44.043762,71.233765c-10.641251,17.21875 -19.914993,32.217468 -28.069992,45.398743c-7.221252,11.686234 -13.667496,22.10878 -19.453751,31.461258c-9.958755,16.112488 -18.225006,29.481262 -25.200005,40.757507c-11.113121,17.975006 -19.569626,31.662506 -26.23275,42.432495c-5.376373,8.69751 -13.525375,22.024994 -13.525375,22.100006c0,0 -36.339375,0 -87.941871,0l0,15.116241" id="path20"/>
  <path fill="#ec008c" fill-rule="nonzero" d="m0,502.011261c51.637749,0.013763 88.006874,0.022491 88.006874,0.022491c3.707497,4.522522 8.111748,9.91626 13.452126,16.451233c6.663124,8.153748 15.138626,18.518738 26.272247,32.137512c6.988754,8.546265 15.277496,18.683777 25.264999,30.901245c12.270004,15.01001 27.706253,33.892517 47.716248,58.367493c12.40625,15.17749 26.976257,32.987549 44.310013,54.19751c9.969986,12.18866 20.986252,25.674866 33.226242,40.647644c1.972504,2.413513 3.992493,4.882263 6.035004,7.384766c0,0 83.606232,0.117615 154.723755,0.217712c52.022491,-0.075256 405.996216,-0.294861 453.537476,-0.334961l95.95752,41.927246l-95.95752,43.372559c-44.019958,0.013672 -393.742493,0.16748 -453.537476,0.211426c-81.181244,-0.055176 -149.821259,-0.097656 -154.691254,-0.099121l0,0.458984c-0.097504,-0.153809 -0.193756,-0.305176 -0.29126,-0.458984l-0.007477,0l0,-0.012207c-1.917511,-3.032715 -3.812531,-6.035156 -5.668762,-8.970215c-12.253754,-19.389587 -23.278748,-36.844727 -33.256256,-52.631348c-17.351242,-27.454651 -31.929993,-50.514648 -44.342499,-70.158508c-10.702499,-16.933716 -20.021255,-31.683716 -28.213745,-44.640015c-7.252502,-11.481201 -13.721252,-21.716248 -19.527512,-30.902466c-9.993744,-15.807495 -18.284988,-28.92749 -25.273743,-39.98877c-11.138374,-17.618774 -19.610504,-31.03125 -26.279373,-41.58374c-5.380882,-8.511292 -9.816505,-15.532532 -13.536629,-21.41626c0,-0.007507 -36.329124,-0.015015 -87.918999,-0.025024l0,-15.076202" id="path22"/>
  <path fill="#bd0c8d" fill-rule="nonzero" d="m0,499.861237c51.592251,0.022491 87.922379,0.047485 87.922379,0.065002c3.716751,4.375 8.155251,9.586243 13.533249,15.916229c6.666504,7.841248 15.140999,17.80249 26.275627,30.89502c6.988747,8.217468 15.276253,17.959961 25.263756,29.706238c12.27124,14.424988 27.702499,32.581238 47.713745,56.106262c12.401245,14.591248 26.96875,31.711243 44.302505,52.097473c9.966248,11.721252 20.984985,24.673767 33.225006,39.069763c1.932495,2.271484 3.911224,4.597778 5.913727,6.951782l0,0.11322c0,0 0.033752,0 0.096252,0c0.023743,0.027771 0.046265,0.056641 0.070007,0.08252l0,-0.08252c3.617493,0.007751 72.752502,0.119141 154.691254,0.277771c59.841248,-0.115112 409.631226,-0.345154 453.537476,-0.388611l95.95752,-43.877686l-95.95752,-41.727478c-47.597473,0.061279 -401.519958,0.258728 -453.537476,0.367493c-71.161255,-0.151245 -154.790009,-0.327515 -154.790009,-0.327515c-2.059998,-1.684998 -4.097473,-3.346191 -6.084991,-4.972473c-12.225006,-9.98999 -23.228745,-18.984985 -33.188751,-27.11499c-17.323746,-14.155029 -31.875,-26.038757 -44.269989,-36.168762c-20,-16.335022 -35.426254,-28.9375 -47.693756,-38.95874c-9.982498,-8.155029 -18.266251,-14.924988 -25.252495,-20.630005c-11.130882,-9.09375 -19.603004,-16.013733 -26.267502,-21.459991c-5.360878,-4.378754 -9.775375,-7.987488 -13.487877,-11.016235c0,0 -36.353001,-0.015015 -87.972122,-0.033752l0,15.109985" id="path24"/>
  <path fill="#8d198f" fill-rule="nonzero" d="m0,480.702515c51.592751,0.015015 87.924751,0.029999 87.924751,0.042511c3.718376,2.861237 8.152878,6.276245 13.534248,10.414978c6.665504,5.132507 15.137627,11.653748 26.268501,20.214996c6.987495,5.375 15.269997,11.753723 25.252495,19.440002c12.262512,9.438721 27.692505,21.311218 47.6875,36.701233c12.395004,9.542542 26.946259,20.735046 44.264999,34.067505c9.958755,7.663757 20.961243,16.136292 33.191254,25.545044c1.967499,1.517456 3.985016,3.068726 6.026245,4.641235l0,0.111267c0,0 0.058746,0 0.147491,0c0.005005,0.006226 0.012512,0.009949 0.018768,0.014954l0,-0.014954c3.617493,0.003723 72.751251,0.071228 154.691254,0.168701c59.841248,-0.071228 409.631226,-0.263733 453.537476,-0.289978l95.95752,-43.549988l-95.95752,-42.126282c-47.662476,0.028748 -401.54248,0.195007 -453.537476,0.251282c-71.184998,-0.075012 -154.857513,-0.161255 -154.857513,-0.161255l0,0.007507c-2.076233,-0.85376 -4.129974,-1.698792 -6.131226,-2.52002c-12.213776,-5.013733 -23.20752,-9.536255 -33.156265,-13.619995c-17.306244,-7.112488 -31.847504,-13.08252 -44.233749,-18.172485c-19.979996,-8.210022 -35.401245,-14.542511 -47.662491,-19.583771c-9.977509,-4.098755 -18.258759,-7.5 -25.243752,-10.368744c-11.126755,-4.570007 -19.598,-8.05249 -26.262505,-10.790009c-5.352127,-2.197479 -9.765121,-4.013733 -13.472252,-5.534973c0,0 -36.359871,-0.007507 -87.987744,-0.016266l0,15.127502" id="path26"/>
  <path fill="#0b8ed8" fill-rule="nonzero" d="m0,464.547485c51.594749,0.006256 87.928749,0.011261 87.928749,0.016235c3.71875,1.355011 8.150871,2.967529 13.53125,4.925018c6.666496,2.419983 15.136627,5.5 26.262505,9.544983c6.985001,2.540009 15.264999,5.548767 25.243744,9.178772c12.258759,4.457489 27.678757,10.061249 47.658752,17.326233c12.387497,4.502502 26.925003,9.790009 44.228745,16.081268c9.947495,3.612488 20.941238,7.613708 33.155014,12.05249c1.966248,0.714966 3.983734,1.450012 6.026245,2.191223l0,0.16626c0,0 70.737488,0.027527 154.972504,0.066223c59.791229,-0.026245 409.512512,-0.173706 453.537476,-0.184998l95.95752,-44.398712l-95.95752,-40.992493c-47.512451,0 -608.228729,0.138733 -608.228729,0.138733l0,-0.306244c-2.173767,-0.01123 -4.320007,-0.022491 -6.412506,-0.03125c-12.200012,-0.059998 -23.18251,-0.113739 -33.119995,-0.161255c-17.290009,-0.087494 -31.816254,-0.15625 -44.195007,-0.216248c-19.972504,-0.098755 -35.382492,-0.173737 -47.634995,-0.233734c-9.973755,-0.05127 -18.255005,-0.091248 -25.233749,-0.122498c-11.124252,-0.056274 -19.595505,-0.095001 -26.260002,-0.127502c-5.376503,-0.027496 -9.811501,-0.050018 -13.530754,-0.067505l0,0.01001c0,0 -36.334496,0 -87.929249,0l0,15.144989" id="path28"/>
 </g>
</svg>